# Blender 3.3.1
# www.blender.org
o Bookshelf
v -1.159162 -0.023517 0.377999
v -1.159162 0.023517 0.377999
v -1.159162 -0.023517 -0.377999
v -1.159162 0.023517 -0.377999
v 1.159162 -0.023517 0.377999
v 1.159162 0.023517 0.377999
v 1.159162 -0.023517 -0.377999
v 1.159162 0.023517 -0.377999
v -1.159162 4.367530 0.377999
v -1.159162 4.414563 0.377999
v -1.159162 4.367530 -0.377999
v -1.159162 4.414563 -0.377999
v 1.159162 4.367530 0.377999
v 1.159162 4.414563 0.377999
v 1.159162 4.367530 -0.377999
v 1.159162 4.414563 -0.377999
v 1.129159 3.778886 -0.301590
v 1.129159 3.750505 -0.301590
v 1.129159 3.778886 0.301590
v 1.129159 3.750505 0.301590
v -1.129159 3.778886 -0.301590
v -1.129159 3.750505 -0.301590
v -1.129159 3.778886 0.301590
v -1.129159 3.750505 0.301590
v 1.129159 3.151669 -0.301590
v 1.129159 3.123288 -0.301590
v 1.129159 3.151669 0.301590
v 1.129159 3.123288 0.301590
v -1.129159 3.151669 -0.301590
v -1.129159 3.123288 -0.301590
v -1.129159 3.151669 0.301590
v -1.129159 3.123288 0.301590
v 1.129159 2.524450 -0.301590
v 1.129159 2.496069 -0.301590
v 1.129159 2.524450 0.301590
v 1.129159 2.496069 0.301590
v -1.129159 2.524450 -0.301590
v -1.129159 2.496069 -0.301590
v -1.129159 2.524450 0.301590
v -1.129159 2.496069 0.301590
v 1.129159 1.897232 -0.301590
v 1.129159 1.868852 -0.301590
v 1.129159 1.897232 0.301590
v 1.129159 1.868852 0.301590
v -1.129159 1.897232 -0.301590
v -1.129159 1.868852 -0.301590
v -1.129159 1.897232 0.301590
v -1.129159 1.868852 0.301590
v 1.129159 1.270014 -0.301590
v 1.129159 1.241633 -0.301590
v 1.129159 1.270014 0.301590
v 1.129159 1.241633 0.301590
v -1.129159 1.270014 -0.301590
v -1.129159 1.241633 -0.301590
v -1.129159 1.270014 0.301590
v -1.129159 1.241633 0.301590
v 1.129159 0.642796 -0.301590
v 1.129159 0.614415 -0.301590
v 1.129159 0.642796 0.301590
v 1.129159 0.614415 0.301590
v -1.129159 0.642796 -0.301590
v -1.129159 0.614415 -0.301590
v -1.129159 0.642796 0.301590
v -1.129159 0.614415 0.301590
v 1.103456 4.374162 0.341038
v 1.150489 4.374162 0.341038
v 1.103455 4.374162 -0.341038
v 1.150489 4.374162 -0.341038
v 1.103456 -0.002704 0.341038
v 1.150489 -0.002704 0.341038
v 1.103456 -0.002704 -0.341038
v 1.150489 -0.002704 -0.341038
v -1.103456 4.374162 0.341038
v -1.150489 4.374162 0.341038
v -1.103456 4.374162 -0.341038
v -1.150489 4.374162 -0.341038
v -1.103456 -0.002704 0.341038
v -1.150489 -0.002704 0.341038
v -1.103456 -0.002704 -0.341038
v -1.150489 -0.002704 -0.341038
vn -1.0000 -0.0000 -0.0000
vn -0.0000 -0.0000 -1.0000
vn 1.0000 -0.0000 -0.0000
vn -0.0000 -0.0000 1.0000
vn -0.0000 -1.0000 -0.0000
vn -0.0000 1.0000 -0.0000
vt 0.931575 0.810328
vt 0.931575 0.810328
vt 0.931575 0.810328
vt 0.931575 0.810328
vt 0.931575 0.810328
vt 0.931575 0.810328
vt 0.931575 0.810328
vt 0.931575 0.810328
vt 0.931575 0.810328
vt 0.931575 0.810328
vt 0.931575 0.810328
vt 0.931575 0.810328
vt 0.931575 0.810328
vt 0.931575 0.810328
vt 0.931575 0.810328
vt 0.931575 0.810328
vt 0.931575 0.810328
vt 0.931575 0.810328
vt 0.931575 0.810328
vt 0.931575 0.810328
vt 0.931575 0.810328
vt 0.931575 0.810328
vt 0.931575 0.810328
vt 0.931575 0.810328
vt 0.931575 0.810328
vt 0.931575 0.810328
vt 0.931575 0.810328
vt 0.931575 0.810328
vt 0.931575 0.810328
vt 0.931575 0.810328
vt 0.931575 0.810328
vt 0.931575 0.810328
vt 0.931575 0.810328
vt 0.931575 0.810328
vt 0.931575 0.810328
vt 0.931575 0.810328
vt 0.931575 0.810328
vt 0.931575 0.810328
vt 0.931575 0.810328
vt 0.931575 0.810328
vt 0.931575 0.810328
vt 0.931575 0.810328
vt 0.931575 0.810328
vt 0.931575 0.810328
vt 0.931575 0.810328
vt 0.931575 0.810328
vt 0.931575 0.810328
vt 0.931575 0.810328
vt 0.931575 0.810328
vt 0.931575 0.810328
vt 0.931575 0.810328
vt 0.931575 0.810328
vt 0.931575 0.810328
vt 0.931575 0.810328
vt 0.931575 0.810328
vt 0.931575 0.810328
vt 0.931575 0.810328
vt 0.931575 0.810328
vt 0.931575 0.810328
vt 0.931575 0.810328
vt 0.931575 0.810328
vt 0.931575 0.810328
vt 0.931575 0.810328
vt 0.931575 0.810328
vt 0.931575 0.810328
vt 0.931575 0.810328
vt 0.931575 0.810328
vt 0.931575 0.810328
vt 0.931575 0.810328
vt 0.931575 0.810328
vt 0.931575 0.810328
vt 0.931575 0.810328
vt 0.931575 0.810328
vt 0.931575 0.810328
vt 0.931575 0.810328
vt 0.931575 0.810328
vt 0.931575 0.810328
vt 0.931575 0.810328
vt 0.931575 0.810328
vt 0.931575 0.810328
s 0
f 1/1/1 2/2/1 4/4/1 3/3/1
f 3/3/2 4/4/2 8/8/2 7/7/2
f 7/7/3 8/8/3 6/6/3 5/5/3
f 5/5/4 6/6/4 2/2/4 1/1/4
f 3/3/5 7/7/5 5/5/5 1/1/5
f 8/8/6 4/4/6 2/2/6 6/6/6
f 9/9/1 10/10/1 12/12/1 11/11/1
f 11/11/2 12/12/2 16/16/2 15/15/2
f 15/15/3 16/16/3 14/14/3 13/13/3
f 13/13/4 14/14/4 10/10/4 9/9/4
f 11/11/5 15/15/5 13/13/5 9/9/5
f 16/16/6 12/12/6 10/10/6 14/14/6
f 22/22/5 18/18/5 20/20/5 24/24/5
f 22/22/2 21/21/2 17/17/2 18/18/2
f 24/24/1 23/23/1 21/21/1 22/22/1
f 20/20/4 19/19/4 23/23/4 24/24/4
f 17/17/6 21/21/6 23/23/6 19/19/6
f 18/18/3 17/17/3 19/19/3 20/20/3
f 30/30/5 26/26/5 28/28/5 32/32/5
f 30/30/2 29/29/2 25/25/2 26/26/2
f 32/32/1 31/31/1 29/29/1 30/30/1
f 28/28/4 27/27/4 31/31/4 32/32/4
f 25/25/6 29/29/6 31/31/6 27/27/6
f 26/26/3 25/25/3 27/27/3 28/28/3
f 38/38/5 34/34/5 36/36/5 40/40/5
f 38/38/2 37/37/2 33/33/2 34/34/2
f 40/40/1 39/39/1 37/37/1 38/38/1
f 36/36/4 35/35/4 39/39/4 40/40/4
f 33/33/6 37/37/6 39/39/6 35/35/6
f 34/34/3 33/33/3 35/35/3 36/36/3
f 46/46/5 42/42/5 44/44/5 48/48/5
f 46/46/2 45/45/2 41/41/2 42/42/2
f 48/48/1 47/47/1 45/45/1 46/46/1
f 44/44/4 43/43/4 47/47/4 48/48/4
f 41/41/6 45/45/6 47/47/6 43/43/6
f 42/42/3 41/41/3 43/43/3 44/44/3
f 54/54/5 50/50/5 52/52/5 56/56/5
f 54/54/2 53/53/2 49/49/2 50/50/2
f 56/56/1 55/55/1 53/53/1 54/54/1
f 52/52/4 51/51/4 55/55/4 56/56/4
f 49/49/6 53/53/6 55/55/6 51/51/6
f 50/50/3 49/49/3 51/51/3 52/52/3
f 62/62/5 58/58/5 60/60/5 64/64/5
f 62/62/2 61/61/2 57/57/2 58/58/2
f 64/64/1 63/63/1 61/61/1 62/62/1
f 60/60/4 59/59/4 63/63/4 64/64/4
f 57/57/6 61/61/6 63/63/6 59/59/6
f 58/58/3 57/57/3 59/59/3 60/60/3
f 65/65/6 66/66/6 68/68/6 67/67/6
f 67/67/2 68/68/2 72/72/2 71/71/2
f 71/71/5 72/72/5 70/70/5 69/69/5
f 69/69/4 70/70/4 66/66/4 65/65/4
f 67/67/1 71/71/1 69/69/1 65/65/1
f 72/72/3 68/68/3 66/66/3 70/70/3
f 73/73/6 75/75/6 76/76/6 74/74/6
f 75/75/2 79/79/2 80/80/2 76/76/2
f 79/79/5 77/77/5 78/78/5 80/80/5
f 77/77/4 73/73/4 74/74/4 78/78/4
f 75/75/3 73/73/3 77/77/3 79/79/3
f 80/80/1 78/78/1 74/74/1 76/76/1
