# Blender 3.3.1
# www.blender.org
o Carpet_Round
v -0.400543 -0.000000 -1.100479
v -0.000001 -0.000000 -1.123413
v -0.752773 -0.000000 -0.897118
v 0.384229 -0.000000 -1.055663
v -1.014207 -0.000000 -0.585552
v 0.722115 -0.000000 -0.860584
v -1.153314 -0.000000 -0.203360
v 0.972903 -0.000000 -0.561706
v -1.153314 -0.000000 0.203361
v 1.106345 -0.000000 -0.195079
v -1.014207 -0.000000 0.585553
v 1.106345 -0.000000 0.195078
v -0.752772 -0.000000 0.897118
v 0.972903 -0.000000 0.561706
v -0.400542 -0.000000 1.100479
v 0.722115 -0.000000 0.860584
v -0.000000 -0.000000 1.171105
v 0.384229 -0.000000 1.055662
v 0.400541 -0.000000 1.100478
v -0.000000 -0.000000 1.123412
v 0.752771 -0.000000 0.897118
v -0.384230 -0.000000 1.055662
v 1.014206 -0.000000 0.585552
v -0.722116 -0.000000 0.860584
v 1.153313 -0.000000 0.203360
v -0.972904 -0.000000 0.561706
v 1.153313 -0.000000 -0.203360
v -1.106346 -0.000000 0.195079
v 1.014206 -0.000000 -0.585553
v -1.106346 -0.000000 -0.195078
v 0.752771 -0.000000 -0.897119
v -0.972905 -0.000000 -0.561706
v -0.000001 -0.000000 -1.171105
v -0.722117 -0.000000 -0.860584
v 0.400541 -0.000000 -1.100479
v -0.384231 -0.000000 -1.055662
v -0.000001 -0.000000 -1.265594
v -0.432860 -0.000000 -1.189269
v -0.813509 -0.000000 -0.969501
v -1.096037 -0.000000 -0.632796
v -1.246367 -0.000000 -0.219768
v -1.246367 -0.000000 0.219768
v -1.096037 -0.000000 0.632797
v -0.813508 -0.000000 0.969501
v -0.432859 -0.000000 1.189269
v -0.000000 -0.000000 1.265593
v 0.432858 -0.000000 1.189269
v 0.813507 -0.000000 0.969501
v 1.096036 -0.000000 0.632797
v 1.246366 -0.000000 0.219768
v 1.246366 -0.000000 -0.219768
v 1.096036 -0.000000 -0.632797
v 0.813507 -0.000000 -0.969501
v 0.432858 -0.000000 -1.189269
v -0.350307 0.015736 -1.109336
v -0.336040 0.015736 1.064159
v -0.350306 0.015736 1.109336
v -0.336041 0.015736 -1.064160
v -0.378571 0.015736 -1.198841
v -0.378570 0.015736 1.198842
v -0.243084 -0.000000 1.080550
v -0.253403 -0.000000 1.126423
v -0.273849 -0.000000 1.217307
v -0.253404 -0.000000 -1.126423
v -0.243084 -0.000000 -1.080550
v -0.273849 -0.000000 -1.217307
v 0.920631 0.005966 -0.624002
v 0.920631 0.005966 0.624001
v 0.959715 -0.000000 0.650492
v 0.959715 -0.000000 -0.650493
v 1.037148 -0.000000 0.702976
v 1.037148 -0.000000 -0.702977
v 0.869032 -0.000000 -0.685495
v 0.905926 -0.000000 -0.714596
v 0.979019 -0.000000 -0.772252
v 0.869032 -0.000000 0.685494
v 0.905926 -0.000000 0.714596
v 0.979019 -0.000000 0.772252
vn -0.0000 1.0000 -0.0000
vn -0.0062 0.9998 -0.0172
vn 0.0069 0.9998 -0.0179
vn 0.0753 0.9971 0.0103
vn 0.0762 0.9969 0.0206
vn -0.1678 0.9854 0.0274
vn -0.1411 0.9888 0.0479
vn -0.0091 0.9997 0.0210
vn 0.0244 0.9995 0.0191
vn 0.0151 0.9999 0.0022
vn 0.0630 0.9980 0.0028
vn 0.0151 0.9999 -0.0022
vn 0.0630 0.9980 -0.0028
vn -0.1411 0.9888 -0.0479
vn -0.1678 0.9854 -0.0274
vn -0.0483 0.9988 0.0114
vn -0.0663 0.9974 0.0279
vn 0.0760 0.9969 0.0205
vn -0.0815 0.9961 0.0325
vn -0.1378 0.9893 0.0468
vn -0.1378 0.9893 -0.0468
vn 0.0753 0.9971 -0.0103
vn -0.0483 0.9988 -0.0114
vn 0.0762 0.9969 -0.0206
vn 0.0760 0.9969 -0.0205
vn -0.0815 0.9961 -0.0325
vn -0.0663 0.9974 -0.0279
vn -0.0062 0.9998 0.0172
vn -0.0091 0.9997 -0.0210
vn 0.0069 0.9998 0.0179
vn 0.0244 0.9995 -0.0191
vt 0.445027 0.309043
vt 0.187137 0.307075
vt 0.445027 0.309043
vt 0.187137 0.307075
vt 0.445027 0.309043
vt 0.187137 0.307075
vt 0.445027 0.309043
vt 0.187137 0.307075
vt 0.445027 0.309043
vt 0.187137 0.307075
vt 0.445027 0.309043
vt 0.187137 0.307075
vt 0.445027 0.309043
vt 0.187137 0.307075
vt 0.187137 0.307075
vt 0.445027 0.309043
vt 0.445027 0.309043
vt 0.187137 0.307075
vt 0.445027 0.309043
vt 0.187137 0.307075
vt 0.445027 0.309043
vt 0.187137 0.307075
vt 0.445027 0.309043
vt 0.187137 0.307075
vt 0.445027 0.309043
vt 0.187137 0.307075
vt 0.445027 0.309043
vt 0.187137 0.307075
vt 0.187137 0.307075
vt 0.445027 0.309043
vt 0.445027 0.309043
vt 0.187137 0.307075
vt 0.445027 0.309043
vt 0.187137 0.307075
vt 0.445027 0.309043
vt 0.187137 0.307075
vt 0.445027 0.309043
vt 0.187137 0.307075
vt 0.445027 0.309043
vt 0.187137 0.307075
vt 0.445027 0.309043
vt 0.187137 0.307075
vt 0.187137 0.307075
vt 0.445027 0.309043
vt 0.445027 0.309043
vt 0.187137 0.307075
vt 0.445027 0.309043
vt 0.187137 0.307075
vt 0.445027 0.309043
vt 0.187137 0.307075
vt 0.445027 0.309043
vt 0.187137 0.307075
vt 0.445027 0.309043
vt 0.187137 0.307075
vt 0.445027 0.309043
vt 0.187137 0.307075
vt 0.187137 0.307075
vt 0.445027 0.309043
vt 0.445027 0.309043
vt 0.187137 0.307075
vt 0.445027 0.309043
vt 0.187137 0.307075
vt 0.445027 0.309043
vt 0.187137 0.307075
vt 0.445027 0.309043
vt 0.187137 0.307075
vt 0.445027 0.309043
vt 0.187137 0.307075
vt 0.445027 0.309043
vt 0.187137 0.307075
vt 0.445027 0.309043
vt 0.187137 0.307075
vt 0.187137 0.307075
vt 0.187137 0.307075
vt 0.187137 0.307075
vt 0.187137 0.307075
vt 0.187137 0.307075
vt 0.187137 0.307075
vt 0.187137 0.307075
vt 0.187137 0.307075
vt 0.187137 0.307075
vt 0.187137 0.307075
vt 0.187137 0.307075
vt 0.187137 0.307075
vt 0.187137 0.307075
vt 0.187137 0.307075
vt 0.187137 0.307075
vt 0.187137 0.307075
vt 0.187137 0.307075
vt 0.187137 0.307075
vt 0.187137 0.307075
vt 0.445027 0.309043
vt 0.187137 0.307075
vt 0.445027 0.309043
vt 0.187137 0.307075
vt 0.445027 0.309043
vt 0.187137 0.307075
vt 0.445027 0.309043
vt 0.187137 0.307075
vt 0.187137 0.307075
vt 0.187137 0.307075
vt 0.445027 0.309043
vt 0.187137 0.307075
vt 0.445027 0.309043
vt 0.187137 0.307075
vt 0.445027 0.309043
vt 0.187137 0.307075
vt 0.445027 0.309043
vt 0.187137 0.307075
vt 0.187137 0.307075
vt 0.187137 0.307075
vt 0.445027 0.309043
vt 0.187137 0.307075
vt 0.445027 0.309043
vt 0.187137 0.307075
vt 0.445027 0.309043
vt 0.187137 0.307075
vt 0.445027 0.309043
vt 0.187137 0.307075
vt 0.187137 0.307075
vt 0.187137 0.307075
vt 0.445027 0.309043
vt 0.187137 0.307075
vt 0.445027 0.309043
vt 0.187137 0.307075
vt 0.445027 0.309043
vt 0.187137 0.307075
vt 0.445027 0.309043
vt 0.187137 0.307075
vt 0.187137 0.307075
s 1
f 28/55/1 9/17/1 11/21/1 26/51/1
f 4/7/1 35/69/1 33/65/1 2/3/1
f 18/35/1 19/37/1 21/41/1 16/31/1
f 73/122/2 74/124/3 31/61/1 6/11/1
f 32/63/1 5/9/1 7/13/1 30/59/1
f 61/102/4 62/104/5 17/33/1 20/39/1
f 12/23/1 25/49/1 27/53/1 10/19/1
f 36/71/6 1/1/7 3/5/1 34/67/1
f 26/51/1 11/21/1 13/25/1 24/47/1
f 68/114/8 69/116/9 23/45/10 14/27/11
f 6/11/1 31/61/1 35/69/1 4/7/1
f 30/59/1 7/13/1 9/17/1 28/55/1
f 20/39/1 17/33/1 19/37/1 18/35/1
f 10/19/1 27/53/1 29/58/12 8/16/13
f 34/67/1 3/5/1 5/9/1 32/63/1
f 24/47/1 13/25/1 15/30/14 22/44/15
f 4/8/1 2/4/1 20/40/1 18/36/1 16/32/1 6/12/1
f 14/27/11 23/45/10 25/49/1 12/23/1
f 58/98/16 55/92/17 1/1/7 36/71/6
f 5/10/1 40/76/1 41/77/1 7/14/1
f 25/50/1 50/86/1 51/87/1 27/54/1
f 62/103/5 63/105/18 46/82/1 17/34/1
f 17/34/1 46/82/1 47/83/1 19/38/1
f 7/14/1 41/77/1 42/78/1 9/18/1
f 27/54/1 51/87/1 52/88/1 29/57/12
f 9/18/1 42/78/1 43/79/1 11/22/1
f 74/123/3 75/125/1 53/89/1 31/62/1
f 55/91/17 59/99/19 38/74/20 1/2/7
f 19/38/1 47/83/1 48/84/1 21/42/1
f 1/2/7 38/74/20 39/75/1 3/6/1
f 69/115/9 71/119/1 49/85/1 23/46/10
f 11/22/1 43/79/1 44/80/1 13/26/1
f 31/62/1 53/89/1 54/90/1 35/70/1
f 13/26/1 44/80/1 45/81/21 15/29/14
f 35/70/1 54/90/1 37/73/1 33/66/1
f 3/6/1 39/75/1 40/76/1 5/10/1
f 23/46/10 49/85/1 50/86/1 25/50/1
f 65/109/22 58/97/16 56/93/23 61/101/4
f 36/72/6 34/68/1 32/64/1 30/60/1 28/56/1 26/52/1 24/48/1 22/43/15
f 58/97/16 36/72/6 22/43/15 56/93/23
f 64/107/24 66/110/25 59/99/19 55/91/17
f 15/29/14 45/81/21 60/100/26 57/95/27
f 65/108/22 64/106/24 55/92/17 58/98/16
f 22/44/15 15/30/14 57/96/27 56/94/23
f 2/3/1 33/65/1 64/106/24 65/108/22
f 33/66/1 37/73/1 66/110/25 64/107/24
f 2/4/1 65/109/22 61/101/4 20/40/1
f 57/95/27 60/100/26 63/105/18 62/103/5
f 56/94/23 57/96/27 62/104/5 61/102/4
f 76/127/28 68/113/8 67/111/29 73/121/2
f 68/113/8 14/28/11 8/15/13 67/111/29
f 14/28/11 12/24/1 10/20/1 8/15/13
f 77/129/30 78/130/1 71/119/1 69/115/9
f 29/57/12 52/88/1 72/120/1 70/117/31
f 76/126/28 77/128/30 69/116/9 68/114/8
f 8/16/13 29/58/12 70/118/31 67/112/29
f 16/31/1 21/41/1 77/128/30 76/126/28
f 21/42/1 48/84/1 78/130/1 77/129/30
f 16/32/1 76/127/28 73/121/2 6/12/1
f 70/117/31 72/120/1 75/125/1 74/123/3
f 67/112/29 70/118/31 74/124/3 73/122/2
