# Blender 3.3.1
# www.blender.org
o Coffee_Table_2
v -0.262340 0.055012 0.474226
v -0.265096 0.211894 0.476982
v -0.262340 0.055012 0.412872
v -0.265096 0.211894 0.410116
v -0.200986 0.055012 0.474226
v -0.198230 0.211894 0.476982
v -0.200986 0.055012 0.412872
v -0.198230 0.211894 0.410116
v -0.265096 0.278636 0.476982
v -0.198230 0.278636 0.410116
v -0.294427 0.335183 0.508116
v -0.294427 0.278636 0.508116
v -0.262340 0.000000 0.412872
v -0.262340 0.000000 0.474226
v -0.200986 0.000000 0.412872
v -0.200986 0.000000 0.474226
v 0.262340 0.055012 0.474226
v 0.265096 0.211894 0.476982
v 0.262340 0.055012 0.412872
v 0.265096 0.211894 0.410116
v 0.200986 0.055012 0.474226
v 0.198230 0.211894 0.476982
v 0.200986 0.055012 0.412872
v 0.198230 0.211894 0.410116
v 0.265096 0.278636 0.476982
v 0.198230 0.278636 0.410116
v 0.294427 0.335183 0.508116
v 0.294427 0.278636 0.508116
v 0.000000 0.211894 0.410116
v 0.000000 0.211894 0.476982
v 0.000000 0.278636 0.410116
v 0.000000 0.278636 0.476982
v 0.000000 0.335183 0.508116
v 0.000000 0.278636 0.508116
v 0.262340 0.000000 0.412872
v 0.262340 0.000000 0.474226
v 0.200986 0.000000 0.412872
v 0.200986 0.000000 0.474226
v -0.262340 0.055012 -0.474226
v -0.265096 0.211894 -0.476982
v -0.262340 0.055012 -0.412872
v -0.265096 0.211894 -0.410116
v -0.200986 0.055012 -0.474226
v -0.198230 0.211894 -0.476982
v -0.200986 0.055012 -0.412872
v -0.198230 0.211894 -0.410116
v -0.265096 0.278636 -0.476982
v -0.198230 0.278636 -0.410116
v -0.294427 0.335183 -0.508116
v -0.294427 0.278636 -0.508116
v -0.265096 0.211894 0.000000
v -0.198230 0.211894 0.000000
v -0.265096 0.278636 0.000000
v -0.198230 0.278636 0.000000
v -0.294427 0.335183 0.000000
v -0.294427 0.278636 0.000000
v -0.262340 0.000000 -0.412872
v -0.262340 0.000000 -0.474226
v -0.200986 0.000000 -0.412872
v -0.200986 0.000000 -0.474226
v 0.262340 0.055012 -0.474226
v 0.265096 0.211894 -0.476982
v 0.262340 0.055012 -0.412872
v 0.265096 0.211894 -0.410116
v 0.200986 0.055012 -0.474226
v 0.198230 0.211894 -0.476982
v 0.200986 0.055012 -0.412872
v 0.198230 0.211894 -0.410116
v 0.265096 0.278636 -0.476982
v 0.198230 0.278636 -0.410116
v 0.294427 0.335183 -0.508116
v 0.294427 0.278636 -0.508116
v 0.000000 0.211894 -0.410116
v 0.000000 0.211894 -0.476982
v 0.000000 0.278636 -0.410116
v 0.000000 0.278636 -0.476982
v 0.000000 0.335183 -0.508116
v 0.000000 0.278636 -0.508116
v 0.265096 0.211894 0.000000
v 0.198230 0.211894 0.000000
v 0.265096 0.278636 0.000000
v 0.198230 0.278636 0.000000
v 0.294427 0.335183 0.000000
v 0.294427 0.278636 0.000000
v 0.000000 0.278636 0.000000
v 0.000000 0.335183 0.000000
v 0.262340 0.000000 -0.412872
v 0.262340 0.000000 -0.474226
v 0.200986 0.000000 -0.412872
v 0.200986 0.000000 -0.474226
vn -0.9998 -0.0176 -0.0000
vn -0.0000 -0.0176 -0.9998
vn 0.9998 -0.0176 -0.0000
vn -0.0000 -0.0176 0.9998
vn -0.0000 1.0000 -0.0000
vn -0.0000 -1.0000 -0.0000
vn 1.0000 -0.0000 -0.0000
vn -0.0000 -0.0000 -1.0000
vn -0.0000 -0.0000 1.0000
vn -1.0000 -0.0000 -0.0000
vt 0.437992 0.689124
vt 0.437992 0.689124
vt 0.437992 0.689124
vt 0.437992 0.689124
vt 0.437992 0.689124
vt 0.437992 0.689124
vt 0.437992 0.689124
vt 0.437992 0.689124
vt 0.304675 0.695325
vt 0.437992 0.689124
vt 0.437992 0.689124
vt 0.304675 0.695325
vt 0.304675 0.695325
vt 0.304675 0.695325
vt 0.437992 0.689124
vt 0.437992 0.689124
vt 0.437992 0.689124
vt 0.437992 0.689124
vt 0.437992 0.689124
vt 0.437992 0.689124
vt 0.437992 0.689124
vt 0.437992 0.689124
vt 0.437992 0.689124
vt 0.437992 0.689124
vt 0.437992 0.689124
vt 0.437992 0.689124
vt 0.304675 0.695325
vt 0.437992 0.689124
vt 0.437992 0.689124
vt 0.304675 0.695325
vt 0.304675 0.695325
vt 0.304675 0.695325
vt 0.437992 0.689124
vt 0.437992 0.689124
vt 0.437992 0.689124
vt 0.304675 0.695325
vt 0.304675 0.695325
vt 0.437992 0.689124
vt 0.304675 0.695325
vt 0.304675 0.695325
vt 0.437992 0.689124
vt 0.437992 0.689124
vt 0.437992 0.689124
vt 0.437992 0.689124
vt 0.437992 0.689124
vt 0.437992 0.689124
vt 0.437992 0.689124
vt 0.437992 0.689124
vt 0.437992 0.689124
vt 0.437992 0.689124
vt 0.437992 0.689124
vt 0.437992 0.689124
vt 0.304675 0.695325
vt 0.437992 0.689124
vt 0.437992 0.689124
vt 0.304675 0.695325
vt 0.304675 0.695325
vt 0.304675 0.695325
vt 0.437992 0.689124
vt 0.437992 0.689124
vt 0.304675 0.695325
vt 0.437992 0.689124
vt 0.437992 0.689124
vt 0.304675 0.695325
vt 0.304675 0.695325
vt 0.304675 0.695325
vt 0.437992 0.689124
vt 0.437992 0.689124
vt 0.437992 0.689124
vt 0.437992 0.689124
vt 0.437992 0.689124
vt 0.437992 0.689124
vt 0.437992 0.689124
vt 0.437992 0.689124
vt 0.437992 0.689124
vt 0.437992 0.689124
vt 0.437992 0.689124
vt 0.437992 0.689124
vt 0.304675 0.695325
vt 0.437992 0.689124
vt 0.437992 0.689124
vt 0.304675 0.695325
vt 0.304675 0.695325
vt 0.304675 0.695325
vt 0.437992 0.689124
vt 0.437992 0.689124
vt 0.437992 0.689124
vt 0.304675 0.695325
vt 0.304675 0.695325
vt 0.437992 0.689124
vt 0.304675 0.695325
vt 0.304675 0.695325
vt 0.437992 0.689124
vt 0.437992 0.689124
vt 0.304675 0.695325
vt 0.437992 0.689124
vt 0.437992 0.689124
vt 0.304675 0.695325
vt 0.304675 0.695325
vt 0.304675 0.695325
vt 0.304675 0.695325
vt 0.304675 0.695325
vt 0.437992 0.689124
vt 0.437992 0.689124
vt 0.437992 0.689124
vt 0.437992 0.689124
s 0
f 2/2/1 4/4/1 3/3/1 1/1/1
f 4/4/2 8/8/2 7/7/2 3/3/2
f 8/8/3 6/6/3 5/5/3 7/7/3
f 6/6/4 2/2/4 1/1/4 5/5/4
f 11/13/5 33/39/5 86/102/5
f 6/6/6 8/8/6 29/33/6 30/34/6
f 8/8/6 4/4/6 51/59/6 52/60/6
f 10/11/7 8/8/7 52/60/7 54/63/7
f 53/61/6 9/9/6 12/14/6 56/66/6
f 9/9/6 32/37/6 34/40/6 12/14/6
f 8/8/8 10/11/8 31/35/8 29/33/8
f 9/10/9 6/6/9 30/34/9 32/38/9
f 2/2/9 6/6/9 9/10/9
f 31/36/6 10/12/6 85/101/6
f 10/12/6 54/64/6 85/101/6
f 55/65/5 11/13/5 86/102/5
f 56/66/10 12/14/10 11/13/10 55/65/10
f 4/4/10 9/10/10 53/62/10 51/59/10
f 4/4/10 2/2/10 9/10/10
f 12/14/9 34/40/9 33/39/9 11/13/9
f 14/16/6 13/15/6 15/17/6 16/18/6
f 1/1/10 3/3/10 13/15/10 14/16/10
f 5/5/9 1/1/9 14/16/9 16/18/9
f 37/43/8 15/17/8 7/7/8 23/25/8
f 21/23/9 5/5/9 16/18/9 38/44/9
f 41/47/5 3/3/5 7/7/5 45/51/5
f 13/15/10 3/3/10 41/47/10 57/67/10
f 59/69/6 15/17/6 13/15/6 57/67/6
f 45/51/7 7/7/7 15/17/7 59/69/7
f 18/20/3 17/19/3 19/21/3 20/22/3
f 20/22/2 19/21/2 23/25/2 24/26/2
f 24/26/1 23/25/1 21/23/1 22/24/1
f 22/24/4 21/23/4 17/19/4 18/20/4
f 38/44/6 16/18/6 15/17/6 37/43/6
f 27/31/5 86/102/5 33/39/5
f 22/24/6 30/34/6 29/33/6 24/26/6
f 24/26/6 80/94/6 79/93/6 20/22/6
f 26/29/10 82/97/10 80/94/10 24/26/10
f 81/95/6 84/100/6 28/32/6 25/27/6
f 25/27/6 28/32/6 34/40/6 32/37/6
f 24/26/8 29/33/8 31/35/8 26/29/8
f 25/28/9 32/38/9 30/34/9 22/24/9
f 18/20/9 25/28/9 22/24/9
f 31/36/6 85/101/6 26/30/6
f 26/30/6 85/101/6 82/98/6
f 83/99/5 86/102/5 27/31/5
f 84/100/7 83/99/7 27/31/7 28/32/7
f 20/22/7 79/93/7 81/96/7 25/28/7
f 20/22/7 25/28/7 18/20/7
f 28/32/9 27/31/9 33/39/9 34/40/9
f 36/42/6 38/44/6 37/43/6 35/41/6
f 17/19/7 36/42/7 35/41/7 19/21/7
f 21/23/9 38/44/9 36/42/9 17/19/9
f 35/41/7 87/103/7 63/73/7 19/21/7
f 89/105/6 87/103/6 35/41/6 37/43/6
f 67/77/10 89/105/10 37/43/10 23/25/10
f 40/46/1 39/45/1 41/47/1 42/48/1
f 42/48/4 41/47/4 45/51/4 46/52/4
f 46/52/3 45/51/3 43/49/3 44/50/3
f 44/50/2 43/49/2 39/45/2 40/46/2
f 49/57/5 86/102/5 77/91/5
f 44/50/6 74/86/6 73/85/6 46/52/6
f 46/52/6 52/60/6 51/59/6 42/48/6
f 48/55/7 54/63/7 52/60/7 46/52/7
f 53/61/6 56/66/6 50/58/6 47/53/6
f 47/53/6 50/58/6 78/92/6 76/89/6
f 46/52/9 73/85/9 75/87/9 48/55/9
f 47/54/8 76/90/8 74/86/8 44/50/8
f 40/46/8 47/54/8 44/50/8
f 75/88/6 85/101/6 48/56/6
f 48/56/6 85/101/6 54/64/6
f 55/65/5 86/102/5 49/57/5
f 56/66/10 55/65/10 49/57/10 50/58/10
f 42/48/10 51/59/10 53/62/10 47/54/10
f 42/48/10 47/54/10 40/46/10
f 50/58/8 49/57/8 77/91/8 78/92/8
f 58/68/6 60/70/6 59/69/6 57/67/6
f 39/45/10 58/68/10 57/67/10 41/47/10
f 63/73/5 67/77/5 23/25/5 19/21/5
f 43/49/8 60/70/8 58/68/8 39/45/8
f 89/105/9 67/77/9 45/51/9 59/69/9
f 65/75/8 90/106/8 60/70/8 43/49/8
f 62/72/3 64/74/3 63/73/3 61/71/3
f 64/74/4 68/78/4 67/77/4 63/73/4
f 68/78/1 66/76/1 65/75/1 67/77/1
f 66/76/2 62/72/2 61/71/2 65/75/2
f 90/106/6 89/105/6 59/69/6 60/70/6
f 71/83/5 77/91/5 86/102/5
f 66/76/6 68/78/6 73/85/6 74/86/6
f 68/78/6 64/74/6 79/93/6 80/94/6
f 70/81/10 68/78/10 80/94/10 82/97/10
f 81/95/6 69/79/6 72/84/6 84/100/6
f 69/79/6 76/89/6 78/92/6 72/84/6
f 68/78/9 70/81/9 75/87/9 73/85/9
f 69/80/8 66/76/8 74/86/8 76/90/8
f 62/72/8 66/76/8 69/80/8
f 75/88/6 70/82/6 85/101/6
f 70/82/6 82/98/6 85/101/6
f 83/99/5 71/83/5 86/102/5
f 84/100/7 72/84/7 71/83/7 83/99/7
f 64/74/7 69/80/7 81/96/7 79/93/7
f 64/74/7 62/72/7 69/80/7
f 72/84/8 78/92/8 77/91/8 71/83/8
f 88/104/6 87/103/6 89/105/6 90/106/6
f 61/71/7 63/73/7 87/103/7 88/104/7
f 45/51/5 67/77/5 65/75/5 43/49/5
f 65/75/8 61/71/8 88/104/8 90/106/8
f 7/7/5 5/5/5 21/23/5 23/25/5
l 85 86
