# Blender 3.3.1
# www.blender.org
o Drawer_5
v 1.397030 0.032532 0.555445
v 1.397030 0.426604 0.555445
v 1.397030 0.032532 -0.555445
v 1.397030 0.426604 -0.555445
v 1.340606 0.378377 0.555445
v 1.340606 0.080759 0.555445
v 0.074679 0.080759 0.555445
v 0.074679 0.378377 0.555445
v 1.322789 0.365705 0.526737
v 1.322789 0.093431 0.526737
v 0.092496 0.093431 0.526737
v 0.092496 0.365705 0.526737
v 0.878424 0.277332 0.551814
v 0.878424 0.209261 0.551814
v 0.536861 0.209261 0.551814
v 0.536861 0.277332 0.551814
v 0.878424 0.277332 0.499796
v 0.878424 0.209261 0.499796
v 0.536861 0.209261 0.499796
v 0.536861 0.277332 0.499796
v -1.397030 0.032532 0.555445
v -1.397030 0.426604 0.555445
v -1.397030 0.032532 -0.555445
v -1.397030 0.426604 -0.555445
v 0.000000 0.032532 -0.555445
v 0.000000 0.426604 -0.555445
v 0.000000 0.032532 0.555445
v 0.000000 0.426604 0.555445
v -1.340606 0.378377 0.555445
v -1.340606 0.080759 0.555445
v -0.074679 0.080759 0.555445
v -0.074679 0.378377 0.555445
v -1.322789 0.365705 0.526737
v -1.322789 0.093431 0.526737
v -0.092496 0.093431 0.526737
v -0.092496 0.365705 0.526737
v -0.878424 0.277332 0.551814
v -0.878424 0.209261 0.551814
v -0.536861 0.209261 0.551814
v -0.536861 0.277332 0.551814
v -0.878424 0.277332 0.499796
v -0.878424 0.209261 0.499796
v -0.536861 0.209261 0.499796
v -0.536861 0.277332 0.499796
v 0.000000 0.426604 -0.507913
v 1.327225 0.426604 -0.507913
v 1.327225 0.032532 0.507913
v 1.327225 0.032532 -0.507913
v 1.327225 0.426604 0.507913
v 0.000000 0.032532 0.507913
v 0.000000 0.032532 -0.507913
v 0.000000 0.426604 0.507913
v -1.327225 0.426604 -0.507913
v -1.327225 0.032532 0.507913
v -1.327225 0.032532 -0.507913
v -1.327225 0.426604 0.507913
v 0.000000 0.448060 -0.507913
v 1.327225 0.448060 -0.507913
v 1.327225 0.011076 0.507913
v 1.327225 0.011076 -0.507913
v 1.327225 0.448060 0.507913
v 0.000000 0.011076 0.507913
v 0.000000 0.011076 -0.507913
v 0.000000 0.448060 0.507913
v -1.327225 0.448060 -0.507913
v -1.327225 0.011076 0.507913
v -1.327225 0.011076 -0.507913
v -1.327225 0.448060 0.507913
v 1.397030 0.469515 0.555445
v 1.397030 0.863587 0.555445
v 1.397030 0.469515 -0.555445
v 1.397030 0.863587 -0.555445
v 1.340606 0.815360 0.555445
v 1.340606 0.517742 0.555445
v 0.074679 0.517742 0.555445
v 0.074679 0.815360 0.555445
v 1.322789 0.802688 0.526737
v 1.322789 0.530414 0.526737
v 0.092496 0.530414 0.526737
v 0.092496 0.802688 0.526737
v 0.878424 0.714315 0.551814
v 0.878424 0.646244 0.551814
v 0.536861 0.646244 0.551814
v 0.536861 0.714315 0.551814
v 0.878424 0.714315 0.499796
v 0.878424 0.646244 0.499796
v 0.536861 0.646244 0.499796
v 0.536861 0.714315 0.499796
v -1.397030 0.469515 0.555445
v -1.397030 0.863587 0.555445
v -1.397030 0.469515 -0.555445
v -1.397030 0.863587 -0.555445
v 0.000000 0.469515 -0.555445
v 0.000000 0.863587 -0.555445
v 0.000000 0.469515 0.555445
v 0.000000 0.863587 0.555445
v -1.340606 0.815360 0.555445
v -1.340606 0.517742 0.555445
v -0.074679 0.517742 0.555445
v -0.074679 0.815360 0.555445
v -1.322789 0.802688 0.526737
v -1.322789 0.530414 0.526737
v -0.092496 0.530414 0.526737
v -0.092496 0.802688 0.526737
v -0.878424 0.714315 0.551814
v -0.878424 0.646244 0.551814
v -0.536861 0.646244 0.551814
v -0.536861 0.714315 0.551814
v -0.878424 0.714315 0.499796
v -0.878424 0.646244 0.499796
v -0.536861 0.646244 0.499796
v -0.536861 0.714315 0.499796
v 0.000000 0.863587 -0.507913
v 1.327225 0.863587 -0.507913
v 1.327225 0.469515 0.507913
v 1.327225 0.469515 -0.507913
v 1.327225 0.863587 0.507913
v 0.000000 0.469515 0.507913
v 0.000000 0.469515 -0.507913
v 0.000000 0.863587 0.507913
v -1.327225 0.863587 -0.507913
v -1.327225 0.469515 0.507913
v -1.327225 0.469515 -0.507913
v -1.327225 0.863587 0.507913
v 0.000000 0.885043 -0.507913
v 1.327225 0.885043 -0.507913
v 1.327225 0.885043 0.507913
v 0.000000 0.885043 0.507913
v -1.327225 0.885043 -0.507913
v -1.327225 0.885043 0.507913
v 1.397030 0.906498 0.555445
v 1.397030 1.300571 0.555445
v 1.397030 0.906498 -0.555445
v 1.397030 1.300571 -0.555445
v 1.340606 1.252344 0.555445
v 1.340606 0.954725 0.555445
v 0.074679 0.954725 0.555445
v 0.074679 1.252344 0.555445
v 1.322789 1.239671 0.526737
v 1.322789 0.967397 0.526737
v 0.092496 0.967397 0.526737
v 0.092496 1.239671 0.526737
v 0.878424 1.151298 0.551814
v 0.878424 1.083228 0.551814
v 0.536861 1.083228 0.551814
v 0.536861 1.151298 0.551814
v 0.878424 1.151298 0.499796
v 0.878424 1.083228 0.499796
v 0.536861 1.083228 0.499796
v 0.536861 1.151298 0.499796
v -1.397030 0.906498 0.555445
v -1.397030 1.300571 0.555445
v -1.397030 0.906498 -0.555445
v -1.397030 1.300571 -0.555445
v 0.000000 0.906498 -0.555445
v 0.000000 1.300571 -0.555445
v 0.000000 0.906498 0.555445
v 0.000000 1.300571 0.555445
v -1.340606 1.252344 0.555445
v -1.340606 0.954725 0.555445
v -0.074679 0.954725 0.555445
v -0.074679 1.252344 0.555445
v -1.322789 1.239671 0.526737
v -1.322789 0.967397 0.526737
v -0.092496 0.967397 0.526737
v -0.092496 1.239671 0.526737
v -0.878424 1.151298 0.551814
v -0.878424 1.083228 0.551814
v -0.536861 1.083228 0.551814
v -0.536861 1.151298 0.551814
v -0.878424 1.151298 0.499796
v -0.878424 1.083228 0.499796
v -0.536861 1.083228 0.499796
v -0.536861 1.151298 0.499796
v -1.397030 1.343259 0.555445
v -1.397030 1.343259 -0.555445
v 1.327225 0.906498 0.507913
v 1.327225 0.906498 -0.507913
v 0.000000 1.343259 0.555445
v 0.000000 0.906498 0.507913
v 0.000000 0.906498 -0.507913
v 1.397030 1.343259 0.555445
v 1.397030 1.343259 -0.555445
v -1.327225 0.906498 0.507913
v -1.327225 0.906498 -0.507913
v 0.000000 1.343259 -0.555445
v 1.397030 1.300571 0.597321
v 0.000000 1.300571 0.597321
v -1.397030 1.300571 0.597321
v 0.000000 1.343259 0.597321
v 1.397030 1.343259 0.597321
v -1.397030 1.343259 0.597321
vn -0.0000 -0.0000 -1.0000
vn 1.0000 -0.0000 -0.0000
vn -0.0000 -0.0000 1.0000
vn -0.0000 -0.9148 0.4038
vn -0.8497 -0.0000 0.5273
vn 0.8497 -0.0000 0.5273
vn -0.0000 0.9148 0.4038
vn -1.0000 -0.0000 -0.0000
vn -0.0000 -1.0000 -0.0000
vn -0.0000 1.0000 -0.0000
vt 0.935559 0.814361
vt 0.935559 0.814361
vt 0.935559 0.814361
vt 0.935559 0.814361
vt 0.935559 0.814361
vt 0.935559 0.814361
vt 0.935559 0.814361
vt 0.935559 0.814361
vt 0.701784 0.821743
vt 0.935559 0.814361
vt 0.701784 0.821743
vt 0.935559 0.814361
vt 0.701784 0.821743
vt 0.935559 0.814361
vt 0.701784 0.821743
vt 0.935559 0.814361
vt 0.197324 0.696243
vt 0.197324 0.696243
vt 0.197324 0.696243
vt 0.197324 0.696243
vt 0.197324 0.696243
vt 0.197324 0.696243
vt 0.197324 0.696243
vt 0.197324 0.696243
vt 0.935559 0.814361
vt 0.935559 0.814361
vt 0.935559 0.814361
vt 0.935559 0.814361
vt 0.935559 0.814361
vt 0.935559 0.814361
vt 0.935559 0.814361
vt 0.935559 0.814361
vt 0.935559 0.814361
vt 0.935559 0.814361
vt 0.935559 0.814361
vt 0.935559 0.814361
vt 0.701784 0.821743
vt 0.935559 0.814361
vt 0.701784 0.821743
vt 0.935559 0.814361
vt 0.701784 0.821743
vt 0.935559 0.814361
vt 0.701784 0.821743
vt 0.935559 0.814361
vt 0.197324 0.696243
vt 0.197324 0.696243
vt 0.197324 0.696243
vt 0.197324 0.696243
vt 0.197324 0.696243
vt 0.197324 0.696243
vt 0.197324 0.696243
vt 0.197324 0.696243
vt 0.935559 0.814361
vt 0.935559 0.814361
vt 0.935559 0.814361
vt 0.935559 0.814361
vt 0.935559 0.814361
vt 0.935559 0.814361
vt 0.935559 0.814361
vt 0.935559 0.814361
vt 0.935559 0.814361
vt 0.935559 0.814361
vt 0.935559 0.814361
vt 0.935559 0.814361
vt 0.935559 0.814361
vt 0.935559 0.814361
vt 0.935559 0.814361
vt 0.935559 0.814361
vt 0.935559 0.814361
vt 0.935559 0.814361
vt 0.935559 0.814361
vt 0.935559 0.814361
vt 0.935559 0.814361
vt 0.935559 0.814361
vt 0.935559 0.814361
vt 0.935559 0.814361
vt 0.935559 0.814361
vt 0.935559 0.814361
vt 0.935559 0.814361
vt 0.935559 0.814361
vt 0.935559 0.814361
vt 0.935559 0.814361
vt 0.935559 0.814361
vt 0.935559 0.814361
vt 0.701784 0.821743
vt 0.935559 0.814361
vt 0.701784 0.821743
vt 0.935559 0.814361
vt 0.701784 0.821743
vt 0.935559 0.814361
vt 0.701784 0.821743
vt 0.935559 0.814361
vt 0.197324 0.696243
vt 0.197324 0.696243
vt 0.197324 0.696243
vt 0.197324 0.696243
vt 0.197324 0.696243
vt 0.197324 0.696243
vt 0.197324 0.696243
vt 0.197324 0.696243
vt 0.935559 0.814361
vt 0.935559 0.814361
vt 0.935559 0.814361
vt 0.935559 0.814361
vt 0.935559 0.814361
vt 0.935559 0.814361
vt 0.935559 0.814361
vt 0.935559 0.814361
vt 0.935559 0.814361
vt 0.935559 0.814361
vt 0.935559 0.814361
vt 0.935559 0.814361
vt 0.701784 0.821743
vt 0.935559 0.814361
vt 0.701784 0.821743
vt 0.935559 0.814361
vt 0.701784 0.821743
vt 0.935559 0.814361
vt 0.701784 0.821743
vt 0.935559 0.814361
vt 0.197324 0.696243
vt 0.197324 0.696243
vt 0.197324 0.696243
vt 0.197324 0.696243
vt 0.197324 0.696243
vt 0.197324 0.696243
vt 0.197324 0.696243
vt 0.197324 0.696243
vt 0.935559 0.814361
vt 0.935559 0.814361
vt 0.935559 0.814361
vt 0.935559 0.814361
vt 0.935559 0.814361
vt 0.935559 0.814361
vt 0.935559 0.814361
vt 0.935559 0.814361
vt 0.935559 0.814361
vt 0.935559 0.814361
vt 0.935559 0.814361
vt 0.935559 0.814361
vt 0.935559 0.814361
vt 0.935559 0.814361
vt 0.935559 0.814361
vt 0.935559 0.814361
vt 0.935559 0.814361
vt 0.935559 0.814361
vt 0.935559 0.814361
vt 0.935559 0.814361
vt 0.701784 0.821743
vt 0.935559 0.814361
vt 0.935559 0.814361
vt 0.701784 0.821743
vt 0.935559 0.814361
vt 0.935559 0.814361
vt 0.935559 0.814361
vt 0.935559 0.814361
vt 0.701784 0.821743
vt 0.935559 0.814361
vt 0.701784 0.821743
vt 0.935559 0.814361
vt 0.701784 0.821743
vt 0.935559 0.814361
vt 0.701784 0.821743
vt 0.935559 0.814361
vt 0.197324 0.696243
vt 0.197324 0.696243
vt 0.197324 0.696243
vt 0.197324 0.696243
vt 0.197324 0.696243
vt 0.197324 0.696243
vt 0.197324 0.696243
vt 0.197324 0.696243
vt 0.935559 0.814361
vt 0.935559 0.814361
vt 0.701784 0.821743
vt 0.935559 0.814361
vt 0.935559 0.814361
vt 0.701784 0.821743
vt 0.935559 0.814361
vt 0.935559 0.814361
vt 0.701784 0.821743
vt 0.935559 0.814361
vt 0.935559 0.814361
vt 0.701784 0.821743
vt 0.935559 0.814361
vt 0.935559 0.814361
vt 0.935559 0.814361
vt 0.935559 0.814361
vt 0.701784 0.821743
vt 0.935559 0.814361
vt 0.701784 0.821743
vt 0.935559 0.814361
vt 0.701784 0.821743
vt 0.935559 0.814361
vt 0.701784 0.821743
vt 0.935559 0.814361
vt 0.197324 0.696243
vt 0.197324 0.696243
vt 0.197324 0.696243
vt 0.197324 0.696243
vt 0.197324 0.696243
vt 0.197324 0.696243
vt 0.197324 0.696243
vt 0.197324 0.696243
vt 0.701784 0.821743
vt 0.701784 0.821743
vt 0.935559 0.814361
vt 0.935559 0.814361
vt 0.701784 0.821743
vt 0.935559 0.814361
vt 0.935559 0.814361
vt 0.701784 0.821743
vt 0.701784 0.821743
vt 0.935559 0.814361
vt 0.935559 0.814361
vt 0.701784 0.821743
vt 0.701784 0.821743
vt 0.701784 0.821743
vt 0.701784 0.821743
vt 0.701784 0.821743
vt 0.701784 0.821743
vt 0.701784 0.821743
s 0
f 25/29/1 26/30/1 4/4/1 3/3/1
f 3/3/2 4/4/2 2/2/2 1/1/2
f 2/2/3 28/32/3 8/8/3 5/5/3
f 5/5/4 8/8/4 12/16/4 9/10/4
f 27/31/3 1/1/3 6/6/3 7/7/3
f 28/32/3 27/31/3 7/7/3 8/8/3
f 1/1/3 2/2/3 5/5/3 6/6/3
f 10/11/3 9/9/3 12/15/3 11/13/3
f 6/6/5 5/5/5 9/10/5 10/12/5
f 8/8/6 7/7/6 11/14/6 12/16/6
f 7/7/7 6/6/7 10/12/7 11/14/7
f 14/18/3 13/17/3 16/20/3 15/19/3
f 16/20/8 20/24/8 19/23/8 15/19/8
f 15/19/9 19/23/9 18/22/9 14/18/9
f 13/17/10 17/21/10 20/24/10 16/20/10
f 14/18/2 18/22/2 17/21/2 13/17/2
f 25/29/1 23/27/1 24/28/1 26/30/1
f 23/27/8 21/25/8 22/26/8 24/28/8
f 22/26/3 29/33/3 32/36/3 28/32/3
f 29/33/4 33/38/4 36/44/4 32/36/4
f 27/31/3 31/35/3 30/34/3 21/25/3
f 28/32/3 32/36/3 31/35/3 27/31/3
f 21/25/3 30/34/3 29/33/3 22/26/3
f 34/39/3 35/41/3 36/43/3 33/37/3
f 30/34/6 34/40/6 33/38/6 29/33/6
f 32/36/5 36/44/5 35/42/5 31/35/5
f 31/35/7 35/42/7 34/40/7 30/34/7
f 38/46/3 39/47/3 40/48/3 37/45/3
f 40/48/2 39/47/2 43/51/2 44/52/2
f 39/47/9 38/46/9 42/50/9 43/51/9
f 37/45/10 40/48/10 44/52/10 41/49/10
f 38/46/8 37/45/8 41/49/8 42/50/8
f 3/3/9 1/1/9 47/55/9 48/56/9
f 1/1/9 27/31/9 50/58/9 47/55/9
f 50/58/3 54/62/3 66/74/3 62/70/3
f 49/57/2 46/54/2 58/66/2 61/69/2
f 27/31/9 21/25/9 54/62/9 50/58/9
f 25/29/9 3/3/9 48/56/9 51/59/9
f 21/25/9 23/27/9 55/63/9 54/62/9
f 2/2/10 4/4/10 46/54/10 49/57/10
f 23/27/9 25/29/9 51/59/9 55/63/9
f 4/4/10 26/30/10 45/53/10 46/54/10
f 24/28/10 22/26/10 56/64/10 53/61/10
f 28/32/10 2/2/10 49/57/10 52/60/10
f 26/30/10 24/28/10 53/61/10 45/53/10
f 22/26/10 28/32/10 52/60/10 56/64/10
f 60/68/9 59/67/9 62/70/9 66/74/9 67/75/9 63/71/9
f 58/66/10 57/65/10 65/73/10 68/76/10 64/72/10 61/69/10
f 45/53/1 53/61/1 65/73/1 57/65/1
f 47/55/3 50/58/3 62/70/3 59/67/3
f 55/63/1 51/59/1 63/71/1 67/75/1
f 46/54/1 45/53/1 57/65/1 58/66/1
f 54/62/8 55/63/8 67/75/8 66/74/8
f 51/59/1 48/56/1 60/68/1 63/71/1
f 56/64/3 52/60/3 64/72/3 68/76/3
f 48/56/2 47/55/2 59/67/2 60/68/2
f 53/61/8 56/64/8 68/76/8 65/73/8
f 52/60/3 49/57/3 61/69/3 64/72/3
f 93/105/1 94/106/1 72/80/1 71/79/1
f 71/79/2 72/80/2 70/78/2 69/77/2
f 70/78/3 96/108/3 76/84/3 73/81/3
f 73/81/4 76/84/4 80/92/4 77/86/4
f 95/107/3 69/77/3 74/82/3 75/83/3
f 96/108/3 95/107/3 75/83/3 76/84/3
f 69/77/3 70/78/3 73/81/3 74/82/3
f 78/87/3 77/85/3 80/91/3 79/89/3
f 74/82/5 73/81/5 77/86/5 78/88/5
f 76/84/6 75/83/6 79/90/6 80/92/6
f 75/83/7 74/82/7 78/88/7 79/90/7
f 82/94/3 81/93/3 84/96/3 83/95/3
f 84/96/8 88/100/8 87/99/8 83/95/8
f 83/95/9 87/99/9 86/98/9 82/94/9
f 81/93/10 85/97/10 88/100/10 84/96/10
f 82/94/2 86/98/2 85/97/2 81/93/2
f 93/105/1 91/103/1 92/104/1 94/106/1
f 91/103/8 89/101/8 90/102/8 92/104/8
f 90/102/3 97/109/3 100/112/3 96/108/3
f 97/109/4 101/114/4 104/120/4 100/112/4
f 95/107/3 99/111/3 98/110/3 89/101/3
f 96/108/3 100/112/3 99/111/3 95/107/3
f 89/101/3 98/110/3 97/109/3 90/102/3
f 102/115/3 103/117/3 104/119/3 101/113/3
f 98/110/6 102/116/6 101/114/6 97/109/6
f 100/112/5 104/120/5 103/118/5 99/111/5
f 99/111/7 103/118/7 102/116/7 98/110/7
f 106/122/3 107/123/3 108/124/3 105/121/3
f 108/124/2 107/123/2 111/127/2 112/128/2
f 107/123/9 106/122/9 110/126/9 111/127/9
f 105/121/10 108/124/10 112/128/10 109/125/10
f 106/122/8 105/121/8 109/125/8 110/126/8
f 71/79/9 69/77/9 115/131/9 116/132/9
f 69/77/9 95/107/9 118/134/9 115/131/9
f 118/134/3 122/138/3 68/76/3 64/72/3
f 117/133/2 114/130/2 126/142/2 127/143/2
f 95/107/9 89/101/9 122/138/9 118/134/9
f 93/105/9 71/79/9 116/132/9 119/135/9
f 89/101/9 91/103/9 123/139/9 122/138/9
f 70/78/10 72/80/10 114/130/10 117/133/10
f 91/103/9 93/105/9 119/135/9 123/139/9
f 72/80/10 94/106/10 113/129/10 114/130/10
f 92/104/10 90/102/10 124/140/10 121/137/10
f 96/108/10 70/78/10 117/133/10 120/136/10
f 94/106/10 92/104/10 121/137/10 113/129/10
f 90/102/10 96/108/10 120/136/10 124/140/10
f 126/142/10 125/141/10 129/145/10 130/146/10 128/144/10 127/143/10
f 113/129/1 121/137/1 129/145/1 125/141/1
f 115/131/3 118/134/3 64/72/3 61/69/3
f 123/139/1 119/135/1 57/65/1 65/73/1
f 114/130/1 113/129/1 125/141/1 126/142/1
f 122/138/8 123/139/8 65/73/8 68/76/8
f 119/135/1 116/132/1 58/66/1 57/65/1
f 124/140/3 120/136/3 128/144/3 130/146/3
f 116/132/2 115/131/2 61/69/2 58/66/2
f 121/137/8 124/140/8 130/146/8 129/145/8
f 120/136/3 117/133/3 127/143/3 128/144/3
f 155/179/1 156/180/1 134/151/1 133/150/1
f 133/150/2 134/151/2 132/148/2 131/147/2
f 132/148/3 158/183/3 138/156/3 135/153/3
f 135/153/4 138/156/4 142/164/4 139/158/4
f 157/182/3 131/147/3 136/154/3 137/155/3
f 158/183/3 157/182/3 137/155/3 138/156/3
f 131/147/3 132/148/3 135/153/3 136/154/3
f 140/159/3 139/157/3 142/163/3 141/161/3
f 136/154/5 135/153/5 139/158/5 140/160/5
f 138/156/6 137/155/6 141/162/6 142/164/6
f 137/155/7 136/154/7 140/160/7 141/162/7
f 144/166/3 143/165/3 146/168/3 145/167/3
f 146/168/8 150/172/8 149/171/8 145/167/8
f 145/167/9 149/171/9 148/170/9 144/166/9
f 143/165/10 147/169/10 150/172/10 146/168/10
f 144/166/2 148/170/2 147/169/2 143/165/2
f 155/179/1 153/176/1 154/177/1 156/180/1
f 153/176/8 151/173/8 152/174/8 154/177/8
f 152/174/3 159/185/3 162/188/3 158/183/3
f 159/185/4 163/190/4 166/196/4 162/188/4
f 157/182/3 161/187/3 160/186/3 151/173/3
f 158/183/3 162/188/3 161/187/3 157/182/3
f 151/173/3 160/186/3 159/185/3 152/174/3
f 164/191/3 165/193/3 166/195/3 163/189/3
f 160/186/6 164/192/6 163/190/6 159/185/6
f 162/188/5 166/196/5 165/194/5 161/187/5
f 161/187/7 165/194/7 164/192/7 160/186/7
f 168/198/3 169/199/3 170/200/3 167/197/3
f 170/200/2 169/199/2 173/203/2 174/204/2
f 169/199/9 168/198/9 172/202/9 173/203/9
f 167/197/10 170/200/10 174/204/10 171/201/10
f 168/198/8 167/197/8 171/201/8 172/202/8
f 133/150/9 131/147/9 177/207/9 178/208/9
f 131/147/9 157/182/9 180/210/9 177/207/9
f 180/210/3 184/214/3 130/146/3 128/144/3
f 157/182/9 151/173/9 184/214/9 180/210/9
f 155/179/9 133/150/9 178/208/9 181/211/9
f 151/173/9 153/176/9 185/215/9 184/214/9
f 156/181/1 154/178/1 176/206/1 186/216/1
f 153/176/9 155/179/9 181/211/9 185/215/9
f 132/149/2 134/152/2 183/213/2 182/212/2
f 154/178/8 152/175/8 175/205/8 176/206/8
f 179/209/10 175/205/10 192/222/10 190/220/10
f 134/152/1 156/181/1 186/216/1 183/213/1
f 179/209/10 182/212/10 183/213/10 186/216/10 176/206/10 175/205/10
f 177/207/3 180/210/3 128/144/3 127/143/3
f 185/215/1 181/211/1 125/141/1 129/145/1
f 184/214/8 185/215/8 129/145/8 130/146/8
f 181/211/1 178/208/1 126/142/1 125/141/1
f 175/205/8 152/175/8 189/219/8 192/222/8
f 178/208/2 177/207/2 127/143/2 126/142/2
f 188/218/3 187/217/3 191/221/3 190/220/3
f 189/219/3 188/218/3 190/220/3 192/222/3
f 182/212/10 179/209/10 190/220/10 191/221/10
f 158/184/9 132/149/9 187/217/9 188/218/9
f 152/175/9 158/184/9 188/218/9 189/219/9
f 132/149/2 182/212/2 191/221/2 187/217/2
