# Blender 3.3.1
# www.blender.org
o Lamp2
v 0.000102 1.104600 -0.116665
v 0.081887 1.104600 -0.082789
v 0.115764 1.104600 -0.001004
v 0.081887 1.104600 0.080781
v 0.000102 1.104600 0.114658
v -0.081683 1.104600 0.080781
v -0.115559 1.104600 -0.001004
v -0.081683 1.104600 -0.082789
v 0.070162 1.104600 -0.071064
v 0.000102 1.104600 -0.100083
v 0.099182 1.104600 -0.001004
v 0.070162 1.104600 0.069056
v 0.000102 1.104600 0.098076
v -0.069958 1.104600 0.069056
v -0.098977 1.104600 -0.001004
v -0.069958 1.104600 -0.071064
v 0.000102 0.785216 -0.116665
v 0.081887 0.785216 -0.082789
v 0.115764 0.785216 -0.001004
v 0.081887 0.785216 0.080781
v 0.000102 0.785216 0.114658
v -0.081683 0.785216 0.080781
v -0.115559 0.785216 -0.001004
v -0.081683 0.785216 -0.082789
v 0.070162 0.785216 -0.071064
v 0.000102 0.785216 -0.100083
v 0.099182 0.785216 -0.001004
v 0.070162 0.785216 0.069056
v 0.000102 0.785216 0.098076
v -0.069958 0.785216 0.069056
v -0.098977 0.785216 -0.001004
v -0.069958 0.785216 -0.071064
v -0.000136 -0.000629 -0.121100
v -0.000136 0.040446 -0.121100
v 0.105897 -0.000629 -0.059881
v 0.105897 0.040446 -0.059881
v 0.105897 -0.000629 0.062555
v 0.105897 0.040446 0.062555
v -0.000136 -0.000629 0.123773
v -0.000136 0.040446 0.123773
v -0.106170 -0.000629 0.062555
v -0.106170 0.040446 0.062555
v -0.106170 -0.000629 -0.059881
v -0.106170 0.040446 -0.059881
v 0.010696 0.040446 -0.004917
v -0.000136 0.040446 -0.011172
v 0.010696 0.040446 0.007591
v -0.000136 0.040446 0.013845
v -0.010969 0.040446 0.007591
v -0.010969 0.040446 -0.004917
v 0.010696 0.953893 -0.004917
v -0.000136 0.953893 -0.011172
v 0.010696 0.953893 0.007591
v -0.000136 0.953893 0.013845
v -0.010969 0.953893 0.007591
v -0.010969 0.953893 -0.004917
vn -0.3827 -0.0000 0.9239
vn 0.3827 -0.0000 -0.9239
vn 0.9239 -0.0000 -0.3827
vn 0.9239 -0.0000 0.3827
vn 0.3827 -0.0000 0.9239
vn -0.0000 1.0000 -0.0000
vn -0.9239 -0.0000 0.3827
vn -0.3827 -0.0000 -0.9239
vn -0.9239 -0.0000 -0.3827
vn -0.0000 -1.0000 -0.0000
vn 0.5000 -0.0000 -0.8660
vn 1.0000 -0.0000 -0.0000
vn 0.5000 -0.0000 0.8660
vn -0.5000 -0.0000 0.8660
vn -0.5000 -0.0000 -0.8660
vn -1.0000 -0.0000 -0.0000
vt 0.186943 0.799262
vt 0.186943 0.799262
vt 0.186943 0.799262
vt 0.186943 0.799262
vt 0.186943 0.799262
vt 0.186943 0.799262
vt 0.186943 0.799262
vt 0.186943 0.799262
vt 0.186943 0.799262
vt 0.186943 0.799262
vt 0.186943 0.799262
vt 0.186943 0.799262
vt 0.186943 0.799262
vt 0.186943 0.799262
vt 0.186943 0.799262
vt 0.186943 0.799262
vt 0.186943 0.799262
vt 0.186943 0.799262
vt 0.186943 0.799262
vt 0.186943 0.799262
vt 0.186943 0.799262
vt 0.186943 0.799262
vt 0.186943 0.799262
vt 0.186943 0.799262
vt 0.186943 0.799262
vt 0.186943 0.799262
vt 0.186943 0.799262
vt 0.186943 0.799262
vt 0.186943 0.799262
vt 0.186943 0.799262
vt 0.186943 0.799262
vt 0.186943 0.799262
vt 0.056511 0.823304
vt 0.056511 0.823304
vt 0.056511 0.823304
vt 0.056511 0.823304
vt 0.056511 0.823304
vt 0.056511 0.823304
vt 0.056511 0.823304
vt 0.056511 0.823304
vt 0.056511 0.823304
vt 0.056511 0.823304
vt 0.056511 0.823304
vt 0.056511 0.823304
vt 0.056511 0.823304
vt 0.056511 0.823304
vt 0.056511 0.823304
vt 0.056511 0.823304
vt 0.056511 0.823304
vt 0.056511 0.823304
vt 0.056511 0.823304
vt 0.056511 0.823304
vt 0.056511 0.823304
vt 0.056511 0.823304
vt 0.056511 0.823304
vt 0.056511 0.823304
s 0
f 25/25/1 9/9/1 10/10/1 26/26/1
f 2/2/2 18/18/2 17/17/2 1/1/2
f 3/3/3 19/19/3 18/18/3 2/2/3
f 4/4/4 20/20/4 19/19/4 3/3/4
f 5/5/5 21/21/5 20/20/5 4/4/5
f 6/6/1 22/22/1 21/21/1 5/5/1
f 8/8/6 7/7/6 15/15/6 16/16/6
f 7/7/7 23/23/7 22/22/7 6/6/7
f 1/1/8 17/17/8 24/24/8 8/8/8
f 6/6/6 5/5/6 13/13/6 14/14/6
f 4/4/6 3/3/6 11/11/6 12/12/6
f 1/1/6 8/8/6 16/16/6 10/10/6
f 7/7/6 6/6/6 14/14/6 15/15/6
f 5/5/6 4/4/6 12/12/6 13/13/6
f 3/3/6 2/2/6 9/9/6 11/11/6
f 2/2/6 1/1/6 10/10/6 9/9/6
f 32/32/4 16/16/4 15/15/4 31/31/4
f 30/30/2 14/14/2 13/13/2 29/29/2
f 28/28/9 12/12/9 11/11/9 27/27/9
f 26/26/5 10/10/5 16/16/5 32/32/5
f 31/31/3 15/15/3 14/14/3 30/30/3
f 29/29/8 13/13/8 12/12/8 28/28/8
f 27/27/7 11/11/7 9/9/7 25/25/7
f 24/24/10 32/32/10 31/31/10 23/23/10
f 22/22/10 30/30/10 29/29/10 21/21/10
f 20/20/10 28/28/10 27/27/10 19/19/10
f 17/17/10 26/26/10 32/32/10 24/24/10
f 23/23/10 31/31/10 30/30/10 22/22/10
f 21/21/10 29/29/10 28/28/10 20/20/10
f 19/19/10 27/27/10 25/25/10 18/18/10
f 18/18/10 25/25/10 26/26/10 17/17/10
f 8/8/9 24/24/9 23/23/9 7/7/9
f 33/33/11 34/34/11 36/36/11 35/35/11
f 35/35/12 36/36/12 38/38/12 37/37/12
f 37/37/13 38/38/13 40/40/13 39/39/13
f 39/39/14 40/40/14 42/42/14 41/41/14
f 38/38/6 36/36/6 45/45/6 47/47/6
f 43/43/15 44/44/15 34/34/15 33/33/15
f 41/41/16 42/42/16 44/44/16 43/43/16
f 33/33/10 35/35/10 37/37/10 39/39/10 41/41/10 43/43/10
f 46/46/15 50/50/15 56/56/15 52/52/15
f 44/44/6 42/42/6 49/49/6 50/50/6
f 36/36/6 34/34/6 46/46/6 45/45/6
f 40/40/6 38/38/6 47/47/6 48/48/6
f 34/34/6 44/44/6 50/50/6 46/46/6
f 42/42/6 40/40/6 48/48/6 49/49/6
f 51/51/6 52/52/6 56/56/6 55/55/6 54/54/6 53/53/6
f 49/49/14 48/48/14 54/54/14 55/55/14
f 47/47/12 45/45/12 51/51/12 53/53/12
f 50/50/16 49/49/16 55/55/16 56/56/16
f 48/48/13 47/47/13 53/53/13 54/54/13
f 45/45/11 46/46/11 52/52/11 51/51/11
