# Blender 3.3.1
# www.blender.org
o Shelf_Small1
v -0.972164 -0.021108 0.275193
v -0.937922 -0.021108 0.275193
v -0.972164 -0.021108 -0.275193
v -0.937923 -0.021108 -0.275193
v -0.972164 0.556270 0.275193
v -0.937923 0.556270 0.275193
v -0.972164 0.556270 -0.275193
v -0.937923 0.556270 -0.275193
v -0.215666 0.240876 -0.238857
v -0.236328 0.240876 -0.238857
v -0.215666 0.240876 0.238857
v -0.236328 0.240876 0.238857
v -0.215666 0.017820 -0.238857
v -0.236328 0.017820 -0.238857
v -0.215666 0.017820 0.238857
v -0.236328 0.017820 0.238857
v -0.672297 0.240876 -0.238857
v -0.692959 0.240876 -0.238857
v -0.672297 0.240876 0.238857
v -0.692959 0.240876 0.238857
v -0.672297 0.017820 -0.238857
v -0.692959 0.017820 -0.238857
v -0.672297 0.017820 0.238857
v -0.692959 0.017820 0.238857
v -0.957013 0.515714 0.248284
v -0.957013 0.549956 0.248284
v -0.957013 0.515714 -0.248284
v -0.957013 0.549955 -0.248284
v -0.957012 -0.005783 -0.248284
v -0.957012 0.028458 -0.248284
v -0.957012 -0.005783 0.248284
v -0.957012 0.028458 0.248284
v -0.957012 0.266477 0.248284
v -0.957012 0.232236 0.248284
v -0.957012 0.266477 -0.248284
v -0.957012 0.232236 -0.248284
v 0.972164 -0.021107 0.275193
v 0.937923 -0.021107 0.275193
v 0.972164 -0.021107 -0.275193
v 0.937922 -0.021107 -0.275193
v 0.972164 0.556270 0.275193
v 0.937923 0.556270 0.275193
v 0.972164 0.556270 -0.275193
v 0.937923 0.556270 -0.275193
v 0.215666 0.240876 -0.238858
v 0.236328 0.240876 -0.238858
v 0.215666 0.240876 0.238857
v 0.236328 0.240876 0.238857
v 0.215666 0.017820 -0.238858
v 0.236328 0.017820 -0.238858
v 0.215666 0.017820 0.238857
v 0.236328 0.017820 0.238857
v 0.672297 0.240876 -0.238858
v 0.692959 0.240876 -0.238858
v 0.672297 0.240876 0.238857
v 0.692959 0.240876 0.238857
v 0.672297 0.017820 -0.238858
v 0.692959 0.017820 -0.238858
v 0.672297 0.017820 0.238857
v 0.692959 0.017820 0.238857
v 0.957012 0.515715 0.248284
v 0.957012 0.549956 0.248284
v 0.957012 0.515714 -0.248284
v 0.957012 0.549956 -0.248284
v 0.957012 -0.005783 -0.248284
v 0.957012 0.028458 -0.248284
v 0.957012 -0.005783 0.248284
v 0.957012 0.028458 0.248284
v 0.957012 0.266477 0.248284
v 0.957012 0.232236 0.248284
v 0.957012 0.266477 -0.248284
v 0.957012 0.232236 -0.248284
v -0.000000 0.515714 -0.248284
v -0.000000 0.549956 -0.248284
v -0.000000 0.515714 0.248284
v -0.000000 0.549956 0.248284
v -0.000000 0.266478 -0.248284
v -0.000000 0.232236 -0.248284
v -0.000000 0.266478 0.248284
v -0.000000 0.232236 0.248284
v 0.000000 -0.005783 0.248284
v 0.000000 0.028458 0.248284
v -0.000000 -0.005783 -0.248284
v -0.000000 0.028458 -0.248284
vn -0.0000 -1.0000 -0.0000
vn -0.0000 -0.0000 -1.0000
vn -0.0000 1.0000 -0.0000
vn -0.0000 -0.0000 1.0000
vn -1.0000 -0.0000 -0.0000
vn 1.0000 -0.0000 -0.0000
vt 0.945402 0.804668
vt 0.945402 0.804668
vt 0.945402 0.804668
vt 0.945402 0.804668
vt 0.945402 0.804668
vt 0.945402 0.804668
vt 0.945402 0.804668
vt 0.945402 0.804668
vt 0.945402 0.804668
vt 0.945402 0.804668
vt 0.945402 0.804668
vt 0.945402 0.804668
vt 0.945402 0.804668
vt 0.945402 0.804668
vt 0.945402 0.804668
vt 0.945402 0.804668
vt 0.945402 0.804668
vt 0.945402 0.804668
vt 0.945402 0.804668
vt 0.945402 0.804668
vt 0.945402 0.804668
vt 0.945402 0.804668
vt 0.945402 0.804668
vt 0.945402 0.804668
vt 0.945402 0.804668
vt 0.945402 0.804668
vt 0.945402 0.804668
vt 0.945402 0.804668
vt 0.945402 0.804668
vt 0.945402 0.804668
vt 0.945402 0.804668
vt 0.945402 0.804668
vt 0.945402 0.804668
vt 0.945402 0.804668
vt 0.945402 0.804668
vt 0.945402 0.804668
vt 0.945402 0.804668
vt 0.945402 0.804668
vt 0.945402 0.804668
vt 0.945402 0.804668
vt 0.945402 0.804668
vt 0.945402 0.804668
vt 0.945402 0.804668
vt 0.945402 0.804668
vt 0.945402 0.804668
vt 0.945402 0.804668
vt 0.945402 0.804668
vt 0.945402 0.804668
vt 0.945402 0.804668
vt 0.945402 0.804668
vt 0.945402 0.804668
vt 0.945402 0.804668
vt 0.945402 0.804668
vt 0.945402 0.804668
vt 0.945402 0.804668
vt 0.945402 0.804668
vt 0.945402 0.804668
vt 0.945402 0.804668
vt 0.945402 0.804668
vt 0.945402 0.804668
vt 0.945402 0.804668
vt 0.945402 0.804668
vt 0.945402 0.804668
vt 0.945402 0.804668
vt 0.945402 0.804668
vt 0.945402 0.804668
vt 0.945402 0.804668
vt 0.945402 0.804668
vt 0.945402 0.804668
vt 0.945402 0.804668
vt 0.945402 0.804668
vt 0.945402 0.804668
vt 0.945402 0.804668
vt 0.945402 0.804668
vt 0.945402 0.804668
vt 0.945402 0.804668
vt 0.945402 0.804668
vt 0.945402 0.804668
vt 0.945402 0.804668
vt 0.945402 0.804668
vt 0.945402 0.804668
vt 0.945402 0.804668
vt 0.945402 0.804668
vt 0.945402 0.804668
s 0
f 1/1/1 3/3/1 4/4/1 2/2/1
f 3/3/2 7/7/2 8/8/2 4/4/2
f 7/7/3 5/5/3 6/6/3 8/8/3
f 5/5/4 1/1/4 2/2/4 6/6/4
f 3/3/5 1/1/5 5/5/5 7/7/5
f 8/8/6 6/6/6 2/2/6 4/4/6
f 14/14/5 16/16/5 12/12/5 10/10/5
f 14/14/2 10/10/2 9/9/2 13/13/2
f 16/16/1 14/14/1 13/13/1 15/15/1
f 12/12/4 16/16/4 15/15/4 11/11/4
f 9/9/6 11/11/6 15/15/6 13/13/6
f 10/10/3 12/12/3 11/11/3 9/9/3
f 22/22/5 24/24/5 20/20/5 18/18/5
f 22/22/2 18/18/2 17/17/2 21/21/2
f 24/24/1 22/22/1 21/21/1 23/23/1
f 20/20/4 24/24/4 23/23/4 19/19/4
f 17/17/6 19/19/6 23/23/6 21/21/6
f 18/18/3 20/20/3 19/19/3 17/17/3
f 73/73/2 27/27/2 28/28/2 74/74/2
f 27/27/5 25/25/5 26/26/5 28/28/5
f 73/73/1 75/75/1 25/25/1 27/27/1
f 84/84/3 30/30/3 32/32/3 82/82/3
f 84/84/2 83/83/2 29/29/2 30/30/2
f 30/30/5 29/29/5 31/31/5 32/32/5
f 77/77/2 78/78/2 36/36/2 35/35/2
f 35/35/5 36/36/5 34/34/5 33/33/5
f 77/77/3 35/35/3 33/33/3 79/79/3
f 28/28/3 26/26/3 76/76/3 74/74/3
f 25/25/4 75/75/4 76/76/4 26/26/4
f 36/36/1 78/78/1 80/80/1 34/34/1
f 33/33/4 34/34/4 80/80/4 79/79/4
f 29/29/1 83/83/1 81/81/1 31/31/1
f 32/32/4 31/31/4 81/81/4 82/82/4
f 37/37/1 38/38/1 40/40/1 39/39/1
f 39/39/2 40/40/2 44/44/2 43/43/2
f 43/43/3 44/44/3 42/42/3 41/41/3
f 41/41/4 42/42/4 38/38/4 37/37/4
f 39/39/6 43/43/6 41/41/6 37/37/6
f 44/44/5 40/40/5 38/38/5 42/42/5
f 50/50/6 46/46/6 48/48/6 52/52/6
f 50/50/2 49/49/2 45/45/2 46/46/2
f 52/52/1 51/51/1 49/49/1 50/50/1
f 48/48/4 47/47/4 51/51/4 52/52/4
f 45/45/5 49/49/5 51/51/5 47/47/5
f 46/46/3 45/45/3 47/47/3 48/48/3
f 58/58/6 54/54/6 56/56/6 60/60/6
f 58/58/2 57/57/2 53/53/2 54/54/2
f 60/60/1 59/59/1 57/57/1 58/58/1
f 56/56/4 55/55/4 59/59/4 60/60/4
f 53/53/5 57/57/5 59/59/5 55/55/5
f 54/54/3 53/53/3 55/55/3 56/56/3
f 73/73/2 74/74/2 64/64/2 63/63/2
f 63/63/6 64/64/6 62/62/6 61/61/6
f 73/73/1 63/63/1 61/61/1 75/75/1
f 84/84/3 82/82/3 68/68/3 66/66/3
f 84/84/2 66/66/2 65/65/2 83/83/2
f 66/66/6 68/68/6 67/67/6 65/65/6
f 77/77/2 71/71/2 72/72/2 78/78/2
f 71/71/6 69/69/6 70/70/6 72/72/6
f 77/77/3 79/79/3 69/69/3 71/71/3
f 64/64/3 74/74/3 76/76/3 62/62/3
f 61/61/4 62/62/4 76/76/4 75/75/4
f 72/72/1 70/70/1 80/80/1 78/78/1
f 69/69/4 79/79/4 80/80/4 70/70/4
f 65/65/1 67/67/1 81/81/1 83/83/1
f 68/68/4 82/82/4 81/81/4 67/67/4
