# Blender 3.3.1
# www.blender.org
o SofaLong
v -0.345406 0.603236 0.452616
v -0.347119 0.576259 0.452616
v -0.259514 0.592406 0.452616
v -0.270732 0.616999 0.452616
v -0.347119 0.576259 0.023416
v -0.345406 0.603236 0.023416
v -0.259514 0.592406 0.023416
v -0.270732 0.616999 0.023416
v -0.285766 0.279651 0.489778
v -0.292232 0.278459 0.452616
v -0.281014 0.253866 0.452616
v -0.204627 0.294606 0.452616
v -0.211093 0.293414 0.489778
v -0.206340 0.267629 0.452616
v -0.281014 0.253866 0.023416
v -0.292232 0.278459 0.023416
v -0.285766 0.279651 -0.013746
v -0.204627 0.294606 0.023416
v -0.206340 0.267629 0.023416
v -0.211093 0.293414 -0.013746
v -0.229258 0.428246 0.023416
v -0.231743 0.405455 -0.013746
v -0.312882 0.390501 0.023416
v -0.306417 0.391692 -0.013746
v -0.229258 0.428246 0.452616
v -0.231743 0.405455 0.489778
v -0.312882 0.390501 0.452616
v -0.306417 0.391692 0.489778
v -0.347119 0.576259 0.550373
v -0.340654 0.577451 0.604463
v -0.345406 0.603236 0.550373
v -0.270732 0.616999 0.550373
v -0.265980 0.591214 0.604463
v -0.259514 0.592406 0.550373
v -0.340654 0.577451 -0.014722
v -0.265980 0.591214 -0.014722
v -0.229258 0.428246 0.550373
v -0.306417 0.391692 0.604463
v -0.231743 0.405455 0.604463
v -0.312882 0.390501 0.550373
v -0.257712 0.170603 0.509385
v -0.296278 0.170603 0.470847
v -0.257712 0.162630 0.470847
v -0.257712 0.262687 0.509385
v -0.257712 0.270660 0.470847
v -0.296278 0.262687 0.470847
v -0.257712 0.170603 -0.012776
v -0.257712 0.162630 0.025762
v -0.296278 0.170603 0.025762
v -0.257712 0.270660 0.025762
v -0.257712 0.262687 -0.012776
v -0.296278 0.262687 0.025762
v 0.187706 0.170604 0.509385
v 0.187706 0.162631 0.470847
v 0.226272 0.170604 0.470847
v 0.187706 0.270660 0.470847
v 0.187706 0.262687 0.509385
v 0.226272 0.262687 0.470847
v 0.226272 0.170604 0.025762
v 0.187706 0.162631 0.025762
v 0.187706 0.170604 -0.012776
v 0.187706 0.270660 0.025762
v 0.226272 0.262687 0.025762
v 0.187706 0.262687 -0.012776
v -0.431752 -0.010586 0.665084
v -0.431796 0.166359 0.655814
v -0.431752 -0.010586 -0.698760
v -0.431797 0.166359 -0.689490
v 0.265944 -0.010586 0.665084
v 0.223863 0.166359 0.655814
v 0.265943 -0.010586 -0.698760
v 0.223862 0.166359 -0.689490
v -0.431796 0.166359 0.513442
v -0.431797 0.166359 -0.549001
v 0.223862 0.166359 -0.559480
v 0.223863 0.166359 0.525804
v -0.300913 0.166359 -0.689490
v -0.290711 -0.010586 -0.698760
v -0.300913 0.166359 0.655814
v -0.290711 -0.010586 0.665084
v -0.300913 0.166359 -0.549001
v -0.300913 0.166359 0.513442
v -0.300913 0.358267 -0.689490
v -0.300913 0.358267 0.655814
v -0.431796 0.358267 0.655814
v -0.300913 0.358893 -0.549001
v -0.300913 0.358893 0.513442
v -0.431796 0.358893 0.513442
v -0.431797 0.358267 -0.689490
v -0.431797 0.358893 -0.549001
v 0.173220 0.358267 -0.689490
v 0.223862 0.307624 -0.689490
v 0.223862 0.307624 -0.559480
v 0.173220 0.358267 -0.559480
v 0.173220 0.358267 0.525804
v 0.223863 0.307624 0.525804
v 0.223863 0.307624 0.655814
v 0.173220 0.358267 0.655814
v -0.431796 0.395144 0.513442
v -0.431797 0.395144 -0.549001
v -0.300913 0.395144 -0.549001
v -0.300913 0.395144 0.513442
v -0.470949 0.554649 0.513442
v -0.470950 0.554649 -0.549001
v -0.300913 0.395144 0.618856
v -0.431796 0.395144 0.618857
v -0.300913 0.395144 -0.654416
v -0.431797 0.395144 -0.654416
v -0.470949 0.554649 0.618857
v -0.470950 0.554649 -0.654416
v -0.388372 0.567905 0.513442
v -0.334232 0.528741 0.513442
v -0.334232 0.528741 -0.549001
v -0.388372 0.567905 -0.549001
v -0.334232 0.528741 0.618856
v -0.388372 0.567905 0.618856
v -0.388372 0.567905 -0.654416
v -0.334232 0.528741 -0.654416
v -0.345407 0.603236 -0.487346
v -0.347120 0.576259 -0.487346
v -0.259515 0.592406 -0.487346
v -0.270733 0.616999 -0.487346
v -0.347120 0.576259 -0.058146
v -0.345407 0.603236 -0.058146
v -0.259515 0.592406 -0.058146
v -0.270733 0.616999 -0.058146
v -0.285767 0.279651 -0.524508
v -0.292232 0.278459 -0.487346
v -0.281014 0.253866 -0.487346
v -0.204627 0.294606 -0.487346
v -0.211093 0.293414 -0.524508
v -0.206341 0.267629 -0.487346
v -0.281014 0.253866 -0.058146
v -0.292232 0.278459 -0.058146
v -0.285767 0.279651 -0.020984
v -0.204627 0.294606 -0.058146
v -0.206341 0.267629 -0.058146
v -0.211093 0.293414 -0.020984
v -0.229259 0.428246 -0.058146
v -0.231743 0.405455 -0.020984
v -0.312883 0.390501 -0.058146
v -0.306417 0.391692 -0.020984
v -0.229259 0.428246 -0.487346
v -0.231743 0.405455 -0.524508
v -0.312883 0.390501 -0.487346
v -0.306417 0.391692 -0.524508
v -0.347120 0.576259 -0.585103
v -0.340654 0.577451 -0.639193
v -0.345407 0.603236 -0.585103
v -0.270733 0.616999 -0.585103
v -0.265980 0.591214 -0.639193
v -0.259515 0.592406 -0.585103
v -0.340654 0.577451 -0.020008
v -0.265980 0.591214 -0.020008
v -0.229259 0.428246 -0.585102
v -0.306417 0.391692 -0.639193
v -0.231743 0.405455 -0.639193
v -0.312883 0.390501 -0.585102
v -0.257712 0.170603 -0.542400
v -0.296279 0.170603 -0.503863
v -0.257712 0.162630 -0.503863
v -0.257712 0.262687 -0.542400
v -0.257712 0.270660 -0.503863
v -0.296279 0.262687 -0.503863
v -0.257712 0.170603 -0.020239
v -0.257712 0.162630 -0.058777
v -0.296279 0.170603 -0.058777
v -0.257712 0.270660 -0.058777
v -0.257712 0.262687 -0.020239
v -0.296279 0.262687 -0.058777
v 0.265197 0.170603 -0.542400
v 0.187705 0.162631 -0.503862
v 0.337061 0.170604 -0.503862
v 0.306710 0.270660 -0.503863
v 0.265197 0.262687 -0.542400
v 0.265197 0.262687 -0.662688
v 0.337061 0.170604 -0.058777
v 0.187705 0.162630 -0.058777
v 0.265196 0.170603 -0.020239
v 0.282086 0.270660 -0.058777
v 0.306710 0.270660 -0.624150
v 0.282086 0.262687 -0.020239
v 0.223863 0.166359 -0.004083
v -0.300913 0.166359 -0.017780
v -0.431797 0.395144 -0.017780
v -0.300913 0.395144 -0.017780
v -0.470950 0.554649 -0.017780
v -0.388372 0.567905 -0.017780
v -0.334232 0.528741 -0.017780
v -0.431797 0.166359 -0.017780
v -0.431797 0.358893 -0.017780
v -0.300913 0.358893 -0.017780
v -0.431752 -0.010586 -0.016838
v 0.265944 -0.010586 -0.004083
v -0.290711 -0.010586 -0.016838
v 0.852088 0.166359 -0.689490
v 0.894169 -0.010586 -0.698760
v 0.894169 -0.010586 -0.004083
v 0.852088 0.166359 -0.004083
v 0.818777 0.170604 -0.503862
v 0.780211 0.170604 -0.542400
v 0.818777 0.262687 -0.503863
v 0.780211 0.270660 -0.503863
v 0.780211 0.170604 -0.020239
v 0.818777 0.170604 -0.058777
v 0.780211 0.262687 -0.020239
v 0.780211 0.270660 -0.058777
v 0.818777 0.262687 -0.058777
v 0.780211 0.270660 -0.624150
v 0.780211 0.170604 -0.662688
v 0.265197 0.170603 -0.662688
v 0.780211 0.262687 -0.662688
v 0.818777 0.170604 -0.624150
v 0.818777 0.262687 -0.624150
vn -0.9834 -0.1813 -0.0000
vn 0.1813 -0.9834 -0.0000
vn 0.9834 0.1813 -0.0000
vn -0.9980 0.0634 -0.0000
vn -0.0000 -0.0000 -1.0000
vn -0.8967 -0.4090 0.1691
vn 0.9836 -0.0625 0.1691
vn -0.8967 -0.4090 -0.1691
vn 0.9836 -0.0625 -0.1691
vn 0.9098 0.4150 -0.0000
vn 0.9684 0.1785 -0.1742
vn 0.1481 -0.8036 -0.5765
vn 0.9980 -0.0634 -0.0000
vn 0.1481 -0.8036 0.5765
vn -0.9098 -0.4150 -0.0000
vn -0.9684 -0.1785 0.1742
vn -0.1813 0.9834 -0.0000
vn 0.9684 0.1785 0.1742
vn -0.9684 -0.1785 -0.1742
vn 0.9941 -0.1084 -0.0000
vn -0.0000 -0.0000 1.0000
vn -0.9911 0.0629 0.1171
vn 0.9036 0.4122 0.1171
vn 0.8974 0.4093 -0.1649
vn -0.1631 0.8850 0.4362
vn -0.1494 0.8104 -0.5665
vn 0.9763 0.1799 0.1207
vn -0.9763 -0.1799 0.1207
vn 0.0009 -0.0051 -1.0000
vn -0.9687 -0.1790 -0.1720
vn -0.0000 -1.0000 -0.0000
vn 1.0000 -0.0000 -0.0000
vn -0.0000 1.0000 -0.0000
vn -0.1984 -0.9598 0.1986
vn -0.1984 0.9598 0.1986
vn -0.1984 -0.9598 -0.1986
vn -0.1984 0.9598 -0.1986
vn 0.1984 -0.9598 0.1986
vn 0.1984 0.9598 0.1986
vn 0.1984 -0.9598 -0.1986
vn 0.1984 0.9598 -0.1986
vn -0.7068 -0.0000 0.7074
vn -0.2025 0.9793 -0.0000
vn -0.7068 -0.0000 -0.7074
vn -0.2025 -0.9793 -0.0000
vn -0.0000 0.9793 -0.2026
vn 0.7068 -0.0000 -0.7074
vn -0.0000 -0.9793 -0.2026
vn 0.2025 0.9793 -0.0000
vn 0.7068 -0.0000 0.7074
vn 0.2025 -0.9793 -0.0000
vn -0.0000 0.9793 0.2026
vn -0.0000 -0.9793 0.2026
vn -1.0000 -0.0000 -0.0000
vn -0.0000 0.0523 -0.9986
vn -0.0000 0.0523 0.9986
vn 0.9729 0.2314 -0.0000
vn 0.0006 1.0000 0.0023
vn -0.0000 1.0000 -0.0045
vn -0.0000 1.0000 0.0044
vn 0.0202 0.0027 0.9998
vn 0.0239 0.0031 -0.9997
vn 0.7071 0.7071 -0.0000
vn 0.0006 1.0000 -0.0023
vn 0.9703 0.2420 -0.0000
vn -0.9712 -0.2384 -0.0000
vn -0.1585 0.9874 -0.0000
vn 0.5861 0.8102 -0.0000
vn -1.0000 -0.0003 -0.0000
vn 0.9689 0.1781 -0.1719
vn -0.9843 0.0625 -0.1649
vn -0.9911 0.0629 -0.1171
vn 0.9036 0.4122 -0.1171
vn 0.8974 0.4093 0.1649
vn -0.1631 0.8850 -0.4362
vn -0.1494 0.8104 0.5665
vn 0.9763 0.1799 -0.1207
vn -0.9763 -0.1799 -0.1207
vn 0.0009 -0.0051 1.0000
vn -0.9687 -0.1790 0.1720
vn 0.0530 -0.9937 -0.0989
vn 0.0530 -0.9937 0.0989
vn -0.1886 0.9821 -0.0000
vn 0.0533 -0.9986 -0.0000
vn 0.9689 0.1781 0.1719
vn -0.9843 0.0625 0.1649
vt 0.325441 0.308988
vt 0.325441 0.308988
vt 0.325441 0.308988
vt 0.325441 0.308988
vt 0.325441 0.308988
vt 0.325441 0.308988
vt 0.325441 0.308988
vt 0.325441 0.308988
vt 0.325441 0.308988
vt 0.325441 0.308988
vt 0.325441 0.308988
vt 0.325441 0.308988
vt 0.325441 0.308988
vt 0.325441 0.308988
vt 0.325441 0.308988
vt 0.325441 0.308988
vt 0.325441 0.308988
vt 0.325441 0.308988
vt 0.325441 0.308988
vt 0.325441 0.308988
vt 0.325441 0.308988
vt 0.325441 0.308988
vt 0.325441 0.308988
vt 0.325441 0.308988
vt 0.325441 0.308988
vt 0.325441 0.308988
vt 0.325441 0.308988
vt 0.325441 0.308988
vt 0.325441 0.308988
vt 0.325441 0.308988
vt 0.325441 0.308988
vt 0.325441 0.308988
vt 0.325441 0.308988
vt 0.325441 0.308988
vt 0.325441 0.308988
vt 0.325441 0.308988
vt 0.325441 0.308988
vt 0.325441 0.308988
vt 0.325441 0.308988
vt 0.325441 0.308988
vt 0.325441 0.308988
vt 0.325441 0.308988
vt 0.325441 0.308988
vt 0.325441 0.308988
vt 0.325441 0.308988
vt 0.325441 0.308988
vt 0.325441 0.308988
vt 0.325441 0.308988
vt 0.325441 0.308988
vt 0.325441 0.308988
vt 0.325441 0.308988
vt 0.325441 0.308988
vt 0.325441 0.308988
vt 0.325441 0.308988
vt 0.325441 0.308988
vt 0.325441 0.308988
vt 0.325441 0.308988
vt 0.325441 0.308988
vt 0.325441 0.308988
vt 0.325441 0.308988
vt 0.325441 0.308988
vt 0.325441 0.308988
vt 0.325441 0.308988
vt 0.325441 0.308988
vt 0.188722 0.308988
vt 0.188722 0.308988
vt 0.188722 0.308988
vt 0.188722 0.308988
vt 0.188722 0.308988
vt 0.188722 0.308988
vt 0.188722 0.308988
vt 0.188722 0.308988
vt 0.188722 0.308988
vt 0.188722 0.308988
vt 0.188722 0.308988
vt 0.188722 0.308988
vt 0.188722 0.308988
vt 0.188722 0.308988
vt 0.188722 0.308988
vt 0.188722 0.308988
vt 0.188722 0.308988
vt 0.188722 0.308988
vt 0.188722 0.308988
vt 0.188722 0.308988
vt 0.188722 0.308988
vt 0.188722 0.308988
vt 0.188722 0.308988
vt 0.188723 0.308988
vt 0.188722 0.308988
vt 0.188722 0.308988
vt 0.188722 0.308988
vt 0.188722 0.308988
vt 0.188722 0.308988
vt 0.188722 0.308988
vt 0.188722 0.308988
vt 0.188722 0.308988
vt 0.188722 0.308988
vt 0.188722 0.308988
vt 0.188723 0.308988
vt 0.188722 0.308988
vt 0.188722 0.308988
vt 0.188722 0.308988
vt 0.188722 0.308988
vt 0.188722 0.308988
vt 0.188722 0.308988
vt 0.188722 0.308988
vt 0.188722 0.308988
vt 0.188722 0.308988
vt 0.188722 0.308988
vt 0.188722 0.308988
vt 0.188722 0.308988
vt 0.188722 0.308988
vt 0.188722 0.308988
vt 0.188722 0.308988
vt 0.188722 0.308988
vt 0.188722 0.308988
vt 0.188722 0.308988
vt 0.188722 0.308988
vt 0.325441 0.308988
vt 0.325441 0.308988
vt 0.325441 0.308988
vt 0.325441 0.308988
vt 0.325441 0.308988
vt 0.325441 0.308988
vt 0.325441 0.308988
vt 0.325441 0.308988
vt 0.325441 0.308988
vt 0.325441 0.308988
vt 0.325441 0.308988
vt 0.325441 0.308988
vt 0.325441 0.308988
vt 0.325441 0.308988
vt 0.325441 0.308988
vt 0.325441 0.308988
vt 0.325441 0.308988
vt 0.325441 0.308988
vt 0.325441 0.308988
vt 0.325441 0.308988
vt 0.325441 0.308988
vt 0.325441 0.308988
vt 0.325441 0.308988
vt 0.325441 0.308988
vt 0.325441 0.308988
vt 0.325441 0.308988
vt 0.325441 0.308988
vt 0.325441 0.308988
vt 0.325441 0.308988
vt 0.325441 0.308988
vt 0.325441 0.308988
vt 0.325441 0.308988
vt 0.325441 0.308988
vt 0.325441 0.308988
vt 0.325441 0.308988
vt 0.325441 0.308988
vt 0.325441 0.308988
vt 0.325441 0.308988
vt 0.325441 0.308988
vt 0.325441 0.308988
vt 0.325441 0.308988
vt 0.325441 0.308988
vt 0.325441 0.308988
vt 0.325441 0.308988
vt 0.325441 0.308988
vt 0.325441 0.308988
vt 0.325441 0.308988
vt 0.325441 0.308988
vt 0.325441 0.308988
vt 0.325441 0.308988
vt 0.325441 0.308988
vt 0.325441 0.308988
vt 0.325441 0.308988
vt 0.325441 0.308988
vt 0.325441 0.308988
vt 0.325441 0.308988
vt 0.325441 0.308988
vt 0.325441 0.308988
vt 0.325441 0.308988
vt 0.325441 0.308988
vt 0.325441 0.308988
vt 0.325441 0.308988
vt 0.325441 0.308988
vt 0.325441 0.308988
vt 0.188722 0.308988
vt 0.188722 0.308988
vt 0.188722 0.308988
vt 0.188722 0.308988
vt 0.188722 0.308988
vt 0.188722 0.308988
vt 0.188722 0.308988
vt 0.188722 0.308988
vt 0.188722 0.308988
vt 0.188722 0.308988
vt 0.188722 0.308988
vt 0.188722 0.308988
vt 0.188722 0.308988
vt 0.188722 0.308988
vt 0.188722 0.308988
vt 0.188722 0.308988
vt 0.188722 0.308988
vt 0.325441 0.308988
vt 0.325441 0.308988
vt 0.325441 0.308988
vt 0.325441 0.308988
vt 0.325441 0.308988
vt 0.325441 0.308988
vt 0.325441 0.308988
vt 0.325441 0.308988
vt 0.325441 0.308988
vt 0.325441 0.308988
vt 0.325441 0.308988
vt 0.325441 0.308988
vt 0.325441 0.308988
vt 0.325441 0.308988
vt 0.325441 0.308988
s 0
f 27/27/1 23/23/1 16/16/1 10/10/1
f 19/19/2 14/14/2 11/11/2 15/15/2
f 25/25/3 21/21/3 7/7/3 3/3/3
f 1/1/4 2/2/4 29/29/4 31/31/4
f 22/22/5 20/20/5 17/17/5 24/24/5
f 28/28/2 26/26/2 39/39/2 38/38/2
f 9/9/6 10/10/6 11/11/6
f 12/12/7 13/13/7 14/14/7
f 15/15/8 16/16/8 17/17/8
f 18/18/9 19/19/9 20/20/9
f 3/3/10 7/7/10 8/8/10 4/4/10
f 25/25/3 3/3/3 34/34/3 37/37/3
f 5/5/4 2/2/4 1/1/4 6/6/4
f 21/21/11 18/18/11 20/20/11 22/22/11
f 19/19/12 15/15/12 17/17/12 20/20/12
f 18/18/13 12/12/13 14/14/13 19/19/13
f 13/13/14 9/9/14 11/11/14 14/14/14
f 10/10/15 16/16/15 15/15/15 11/11/15
f 27/27/16 10/10/16 9/9/16 28/28/16
f 4/4/17 8/8/17 6/6/17 1/1/17
f 12/12/18 25/25/18 26/26/18 13/13/18
f 16/16/19 23/23/19 24/24/19 17/17/19
f 26/26/20 25/25/20 37/37/20 39/39/20
f 3/3/10 4/4/10 32/32/10 34/34/10
f 13/13/21 26/26/21 28/28/21 9/9/21
f 12/12/3 18/18/3 21/21/3 25/25/3
f 2/2/1 5/5/1 23/23/1 27/27/1
f 39/39/21 33/33/21 30/30/21 38/38/21
f 30/30/22 31/31/22 29/29/22
f 33/33/23 34/34/23 32/32/23
f 7/7/24 36/36/24 8/8/24
f 30/30/25 33/33/25 32/32/25 31/31/25
f 36/36/26 35/35/26 6/6/26 8/8/26
f 37/37/27 34/34/27 33/33/27 39/39/27
f 29/29/28 40/40/28 38/38/28 30/30/28
f 36/36/29 22/22/29 24/24/29 35/35/29
f 2/2/1 27/27/1 40/40/1 29/29/1
f 4/4/17 1/1/17 31/31/17 32/32/17
f 23/23/30 5/5/30 35/35/30 24/24/30
f 27/27/2 28/28/2 38/38/2 40/40/2
f 43/43/31 48/48/31 60/60/31 54/54/31
f 63/63/32 58/58/32 55/55/32 59/59/32
f 56/56/33 62/62/33 50/50/33 45/45/33
f 57/57/21 44/44/21 41/41/21 53/53/21
f 51/51/5 64/64/5 61/61/5 47/47/5
f 41/41/34 42/42/34 43/43/34
f 44/44/35 45/45/35 46/46/35
f 47/47/36 48/48/36 49/49/36
f 50/50/37 51/51/37 52/52/37
f 53/53/38 54/54/38 55/55/38
f 56/56/39 57/57/39 58/58/39
f 59/59/40 60/60/40 61/61/40
f 62/62/41 63/63/41 64/64/41
f 41/41/42 44/44/42 46/46/42 42/42/42
f 45/45/43 50/50/43 52/52/43 46/46/43
f 51/51/44 47/47/44 49/49/44 52/52/44
f 48/48/45 43/43/45 42/42/45 49/49/45
f 50/50/46 62/62/46 64/64/46 51/51/46
f 63/63/47 59/59/47 61/61/47 64/64/47
f 60/60/48 48/48/48 47/47/48 61/61/48
f 62/62/49 56/56/49 58/58/49 63/63/49
f 57/57/50 53/53/50 55/55/50 58/58/50
f 54/54/51 60/60/51 59/59/51 55/55/51
f 56/56/52 45/45/52 44/44/52 57/57/52
f 43/43/53 54/54/53 53/53/53 41/41/53
f 46/46/54 52/52/54 49/49/54 42/42/54
f 77/77/55 72/72/55 71/71/55 78/78/55
f 79/79/56 66/66/56 65/65/56 80/80/56
f 195/195/31 78/78/31 71/71/31 194/194/31
f 77/77/5 68/68/5 89/89/5 83/83/5
f 70/70/32 76/76/32 96/96/32 97/97/32
f 194/194/57 183/183/57 76/76/57 70/70/57 69/69/57
f 84/84/58 98/98/58 95/95/58 87/87/58
f 193/193/31 67/67/31 78/78/31 195/195/31
f 70/70/56 79/79/56 80/80/56 69/69/56
f 68/68/55 77/77/55 78/78/55 67/67/55
f 83/83/59 89/89/59 90/90/59 86/86/59
f 75/75/32 72/72/32 92/92/32 93/93/32
f 79/79/21 70/70/21 97/97/21 98/98/21 84/84/21
f 85/85/60 84/84/60 87/87/60 88/88/60
f 81/81/61 75/75/61 93/93/61 94/94/61 86/86/61
f 73/73/54 66/66/54 85/85/54 88/88/54
f 68/68/54 74/74/54 90/90/54 89/89/54
f 76/76/62 82/82/62 87/87/62 95/95/62 96/96/62
f 184/184/32 81/81/32 86/86/32 192/192/32
f 66/66/21 79/79/21 84/84/21 85/85/21
f 72/72/5 77/77/5 83/83/5 91/91/5 92/92/5
f 93/93/63 92/92/63 91/91/63 94/94/63
f 95/95/63 98/98/63 97/97/63 96/96/63
f 91/91/64 83/83/64 86/86/64 94/94/64
f 102/102/65 112/112/65 115/115/65 105/105/65
f 88/88/21 87/87/21 102/102/21 99/99/21
f 86/86/5 90/90/5 100/100/5 101/101/5
f 186/186/65 101/101/65 113/113/65 189/189/65
f 113/113/65 101/101/65 107/107/65 118/118/65
f 185/185/66 99/99/66 103/103/66 187/187/66
f 103/103/66 99/99/66 106/106/66 109/109/66
f 107/107/5 108/108/5 110/110/5 117/117/5 118/118/5
f 101/101/31 100/100/31 108/108/31 107/107/31
f 100/100/66 104/104/66 110/110/66 108/108/66
f 104/104/67 114/114/67 117/117/67 110/110/67
f 106/106/21 105/105/21 115/115/21 116/116/21 109/109/21
f 99/99/31 102/102/31 105/105/31 106/106/31
f 188/188/67 114/114/67 104/104/67 187/187/67
f 188/188/68 111/111/68 112/112/68 189/189/68
f 111/111/68 116/116/68 115/115/68 112/112/68
f 117/117/68 114/114/68 113/113/68 118/118/68
f 111/111/67 103/103/67 109/109/67 116/116/67
f 192/192/32 86/86/32 101/101/32 186/186/32
f 183/183/33 75/75/33 81/81/33 184/184/33
f 193/193/69 190/190/69 74/74/69 68/68/69 67/67/69
f 191/191/54 88/88/54 99/99/54 185/185/54
f 190/190/54 73/73/54 88/88/54 191/191/54
f 7/7/70 21/21/70 22/22/70 36/36/70
f 5/5/71 6/6/71 35/35/71
f 145/145/1 128/128/1 134/134/1 141/141/1
f 137/137/2 133/133/2 129/129/2 132/132/2
f 143/143/3 121/121/3 125/125/3 139/139/3
f 119/119/4 149/149/4 147/147/4 120/120/4
f 140/140/21 142/142/21 135/135/21 138/138/21
f 146/146/2 156/156/2 157/157/2 144/144/2
f 127/127/8 129/129/8 128/128/8
f 130/130/9 132/132/9 131/131/9
f 133/133/6 135/135/6 134/134/6
f 136/136/7 138/138/7 137/137/7
f 121/121/10 122/122/10 126/126/10 125/125/10
f 143/143/3 155/155/3 152/152/3 121/121/3
f 123/123/4 124/124/4 119/119/4 120/120/4
f 139/139/18 140/140/18 138/138/18 136/136/18
f 137/137/14 138/138/14 135/135/14 133/133/14
f 136/136/13 137/137/13 132/132/13 130/130/13
f 131/131/12 132/132/12 129/129/12 127/127/12
f 128/128/15 129/129/15 133/133/15 134/134/15
f 145/145/19 146/146/19 127/127/19 128/128/19
f 122/122/17 119/119/17 124/124/17 126/126/17
f 130/130/11 131/131/11 144/144/11 143/143/11
f 134/134/16 135/135/16 142/142/16 141/141/16
f 144/144/20 157/157/20 155/155/20 143/143/20
f 121/121/10 152/152/10 150/150/10 122/122/10
f 131/131/5 127/127/5 146/146/5 144/144/5
f 130/130/3 143/143/3 139/139/3 136/136/3
f 120/120/1 145/145/1 141/141/1 123/123/1
f 157/157/5 156/156/5 148/148/5 151/151/5
f 148/148/72 147/147/72 149/149/72
f 151/151/73 150/150/73 152/152/73
f 125/125/74 126/126/74 154/154/74
f 148/148/75 149/149/75 150/150/75 151/151/75
f 154/154/76 126/126/76 124/124/76 153/153/76
f 155/155/77 157/157/77 151/151/77 152/152/77
f 147/147/78 148/148/78 156/156/78 158/158/78
f 154/154/79 153/153/79 142/142/79 140/140/79
f 120/120/1 147/147/1 158/158/1 145/145/1
f 122/122/17 150/150/17 149/149/17 119/119/17
f 141/141/80 142/142/80 153/153/80 123/123/80
f 145/145/2 158/158/2 156/156/2 146/146/2
f 161/161/31 172/172/31 178/178/31 166/166/31
f 177/177/31 173/173/31 200/200/31 205/205/31
f 174/174/33 163/163/33 168/168/33 180/180/33
f 175/175/5 171/171/5 159/159/5 162/162/5
f 169/169/21 165/165/21 179/179/21 182/182/21
f 159/159/36 161/161/36 160/160/36
f 162/162/37 164/164/37 163/163/37
f 165/165/34 167/167/34 166/166/34
f 168/168/35 170/170/35 169/169/35
f 171/171/81 173/173/81 172/172/81
f 173/173/31 171/171/31 201/201/31 200/200/31
f 177/177/82 179/179/82 178/178/82
f 202/202/32 200/200/32 213/213/32 214/214/32
f 159/159/44 160/160/44 164/164/44 162/162/44
f 163/163/43 164/164/43 170/170/43 168/168/43
f 169/169/42 170/170/42 167/167/42 165/165/42
f 166/166/45 167/167/45 160/160/45 161/161/45
f 168/168/52 169/169/52 182/182/52 180/180/52
f 174/174/33 180/180/33 207/207/33 203/203/33
f 178/178/53 179/179/53 165/165/53 166/166/53
f 179/179/31 177/177/31 205/205/31 204/204/31
f 175/175/83 174/174/83 181/181/83 176/176/83
f 172/172/84 173/173/84 177/177/84 178/178/84
f 174/174/46 175/175/46 162/162/46 163/163/46
f 161/161/48 159/159/48 171/171/48 172/172/48
f 164/164/54 160/160/54 167/167/54 170/170/54
f 125/125/85 154/154/85 140/140/85 139/139/85
f 123/123/86 153/153/86 124/124/86
f 74/74/54 190/190/54 191/191/54 90/90/54
f 90/90/54 191/191/54 185/185/54 100/100/54
f 76/76/33 183/183/33 184/184/33 82/82/33
f 87/87/32 192/192/32 186/186/32 102/102/32
f 114/114/68 188/188/68 189/189/68 113/113/68
f 111/111/67 188/188/67 187/187/67 103/103/67
f 100/100/66 185/185/66 187/187/66 104/104/66
f 102/102/65 186/186/65 189/189/65 112/112/65
f 82/82/32 184/184/32 192/192/32 87/87/32
f 65/65/31 193/193/31 195/195/31 80/80/31
f 80/80/31 195/195/31 194/194/31 69/69/31
f 183/183/21 194/194/21 198/198/21 199/199/21
f 66/66/69 73/73/69 190/190/69 193/193/69 65/65/69
f 196/196/57 199/199/57 198/198/57 197/197/57
f 71/71/55 72/72/55 196/196/55 197/197/55
f 194/194/31 71/71/31 197/197/31 198/198/31
f 208/208/32 205/205/32 200/200/32 202/202/32
f 171/171/54 175/175/54 176/176/54 211/211/54
f 207/207/39 206/206/39 208/208/39
f 208/208/50 206/206/50 204/204/50 205/205/50
f 207/207/49 208/208/49 202/202/49 203/203/49
f 203/203/49 202/202/49 214/214/49 209/209/49
f 180/180/52 182/182/52 206/206/52 207/207/52
f 182/182/21 179/179/21 204/204/21 206/206/21
f 176/176/46 181/181/46 209/209/46 212/212/46
f 211/211/5 176/176/5 212/212/5 210/210/5
f 209/209/41 214/214/41 212/212/41
f 212/212/47 214/214/47 213/213/47 210/210/47
f 200/200/31 201/201/31 210/210/31 213/213/31
f 174/174/33 203/203/33 209/209/33 181/181/33
f 201/201/31 171/171/31 211/211/31 210/210/31
f 72/72/33 75/75/33 183/183/33 199/199/33 196/196/33
