# Blender 3.3.1
# www.blender.org
o Stool
v -0.145976 0.253433 0.145299
v -0.130552 0.410315 0.125135
v -0.145976 0.253433 0.065972
v -0.130552 0.410315 0.058269
v -0.070562 0.253433 0.145299
v -0.063685 0.410315 0.125135
v -0.070562 0.253433 0.065972
v -0.063685 0.410315 0.058269
v -0.130552 0.477057 0.125135
v -0.063685 0.477057 0.058269
v -0.159883 0.533604 0.156269
v -0.159883 0.477057 0.156269
v -0.151845 0.194105 0.071841
v -0.151845 0.194105 0.151168
v -0.076431 0.194105 0.071841
v -0.076431 0.194105 0.151168
v -0.183145 -0.012708 0.099229
v -0.183145 -0.012708 0.180512
v -0.101862 -0.012708 0.099229
v -0.101862 -0.012708 0.180512
v 0.145976 0.253433 0.145299
v 0.130552 0.410315 0.125135
v 0.145976 0.253433 0.065972
v 0.130552 0.410315 0.058269
v 0.070562 0.253433 0.145299
v 0.063685 0.410315 0.125135
v 0.070562 0.253433 0.065972
v 0.063685 0.410315 0.058269
v 0.130552 0.477057 0.125135
v 0.063685 0.477057 0.058269
v 0.159883 0.533604 0.156269
v 0.159883 0.477057 0.156269
v 0.000000 0.410315 0.058269
v 0.000000 0.410315 0.125135
v 0.000000 0.477057 0.058269
v 0.000000 0.477057 0.125135
v 0.000000 0.533604 0.156269
v 0.000000 0.477057 0.156269
v 0.151845 0.194105 0.071841
v 0.151845 0.194105 0.151168
v 0.076431 0.194105 0.071841
v 0.076431 0.194105 0.151168
v 0.183145 -0.012708 0.099229
v 0.183145 -0.012708 0.180512
v 0.101862 -0.012708 0.099229
v 0.101862 -0.012708 0.180512
v -0.145976 0.253433 -0.145299
v -0.130552 0.410315 -0.125135
v -0.145976 0.253433 -0.065972
v -0.130552 0.410315 -0.058269
v -0.070562 0.253433 -0.145299
v -0.063685 0.410315 -0.125135
v -0.070562 0.253433 -0.065972
v -0.063685 0.410315 -0.058269
v -0.130552 0.477057 -0.125135
v -0.063685 0.477057 -0.058269
v -0.159883 0.533604 -0.156269
v -0.159883 0.477057 -0.156269
v -0.130552 0.410315 0.000000
v -0.063685 0.410315 0.000000
v -0.130552 0.477057 0.000000
v -0.063685 0.477057 0.000000
v -0.159883 0.533604 0.000000
v -0.159883 0.477057 0.000000
v -0.151845 0.194105 -0.071841
v -0.151845 0.194105 -0.151168
v -0.076431 0.194105 -0.071841
v -0.076431 0.194105 -0.151168
v -0.183145 -0.012708 -0.099229
v -0.183145 -0.012708 -0.180512
v -0.101862 -0.012708 -0.099229
v -0.101862 -0.012708 -0.180512
v 0.145976 0.253433 -0.145299
v 0.130552 0.410315 -0.125135
v 0.145976 0.253433 -0.065972
v 0.130552 0.410315 -0.058269
v 0.070562 0.253433 -0.145299
v 0.063685 0.410315 -0.125135
v 0.070562 0.253433 -0.065972
v 0.063685 0.410315 -0.058269
v 0.130552 0.477057 -0.125135
v 0.063685 0.477057 -0.058269
v 0.159883 0.533604 -0.156269
v 0.159883 0.477057 -0.156269
v 0.000000 0.410315 -0.058269
v 0.000000 0.410315 -0.125135
v 0.000000 0.477057 -0.058269
v 0.000000 0.477057 -0.125135
v 0.000000 0.533604 -0.156269
v 0.000000 0.477057 -0.156269
v 0.130552 0.410315 0.000000
v 0.063685 0.410315 0.000000
v 0.130552 0.477057 0.000000
v 0.063685 0.477057 0.000000
v 0.159883 0.533604 0.000000
v 0.159883 0.477057 0.000000
v 0.000000 0.477057 0.000000
v 0.000000 0.533604 0.000000
v 0.151845 0.194105 -0.071841
v 0.151845 0.194105 -0.151168
v 0.076431 0.194105 -0.071841
v 0.076431 0.194105 -0.151168
v 0.183145 -0.012708 -0.099229
v 0.183145 -0.012708 -0.180512
v 0.101862 -0.012708 -0.099229
v 0.101862 -0.012708 -0.180512
vn -0.9952 0.0978 -0.0000
vn -0.0000 -0.0490 -0.9988
vn 0.9990 -0.0438 -0.0000
vn -0.0000 0.1275 0.9918
vn -0.9951 0.0984 -0.0000
vn -0.0000 1.0000 -0.0000
vn -0.0000 -1.0000 -0.0000
vn 1.0000 -0.0000 -0.0000
vn -0.0000 -0.0000 -1.0000
vn -0.0000 -0.0000 1.0000
vn -1.0000 -0.0000 -0.0000
vn 0.9925 -0.1220 -0.0000
vn -0.0000 0.0984 0.9951
vn -0.9887 0.1496 -0.0000
vn -0.0000 0.1405 0.9901
vn -0.0000 -0.1313 -0.9913
vn 0.9952 0.0978 -0.0000
vn -0.9990 -0.0438 -0.0000
vn 0.9951 0.0984 -0.0000
vn -0.9925 -0.1220 -0.0000
vn -0.0000 -0.0984 -0.9951
vn 0.9887 0.1496 -0.0000
vn -0.0000 -0.0490 0.9988
vn -0.0000 0.1275 -0.9918
vn 0.9951 -0.0984 -0.0000
vn -0.0000 0.0984 -0.9951
vn -0.0000 0.1405 -0.9901
vn -0.0000 -0.1313 0.9913
vn -0.9951 -0.0984 -0.0000
vn -0.0000 -0.0984 0.9951
vt 0.189961 0.684248
vt 0.189961 0.684248
vt 0.189961 0.684248
vt 0.189961 0.684248
vt 0.189961 0.684248
vt 0.189961 0.684248
vt 0.189961 0.684248
vt 0.189961 0.684248
vt 0.934055 0.805163
vt 0.189961 0.684248
vt 0.189961 0.684248
vt 0.934055 0.805163
vt 0.934055 0.805163
vt 0.934055 0.805163
vt 0.189961 0.684248
vt 0.189961 0.684248
vt 0.189961 0.684248
vt 0.189961 0.684248
vt 0.189961 0.684248
vt 0.189961 0.684248
vt 0.189961 0.684248
vt 0.189961 0.684248
vt 0.189961 0.684248
vt 0.189961 0.684248
vt 0.189961 0.684248
vt 0.189961 0.684248
vt 0.189961 0.684248
vt 0.189961 0.684248
vt 0.189961 0.684248
vt 0.189961 0.684248
vt 0.934055 0.805163
vt 0.189961 0.684248
vt 0.189961 0.684248
vt 0.934055 0.805163
vt 0.934055 0.805163
vt 0.934055 0.805163
vt 0.189961 0.684248
vt 0.189961 0.684248
vt 0.189961 0.684248
vt 0.934055 0.805163
vt 0.934055 0.805163
vt 0.189961 0.684248
vt 0.934055 0.805163
vt 0.934055 0.805163
vt 0.189961 0.684248
vt 0.189961 0.684248
vt 0.189961 0.684248
vt 0.189961 0.684248
vt 0.189961 0.684248
vt 0.189961 0.684248
vt 0.189961 0.684248
vt 0.189961 0.684248
vt 0.189961 0.684248
vt 0.189961 0.684248
vt 0.189961 0.684248
vt 0.189961 0.684248
vt 0.189961 0.684248
vt 0.189961 0.684248
vt 0.189961 0.684248
vt 0.189961 0.684248
vt 0.934055 0.805163
vt 0.189961 0.684248
vt 0.189961 0.684248
vt 0.934055 0.805163
vt 0.934055 0.805163
vt 0.934055 0.805163
vt 0.189961 0.684248
vt 0.189961 0.684248
vt 0.934055 0.805163
vt 0.189961 0.684248
vt 0.189961 0.684248
vt 0.934055 0.805163
vt 0.934055 0.805163
vt 0.934055 0.805163
vt 0.189961 0.684248
vt 0.189961 0.684248
vt 0.189961 0.684248
vt 0.189961 0.684248
vt 0.189961 0.684248
vt 0.189961 0.684248
vt 0.189961 0.684248
vt 0.189961 0.684248
vt 0.189961 0.684248
vt 0.189961 0.684248
vt 0.189961 0.684248
vt 0.189961 0.684248
vt 0.189961 0.684248
vt 0.189961 0.684248
vt 0.189961 0.684248
vt 0.189961 0.684248
vt 0.934055 0.805163
vt 0.189961 0.684248
vt 0.189961 0.684248
vt 0.934055 0.805163
vt 0.934055 0.805163
vt 0.934055 0.805163
vt 0.189961 0.684248
vt 0.189961 0.684248
vt 0.189961 0.684248
vt 0.934055 0.805163
vt 0.934055 0.805163
vt 0.189961 0.684248
vt 0.934055 0.805163
vt 0.934055 0.805163
vt 0.189961 0.684248
vt 0.189961 0.684248
vt 0.934055 0.805163
vt 0.189961 0.684248
vt 0.189961 0.684248
vt 0.934055 0.805163
vt 0.934055 0.805163
vt 0.934055 0.805163
vt 0.934055 0.805163
vt 0.934055 0.805163
vt 0.189961 0.684248
vt 0.189961 0.684248
vt 0.189961 0.684248
vt 0.189961 0.684248
vt 0.189961 0.684248
vt 0.189961 0.684248
vt 0.189961 0.684248
vt 0.189961 0.684248
s 0
f 2/2/1 4/4/1 3/3/1 1/1/1
f 4/4/2 8/8/2 7/7/2 3/3/2
f 8/8/3 6/6/3 5/5/3 7/7/3
f 6/6/4 2/2/4 1/1/4 5/5/4
f 1/1/5 3/3/5 13/15/5 14/16/5
f 11/13/6 37/43/6 98/114/6
f 6/6/7 8/8/7 33/37/7 34/38/7
f 8/8/7 4/4/7 59/67/7 60/68/7
f 10/11/8 8/8/8 60/68/8 62/71/8
f 61/69/7 9/9/7 12/14/7 64/74/7
f 9/9/7 36/41/7 38/44/7 12/14/7
f 8/8/9 10/11/9 35/39/9 33/37/9
f 9/10/10 6/6/10 34/38/10 36/42/10
f 2/2/10 6/6/10 9/10/10
f 35/40/7 10/12/7 97/113/7
f 10/12/7 62/72/7 97/113/7
f 63/73/6 11/13/6 98/114/6
f 64/74/11 12/14/11 11/13/11 63/73/11
f 4/4/11 9/10/11 61/70/11 59/67/11
f 4/4/11 2/2/11 9/10/11
f 12/14/10 38/44/10 37/43/10 11/13/10
f 15/17/12 16/18/12 20/22/12 19/21/12
f 5/5/13 1/1/13 14/16/13 16/18/13
f 49/55/6 3/3/6 7/7/6 53/59/6
f 16/18/7 15/17/7 41/47/7 42/48/7
f 25/27/13 5/5/13 16/18/13 42/48/13
f 67/77/7 15/17/7 13/15/7 65/75/7
f 13/15/5 3/3/5 49/55/5 65/75/5
f 75/85/6 79/89/6 27/29/6 23/25/6
f 18/20/7 17/19/7 19/21/7 20/22/7
f 14/16/14 13/15/14 17/19/14 18/20/14
f 16/18/15 14/16/15 18/20/15 20/22/15
f 13/15/16 15/17/16 19/21/16 17/19/16
f 22/24/17 21/23/17 23/25/17 24/26/17
f 24/26/2 23/25/2 27/29/2 28/30/2
f 28/30/18 27/29/18 25/27/18 26/28/18
f 26/28/4 25/27/4 21/23/4 22/24/4
f 21/23/19 40/46/19 39/45/19 23/25/19
f 31/35/6 98/114/6 37/43/6
f 26/28/7 34/38/7 33/37/7 28/30/7
f 28/30/7 92/106/7 91/105/7 24/26/7
f 30/33/11 94/109/11 92/106/11 28/30/11
f 93/107/7 96/112/7 32/36/7 29/31/7
f 29/31/7 32/36/7 38/44/7 36/41/7
f 28/30/9 33/37/9 35/39/9 30/33/9
f 29/32/10 36/42/10 34/38/10 26/28/10
f 22/24/10 29/32/10 26/28/10
f 35/40/7 97/113/7 30/34/7
f 30/34/7 97/113/7 94/110/7
f 95/111/6 98/114/6 31/35/6
f 96/112/8 95/111/8 31/35/8 32/36/8
f 24/26/8 91/105/8 93/108/8 29/32/8
f 24/26/8 29/32/8 22/24/8
f 32/36/10 31/35/10 37/43/10 38/44/10
f 41/47/20 45/51/20 46/52/20 42/48/20
f 25/27/13 42/48/13 40/46/13 21/23/13
f 41/47/21 15/17/21 7/7/21 27/29/21
f 101/117/7 99/115/7 39/45/7 41/47/7
f 39/45/19 99/115/19 75/85/19 23/25/19
f 79/89/6 77/87/6 51/57/6 53/59/6
f 44/50/7 46/52/7 45/51/7 43/49/7
f 40/46/22 44/50/22 43/49/22 39/45/22
f 42/48/15 46/52/15 44/50/15 40/46/15
f 39/45/16 43/49/16 45/51/16 41/47/16
f 48/54/1 47/53/1 49/55/1 50/56/1
f 50/56/23 49/55/23 53/59/23 54/60/23
f 54/60/3 53/59/3 51/57/3 52/58/3
f 52/58/24 51/57/24 47/53/24 48/54/24
f 47/53/5 66/76/5 65/75/5 49/55/5
f 57/65/6 98/114/6 89/103/6
f 52/58/7 86/98/7 85/97/7 54/60/7
f 54/60/7 60/68/7 59/67/7 50/56/7
f 56/63/8 62/71/8 60/68/8 54/60/8
f 61/69/7 64/74/7 58/66/7 55/61/7
f 55/61/7 58/66/7 90/104/7 88/101/7
f 54/60/10 85/97/10 87/99/10 56/63/10
f 55/62/9 88/102/9 86/98/9 52/58/9
f 48/54/9 55/62/9 52/58/9
f 87/100/7 97/113/7 56/64/7
f 56/64/7 97/113/7 62/72/7
f 63/73/6 98/114/6 57/65/6
f 64/74/11 63/73/11 57/65/11 58/66/11
f 50/56/11 59/67/11 61/70/11 55/62/11
f 50/56/11 55/62/11 48/54/11
f 58/66/9 57/65/9 89/103/9 90/104/9
f 67/77/12 71/81/12 72/82/12 68/78/12
f 53/59/25 7/7/25 15/17/25 67/77/25
f 51/57/26 68/78/26 66/76/26 47/53/26
f 68/78/7 102/118/7 101/117/7 67/77/7
f 77/87/26 102/118/26 68/78/26 51/57/26
f 70/80/7 72/82/7 71/81/7 69/79/7
f 66/76/14 70/80/14 69/79/14 65/75/14
f 68/78/27 72/82/27 70/80/27 66/76/27
f 65/75/28 69/79/28 71/81/28 67/77/28
f 74/84/17 76/86/17 75/85/17 73/83/17
f 76/86/23 80/90/23 79/89/23 75/85/23
f 80/90/18 78/88/18 77/87/18 79/89/18
f 78/88/24 74/84/24 73/83/24 77/87/24
f 73/83/19 75/85/19 99/115/19 100/116/19
f 83/95/6 89/103/6 98/114/6
f 78/88/7 80/90/7 85/97/7 86/98/7
f 80/90/7 76/86/7 91/105/7 92/106/7
f 82/93/11 80/90/11 92/106/11 94/109/11
f 93/107/7 81/91/7 84/96/7 96/112/7
f 81/91/7 88/101/7 90/104/7 84/96/7
f 80/90/10 82/93/10 87/99/10 85/97/10
f 81/92/9 78/88/9 86/98/9 88/102/9
f 74/84/9 78/88/9 81/92/9
f 87/100/7 82/94/7 97/113/7
f 82/94/7 94/110/7 97/113/7
f 95/111/6 83/95/6 98/114/6
f 96/112/8 84/96/8 83/95/8 95/111/8
f 76/86/8 81/92/8 93/108/8 91/105/8
f 76/86/8 74/84/8 81/92/8
f 84/96/9 90/104/9 89/103/9 83/95/9
f 101/117/20 102/118/20 106/122/20 105/121/20
f 79/89/29 101/117/29 41/47/29 27/29/29
f 77/87/26 73/83/26 100/116/26 102/118/26
f 101/117/30 79/89/30 53/59/30 67/77/30
f 27/29/6 7/7/6 5/5/6 25/27/6
f 104/120/7 103/119/7 105/121/7 106/122/7
f 100/116/22 99/115/22 103/119/22 104/120/22
f 102/118/27 100/116/27 104/120/27 106/122/27
f 99/115/28 101/117/28 105/121/28 103/119/28
l 97 98
