# Blender 3.3.1
# www.blender.org
o Cube.001
v 1.000000 0.050000 0.250000
v -0.250000 0.050000 0.250000
v 1.000000 6.000000 0.250000
v -0.250000 6.000000 0.250000
v -0.250000 0.050000 -1.000000
v 0.000000 0.050000 0.250000
v 0.000000 6.000000 0.250000
v -0.250000 6.000000 -1.000000
v 0.250000 0.050000 0.250000
v 1.000000 0.050000 -0.250000
v 1.000000 6.000000 -0.250000
v 0.250000 6.000000 0.250000
v 0.250000 0.050000 -1.000000
v 0.000000 6.000000 -0.250000
v 0.250000 6.000000 -1.000000
v 0.000000 0.000000 0.250000
v -0.250000 0.000000 -1.000000
v -0.250000 0.000000 0.000000
v 1.000000 0.000000 0.250000
v 0.250000 0.000000 -1.000000
v 0.000000 0.000000 -0.250000
v 0.250000 0.000000 0.000000
v 1.000000 0.000000 -0.250000
v -0.257071 0.050000 -1.014142
v -0.014142 0.050000 0.257071
v -0.257071 0.050000 0.264142
v 1.014142 0.050000 0.257071
v 0.257071 0.050000 -1.014142
v 0.257071 0.050000 0.264142
v 1.014142 0.050000 -0.257071
v -0.257071 0.000000 -1.014142
v -0.014142 0.000000 0.257071
v -0.257071 0.000000 0.264142
v 1.014142 0.000000 0.257071
v 0.257071 0.000000 -1.014142
v -0.014142 0.000000 -0.257071
v 0.257071 0.000000 0.264142
v 1.014142 0.000000 -0.257071
v 0.250000 6.000000 -0.250000
v 0.250000 0.050000 -0.250000
v 0.254195 0.050000 -0.250000
v 0.257071 0.050000 -0.250000
v -0.014142 0.050000 0.250000
v -0.014142 0.000000 0.122862
v -0.014142 0.000000 0.000000
v 0.257032 0.050000 0.257071
v 0.257071 0.050000 0.257071
v -0.003536 0.050000 0.257071
v 0.253536 0.050000 0.257071
v 0.257071 0.000000 0.257071
v 0.256882 0.000000 0.257071
v 0.243497 0.000000 0.257071
v 0.250000 0.050000 -0.257071
v 0.257071 0.050000 -0.257071
v 0.257071 0.000000 -0.257071
v 0.121464 0.000000 -0.257071
v 0.251792 0.000000 -0.257071
v 0.250000 0.000000 -0.257071
v 0.257071 0.050000 0.255180
v 0.257071 0.050000 -0.251792
v 0.257071 0.050000 0.250000
v 0.257071 0.000000 0.250000
v 0.257071 0.000000 -0.250000
v 0.254185 0.050000 -0.251772
v 0.257021 0.050000 0.255180
v 0.000000 0.050000 0.256972
v 0.000000 0.000000 0.130229
v 0.000000 0.000000 0.000000
v 0.229923 0.000000 0.250000
v 0.117317 0.000000 0.191342
v 0.256693 0.000000 0.250000
v 0.251779 0.000000 -0.255217
v 0.125000 0.000000 -0.250000
v 0.250000 0.000000 -0.250000
v 0.250000 0.000000 -0.255229
vn -0.0000 -0.0000 1.0000
vn -0.0000 -0.0000 -1.0000
vn 1.0000 -0.0000 -0.0000
vn -0.0000 1.0000 -0.0000
vn -0.0000 -1.0000 -0.0000
vn -1.0000 -0.0000 -0.0000
vt 0.183594 0.804687
vt 0.183594 0.804687
vt 0.183594 0.804687
vt 0.183594 0.804687
vt 0.183594 0.804687
vt 0.183594 0.804687
vt 0.183594 0.804687
vt 0.183594 0.804687
vt 0.183594 0.804687
vt 0.183594 0.804687
vt 0.183594 0.804687
vt 0.183594 0.804687
vt 0.183594 0.804687
vt 0.183594 0.804687
vt 0.183594 0.804687
vt 0.070313 0.816406
vt 0.070313 0.816406
vt 0.070313 0.816406
vt 0.070313 0.816406
vt 0.070313 0.816406
vt 0.070313 0.816406
vt 0.070313 0.816406
vt 0.070313 0.816406
vt 0.070313 0.816406
vt 0.183594 0.804687
vt 0.183594 0.804687
vt 0.070313 0.816406
vt 0.183594 0.804687
vt 0.070313 0.816406
vt 0.183594 0.804687
vt 0.070313 0.816406
vt 0.183594 0.804687
vt 0.070313 0.816406
vt 0.183594 0.804687
vt 0.070313 0.816406
vt 0.183594 0.804687
vt 0.070313 0.816406
vt 0.070313 0.816406
vt 0.070313 0.816406
vt 0.070313 0.816406
vt 0.070313 0.816406
vt 0.070313 0.816406
vt 0.070313 0.816406
vt 0.070313 0.816406
vt 0.183594 0.804687
vt 0.183594 0.804687
vt 0.183594 0.804687
vt 0.183594 0.804687
vt 0.183594 0.804687
vt 0.070313 0.816406
vt 0.070313 0.816406
vt 0.183594 0.804687
vt 0.070313 0.816406
vt 0.183594 0.804687
vt 0.183594 0.804687
vt 0.183594 0.804688
vt 0.070313 0.816406
vt 0.070313 0.816406
vt 0.070313 0.816406
vt 0.183594 0.804687
vt 0.070313 0.816406
vt 0.183594 0.804687
vt 0.070313 0.816406
vt 0.070313 0.816406
vt 0.070313 0.816406
vt 0.070313 0.816406
vt 0.183594 0.804687
vt 0.183594 0.804687
vt 0.183594 0.804687
vt 0.070313 0.816406
vt 0.070313 0.816406
vt 0.183594 0.804687
vt 0.183594 0.804688
vt 0.183594 0.804687
vt 0.070313 0.816406
vt 0.070313 0.816406
vt 0.070313 0.816406
vt 0.070313 0.816406
vt 0.070313 0.816406
vt 0.070313 0.816406
vt 0.070313 0.816406
vt 0.070313 0.816406
vt 0.070313 0.816406
s 0
f 1/1/1 3/3/1 12/12/1 9/9/1 61/69/1
f 7/7/1 6/6/1 9/9/1 12/12/1
f 41/47/2 40/46/2 39/45/2 11/11/2 10/10/2 42/48/2
f 10/10/3 11/11/3 3/3/3 1/1/3
f 6/6/4 43/49/4 25/26/4
f 12/12/4 3/3/4 11/11/4 39/45/4
f 39/45/4 14/14/4 7/7/4 12/12/4
f 23/23/5 19/19/5 62/70/5 63/71/5
f 67/75/5 68/76/5 22/22/5 71/79/5 69/77/5 70/78/5 16/16/5
f 62/70/5 71/79/5 22/22/5 74/82/5 63/71/5
f 73/81/5 74/82/5 22/22/5 68/76/5 21/21/5
f 69/77/5 16/16/5 70/78/5
f 19/19/5 23/23/5 38/44/5 34/40/5
f 10/10/4 1/1/4 27/30/4 30/36/4
f 62/70/5 19/19/5 34/40/5 50/57/5
f 71/79/5 62/70/5 50/57/5 51/58/5
f 32/38/5 16/16/5 69/77/5 52/59/5
f 52/59/5 69/77/5 71/79/5 51/58/5
f 50/57/1 34/40/1 27/29/1 47/53/1
f 30/35/2 38/44/2 55/63/2 54/61/2
f 30/35/3 27/29/3 34/40/3 38/44/3
f 32/38/5 44/50/5 67/75/5 16/16/5
f 44/50/5 45/51/5 68/76/5 67/75/5
f 45/51/5 36/42/5 21/21/5 68/76/5
f 27/30/4 1/1/4 61/69/4 59/67/4 47/54/4
f 6/6/4 25/26/4 48/55/4 66/74/4
f 46/52/4 47/54/4 59/67/4 65/73/4
f 65/73/4 59/67/4 61/69/4 9/9/4 49/56/4 46/52/4
f 48/55/4 49/56/4 9/9/4 6/6/4 66/74/4
f 42/48/4 10/10/4 30/36/4 54/62/4 60/68/4
f 41/47/4 42/48/4 60/68/4 64/72/4
f 54/62/4 53/60/4 40/46/4 41/47/4 64/72/4 60/68/4
f 23/23/5 63/71/5 55/63/5 38/44/5
f 21/21/5 36/42/5 56/64/5 73/81/5
f 73/81/5 56/64/5 58/66/5 75/83/5 74/82/5
f 63/71/5 74/82/5 75/83/5 72/80/5 57/65/5 55/63/5
f 72/80/5 75/83/5 58/66/5 57/65/5
f 2/2/6 4/4/6 8/8/6 5/5/6
f 5/5/2 8/8/2 15/15/2 13/13/2
f 53/60/3 13/13/3 15/15/3 39/45/3 40/46/3
f 7/7/1 4/4/1 2/2/1 43/49/1 6/6/1
f 5/5/4 13/13/4 28/32/4 24/25/4
f 4/4/4 7/7/4 14/14/4 39/45/4 15/15/4 8/8/4
f 17/17/5 20/20/5 58/66/5 56/64/5 36/42/5 45/51/5 18/18/5
f 51/58/5 37/43/5 33/39/5 18/18/5 45/51/5 44/50/5 32/38/5 52/59/5
f 26/28/4 29/34/4 49/56/4 48/55/4 25/26/4 43/49/4 2/2/4
f 17/17/5 18/18/5 33/39/5 31/37/5
f 24/24/2 28/31/2 35/41/2 31/37/2
f 26/27/6 24/24/6 31/37/6 33/39/6
f 47/53/3 29/33/3 37/43/3 50/57/3
f 35/41/3 28/31/3 54/61/3 55/63/3
f 29/33/1 26/27/1 33/39/1 37/43/1
f 20/20/5 17/17/5 31/37/5 35/41/5
f 2/2/4 5/5/4 24/25/4 26/28/4
f 46/52/4 49/56/4 29/34/4 47/54/4
f 28/32/4 13/13/4 53/60/4 54/62/4
f 58/66/5 20/20/5 35/41/5 55/63/5 57/65/5
f 50/57/5 37/43/5 51/58/5
