# Blender 3.3.1
# www.blender.org
o Cube
v -1.000000 0.050000 1.000000
v -1.000000 5.000000 1.000000
v -1.000000 0.050000 -1.000000
v -1.000000 5.000000 -1.000000
v 1.000000 0.050000 1.000000
v 1.000000 5.000000 1.000000
v 1.000000 0.050000 -1.000000
v 1.000000 5.000000 -1.000000
v -1.000000 0.000000 -1.000000
v -1.000000 0.000000 1.000000
v 1.000000 0.000000 -1.000000
v 1.000000 0.000000 1.000000
v -1.028284 0.050000 -1.028284
v -1.028284 0.050000 1.028284
v 1.028284 0.050000 -1.028284
v 1.028284 0.050000 1.028284
v -1.028284 0.000000 -1.028284
v -1.028284 0.000000 1.028284
v 1.028284 0.000000 -1.028284
v 1.028284 0.000000 1.028284
vn -1.0000 -0.0000 -0.0000
vn -0.0000 -0.0000 -1.0000
vn 1.0000 -0.0000 -0.0000
vn -0.0000 -0.0000 1.0000
vn -0.0000 1.0000 -0.0000
vn -0.0000 -1.0000 -0.0000
vt 0.183594 0.804687
vt 0.183594 0.804687
vt 0.183594 0.804687
vt 0.183594 0.804687
vt 0.183594 0.804687
vt 0.183594 0.804687
vt 0.183594 0.804687
vt 0.183594 0.804687
vt 0.070313 0.816406
vt 0.070313 0.816406
vt 0.070313 0.816406
vt 0.070313 0.816406
vt 0.070313 0.816406
vt 0.183594 0.804687
vt 0.070313 0.816406
vt 0.183594 0.804687
vt 0.070313 0.816406
vt 0.183594 0.804687
vt 0.070313 0.816406
vt 0.183594 0.804687
vt 0.070313 0.816406
vt 0.070313 0.816406
vt 0.070313 0.816406
vt 0.070313 0.816406
s 0
f 1/1/1 2/2/1 4/4/1 3/3/1
f 3/3/2 4/4/2 8/8/2 7/7/2
f 7/7/3 8/8/3 6/6/3 5/5/3
f 5/5/4 6/6/4 2/2/4 1/1/4
f 3/3/5 7/7/5 15/18/5 13/14/5
f 8/8/5 4/4/5 2/2/5 6/6/5
f 9/9/6 11/11/6 12/12/6 10/10/6
f 10/10/6 12/12/6 20/24/6 18/22/6
f 5/5/5 1/1/5 14/16/5 16/20/5
f 9/9/6 10/10/6 18/22/6 17/21/6
f 13/13/2 15/17/2 19/23/2 17/21/2
f 14/15/1 13/13/1 17/21/1 18/22/1
f 15/17/3 16/19/3 20/24/3 19/23/3
f 16/19/4 14/15/4 18/22/4 20/24/4
f 11/11/6 9/9/6 17/21/6 19/23/6
f 1/1/5 3/3/5 13/14/5 14/16/5
f 7/7/5 5/5/5 16/20/5 15/18/5
f 12/12/6 11/11/6 19/23/6 20/24/6
