# Blender 3.3.1
# www.blender.org
o Cube
v -1.000000 0.000000 1.000000
v -1.000000 2.000000 1.000000
v -1.000000 0.000000 -1.000000
v -1.000000 2.000000 -1.000000
v 1.000000 0.000000 1.000000
v 1.000000 2.000000 1.000000
v 1.000000 0.000000 -1.000000
v 1.000000 2.000000 -1.000000
vn -1.0000 -0.0000 -0.0000
vn -0.0000 -0.0000 -1.0000
vn 1.0000 -0.0000 -0.0000
vn -0.0000 -0.0000 1.0000
vn -0.0000 -1.0000 -0.0000
vn -0.0000 1.0000 -0.0000
vt 0.187500 0.812500
vt 0.324219 0.800781
vt 0.187500 0.812500
vt 0.187500 0.812500
vt 0.324219 0.800781
vt 0.187500 0.812500
vt 0.187500 0.812500
vt 0.324219 0.800781
vt 0.187500 0.812500
vt 0.187500 0.812500
vt 0.324219 0.800781
vt 0.187500 0.812500
s 0
f 1/1/1 2/3/1 4/6/1 3/4/1
f 3/4/2 4/6/2 8/12/2 7/10/2
f 7/10/3 8/12/3 6/9/3 5/7/3
f 5/7/4 6/9/4 2/3/4 1/1/4
f 3/5/5 7/11/5 5/8/5 1/2/5
f 8/12/6 4/6/6 2/3/6 6/9/6
