<?xml version="1.0" encoding="UTF-8" standalone="no"?>
<!-- Created with Inkscape (http://www.inkscape.org/) -->

<svg
   width="300"
   height="400"
   viewBox="0 0 79.374998 105.83333"
   version="1.1"
   id="svg5"
   inkscape:version="1.2.1 (9c6d41e410, 2022-07-14, custom)"
   sodipodi:docname="dontstop.svg"
   xmlns:inkscape="http://www.inkscape.org/namespaces/inkscape"
   xmlns:sodipodi="http://sodipodi.sourceforge.net/DTD/sodipodi-0.dtd"
   xmlns:xlink="http://www.w3.org/1999/xlink"
   xmlns="http://www.w3.org/2000/svg"
   xmlns:svg="http://www.w3.org/2000/svg">
  <sodipodi:namedview
     id="namedview7"
     pagecolor="#505050"
     bordercolor="#eeeeee"
     borderopacity="1"
     inkscape:showpageshadow="0"
     inkscape:pageopacity="0"
     inkscape:pagecheckerboard="0"
     inkscape:deskcolor="#505050"
     inkscape:document-units="mm"
     showgrid="false"
     inkscape:zoom="1.3238075"
     inkscape:cx="102.35627"
     inkscape:cy="211.51111"
     inkscape:window-width="1920"
     inkscape:window-height="1005"
     inkscape:window-x="0"
     inkscape:window-y="0"
     inkscape:window-maximized="1"
     inkscape:current-layer="layer1" />
  <defs
     id="defs2">
    <linearGradient
       inkscape:collect="always"
       id="linearGradient1059">
      <stop
         style="stop-color:#69189c;stop-opacity:1;"
         offset="0"
         id="stop1055" />
      <stop
         style="stop-color:#f0c04c;stop-opacity:1;"
         offset="1"
         id="stop1057" />
    </linearGradient>
    <linearGradient
       inkscape:collect="always"
       xlink:href="#linearGradient1059"
       id="linearGradient1061"
       x1="34.875256"
       y1="60.613544"
       x2="42.155468"
       y2="14.177603"
       gradientUnits="userSpaceOnUse" />
  </defs>
  <g
     inkscape:label="Layer 1"
     inkscape:groupmode="layer"
     id="layer1">
    <rect
       style="fill:url(#linearGradient1061);stroke-width:7.9375;stroke-linecap:round;stop-color:#000000;fill-opacity:1"
       id="rect476"
       width="84.267662"
       height="110.96216"
       x="-2.1210814"
       y="-2.7097321" />
    <path
       d="m 11.473959,8.2927747 q 0,1.17179 -0.371188,2.1325133 -0.371188,0.960722 -1.048061,1.644873 -0.676873,0.684151 -1.6303166,1.062617 -0.946166,0.371188 -2.096121,0.371188 H 2.4344349 V 3.0743047 h 3.8938375 q 1.149955,0 2.096121,0.378467 0.9534436,0.371188 1.6303166,1.062617 0.676873,0.684151 1.048061,1.644873 0.371188,0.960723 0.371188,2.132513 z m -1.448362,0 q 0,-0.960723 -0.262015,-1.717655 Q 9.501567,5.8181867 9.021206,5.2941557 8.540844,4.7701257 7.8566944,4.4935537 7.1725434,4.2169827 6.3282724,4.2169827 H 3.8464057 v 8.1443063 h 2.4818667 q 0.844271,0 1.528422,-0.276572 0.6841496,-0.276571 1.1645116,-0.793324 0.480361,-0.52403 0.742376,-1.280963 0.262015,-0.7569333 0.262015,-1.7176553 z"
       style="font-size:14.5564px;line-height:1.25;font-family:Lato;-inkscape-font-specification:Lato;text-align:center;text-anchor:middle;stroke-width:0.36391"
       id="path1246" />
    <path
       d="m 16.204789,6.0146977 q 0.80788,0 1.45564,0.269294 0.64776,0.269293 1.106286,0.764211 0.458527,0.494917 0.698708,1.200903 0.247458,0.698707 0.247458,1.564813 0,0.8733843 -0.247458,1.5720913 -0.240181,0.698707 -0.698708,1.193625 -0.458526,0.494917 -1.106286,0.764211 -0.64776,0.262015 -1.45564,0.262015 -0.815158,0 -1.470197,-0.262015 -0.647759,-0.269294 -1.106286,-0.764211 -0.458527,-0.494918 -0.705985,-1.193625 -0.240181,-0.698707 -0.240181,-1.5720913 0,-0.866106 0.240181,-1.564813 0.247458,-0.705986 0.705985,-1.200903 0.458527,-0.494918 1.106286,-0.764211 0.655039,-0.269294 1.470197,-0.269294 z m 0,6.5794933 q 1.09173,0 1.630317,-0.72782 0.538587,-0.735098 0.538587,-2.0451743 0,-1.317354 -0.538587,-2.052453 -0.538587,-0.735098 -1.630317,-0.735098 -0.553143,0 -0.968001,0.189233 -0.407579,0.189234 -0.684151,0.545865 -0.269293,0.356632 -0.407579,0.880663 -0.131007,0.516752 -0.131007,1.17179 0,1.3100763 0.538586,2.0451743 0.545865,0.72782 1.652152,0.72782 z"
       style="font-size:14.5564px;line-height:1.25;font-family:Lato;-inkscape-font-specification:Lato;text-align:center;text-anchor:middle;stroke-width:0.36391"
       id="path1248" />
    <path
       d="m 22.573206,7.2010447 q 0.24018,-0.269294 0.509474,-0.48764 0.269293,-0.218346 0.567699,-0.371188 0.305685,-0.16012 0.640482,-0.24018 0.342075,-0.08734 0.735098,-0.08734 0.604091,0 1.062617,0.20379 0.465805,0.196511 0.771489,0.567699 0.312963,0.36391 0.473083,0.880663 0.160121,0.516752 0.160121,1.142677 V 13.503965 H 26.190471 V 8.8095257 q 0,-0.836993 -0.385745,-1.29552 -0.378466,-0.465804 -1.157233,-0.465804 -0.574978,0 -1.077174,0.276571 -0.494918,0.276572 -0.917053,0.749655 V 13.503965 H 21.350468 V 6.1311477 h 0.778767 q 0.276572,0 0.342076,0.269294 z"
       style="font-size:14.5564px;line-height:1.25;font-family:Lato;-inkscape-font-specification:Lato;text-align:center;text-anchor:middle;stroke-width:0.36391"
       id="path1250" />
    <path
       d="m 30.142554,2.3755977 q 0.305685,0.516752 0.414858,1.09173 0.109173,0.574978 0.02183,1.135399 -0.08734,0.560422 -0.36391,1.077174 -0.276571,0.516752 -0.735098,0.917053 l -0.393023,-0.254737 q -0.109173,-0.0655 -0.101895,-0.167398 0.01456,-0.109173 0.07278,-0.174677 0.189234,-0.232903 0.320241,-0.560422 0.138286,-0.334797 0.174677,-0.713263 0.04367,-0.385745 -0.03639,-0.793324 -0.07278,-0.407579 -0.298406,-0.786046 -0.09462,-0.152842 -0.05823,-0.269293 0.04367,-0.123729 0.181955,-0.181955 z"
       style="font-size:14.5564px;line-height:1.25;font-family:Lato;-inkscape-font-specification:Lato;text-align:center;text-anchor:middle;stroke-width:0.36391"
       id="path1252" />
    <path
       d="m 34.618634,13.620417 q -0.873384,0 -1.346467,-0.487639 -0.465804,-0.487639 -0.465804,-1.404693 V 7.2156007 h -0.887941 q -0.116451,0 -0.196511,-0.0655 -0.08006,-0.07278 -0.08006,-0.218346 v -0.516752 l 1.208181,-0.152842 0.298406,-2.278077 q 0.02184,-0.109173 0.09462,-0.174676 0.08006,-0.07278 0.203789,-0.07278 h 0.655038 v 2.540091 h 2.132513 v 0.938888 h -2.132513 v 4.4251463 q 0,0.465805 0.225624,0.691429 0.225625,0.225624 0.582256,0.225624 0.20379,0 0.349354,-0.05095 0.152842,-0.05823 0.262015,-0.12373 0.109173,-0.0655 0.181955,-0.116451 0.08006,-0.05823 0.138286,-0.05823 0.101895,0 0.181955,0.123729 l 0.378466,0.618647 q -0.334797,0.312963 -0.80788,0.494918 -0.473083,0.174676 -0.975279,0.174676 z"
       style="font-size:14.5564px;line-height:1.25;font-family:Lato;-inkscape-font-specification:Lato;text-align:center;text-anchor:middle;stroke-width:0.36391"
       id="path1254" />
    <path
       d="m 42.547496,21.549689 q -0.126133,0.23124 -0.388904,0.23124 -0.157664,0 -0.357373,-0.11562 -0.199708,-0.11562 -0.494014,-0.252263 -0.283796,-0.147154 -0.683212,-0.262774 -0.399416,-0.126134 -0.945985,-0.126134 -0.472993,0 -0.851387,0.126134 -0.378395,0.11562 -0.65168,0.325839 -0.262773,0.210219 -0.409927,0.494016 -0.136647,0.273284 -0.136647,0.599123 0,0.409928 0.23124,0.683212 0.241753,0.273284 0.630657,0.472993 0.388906,0.199708 0.88292,0.357372 0.494014,0.147154 1.009051,0.32584 0.525548,0.168176 1.019563,0.378395 0.494014,0.210219 0.882919,0.525547 0.388906,0.315329 0.620146,0.77781 0.241753,0.451971 0.241753,1.093139 0,0.735766 -0.262774,1.366423 -0.262774,0.620147 -0.777811,1.082629 -0.515036,0.45197 -1.261314,0.714743 -0.746277,0.262774 -1.723796,0.262774 -1.11416,0 -2.018102,-0.357371 -0.903941,-0.367883 -1.534598,-0.935475 l 0.441459,-0.714745 q 0.08409,-0.136647 0.199709,-0.210219 0.11562,-0.07358 0.294305,-0.07358 0.189198,0 0.399417,0.147153 0.210219,0.147152 0.504526,0.325839 0.304817,0.178686 0.735767,0.325839 0.430948,0.147154 1.072116,0.147154 0.546569,0 0.956496,-0.136647 0.409928,-0.147154 0.683212,-0.388905 0.273284,-0.241752 0.399417,-0.557081 0.136647,-0.315328 0.136647,-0.672701 0,-0.441459 -0.241751,-0.725254 -0.231242,-0.294307 -0.620146,-0.494016 -0.388905,-0.210219 -0.893431,-0.357372 -0.494014,-0.157665 -1.019562,-0.32584 -0.515037,-0.168174 -1.019563,-0.378393 -0.494014,-0.22073 -0.88292,-0.546569 -0.388905,-0.325841 -0.630657,-0.798834 -0.23124,-0.483503 -0.23124,-1.166715 0,-0.609636 0.252263,-1.166715 0.252263,-0.567592 0.735766,-0.98803 0.483504,-0.430948 1.187737,-0.683211 0.704234,-0.252264 1.608176,-0.252264 1.051095,0 1.88146,0.336352 0.840876,0.325839 1.45051,0.903941 z"
       style="font-size:14.5564px;line-height:1.25;font-family:Lato;-inkscape-font-specification:Lato;text-align:center;text-anchor:middle;stroke-width:0.525548"
       id="path1256" />
    <path
       d="m 48.717435,30.610127 q -1.261314,0 -1.944526,-0.704233 Q 46.10021,29.201661 46.10021,27.87728 v -6.516789 h -1.282337 q -0.168175,0 -0.283795,-0.09459 -0.11562,-0.105107 -0.11562,-0.315329 v -0.746277 l 1.744817,-0.220729 0.430949,-3.289928 q 0.03153,-0.157664 0.136647,-0.252262 0.11562,-0.105106 0.294306,-0.105106 h 0.945985 v 3.66832 h 3.079709 v 1.355913 h -3.079709 v 6.390658 q 0,0.672701 0.32584,0.99854 0.32584,0.325839 0.840876,0.325839 0.294307,0 0.504526,-0.07358 0.220729,-0.08409 0.378394,-0.178687 0.157664,-0.09459 0.262773,-0.168175 0.115621,-0.08409 0.199709,-0.08409 0.147153,0 0.262774,0.178686 l 0.54657,0.89343 q -0.483505,0.451972 -1.166717,0.714746 -0.683212,0.252261 -1.408467,0.252261 z"
       style="font-size:14.5564px;line-height:1.25;font-family:Lato;-inkscape-font-specification:Lato;text-align:center;text-anchor:middle;stroke-width:0.525548"
       id="path1258" />
    <path
       d="m 57.420482,19.626184 q 1.166716,0 2.10219,0.388906 0.935475,0.388905 1.597664,1.10365 0.662191,0.714744 1.009051,1.734307 0.357373,1.009051 0.357373,2.259854 0,1.261314 -0.357373,2.270365 -0.34686,1.009051 -1.009051,1.723796 -0.662189,0.714744 -1.597664,1.10365 -0.935474,0.378394 -2.10219,0.378394 -1.177227,0 -2.123212,-0.378394 -0.935474,-0.388906 -1.597664,-1.10365 -0.662191,-0.714745 -1.019563,-1.723796 -0.346861,-1.009051 -0.346861,-2.270365 0,-1.250803 0.346861,-2.259854 0.357372,-1.019563 1.019563,-1.734307 0.66219,-0.714745 1.597664,-1.10365 0.945985,-0.388906 2.123212,-0.388906 z m 0,9.501899 q 1.576643,0 2.354454,-1.051095 0.777809,-1.061605 0.777809,-2.953576 0,-1.902482 -0.777809,-2.964089 -0.777811,-1.061606 -2.354454,-1.061606 -0.798832,0 -1.397957,0.273285 -0.588612,0.273285 -0.988029,0.788321 -0.388905,0.515037 -0.588613,1.271826 -0.189196,0.746277 -0.189196,1.692263 0,1.891971 0.777809,2.953576 0.788321,1.051095 2.385986,1.051095 z"
       style="font-size:14.5564px;line-height:1.25;font-family:Lato;-inkscape-font-specification:Lato;text-align:center;text-anchor:middle;stroke-width:0.525548"
       id="path1260" />
    <path
       d="m 66.733174,27.87728 q 0.515035,0.693724 1.124671,0.977519 0.609636,0.283795 1.366424,0.283795 1.492554,0 2.291387,-1.061606 0.798832,-1.061605 0.798832,-3.027152 0,-1.040585 -0.189197,-1.786863 -0.178686,-0.746278 -0.525548,-1.21927 -0.34686,-0.483504 -0.851387,-0.704233 -0.504526,-0.22073 -1.145694,-0.22073 -0.914452,0 -1.608174,0.420438 -0.683212,0.420438 -1.261314,1.187736 z m -0.09459,-6.432701 q 0.672701,-0.830365 1.55562,-1.334891 0.88292,-0.504525 2.018103,-0.504525 0.924963,0 1.671241,0.357372 0.746277,0.346861 1.271825,1.040583 0.525548,0.683212 0.809343,1.702775 0.283796,1.019562 0.283796,2.343943 0,1.177225 -0.315328,2.196787 -0.315329,1.009052 -0.914454,1.75533 -0.588613,0.735766 -1.45051,1.166715 -0.851388,0.420438 -1.923505,0.420438 -0.977519,0 -1.681752,-0.325839 -0.693722,-0.336352 -1.22978,-0.924965 v 4.708907 h -1.881461 v -14.25285 h 1.124671 q 0.399417,0 0.494016,0.388906 z"
       style="font-size:14.5564px;line-height:1.25;font-family:Lato;-inkscape-font-specification:Lato;text-align:center;text-anchor:middle;stroke-width:0.525548"
       id="path1262" />
    <path
       d="m 21.727577,42.33143 v 7.372816 h -0.771489 q -0.276571,0 -0.349353,-0.269293 L 20.50484,48.641629 q -0.480361,0.531309 -1.077174,0.858828 -0.596812,0.320241 -1.368301,0.320241 -0.604091,0 -1.069896,-0.196512 -0.458526,-0.203789 -0.771489,-0.567699 -0.312962,-0.36391 -0.473083,-0.880663 -0.152842,-0.516752 -0.152842,-1.142677 V 42.33143 h 1.29552 v 4.701717 q 0,0.836993 0.378466,1.29552 0.385745,0.458526 1.17179,0.458526 0.574978,0 1.069896,-0.269293 0.502195,-0.276572 0.924331,-0.756933 V 42.33143 Z"
       style="font-size:14.5564px;line-height:1.25;font-family:Lato;-inkscape-font-specification:Lato;text-align:center;text-anchor:middle;fill:#000000;fill-opacity:1;stroke-width:0.36391"
       id="path1264" />
    <path
       d="m 25.00278,43.401325 q 0.240181,-0.269293 0.509474,-0.487639 0.269293,-0.218346 0.5677,-0.371189 0.305684,-0.16012 0.640481,-0.24018 0.342076,-0.08734 0.735098,-0.08734 0.604091,0 1.062618,0.20379 0.465804,0.196511 0.771489,0.5677 0.312962,0.36391 0.473083,0.880662 0.16012,0.516752 0.16012,1.142677 v 4.694439 h -1.302798 v -4.694439 q 0,-0.836993 -0.385744,-1.295519 -0.378467,-0.465805 -1.157234,-0.465805 -0.574978,0 -1.077174,0.276572 -0.494917,0.276571 -0.917053,0.749654 v 5.429537 h -1.302798 v -7.372816 h 0.778768 q 0.276571,0 0.342075,0.269293 z"
       style="font-size:14.5564px;line-height:1.25;font-family:Lato;-inkscape-font-specification:Lato;text-align:center;text-anchor:middle;fill:#000000;fill-opacity:1;stroke-width:0.36391"
       id="path1266" />
    <path
       d="m 38.642136,49.704246 h -1.295519 v -6.288364 h -3.799221 v 4.425145 q 0,0.465805 0.225625,0.691429 0.225624,0.225624 0.582256,0.225624 0.203789,0 0.349353,-0.05095 0.152842,-0.05823 0.262015,-0.123729 0.109173,-0.0655 0.181955,-0.116452 0.08006,-0.05823 0.138286,-0.05823 0.101895,0 0.181955,0.123729 l 0.378467,0.618647 q -0.334798,0.312963 -0.807881,0.494918 -0.473083,0.174677 -0.975278,0.174677 -0.873384,0 -1.346467,-0.48764 -0.465805,-0.487639 -0.465805,-1.404692 v -4.512484 h -0.887941 q -0.116451,0 -0.196511,-0.0655 -0.08006,-0.07278 -0.08006,-0.218346 v -0.516753 l 1.208181,-0.16012 0.298406,-2.270798 q 0.02183,-0.109173 0.09462,-0.174677 0.08006,-0.07278 0.203789,-0.07278 h 0.655038 v 2.540092 h 5.09474 z m 0.320241,-9.738231 q 0,0.189233 -0.08006,0.356631 -0.07278,0.160121 -0.20379,0.28385 -0.123729,0.12373 -0.291128,0.196512 -0.167398,0.07278 -0.356631,0.07278 -0.189234,0 -0.356632,-0.07278 -0.160121,-0.07278 -0.28385,-0.196512 -0.123729,-0.123729 -0.196511,-0.28385 -0.07278,-0.167398 -0.07278,-0.356631 0,-0.189234 0.07278,-0.356632 0.07278,-0.174677 0.196511,-0.298406 0.123729,-0.131008 0.28385,-0.20379 0.167398,-0.07278 0.356632,-0.07278 0.189233,0 0.356631,0.07278 0.167399,0.07278 0.291128,0.20379 0.131008,0.123729 0.20379,0.298406 0.08006,0.167398 0.08006,0.356632 z"
       style="font-size:14.5564px;line-height:1.25;font-family:Lato;-inkscape-font-specification:Lato;text-align:center;text-anchor:middle;fill:#000000;fill-opacity:1;stroke-width:0.36391"
       id="path1268" />
    <path
       d="M 42.106547,38.983458 V 49.704246 H 40.811028 V 38.983458 Z"
       style="font-size:14.5564px;line-height:1.25;font-family:Lato;-inkscape-font-specification:Lato;text-align:center;text-anchor:middle;fill:#000000;fill-opacity:1;stroke-width:0.36391"
       id="path1270" />
    <path
       d="m 35.004162,62.236672 -4.510746,10.474512 q -0.07185,0.159672 -0.183624,0.255476 -0.103791,0.09581 -0.327328,0.09581 h -1.053838 l 1.47697,-3.209418 -3.337155,-7.616376 h 1.229479 q 0.183622,0 0.28741,0.0958 0.111771,0.08782 0.151689,0.19959 l 2.163561,5.093552 q 0.127738,0.335312 0.215558,0.702558 0.111771,-0.37523 0.239508,-0.710542 l 2.099693,-5.08557 q 0.0479,-0.127738 0.159673,-0.207574 0.119754,-0.08782 0.26346,-0.08782 z"
       style="font-size:14.5564px;line-height:1.25;font-family:Lato;-inkscape-font-specification:Lato;text-align:center;text-anchor:middle;fill:#ffffff;fill-opacity:1;stroke-width:0.399181"
       id="path1272" />
    <path
       d="m 39.443043,62.108933 q 0.886182,0 1.596725,0.295394 0.710541,0.295394 1.21351,0.838281 0.502968,0.542886 0.766427,1.317297 0.271444,0.766428 0.271444,1.716479 0,0.958035 -0.271444,1.724462 -0.263459,0.766428 -0.766427,1.309315 -0.502969,0.542887 -1.21351,0.83828 -0.710543,0.28741 -1.596725,0.28741 -0.894166,0 -1.612692,-0.28741 -0.710543,-0.295393 -1.21351,-0.83828 -0.502969,-0.542887 -0.774413,-1.309315 -0.263458,-0.766427 -0.263458,-1.724462 0,-0.950051 0.263458,-1.716479 0.271444,-0.774411 0.774413,-1.317297 0.502967,-0.542887 1.21351,-0.838281 0.718526,-0.295394 1.612692,-0.295394 z m 0,7.217195 q 1.197543,0 1.788331,-0.798363 0.590788,-0.806345 0.590788,-2.243397 0,-1.445036 -0.590788,-2.251381 -0.590788,-0.806346 -1.788331,-0.806346 -0.606756,0 -1.061822,0.207574 -0.447083,0.207574 -0.750461,0.598772 -0.295393,0.391197 -0.447083,0.966018 -0.143705,0.566837 -0.143705,1.285363 0,1.437052 0.590788,2.243397 0.598772,0.798363 1.812283,0.798363 z"
       style="font-size:14.5564px;line-height:1.25;font-family:Lato;-inkscape-font-specification:Lato;text-align:center;text-anchor:middle;fill:#ffffff;fill-opacity:1;stroke-width:0.399181"
       id="path1274" />
    <path
       d="m 51.737813,62.236672 v 8.087408 h -0.846264 q -0.303378,0 -0.383214,-0.295393 l -0.11177,-0.870215 q -0.52692,0.582805 -1.181577,0.942068 -0.654657,0.351279 -1.500921,0.351279 -0.66264,0 -1.173592,-0.215558 -0.502969,-0.223541 -0.846264,-0.622722 -0.343296,-0.399181 -0.518935,-0.966019 -0.167657,-0.566837 -0.167657,-1.253429 v -5.157419 h 1.421085 v 5.157419 q 0,0.918117 0.415148,1.421086 0.423132,0.502967 1.285364,0.502967 0.630705,0 1.173592,-0.295393 0.55087,-0.303378 1.013921,-0.830297 v -5.955782 z"
       style="font-size:14.5564px;line-height:1.25;font-family:Lato;-inkscape-font-specification:Lato;text-align:center;text-anchor:middle;fill:#ffffff;fill-opacity:1;stroke-width:0.399181"
       id="path1276" />
    <path
       d="m 54.971192,58.117121 q 0.335312,0.566839 0.455066,1.197544 0.119754,0.630706 0.02395,1.245446 -0.0958,0.614738 -0.399181,1.181575 -0.303378,0.566837 -0.806346,1.005936 l -0.431116,-0.279426 q -0.119754,-0.07185 -0.111771,-0.183623 0.01597,-0.119754 0.07983,-0.191607 0.207574,-0.255476 0.35128,-0.614739 0.151689,-0.367247 0.191607,-0.782395 0.0479,-0.423132 -0.03992,-0.870215 -0.07983,-0.447083 -0.327329,-0.862231 -0.103791,-0.167657 -0.06387,-0.295394 0.0479,-0.135722 0.19959,-0.199591 z"
       style="font-size:14.5564px;line-height:1.25;font-family:Lato;-inkscape-font-specification:Lato;text-align:center;text-anchor:middle;fill:#ffffff;fill-opacity:1;stroke-width:0.399181"
       id="path1278" />
    <path
       d="m 58.747434,63.857346 q 0.383213,-0.830296 0.942067,-1.293346 0.558853,-0.471034 1.365199,-0.471034 0.255476,0 0.487002,0.05589 0.239508,0.05589 0.423131,0.17564 l -0.103791,1.061823 q -0.0479,0.19959 -0.239508,0.19959 -0.111771,0 -0.32733,-0.0479 -0.215557,-0.0479 -0.487001,-0.0479 -0.383213,0 -0.686591,0.111771 -0.295394,0.111771 -0.534902,0.335312 -0.231525,0.215558 -0.423133,0.542886 -0.183623,0.319345 -0.335311,0.734493 v 5.109519 h -1.429069 v -8.087409 h 0.814329 q 0.231525,0 0.319345,0.08782 0.08782,0.08782 0.119754,0.303377 z"
       style="font-size:14.5564px;line-height:1.25;font-family:Lato;-inkscape-font-specification:Lato;text-align:center;text-anchor:middle;fill:#ffffff;fill-opacity:1;stroke-width:0.399181"
       id="path1280" />
    <path
       d="m 68.295845,65.398186 q 0,-0.494984 -0.143706,-0.90215 -0.135721,-0.415148 -0.407164,-0.710542 -0.26346,-0.303378 -0.646675,-0.46305 -0.383213,-0.167656 -0.870213,-0.167656 -1.021905,0 -1.620676,0.598772 -0.590789,0.590788 -0.734493,1.644626 z m 1.149641,3.79222 q -0.263459,0.319345 -0.630706,0.558854 -0.367247,0.231525 -0.790378,0.383214 -0.415149,0.151688 -0.862232,0.223541 -0.447083,0.07983 -0.886182,0.07983 -0.83828,0 -1.548823,-0.279427 -0.702559,-0.28741 -1.221495,-0.830297 -0.510951,-0.550869 -0.798362,-1.357215 -0.28741,-0.806346 -0.28741,-1.8522 0,-0.846264 0.255477,-1.580758 0.263458,-0.734493 0.750459,-1.269395 0.487002,-0.542887 1.18956,-0.846265 0.702559,-0.311362 1.580758,-0.311362 0.726509,0 1.341248,0.247494 0.622723,0.239508 1.069805,0.702558 0.455067,0.455067 0.710543,1.133675 0.255477,0.670624 0.255477,1.532855 0,0.335313 -0.07185,0.447083 -0.07185,0.11177 -0.271443,0.11177 H 63.82502 q 0.02396,0.766428 0.207575,1.333266 0.191606,0.566837 0.526919,0.95005 0.335311,0.375231 0.798362,0.566838 0.463049,0.183623 1.037871,0.183623 0.534902,0 0.918116,-0.119754 0.391198,-0.127738 0.670625,-0.271444 0.279427,-0.143704 0.463049,-0.263459 0.191607,-0.127737 0.32733,-0.127737 0.175639,0 0.271442,0.135721 z"
       style="font-size:14.5564px;line-height:1.25;font-family:Lato;-inkscape-font-specification:Lato;text-align:center;text-anchor:middle;fill:#ffffff;fill-opacity:1;stroke-width:0.399181"
       id="path1282" />
    <path
       d="m 14.389651,90.738991 q 0.492001,0.662694 1.074368,0.933796 0.582368,0.271103 1.305307,0.271103 1.425798,0 2.188901,-1.014123 0.763102,-1.014125 0.763102,-2.891758 0,-0.994042 -0.180735,-1.706941 -0.170694,-0.712898 -0.502042,-1.164735 -0.331346,-0.461878 -0.813306,-0.672736 -0.481959,-0.210857 -1.09445,-0.210857 -0.873552,0 -1.536246,0.401633 -0.652653,0.401633 -1.204899,1.134614 z m -0.09036,-6.144986 q 0.642613,-0.793224 1.486043,-1.275184 0.843428,-0.48196 1.927838,-0.48196 0.883593,0 1.596491,0.341388 0.712898,0.331348 1.214939,0.994042 0.502042,0.652654 0.773143,1.626613 0.271104,0.973961 0.271104,2.239105 0,1.124571 -0.301225,2.098532 -0.301225,0.963919 -0.873553,1.676817 -0.562286,0.702858 -1.385633,1.114532 -0.813306,0.401634 -1.837471,0.401634 -0.933796,0 -1.606532,-0.311267 -0.662694,-0.321305 -1.174776,-0.883591 v 4.498288 h -1.79731 V 83.017596 h 1.074368 q 0.381551,0 0.471919,0.37151 z"
       style="font-size:14.5564px;line-height:1.25;font-family:Lato;-inkscape-font-specification:Lato;text-align:center;text-anchor:middle;fill:#ffffff;fill-opacity:1;stroke-width:0.502041"
       id="path1284" />
    <path
       d="m 25.544991,85.055884 q 0.48196,-1.044246 1.184818,-1.626614 0.702857,-0.592409 1.71698,-0.592409 0.321308,0 0.61249,0.07029 0.301225,0.07029 0.532165,0.220898 l -0.130536,1.33543 q -0.06025,0.251021 -0.301224,0.251021 -0.140571,0 -0.411674,-0.06025 -0.271102,-0.06025 -0.61249,-0.06025 -0.48196,0 -0.863511,0.140572 -0.371511,0.140572 -0.672736,0.421716 -0.291183,0.271101 -0.532163,0.682775 -0.230939,0.401633 -0.421715,0.923757 v 6.426128 h -1.797307 v -10.17135 h 1.024164 q 0.291184,0 0.401633,0.110448 0.110449,0.110449 0.150612,0.381552 z"
       style="font-size:14.5564px;line-height:1.25;font-family:Lato;-inkscape-font-specification:Lato;text-align:center;text-anchor:middle;fill:#ffffff;fill-opacity:1;stroke-width:0.502041"
       id="path1286" />
    <path
       d="m 35.033573,82.856943 q 1.114531,0 2.008165,0.37151 0.893634,0.371512 1.526205,1.054287 0.632572,0.682776 0.96392,1.656736 0.341387,0.963919 0.341387,2.158777 0,1.204899 -0.341387,2.168818 -0.331348,0.96392 -0.96392,1.646696 -0.632571,0.682776 -1.526205,1.054286 -0.893634,0.361471 -2.008165,0.361471 -1.124572,0 -2.028246,-0.361471 -0.893634,-0.37151 -1.526206,-1.054286 -0.632571,-0.682776 -0.97396,-1.646696 -0.331348,-0.963919 -0.331348,-2.168818 0,-1.194858 0.331348,-2.158777 0.341389,-0.97396 0.97396,-1.656736 0.632572,-0.682775 1.526206,-1.054287 0.903674,-0.37151 2.028246,-0.37151 z m 0,9.076906 q 1.506124,0 2.249145,-1.004082 0.743021,-1.014125 0.743021,-2.821473 0,-1.817389 -0.743021,-2.831512 -0.743021,-1.014123 -2.249145,-1.014123 -0.763102,0 -1.33543,0.261061 -0.562286,0.261061 -0.943837,0.753062 -0.371511,0.492 -0.562287,1.214939 -0.180734,0.712899 -0.180734,1.616573 0,1.807348 0.743021,2.821473 0.753062,1.004082 2.279267,1.004082 z"
       style="font-size:14.5564px;line-height:1.25;font-family:Lato;-inkscape-font-specification:Lato;text-align:center;text-anchor:middle;fill:#ffffff;fill-opacity:1;stroke-width:0.502041"
       id="path1288" />
    <path
       d="m 50.496433,83.017596 v 10.171356 h -1.064328 q -0.381551,0 -0.481959,-0.371511 l -0.140572,-1.09445 q -0.662694,0.73298 -1.486042,1.184818 -0.823347,0.441796 -1.887674,0.441796 -0.833389,0 -1.476003,-0.271103 -0.632571,-0.281142 -1.064327,-0.783183 -0.431756,-0.502042 -0.652653,-1.21494 -0.210857,-0.7129 -0.210857,-1.57641 v -6.486373 h 1.787267 v 6.486373 q 0,1.154695 0.522122,1.787267 0.532165,0.632571 1.616573,0.632571 0.793225,0 1.476002,-0.37151 0.692816,-0.381552 1.275185,-1.044246 v -7.490455 z"
       style="font-size:14.5564px;line-height:1.25;font-family:Lato;-inkscape-font-specification:Lato;text-align:center;text-anchor:middle;fill:#ffffff;fill-opacity:1;stroke-width:0.502041"
       id="path1290" />
    <path
       d="m 59.954908,85.437435 q -0.502041,-0.672735 -1.08441,-0.933796 -0.582367,-0.271103 -1.305307,-0.271103 -1.415756,0 -2.178858,1.014123 -0.763104,1.014124 -0.763104,2.891758 0,0.994042 0.170695,1.70694 0.170693,0.702858 0.502041,1.164735 0.331346,0.451838 0.813306,0.662695 0.481961,0.210858 1.094451,0.210858 0.883593,0 1.536246,-0.401633 0.662694,-0.401633 1.21494,-1.134614 z m 1.787266,-7.038618 v 14.790135 h -1.064327 q -0.381551,0 -0.481959,-0.371511 L 60.035234,91.58242 q -0.652654,0.783184 -1.486042,1.265144 -0.833389,0.48196 -1.927839,0.48196 -0.873551,0 -1.586449,-0.331348 -0.7129,-0.341388 -1.214941,-0.994042 -0.502041,-0.652653 -0.773143,-1.626613 -0.271102,-0.973961 -0.271102,-2.239104 0,-1.124572 0.301225,-2.088492 0.301225,-0.97396 0.86351,-1.686858 0.562286,-0.712898 1.375593,-1.114531 0.823348,-0.411675 1.847512,-0.411675 0.933797,0 1.596491,0.321307 0.672735,0.311265 1.194859,0.873551 v -5.632902 z"
       style="font-size:14.5564px;line-height:1.25;font-family:Lato;-inkscape-font-specification:Lato;text-align:center;text-anchor:middle;fill:#ffffff;fill-opacity:1;stroke-width:0.502041"
       id="path1292" />
    <path
       d="m 64.272453,92.084461 q 0,-0.261062 0.09036,-0.492 0.100405,-0.23094 0.261063,-0.401633 0.170693,-0.170695 0.401633,-0.271103 0.230938,-0.100406 0.491999,-0.100406 0.261062,0 0.492001,0.100406 0.230939,0.100405 0.401633,0.271103 0.170694,0.170693 0.271103,0.401633 0.100405,0.230938 0.100405,0.492 0,0.271102 -0.100405,0.502042 -0.100406,0.220897 -0.271103,0.391591 -0.170694,0.170695 -0.401633,0.261062 -0.230939,0.100406 -0.492001,0.100406 -0.261061,0 -0.491999,-0.100406 -0.23094,-0.09036 -0.401633,-0.261062 -0.160655,-0.170694 -0.261063,-0.391591 -0.09036,-0.23094 -0.09036,-0.502042 z"
       style="font-size:14.5564px;line-height:1.25;font-family:Lato;-inkscape-font-specification:Lato;text-align:center;text-anchor:middle;fill:#ffffff;fill-opacity:1;stroke-width:0.502041"
       id="path1294" />
  </g>
</svg>
