<?xml version="1.0" encoding="UTF-8" standalone="no"?>
<!-- Created with Inkscape (http://www.inkscape.org/) -->

<svg
   width="400"
   height="300"
   viewBox="0 0 105.83333 79.375"
   version="1.1"
   id="svg5"
   inkscape:version="1.2.1 (9c6d41e410, 2022-07-14, custom)"
   sodipodi:docname="dreambig.svg"
   xmlns:inkscape="http://www.inkscape.org/namespaces/inkscape"
   xmlns:sodipodi="http://sodipodi.sourceforge.net/DTD/sodipodi-0.dtd"
   xmlns:xlink="http://www.w3.org/1999/xlink"
   xmlns="http://www.w3.org/2000/svg"
   xmlns:svg="http://www.w3.org/2000/svg">
  <sodipodi:namedview
     id="namedview7"
     pagecolor="#505050"
     bordercolor="#eeeeee"
     borderopacity="1"
     inkscape:showpageshadow="0"
     inkscape:pageopacity="0"
     inkscape:pagecheckerboard="0"
     inkscape:deskcolor="#505050"
     inkscape:document-units="mm"
     showgrid="false"
     inkscape:zoom="2.4620873"
     inkscape:cx="195.15961"
     inkscape:cy="142.96812"
     inkscape:window-width="1920"
     inkscape:window-height="1005"
     inkscape:window-x="0"
     inkscape:window-y="0"
     inkscape:window-maximized="1"
     inkscape:current-layer="layer1" />
  <defs
     id="defs2">
    <linearGradient
       inkscape:collect="always"
       id="linearGradient833">
      <stop
         style="stop-color:#101445;stop-opacity:1;"
         offset="0"
         id="stop829" />
      <stop
         style="stop-color:#1f2966;stop-opacity:1;"
         offset="0.71877104"
         id="stop1890" />
      <stop
         style="stop-color:#3c0d3b;stop-opacity:1;"
         offset="0.82444817"
         id="stop831" />
      <stop
         style="stop-color:#883779;stop-opacity:1;"
         offset="0.92783576"
         id="stop1894" />
      <stop
         style="stop-color:#ff7ada;stop-opacity:1;"
         offset="1"
         id="stop1892" />
    </linearGradient>
    <linearGradient
       inkscape:collect="always"
       xlink:href="#linearGradient833"
       id="linearGradient835"
       x1="105.81402"
       y1="78.357582"
       x2="-8.396863"
       y2="-4.0424976"
       gradientUnits="userSpaceOnUse" />
  </defs>
  <g
     inkscape:label="Layer 1"
     inkscape:groupmode="layer"
     id="layer1">
    <rect
       style="fill:url(#linearGradient835);stroke:none;stroke-width:0.465;stroke-linecap:round;stop-color:#000000;fill-opacity:1"
       id="rect250"
       width="110.01212"
       height="82.747826"
       x="-1.9933084"
       y="-2.1540589" />
    <path
       d="m 13.651103,18.152456 -2.151946,4.705903 -2.3411271,-6.172063 c -0.094597,-0.236477 -0.141886,-0.472955 -0.141886,-0.709434 0,-0.496601 0.2837719,-0.685784 1.0877961,-0.780375 V 14.841771 H 5.8473448 v 0.354716 c 0.5438986,0.0473 0.7803761,0.260126 1.2533312,1.489809 l 3.192446,8.087531 c 0.283773,0.709433 0.472955,1.0405 0.614842,1.0405 0.118233,0 0.30742,-0.307421 0.591193,-0.922262 l 2.648548,-5.67546 2.151946,5.580869 c 0.331069,0.874968 0.425659,1.016853 0.567546,1.016853 0.165534,0 0.283772,-0.212829 0.662137,-1.158739 l 3.26339,-8.182123 c 0.402011,-0.993204 0.496602,-1.111444 0.969557,-1.276978 v -0.354716 h -2.908673 v 0.354716 c 0.804024,0.165534 1.040501,0.331068 1.040501,0.733081 0,0.354716 -0.141886,0.922262 -0.402011,1.560751 L 17.3638,22.74012 15.377389,17.443023 c -0.402012,-1.087796 -0.402012,-1.087796 -0.402012,-1.395217 0,-0.520251 0.260124,-0.685785 1.37157,-0.851319 v -0.354716 h -4.800494 v 0.354716 c 1.016854,0.118233 1.253331,0.378364 2.10465,2.955969 z"
       style="font-size:17.6389px;line-height:1.25;font-family:FreeSerif;-inkscape-font-specification:FreeSerif;fill:#ffffff;stroke-width:0.354716"
       id="path1795" />
    <path
       d="m 27.224915,14.605293 c -3.074208,0 -5.226153,2.270185 -5.226153,5.533574 0,3.192447 2.199241,5.58087 5.178858,5.58087 2.979616,0 5.249801,-2.506662 5.249801,-5.770051 0,-3.097856 -2.175593,-5.344393 -5.202506,-5.344393 z m -3.097856,4.374835 c 0,-2.246537 1.111445,-3.712698 2.790436,-3.712698 1.98641,0 3.381629,2.270185 3.381629,5.509926 0,2.672196 -1.06415,4.280243 -2.837732,4.280243 -2.033706,0 -3.334333,-2.790434 -3.334333,-6.077471 z"
       style="font-size:17.6389px;line-height:1.25;font-family:FreeSerif;-inkscape-font-specification:FreeSerif;fill:#ffffff;stroke-width:0.354716"
       id="path1797" />
    <path
       d="m 39.900086,16.922774 c 0.567546,0 0.922262,-0.402013 0.922262,-1.06415 0,-0.780376 -0.496603,-1.253331 -1.300626,-1.253331 -0.993205,0 -1.67899,0.543899 -2.837731,2.222889 v -2.175593 l -0.118233,-0.0473 c -1.253331,0.520251 -2.10465,0.827672 -3.499867,1.276979 v 0.378364 c 0.331068,-0.07095 0.543898,-0.09458 0.827671,-0.09458 0.591194,0 0.804024,0.378364 0.804024,1.418865 v 5.911938 c 0,1.182388 -0.165535,1.347922 -1.67899,1.631695 v 0.354717 h 5.67546 v -0.354721 c -1.608052,-0.07094 -2.010065,-0.425659 -2.010065,-1.773581 v -5.320744 c 0,-0.756729 1.016854,-1.939116 1.655342,-1.939116 0.378365,0 0.922264,0.827672 1.560753,0.827672 z"
       style="font-size:17.6389px;line-height:1.25;font-family:FreeSerif;-inkscape-font-specification:FreeSerif;fill:#ffffff;stroke-width:0.354716"
       id="path1799" />
    <path
       d="m 40.940565,10.750709 c 0.283773,-0.02365 0.52025,-0.0473 0.756728,-0.0473 0.780376,0 1.016854,0.30742 1.016854,1.442513 V 23.54414 c 0,1.229683 -0.07095,1.300626 -1.773582,1.584399 v 0.354717 h 5.533574 V 25.128539 C 44.842444,24.868413 44.700558,24.726527 44.700558,23.591436 V 19.54767 l 3.310685,4.422129 c 0.189182,0.283773 0.496603,0.567547 0.496603,0.804024 0,0.30742 -0.307421,0.354716 -0.94591,0.354716 v 0.354717 h 5.15521 v -0.354717 c -1.040502,-0.07095 -1.773582,-0.520251 -2.766787,-1.726286 L 46.332253,18.81459 47.018037,18.1761 c 3.1688,-2.955969 3.949174,-2.979617 5.107915,-2.979617 v -0.354716 h -4.824141 v 0.331069 c 0.922262,0.02365 1.182387,0.118232 1.182387,0.449307 0,0.189181 -0.212829,0.520251 -0.543898,0.804024 l -3.239742,2.885024 V 9.379136 l -0.0946,-0.047299 c -1.300622,0.4256611 -2.199238,0.685787 -3.665399,1.040502 z"
       style="font-size:17.6389px;line-height:1.25;font-family:FreeSerif;-inkscape-font-specification:FreeSerif;fill:#ffffff;stroke-width:0.354716"
       id="path1801" />
    <path
       d="m 62.483682,17.372081 c 0.993206,-1.087797 1.702638,-1.489809 2.6249,-1.489809 1.182388,0 1.773582,0.851319 1.773582,2.506661 v 4.682256 c 0,1.608047 -0.236477,1.915468 -1.608048,2.057354 v 0.354717 h 5.013324 v -0.354717 c -1.276978,-0.236478 -1.418865,-0.425659 -1.418865,-2.057354 v -4.705904 c 0,-2.483013 -0.993206,-3.759992 -2.908674,-3.759992 -1.395217,0 -2.388423,0.567547 -3.476219,1.986412 V 9.4027879 l -0.118233,-0.070948 c -1.324275,0.472955 -2.010059,0.6857861 -3.357981,1.0405021 v 0.378363 c 0.09458,-0.02365 0.30742,-0.0473 0.402012,-0.0473 0.922262,0 1.087796,0.212829 1.087796,1.229682 v 11.138092 c 0,1.655342 -0.141886,1.868172 -1.513456,2.057354 v 0.354717 h 5.107914 v -0.354717 c -1.371569,-0.141886 -1.608047,-0.425659 -1.608047,-2.057354 z"
       style="font-size:17.6389px;line-height:1.25;font-family:FreeSerif;-inkscape-font-specification:FreeSerif;fill:#ffffff;stroke-width:0.354716"
       id="path1803" />
    <path
       d="m 70.996871,23.189427 c 0,1.489809 1.0405,2.53031 2.483013,2.53031 1.040501,0 2.010059,-0.496603 3.452572,-1.726286 0.118233,1.229683 0.543898,1.726286 1.513456,1.726286 0.804024,0 1.300627,-0.283773 2.128297,-1.182387 v -0.614843 c -0.402011,0.331069 -0.685785,0.449308 -1.0405,0.449308 -0.543899,0 -0.709433,-0.331068 -0.709433,-1.37157 v -4.611312 c 0,-2.364775 -0.662138,-3.78364 -3.405276,-3.78364 -2.222889,0 -3.972822,1.15874 -3.972822,2.648548 0,0.543899 0.472955,1.016854 1.016852,1.016854 0.567547,0 1.06415,-0.472955 1.06415,-0.993206 0,-0.212829 -0.118246,-0.614841 -0.118246,-0.94591 0,-0.638489 0.756728,-1.158739 1.702638,-1.158739 1.15874,0 1.79723,0.685784 1.79723,1.962763 v 1.442513 c -2.932322,1.182388 -5.911938,2.057354 -5.911938,4.611311 z m 5.911937,-0.614841 c 0,0.73308 -0.118232,0.94591 -0.614842,1.229683 -0.567545,0.331068 -1.229683,0.543898 -1.726285,0.543898 -0.591194,0 -1.489808,-0.496603 -1.489808,-1.915468 0,-1.395217 0.969557,-2.246536 3.830935,-3.287038 z"
       style="font-size:17.6389px;line-height:1.25;font-family:FreeSerif;-inkscape-font-specification:FreeSerif;fill:#ffffff;stroke-width:0.354716"
       id="path1805" />
    <path
       d="m 87.81041,16.922774 c 0.567545,0 0.922262,-0.402013 0.922262,-1.06415 0,-0.780376 -0.496603,-1.253331 -1.300627,-1.253331 -0.993206,0 -1.678991,0.543899 -2.83773,2.222889 v -2.175593 l -0.118233,-0.0473 c -1.253331,0.520251 -2.10465,0.827672 -3.499868,1.276979 v 0.378364 c 0.331069,-0.07095 0.543898,-0.09458 0.827672,-0.09458 0.591193,0 0.804024,0.378364 0.804024,1.418865 v 5.911938 c 0,1.182388 -0.165535,1.347922 -1.678991,1.631695 v 0.354717 H 86.60438 V 25.12855 C 84.996333,25.0576 84.59432,24.702891 84.59432,23.354969 v -5.320744 c 0,-0.756729 1.016854,-1.939116 1.655343,-1.939116 0.378364,0 0.922262,0.827672 1.560752,0.827672 z"
       style="font-size:17.6389px;line-height:1.25;font-family:FreeSerif;-inkscape-font-specification:FreeSerif;fill:#ffffff;stroke-width:0.354716"
       id="path1807" />
    <path
       d="m 96.701942,25.719737 3.476218,-1.229683 v -0.378365 c -0.425657,0.02365 -0.472953,0.02365 -0.543896,0.02365 -0.851319,0 -1.040502,-0.260125 -1.040502,-1.347921 V 9.37914 L 98.475529,9.331841 c -1.135091,0.4020127 -1.962763,0.6384903 -3.47622,1.040501 v 0.378364 c 0.189183,-0.02365 0.331069,-0.02365 0.520251,-0.02365 0.874967,0 1.087797,0.236478 1.087797,1.206034 v 3.68905 c -0.898616,-0.756728 -1.537104,-1.016853 -2.483014,-1.016853 -2.719491,0 -4.918732,2.672196 -4.918732,6.030177 0,3.026912 1.77358,5.084267 4.374833,5.084267 1.324275,0 2.222889,-0.472955 3.026913,-1.5844 v 1.513456 z m -2.19924,-1.229683 c -1.962764,0 -3.263391,-1.89182 -3.263391,-4.800494 0,-2.672196 1.15874,-4.42213 2.95597,-4.42213 1.253331,0 2.412071,1.111445 2.412071,2.364776 v 5.438983 c 0,0.402011 -0.756729,1.418865 -2.10465,1.418865 z"
       style="font-size:17.6389px;line-height:1.25;font-family:FreeSerif;-inkscape-font-specification:FreeSerif;fill:#ffffff;stroke-width:0.354716"
       id="path1809" />
    <g
       id="g1865"
       transform="translate(-13.42865,5.4089829)"
       style="fill:#ffffff">
      <path
         d="m 23.776299,57.504881 2.592919,-0.917223 v -0.282223 c -0.3175,0.01764 -0.352778,0.01764 -0.405695,0.01764 -0.635,0 -0.776111,-0.194028 -0.776111,-1.005417 V 45.3164 l -0.08819,-0.03528 c -0.846667,0.299862 -1.464029,0.476251 -2.592918,0.776112 v 0.282223 c 0.141111,-0.01764 0.246944,-0.01764 0.388055,-0.01764 0.65264,0 0.81139,0.176389 0.81139,0.899584 v 2.751668 c -0.670278,-0.564445 -1.146529,-0.758473 -1.852085,-0.758473 -2.028473,0 -3.668891,1.993196 -3.668891,4.49792 0,2.257779 1.322917,3.792364 3.263197,3.792364 0.987778,0 1.658056,-0.352778 2.257779,-1.181807 v 1.12889 z m -1.640417,-0.917223 c -1.464029,0 -2.434169,-1.411112 -2.434169,-3.580697 0,-1.993196 0.864307,-3.298474 2.204863,-3.298474 0.934862,0 1.799168,0.829028 1.799168,1.76389 v 4.056947 c 0,0.299861 -0.564445,1.058334 -1.569862,1.058334 z"
         style="font-size:17.6389px;line-height:1.25;font-family:FreeSerif;-inkscape-font-specification:FreeSerif;fill:#ffffff;stroke-width:0.264583"
         id="path1811" />
      <path
         d="m 31.854925,50.94321 c 0.423334,0 0.687917,-0.299862 0.687917,-0.793751 0,-0.582084 -0.370417,-0.934862 -0.970139,-0.934862 -0.740834,0 -1.252362,0.405695 -2.116668,1.658057 v -1.622779 l -0.08819,-0.03528 c -0.934861,0.388056 -1.569862,0.617362 -2.610557,0.952501 v 0.282222 c 0.246945,-0.05292 0.405695,-0.07055 0.617361,-0.07055 0.440973,0 0.599723,0.282222 0.599723,1.058334 v 4.409725 c 0,0.881945 -0.123472,1.005417 -1.252362,1.217084 v 0.264584 h 4.233336 v -0.264584 c -1.199445,-0.05292 -1.499306,-0.3175 -1.499306,-1.322917 v -3.968753 c 0,-0.564445 0.758473,-1.44639 1.234723,-1.44639 0.282222,0 0.687917,0.617362 1.164167,0.617362 z"
         style="font-size:17.6389px;line-height:1.25;font-family:FreeSerif;-inkscape-font-specification:FreeSerif;fill:#ffffff;stroke-width:0.264583"
         id="path1813" />
      <path
         d="m 34.165605,52.442516 h 5.432782 c -0.264584,-2.134307 -1.199446,-3.227919 -3.016252,-3.227919 -2.134307,0 -3.686531,1.710974 -3.686531,4.33917 0,2.434168 1.270001,3.951114 3.298475,3.951114 1.675695,0 2.998613,-1.040695 3.739447,-2.945697 l -0.282223,-0.123472 c -0.846667,1.340556 -1.60514,1.852085 -2.734029,1.852085 -1.146529,0 -2.645835,-0.705556 -2.751669,-3.845281 z m 0.03528,-0.564445 c 0.194028,-1.375834 0.793751,-2.028473 1.869723,-2.028473 1.075973,0 1.499307,0.493889 1.728613,2.028473 z"
         style="font-size:17.6389px;line-height:1.25;font-family:FreeSerif;-inkscape-font-specification:FreeSerif;fill:#ffffff;stroke-width:0.264583"
         id="path1815" />
      <path
         d="m 40.550887,55.617518 c 0,1.111251 0.776112,1.887363 1.852085,1.887363 0.776112,0 1.499306,-0.370417 2.575279,-1.28764 0.08819,0.917223 0.405695,1.28764 1.12889,1.28764 0.599723,0 0.97014,-0.211667 1.587501,-0.881945 v -0.458612 c -0.299861,0.246945 -0.511528,0.335139 -0.776112,0.335139 -0.405694,0 -0.529167,-0.246944 -0.529167,-1.023056 v -3.439586 c 0,-1.76389 -0.493889,-2.822224 -2.540001,-2.822224 -1.658057,0 -2.963336,0.864306 -2.963336,1.975557 0,0.405695 0.352778,0.758473 0.758473,0.758473 0.423334,0 0.793751,-0.352778 0.793751,-0.740834 0,-0.15875 -0.08819,-0.458611 -0.08819,-0.705556 0,-0.47625 0.564445,-0.864306 1.270001,-0.864306 0.864306,0 1.340556,0.511528 1.340556,1.464029 v 1.075973 c -2.187223,0.881945 -4.409725,1.534584 -4.409725,3.439585 z m 4.409725,-0.458611 c 0,0.546806 -0.08819,0.705556 -0.458611,0.917223 -0.423334,0.246944 -0.917223,0.405694 -1.28764,0.405694 -0.440972,0 -1.11125,-0.370416 -1.11125,-1.428751 0,-1.040695 0.723194,-1.675695 2.857501,-2.451807 z"
         style="font-size:17.6389px;line-height:1.25;font-family:FreeSerif;-inkscape-font-specification:FreeSerif;fill:#ffffff;stroke-width:0.264583"
         id="path1817" />
      <path
         d="m 48.012133,50.308209 c 0.229306,-0.05292 0.370417,-0.07055 0.564445,-0.07055 0.458611,0 0.617361,0.282222 0.617361,1.128889 v 4.462642 c 0,0.952501 -0.246944,1.217084 -1.234723,1.234723 v 0.264584 h 3.915836 v -0.264584 c -0.934861,-0.03528 -1.199445,-0.229306 -1.199445,-0.917223 v -4.97417 c 0.546806,-0.811389 1.569862,-1.040695 2.08139,-1.040695 0.776112,0 1.164168,0.617362 1.164168,1.852085 v 3.827641 c 0,0.987779 -0.194028,1.181807 -1.199445,1.252362 v 0.264584 h 3.951113 v -0.264584 c -1.005417,-0.01764 -1.27,-0.3175 -1.27,-1.411112 v -4.445003 c 0.529167,-0.758473 1.11125,-1.075973 1.92264,-1.075973 1.005417,0 1.322917,0.47625 1.322917,1.940279 v 3.721808 c 0,1.005418 -0.141111,1.146529 -1.164167,1.270001 v 0.264584 h 3.862919 v -0.264584 l -0.458611,-0.03528 c -0.529167,-0.03528 -0.758473,-0.352778 -0.758473,-1.040695 v -3.633613 c 0,-2.081391 -0.687917,-3.139725 -2.046113,-3.139725 -1.023056,0 -1.92264,0.458612 -2.87514,1.481668 -0.317501,-1.005417 -0.917223,-1.481668 -1.869724,-1.481668 -0.776112,0 -1.270001,0.246945 -2.73403,1.358196 v -1.322918 l -0.123472,-0.03528 c -0.899584,0.335139 -1.499306,0.529167 -2.469446,0.793751 z"
         style="font-size:17.6389px;line-height:1.25;font-family:FreeSerif;-inkscape-font-specification:FreeSerif;fill:#ffffff;stroke-width:0.264583"
         id="path1819" />
    </g>
    <path
       d="m 57.719243,37.727439 -0.223261,-0.08931 c -2.143423,0.803786 -4.286845,1.428949 -6.474922,1.964806 v 0.714475 c 0.267927,-0.04466 0.446546,-0.04466 0.759128,-0.04466 1.786186,0 2.188077,0.401892 2.188077,2.277387 v 23.175758 c 0,1.384294 3.795646,2.857898 7.368017,2.857898 5.894413,0 10.449187,-4.91201 10.449187,-11.297625 0,-5.492521 -3.393754,-9.690058 -7.859218,-9.690058 -2.723934,0 -5.313902,1.607568 -6.206995,3.795645 z m 0,16.031019 c 0,-1.741531 2.098768,-3.3491 4.42081,-3.3491 3.483061,0 5.715793,3.483062 5.715793,8.930928 0,4.956666 -2.143422,7.814564 -5.805103,7.814564 -2.322042,0 -4.3315,-1.027058 -4.3315,-2.143422 z"
       style="font-size:17.6389px;line-height:1.25;font-family:FreeSerif;-inkscape-font-specification:FreeSerif;fill:#ffffff;stroke-width:0.669818"
       id="path1821" />
    <path
       d="m 75.223848,50.587978 c 1.07171,0 1.473601,0.669818 1.473601,2.634623 v 10.359878 c 0,3.215134 -0.446546,3.706335 -3.527716,3.884952 v 0.669821 H 83.752884 V 67.467431 C 80.805677,67.24417 80.44844,66.797613 80.44844,63.582479 V 47.73008 l -0.17863,-0.133972 c -2.322042,0.937747 -4.599426,1.786185 -6.921468,2.456006 v 0.669818 c 0.669819,-0.08931 1.473602,-0.133972 1.875496,-0.133972 z M 78.171053,37.63813 c -1.205674,0 -2.232732,1.027057 -2.232732,2.277386 0,1.250332 0.982403,2.277387 2.232732,2.277387 1.294984,0 2.322042,-0.9824 2.322042,-2.277387 0,-1.250329 -1.027058,-2.277386 -2.322042,-2.277386 z"
       style="font-size:17.6389px;line-height:1.25;font-family:FreeSerif;-inkscape-font-specification:FreeSerif;fill:#ffffff;stroke-width:0.669818"
       id="path1823" />
    <path
       d="m 86.208858,65.725901 c 0,0.937747 0.535856,1.473604 2.366697,2.366696 -3.17048,2.322042 -4.376155,3.795644 -4.376155,5.447867 0,2.366694 3.483062,4.3315 7.725251,4.3315 5.26925,0 11.610209,-3.036516 11.610209,-7.546634 0,-2.768589 -2.09877,-4.644084 -5.403211,-4.778049 l -5.760451,-0.267927 c -2.366694,-0.08931 -3.483062,-0.491201 -3.483062,-1.205674 0,-0.893093 1.473604,-2.456007 2.679279,-2.813243 0.491201,0.04466 2.054115,0.223262 2.545316,0.223262 3.572371,0 6.966119,-2.634624 6.966119,-6.921469 0,-1.294984 -0.22326,-2.322041 -0.84843,-3.75099 h 3.70633 v -1.741531 h -3.43841 c -2.72393,0 -3.661676,-1.473604 -7.010775,-1.473604 -4.152882,0 -7.457324,3.215135 -7.457324,7.278707 0,2.813243 1.205674,4.510119 4.15288,5.983723 -3.527717,3.304444 -3.974263,3.706336 -3.974263,4.867356 z m 3.304444,2.500659 c 1.473604,0.312584 5.045976,0.580511 7.234053,0.580511 4.063575,0 5.537175,0.580511 5.537175,2.188077 0,2.589971 -3.393753,4.331502 -8.439728,4.331502 -3.929608,0 -6.519577,-1.294985 -6.519577,-3.25979 0,-1.027057 0.312582,-1.607566 2.188077,-3.8403 z m 8.127145,-11.922789 c 0,2.500659 -1.294984,4.063573 -3.349099,4.063573 -1.83084,0 -4.554774,-1.652221 -4.554774,-7.323362 0,-2.634624 1.250332,-4.197535 3.304445,-4.197535 3.929608,0 4.599428,5.98372 4.599428,7.457324 z"
       style="font-size:17.6389px;line-height:1.25;font-family:FreeSerif;-inkscape-font-specification:FreeSerif;fill:#ffffff;stroke-width:0.669818"
       id="path1825" />
  </g>
</svg>
