<?xml version="1.0" encoding="UTF-8" standalone="no"?>
<!-- Created with Inkscape (http://www.inkscape.org/) -->

<svg
   width="252.51003"
   height="307.15982"
   viewBox="0 0 66.809942 81.269369"
   version="1.1"
   id="svg5"
   inkscape:version="1.2.1 (9c6d41e410, 2022-07-14, custom)"
   sodipodi:docname="itsokaytobelost.svg"
   xmlns:inkscape="http://www.inkscape.org/namespaces/inkscape"
   xmlns:sodipodi="http://sodipodi.sourceforge.net/DTD/sodipodi-0.dtd"
   xmlns:xlink="http://www.w3.org/1999/xlink"
   xmlns="http://www.w3.org/2000/svg"
   xmlns:svg="http://www.w3.org/2000/svg">
  <sodipodi:namedview
     id="namedview7"
     pagecolor="#505050"
     bordercolor="#eeeeee"
     borderopacity="1"
     inkscape:showpageshadow="0"
     inkscape:pageopacity="0"
     inkscape:pagecheckerboard="0"
     inkscape:deskcolor="#505050"
     inkscape:document-units="mm"
     showgrid="false"
     inkscape:zoom="2.4620873"
     inkscape:cx="130.98642"
     inkscape:cy="160.02682"
     inkscape:window-width="1920"
     inkscape:window-height="1005"
     inkscape:window-x="0"
     inkscape:window-y="0"
     inkscape:window-maximized="1"
     inkscape:current-layer="layer1" />
  <defs
     id="defs2">
    <linearGradient
       inkscape:collect="always"
       id="linearGradient833">
      <stop
         style="stop-color:#66164c;stop-opacity:1;"
         offset="0"
         id="stop829" />
      <stop
         style="stop-color:#dc473c;stop-opacity:1;"
         offset="1"
         id="stop831" />
    </linearGradient>
    <linearGradient
       inkscape:collect="always"
       xlink:href="#linearGradient833"
       id="linearGradient835"
       x1="5.6693616"
       y1="4.0166559"
       x2="96.301926"
       y2="69.873955"
       gradientUnits="userSpaceOnUse"
       gradientTransform="matrix(0.60729619,0,0,0.98213304,20.81831,1.575661)" />
  </defs>
  <g
     inkscape:label="Layer 1"
     inkscape:groupmode="layer"
     id="layer1"
     transform="translate(-19.607782,0.53991145)">
    <rect
       style="fill:url(#linearGradient835);fill-opacity:1;stroke:none;stroke-width:0.359119;stroke-linecap:round;stop-color:#000000"
       id="rect250"
       width="66.809944"
       height="81.269371"
       x="19.607782"
       y="-0.53991145" />
    <g
       id="g527"
       transform="translate(0,-0.52916663)">
      <path
         d="M 47.853373,11.966646 Q 47.798253,11.558747 47.74313,11.117774 47.69903,10.665777 47.65494,10.21378 47.61084,9.7617831 47.55572,9.3208105 47.500595,8.8577892 47.434449,8.4609138 47.401376,8.295549 47.313182,8.0199411 47.236011,7.7443332 47.158841,7.4356523 47.081671,7.1159471 47.015525,6.7962419 q -0.05512,-0.3197052 -0.05512,-0.5842888 0.132291,-0.176389 0.264583,-0.066146 0.132292,0.1102432 0.264584,0.4189241 0.132292,0.2976565 0.253559,0.7717021 0.132292,0.4630213 0.231511,0.9921886 0.110243,0.5291672 0.198437,1.0914073 0.09922,0.5622402 0.165365,1.0583348 0.06615,0.496094 0.110243,0.881945 0.0441,0.385851 0.0441,0.584289 0,0.06615 0,0.132292 0,0.06615 -0.01103,0.132291 -0.01102,0.05512 -0.06615,0.110244 -0.0441,0.0441 -0.143316,0.06615 -0.06615,0.02205 -0.132292,-0.03307 -0.06614,-0.06615 -0.132291,-0.143317 -0.06615,-0.07717 -0.110243,-0.143316 -0.03307,-0.07717 -0.0441,-0.09922 z"
         style="font-size:11.2889px;line-height:1.25;font-family:'Indie Flower';-inkscape-font-specification:'Indie Flower';text-align:center;text-anchor:middle;fill:#ffffff;stroke-width:0.264583"
         id="path418" />
      <path
         d="m 50.190528,8.5932056 q -0.08819,0 -0.30868,0 -0.220487,0 -0.463022,-0.033073 -0.23151,-0.044097 -0.429948,-0.1322918 -0.187413,-0.088195 -0.187413,-0.2535593 0,-0.044097 0.01102,-0.1212675 0.02205,-0.088194 0.110243,-0.088194 l 1.135505,-0.099219 q 0.0441,-0.4078997 0.06615,-0.661459 0.02205,-0.2645836 0.01102,-0.4850699 -0.01102,-0.2315106 -0.03307,-0.4740456 -0.01102,-0.2535593 -0.02205,-0.6504347 0,-0.07717 0.03307,-0.1212675 0.03307,-0.044097 0.07717,-0.066146 0.05512,-0.022049 0.110244,-0.033073 0.06615,-0.011024 0.09922,-0.011024 0.06615,0 0.132292,0.044097 0.07717,0.044097 0.132292,0.1102432 0.05512,0.066146 0.08819,0.1433161 0.03307,0.066146 0.03307,0.1322918 l 0.08819,2.0615472 0.948091,0.044097 q 0.187414,-0.022049 0.341754,0.07717 0.165365,0.088195 0.176389,0.3417538 -0.132292,0.1433162 -0.319705,0.1763891 -0.187413,0.022049 -0.396875,0.022049 -0.198438,-0.011024 -0.396876,0 -0.198437,0 -0.352778,0.099219 0,0.066146 0.01102,0.3638024 0.01102,0.2976566 0.02205,0.7055563 0.01102,0.4078998 0.02205,0.8709208 0.02205,0.463021 0.03307,0.859897 0.01102,0.385851 0.01102,0.661459 0.01102,0.275608 0.01102,0.308681 -0.253559,0.15434 -0.407899,-0.02205 -0.154341,-0.187413 -0.25356,-0.540192 -0.08819,-0.363802 -0.132292,-0.837848 -0.03307,-0.48507 -0.0441,-0.948091 0,-0.4740453 0.01102,-0.8709207 0.01103,-0.3968754 0.03307,-0.5732644 z"
         style="font-size:11.2889px;line-height:1.25;font-family:'Indie Flower';-inkscape-font-specification:'Indie Flower';text-align:center;text-anchor:middle;fill:#ffffff;stroke-width:0.264583"
         id="path420" />
      <path
         d="m 52.615878,4.536257 q 0,-0.066146 0,-0.1102432 0,-0.055122 0.02205,-0.088195 0.02205,-0.044097 0.06615,-0.088195 0.0441,-0.044097 0.110243,-0.1102431 0.121268,0.066146 0.209462,0.2315106 0.09922,0.1653648 0.154341,0.3858511 0.06614,0.209462 0.09922,0.4740456 0.03307,0.2535593 0.05512,0.5071186 0.02205,0.242535 0.02205,0.451997 0.01102,0.209462 0.01102,0.3417538 0,0.1543405 -0.02205,0.2535593 -0.02205,0.099219 -0.198437,0.099219 -0.143317,0 -0.242535,-0.1653648 Q 52.814312,6.553707 52.74817,6.311172 52.69305,6.0576127 52.65998,5.7599561 52.63793,5.4622996 52.62691,5.197716 52.61589,4.9331324 52.61589,4.7567433 q 0,-0.1874134 0,-0.2204863 z"
         style="font-size:11.2889px;line-height:1.25;font-family:'Indie Flower';-inkscape-font-specification:'Indie Flower';text-align:center;text-anchor:middle;fill:#ffffff;stroke-width:0.264583"
         id="path422" />
      <path
         d="m 53.740359,11.051628 q 0.08819,-0.06615 0.15434,-0.07717 0.07717,-0.02205 0.165365,-0.02205 0.09922,0 0.198438,0.05512 0.09922,0.0441 0.176389,0.121267 0.08819,0.06615 0.176389,0.132292 0.08819,0.06615 0.187413,0.110243 0.286632,0.121268 0.451997,0.198438 0.176389,0.07717 0.319705,0.121268 0.143316,0.0441 0.33073,0.05512 0.187413,0.01102 0.48507,0.01102 0.23151,0 0.56224,0.01103 0.330729,0 0.628386,-0.05512 0.297656,-0.06615 0.507118,-0.220486 0.209462,-0.165365 0.209462,-0.496094 0.01102,-0.319706 -0.176389,-0.496095 -0.176389,-0.187413 -0.48507,-0.286632 -0.30868,-0.09922 -0.694531,-0.132292 Q 56.551559,10.037387 56.14366,9.993293 55.73576,9.9491965 55.338885,9.8720263 54.953033,9.7838318 54.644353,9.6074427 54.335672,9.4310536 54.148258,9.1223728 53.960845,8.8136919 53.949821,8.328622 q 0.06615,-0.3527782 0.341753,-0.5842888 0.286633,-0.242535 0.672484,-0.3638025 0.396875,-0.1322918 0.837848,-0.1322918 0.440973,-0.011024 0.804775,0.1102432 0.374827,0.1102431 0.617362,0.3638024 0.253559,0.2535593 0.264583,0.6283861 0.02205,0.2204863 -0.03307,0.3638024 -0.05512,0.1433162 -0.15434,0.2204864 -0.08819,0.066146 -0.187413,0.066146 -0.09922,-0.011024 -0.154341,-0.07717 -0.05512,-0.07717 -0.05512,-0.2094621 0.01102,-0.1433161 0.132291,-0.3527781 Q 56.992532,8.1522329 56.78307,8.0309654 56.573608,7.9096979 56.298,7.8656006 56.022392,7.8104791 55.702687,7.843552 q -0.308681,0.022049 -0.573264,0.1102432 -0.25356,0.088195 -0.418924,0.2315106 -0.154341,0.1433162 -0.132292,0.3307295 0,0.3307295 0.187413,0.5181429 0.198438,0.1763891 0.507119,0.2756079 0.308681,0.099219 0.705556,0.1433162 0.4079,0.044097 0.826824,0.088195 0.429948,0.033073 0.826823,0.1102432 0.396876,0.066146 0.716581,0.2315106 0.319705,0.1653639 0.507119,0.4519969 0.187413,0.275608 0.187413,0.727606 0,0.341753 -0.176389,0.595313 -0.176389,0.242535 -0.451997,0.407899 -0.264584,0.165365 -0.584289,0.242535 -0.319705,0.07717 -0.606337,0.07717 -0.286632,0 -0.617362,0 -0.319705,-0.01103 -0.661459,-0.0441 -0.33073,-0.03307 -0.672483,-0.09922 -0.341754,-0.07717 -0.639411,-0.220486 -0.286632,-0.15434 -0.518143,-0.385851 -0.23151,-0.231511 -0.374826,-0.584289 z"
         style="font-size:11.2889px;line-height:1.25;font-family:'Indie Flower';-inkscape-font-specification:'Indie Flower';text-align:center;text-anchor:middle;fill:#ffffff;stroke-width:0.264583"
         id="path424" />
    </g>
    <g
       id="g498"
       transform="translate(0,-1.5875)">
      <path
         d="m 28.981038,23.597292 q -0.0478,-1.051364 0.262842,-1.959359 0.334523,-0.907996 0.931889,-1.60094 0.597367,-0.71684 1.457572,-1.146942 0.860208,-0.382314 1.887676,-0.477894 1.792098,0.262842 3.416933,0.907996 1.648727,0.645156 2.891249,1.64873 1.266416,1.003576 2.054937,2.341673 0.788524,1.338099 0.884103,3.010723 -0.238947,1.242522 -0.97968,1.95936 -0.740734,0.71684 -1.744308,1.123048 -1.003576,0.382314 -2.150517,0.573471 -1.146942,0.167262 -2.102728,0.31063 -1.481465,0 -2.747881,-0.477894 -1.242522,-0.501786 -2.150518,-1.361993 -0.884099,-0.860206 -1.409781,-2.102726 -0.501788,-1.242521 -0.501788,-2.747883 z m 1.123048,-0.119469 q -0.02389,1.099151 0.453997,2.054937 0.501789,0.955783 1.29031,1.672623 0.788524,0.716838 1.768204,1.194732 0.97968,0.477892 1.959359,0.621259 0.334524,0 0.8841,-0.04779 0.549578,-0.07167 1.194731,-0.191148 0.645157,-0.143376 1.29031,-0.35842 0.66905,-0.238946 1.194732,-0.549575 0.549576,-0.334526 0.884102,-0.764629 0.358418,-0.453997 0.358418,-1.027469 -0.167263,-1.194732 -0.740732,-2.126622 -0.549578,-0.931889 -1.361994,-1.648729 -0.812417,-0.71684 -1.768203,-1.218626 -0.955786,-0.501788 -1.887676,-0.788524 -0.931889,-0.31063 -1.744307,-0.406208 -0.812419,-0.09558 -1.3381,0 -0.740734,0.26284 -1.218626,0.692944 -0.453998,0.430104 -0.740734,0.931893 -0.262839,0.477891 -0.382314,0.979679 -0.09558,0.501786 -0.09558,0.97968 z"
         style="font-size:11.2889px;line-height:1.25;font-family:'Indie Flower';-inkscape-font-specification:'Indie Flower';text-align:center;text-anchor:middle;fill:#ffffff;stroke-width:0.57347"
         id="path426" />
      <path
         d="m 44.63202,29.570948 q 0,-0.0478 0.02389,-0.238945 0.02389,-0.215055 0.07168,-0.453999 0.0478,-0.238945 0.07168,-0.430103 0.02389,-0.215054 0.02389,-0.26284 0,-0.0478 0,-0.238946 0,-0.215054 0,-0.477894 0.02391,-0.26284 0.02391,-0.549576 0,-0.286736 0,-0.430104 0,-0.143377 0,-0.382313 0,-0.238946 -0.02391,-0.477893 0,-0.26284 0,-0.430103 0,-0.191148 0,-0.215054 -0.07168,-1.099153 -0.286736,-2.317778 -0.191148,-1.242522 -0.430102,-2.461147 -0.215054,-1.218626 -0.430104,-2.389464 -0.191169,-1.170835 -0.286735,-2.150515 0.215053,-0.573473 0.453997,-0.382314 0.262842,0.167262 0.525682,0.836311 0.262842,0.66905 0.525682,1.672624 0.262842,0.97968 0.453998,2.00715 0.215054,1.027468 0.382313,1.935463 0.143377,0.907996 0.238947,1.409784 0.0478,0.0478 0.167261,0.0478 0.143377,0 0.191148,0 0.477891,0 0.836311,-0.286736 0.35842,-0.286735 0.66905,-0.71684 0.334526,-0.453998 0.645156,-0.955783 0.31063,-0.525682 0.645154,-0.955786 0.334526,-0.430104 0.740734,-0.716838 0.406207,-0.310632 0.93189,-0.310632 0.334525,0 0.40621,0.215055 0.07167,0.191146 0.04779,0.453997 -0.334523,0.262842 -0.764627,0.692946 -0.430102,0.430102 -0.931889,0.93189 -0.477893,0.501788 -0.97968,1.051363 -0.477893,0.549576 -0.860206,1.075258 -0.35842,0.501788 -0.621262,0.97968 -0.238946,0.477892 -0.238946,0.836312 0,0.525682 0.334526,0.955785 0.358418,0.430104 0.884099,0.788522 0.549579,0.35842 1.218626,0.62126 0.66905,0.238948 1.3381,0.430104 0.66905,0.167262 1.266416,0.262842 0.573472,0.09558 0.955786,0.09558 0.215054,0.0478 0.238946,0.238945 0.02389,0.191148 0.02389,0.35842 0,0.35842 -0.238946,0.525682 -0.215055,0.167262 -0.549576,0.238946 -0.31063,0.07167 -0.66905,0.07167 -0.334526,0 -0.573472,0 -0.525682,0 -1.218626,-0.334524 -0.66905,-0.334525 -1.314203,-0.71684 -0.621262,-0.406207 -1.099154,-0.740733 -0.477892,-0.334524 -0.66905,-0.334524 -0.382313,0 -0.525682,0.382314 -0.11947,0.35842 -0.167261,0.788522 -0.0478,0.430104 -0.167263,0.812418 -0.09558,0.35842 -0.453997,0.35842 -0.31063,0 -0.573473,-0.167262 -0.26284,-0.167262 -0.26284,-0.549578 z"
         style="font-size:11.2889px;line-height:1.25;font-family:'Indie Flower';-inkscape-font-specification:'Indie Flower';text-align:center;text-anchor:middle;fill:#ffffff;stroke-width:0.57347"
         id="path428" />
      <path
         d="m 53.759768,26.225702 q 0.02389,-0.406208 0.238945,-0.93189 0.215055,-0.525682 0.66905,-1.02747 0.453999,-0.501788 1.146942,-0.884102 0.692944,-0.406207 1.624836,-0.57347 0.955783,-0.167261 2.150515,-0.02391 1.218626,0.143377 2.700094,0.71684 0,-0.02389 0,-0.238946 L 62.26626,23.0477 q 0,-0.62126 -0.358418,-1.266416 -0.35842,-0.645156 -0.931892,-1.146942 -0.549576,-0.525681 -1.194729,-0.836311 -0.645157,-0.334526 -1.242523,-0.334526 -0.238945,0 -0.430104,0.07167 -0.167261,0.07168 -0.334523,0.191147 -0.167262,0.09558 -0.334524,0.191148 -0.143376,0.07168 -0.35842,0.07168 -0.0478,0 -0.0478,-0.02389 -0.02389,-0.02389 -0.0478,-0.0478 -0.04779,-0.0478 -0.143355,-0.11947 -0.07168,-0.07168 -0.07168,-0.09558 0,-0.430102 0.143376,-0.740732 0.167263,-0.31063 0.430102,-0.501788 0.286737,-0.191148 0.62126,-0.286736 0.35842,-0.11947 0.740734,-0.11947 0.955786,0.09558 1.815992,0.597366 0.884101,0.477892 1.600941,1.218626 0.740732,0.740734 1.29031,1.720411 0.549575,0.955786 0.907995,2.00715 0.382315,1.02747 0.501786,2.078833 0.143377,1.099152 0.02391,2.054938 -0.02391,0 -0.143377,0 -0.119469,-0.02389 -0.262842,-0.02389 -0.143377,-0.02391 -0.238946,-0.0478 l -0.11947,-0.02389 q -0.501779,-1.123036 -1.123039,-1.81598 -0.621261,-0.692946 -1.242521,-1.07526 -0.597366,-0.406208 -1.123048,-0.549576 -0.525682,-0.167262 -0.860206,-0.238946 -0.35842,0 -0.860205,0.0478 -0.477895,0.04779 -1.003576,0.167261 -0.525683,0.11947 -1.075258,0.334524 -0.525682,0.191148 -0.955786,0.477892 -0.406208,0.286736 -0.66905,0.692946 -0.238945,0.382314 -0.238945,0.907996 0,0.57347 0.453997,0.97968 0.453998,0.382314 1.099154,0.645154 0.645154,0.238945 1.314204,0.334525 0.66905,0.09558 1.07526,0.09558 0.669047,0 1.314203,-0.07167 0.645153,-0.07168 1.266416,-0.167262 0.645153,-0.09558 1.266415,-0.167262 0.62126,-0.07167 1.24252,-0.07167 0.0478,0 0.167262,0 0.119469,0 0.238946,0.02389 0.143377,0 0.238948,0 0.119469,0 0.167262,0 0.191147,0.07167 0.215054,0.215055 0.02389,0.143376 0.02389,0.286736 0,0.143355 -0.31063,0.310629 -0.286736,0.167263 -0.764627,0.334524 -0.477895,0.167262 -1.07526,0.35842 -0.57347,0.167262 -1.123046,0.286736 -0.525682,0.11947 -1.003576,0.215055 -0.453998,0.07167 -0.645154,0.07167 -1.003576,0 -2.126623,-0.167262 -1.123046,-0.167262 -2.054938,-0.597366 -0.93189,-0.453998 -1.55315,-1.242519 -0.597365,-0.788525 -0.597365,-2.031044 z"
         style="font-size:11.2889px;line-height:1.25;font-family:'Indie Flower';-inkscape-font-specification:'Indie Flower';text-align:center;text-anchor:middle;fill:#ffffff;stroke-width:0.57347"
         id="path430" />
      <path
         d="m 66.782339,37.719016 q 0,-0.167261 0,-0.334524 0,-0.143376 0.0478,-0.262841 0.04779,-0.09558 0.143376,-0.167263 0.143377,-0.04779 0.334524,-0.04779 0.35842,0.406208 0.907996,1.027468 0.573472,0.645156 1.290309,1.242522 0.71684,0.597365 1.505362,1.051364 0.788524,0.453997 1.600942,0.453997 0.66905,-0.02391 1.146941,-0.35842 0.477893,-0.31063 0.812419,-0.836311 0.334524,-0.525682 0.549575,-1.194732 0.215055,-0.66905 0.334524,-1.361994 0.143377,-0.692944 0.191147,-1.338099 0.07167,-0.645154 0.143377,-1.123048 0.04779,-0.238946 0.09558,-0.812418 0.07167,-0.549576 0.11947,-1.242519 0.07167,-0.66905 0.09558,-1.409784 0.0478,-0.740734 0,-1.338098 -0.04779,-0.621262 -0.191147,-1.003576 -0.143377,-0.406208 -0.430102,-0.406208 -0.40621,0 -0.860207,0.238947 -0.453998,0.238945 -0.955784,0.549575 -0.477894,0.286736 -0.979679,0.525682 -0.501789,0.238946 -0.97968,0.238946 -0.907996,0 -1.672626,-0.358418 -0.740732,-0.382314 -1.361994,-0.979679 -0.621259,-0.597366 -1.099152,-1.38589 -0.477893,-0.812416 -0.812417,-1.672624 -0.31063,-0.860206 -0.477892,-1.720414 -0.143377,-0.860205 -0.143377,-1.624833 0,-0.167262 -0.0478,-0.549576 -0.02389,-0.382316 0.02389,-0.788523 0.04779,-0.406209 0.215054,-0.716838 0.167262,-0.310632 0.525682,-0.310632 0.09558,0 0.143376,0.382316 0.07168,0.382314 0.143377,1.003573 0.09558,0.597366 0.215054,1.385888 0.143377,0.788524 0.35842,1.600939 0.215055,0.812418 0.525682,1.600942 0.31063,0.788522 0.764628,1.409782 0.453998,0.597365 1.075258,0.97968 0.645156,0.382314 1.457571,0.382314 0.525682,0 1.099154,-0.215055 0.573472,-0.238948 1.075257,-0.597365 0.525683,-0.35842 0.955787,-0.812419 0.430103,-0.477891 0.66905,-0.931889 0,-0.09558 -0.02391,-0.454 -0.02389,-0.358418 -0.04779,-0.812416 -0.02389,-0.477894 -0.0478,-1.02747 -0.02389,-0.549575 -0.04779,-1.02747 -0.02389,-0.501785 -0.04779,-0.860205 0,-0.35842 0,-0.453998 0.04779,-1.457572 0.215054,-1.768201 0.167261,-0.334526 0.406208,0.191146 0.238946,0.525683 0.501788,1.768204 0.262839,1.24252 0.477892,2.915143 0.238946,1.64873 0.35842,3.608089 0.143376,1.95936 0.119469,3.91872 -0.02389,1.983253 -0.262839,3.82314 -0.215055,1.839886 -0.71684,3.249669 -0.501787,1.433679 -1.314204,2.31778 -0.812418,0.8841 -2.00715,0.93189 -0.477892,0 -1.146942,-0.191147 -0.645146,-0.167259 -1.314196,-0.477889 -0.66905,-0.31063 -1.338099,-0.740734 -0.645154,-0.430103 -1.170836,-0.93189 -0.501788,-0.501787 -0.836314,-1.051363 -0.31063,-0.549576 -0.31063,-1.099154 z"
         style="font-size:11.2889px;line-height:1.25;font-family:'Indie Flower';-inkscape-font-specification:'Indie Flower';text-align:center;text-anchor:middle;fill:#ffffff;stroke-width:0.57347"
         id="path432" />
    </g>
    <g
       id="g504"
       transform="translate(0,-0.52916663)">
      <path
         d="m 42.142777,39.514569 q -0.08819,0 -0.308681,0 -0.220486,0 -0.463021,-0.03307 -0.231511,-0.0441 -0.429948,-0.132292 -0.187414,-0.08819 -0.187414,-0.25356 0,-0.0441 0.01103,-0.121267 0.02205,-0.08819 0.110243,-0.08819 l 1.135504,-0.09922 q 0.0441,-0.4079 0.06615,-0.661459 0.02205,-0.264584 0.01103,-0.48507 -0.01103,-0.231511 -0.03307,-0.474046 -0.01103,-0.253559 -0.02205,-0.650435 0,-0.07717 0.03307,-0.121267 0.03307,-0.0441 0.07717,-0.06615 0.05512,-0.02205 0.110243,-0.03307 0.06615,-0.01102 0.09922,-0.01102 0.06615,0 0.132292,0.0441 0.07717,0.0441 0.132292,0.110243 0.05512,0.06615 0.08819,0.143316 0.03307,0.06615 0.03307,0.132292 l 0.08819,2.061547 0.948091,0.0441 q 0.187413,-0.02205 0.341754,0.07717 0.165365,0.08819 0.176389,0.341754 -0.132292,0.143316 -0.319705,0.176389 -0.187414,0.02205 -0.396876,0.02205 -0.198437,-0.01102 -0.396875,0 -0.198438,0 -0.352778,0.09922 0,0.06615 0.01102,0.363803 0.01102,0.297656 0.02205,0.705556 0.01102,0.4079 0.02205,0.870921 0.02205,0.463021 0.03307,0.859897 0.01102,0.385851 0.01102,0.661459 0.01102,0.275607 0.01102,0.30868 -0.253559,0.154341 -0.4079,-0.02205 -0.15434,-0.187414 -0.253559,-0.540192 -0.08819,-0.363802 -0.132292,-0.837848 -0.03307,-0.48507 -0.0441,-0.948091 0,-0.474046 0.01102,-0.870921 0.01102,-0.396875 0.03307,-0.573265 z"
         style="font-size:11.2889px;line-height:1.25;font-family:'Indie Flower';-inkscape-font-specification:'Indie Flower';text-align:center;text-anchor:middle;fill:#ffffff;stroke-width:0.264583"
         id="path434" />
      <path
         d="m 44.557103,41.057974 q 0,-0.606338 0.264583,-1.058335 0.264584,-0.451997 0.694532,-0.760677 0.429948,-0.308681 0.959116,-0.451997 0.540191,-0.154341 1.080383,-0.154341 0.286632,0 0.529167,0.110243 0.253559,0.09922 0.474046,0.286633 0.23151,0.176389 0.407899,0.418924 0.176389,0.23151 0.297657,0.48507 0.132292,0.253559 0.198438,0.518142 0.06614,0.25356 0.06614,0.496095 0,0.56224 -0.220486,1.003212 -0.220486,0.440973 -0.595313,0.749654 -0.374827,0.297657 -0.848872,0.463021 -0.474046,0.154341 -0.97014,0.154341 -0.507119,0 -0.937067,-0.154341 -0.418924,-0.165364 -0.738629,-0.451997 -0.308681,-0.286632 -0.48507,-0.705556 -0.176389,-0.429948 -0.176389,-0.948091 z m 0.540191,-0.08819 q 0,0.341754 0.121268,0.661459 0.132291,0.308681 0.352778,0.540192 0.23151,0.23151 0.540191,0.374827 0.308681,0.132291 0.661459,0.132291 0.187414,0.02205 0.451997,-0.05512 0.275608,-0.08819 0.540192,-0.242535 0.275608,-0.165365 0.518143,-0.385851 0.253559,-0.231511 0.418924,-0.496095 0.165364,-0.275607 0.198437,-0.56224 0.0441,-0.297656 -0.09922,-0.584288 -0.132292,-0.297657 -0.496095,-0.562241 -0.363802,-0.275608 -1.003213,-0.507118 -0.363802,0 -0.760677,0.110243 -0.385852,0.09922 -0.705557,0.308681 -0.319705,0.209462 -0.529167,0.529167 -0.209462,0.319705 -0.209462,0.738629 z"
         style="font-size:11.2889px;line-height:1.25;font-family:'Indie Flower';-inkscape-font-specification:'Indie Flower';text-align:center;text-anchor:middle;fill:#ffffff;stroke-width:0.264583"
         id="path436" />
      <path
         d="m 54.401817,38.015262 q -0.05512,-0.48507 -0.132292,-0.826823 -0.07717,-0.341754 -0.07717,-0.562241 0.01102,-0.220486 0.143316,-0.341753 0.143316,-0.121268 0.496094,-0.165365 0.02205,0.110243 0.05512,0.418924 0.03307,0.308681 0.06615,0.705556 0.0441,0.385851 0.08819,0.8158 0.05512,0.418924 0.09922,0.771702 0.0441,0.352778 0.09922,0.573264 0.05512,0.242535 0.09922,0.220487 0.198437,0 0.385851,-0.06615 0.198438,-0.06615 0.418924,-0.06615 0.330729,0 0.705556,0.06615 0.374827,0.05512 0.738629,0.176389 0.374827,0.121267 0.716581,0.319705 0.352778,0.187413 0.606337,0.440973 0.264584,0.253559 0.418924,0.584288 0.154341,0.33073 0.154341,0.727605 0,0.507119 -0.253559,0.8158 -0.242535,0.297656 -0.628387,0.451997 -0.385851,0.15434 -0.837848,0.198437 -0.463021,0.0441 -0.859896,0.0441 -0.551216,0 -0.915019,-0.132292 -0.363802,-0.143316 -0.595313,-0.385851 -0.23151,-0.242535 -0.352778,-0.56224 -0.121267,-0.319705 -0.176389,-0.694532 -0.05512,-0.385851 -0.07717,-0.793751 -0.02205,-0.418924 -0.06615,-0.837848 -0.01102,-0.07717 -0.05512,-0.341754 -0.0441,-0.275608 -0.110243,-0.595313 -0.05512,-0.33073 -0.09922,-0.606337 -0.0441,-0.275608 -0.05512,-0.352779 z m 1.058334,2.888371 q -0.110243,0.48507 0.05512,0.837848 0.176389,0.352779 0.496094,0.584289 0.33073,0.220487 0.749654,0.308681 0.429948,0.08819 0.848872,0.03307 0.418924,-0.06615 0.749654,-0.264584 0.352778,-0.209462 0.507118,-0.573264 0,-0.297657 -0.143316,-0.540192 -0.132292,-0.242534 -0.352778,-0.429948 -0.220486,-0.187413 -0.507119,-0.319705 -0.275608,-0.143316 -0.573264,-0.231511 -0.286632,-0.08819 -0.573265,-0.132292 -0.286632,-0.05512 -0.507118,-0.05512 -0.363803,0 -0.56224,0.209462 -0.187414,0.209462 -0.187414,0.573264 z"
         style="font-size:11.2889px;line-height:1.25;font-family:'Indie Flower';-inkscape-font-specification:'Indie Flower';text-align:center;text-anchor:middle;fill:#ffffff;stroke-width:0.264583"
         id="path438" />
      <path
         d="m 59.90295,40.352418 q 0,-0.573265 0.165365,-1.091408 0.176389,-0.529167 0.496094,-0.926042 0.33073,-0.396876 0.793751,-0.628386 0.474046,-0.242535 1.091408,-0.242535 0.363802,0.0441 0.628386,0.198437 0.275608,0.154341 0.440972,0.385851 0.176389,0.220487 0.25356,0.518143 0.06614,0.286632 0.06614,0.617362 0,0.396875 -0.23151,0.716581 -0.231511,0.319705 -0.584289,0.540191 -0.352778,0.209462 -0.760678,0.33073 -0.4079,0.110243 -0.760678,0.110243 -0.132291,0 -0.275608,0 -0.132291,0 -0.242535,-0.0441 -0.110243,-0.0441 -0.176389,-0.132291 -0.06615,-0.08819 -0.06615,-0.264584 0,-0.05512 0.01103,-0.08819 0.02205,-0.0441 0.09922,-0.05512 0.07717,-0.02205 0.23151,-0.01102 0.154341,0.02205 0.418924,0.06615 0.154341,0 0.440973,-0.09922 0.297657,-0.110243 0.595313,-0.275608 0.308681,-0.165365 0.529167,-0.374827 0.220487,-0.220486 0.220487,-0.429948 0,-0.220487 -0.07717,-0.429949 -0.06614,-0.220486 -0.209462,-0.385851 -0.143316,-0.165365 -0.341753,-0.264583 -0.187414,-0.09922 -0.429949,-0.07717 -0.385851,0.03307 -0.705556,0.209462 -0.308681,0.176389 -0.529167,0.463022 -0.220487,0.275608 -0.341754,0.617361 -0.121268,0.341754 -0.121268,0.716581 0,0.286632 0.01102,0.573265 0.01102,0.286632 0.07717,0.56224 0.07717,0.275608 0.231511,0.529167 0.165364,0.253559 0.463021,0.451997 0.308681,0.187413 0.771702,0.319705 0.463021,0.121268 1.146529,0.15434 l 1.973353,-0.132291 q -0.176389,0.242535 -0.451997,0.396875 -0.264584,0.154341 -0.573265,0.253559 -0.297656,0.08819 -0.595313,0.132292 -0.297656,0.0441 -0.56224,0.0441 -0.63941,0 -1.20165,-0.209462 Q 61.258941,42.88801 60.828993,42.513184 60.399045,42.127333 60.145485,41.587141 59.90295,41.035925 59.90295,40.352418 Z"
         style="font-size:11.2889px;line-height:1.25;font-family:'Indie Flower';-inkscape-font-specification:'Indie Flower';text-align:center;text-anchor:middle;fill:#ffffff;stroke-width:0.264583"
         id="path440" />
    </g>
    <g
       id="g510"
       transform="translate(0,-2.1166667)">
      <path
         d="m 28.237258,59.803164 q 0.05888,-1.030311 0.117758,-2.32556 0.0883,-1.324685 0.206061,-2.619934 0.117757,-1.324686 0.26494,-2.531622 0.147183,-1.236375 0.35325,-2.148938 0.206062,-0.912559 0.44156,-1.412997 0.294377,-0.500437 0.588752,-0.323811 0.412123,0.05888 0.529872,0.647624 0.117757,0.588748 0.05888,1.560186 -0.02943,0.971435 -0.206062,2.207809 -0.176636,1.236375 -0.35325,2.531624 -0.147184,1.295246 -0.26494,2.590495 -0.117758,1.265812 -0.05888,2.32556 0,0.294377 0.0883,0.647624 0.117756,0.323813 0.294377,0.618188 0.176635,0.294375 0.441559,0.529876 0.294378,0.235487 0.618188,0.235487 l 5.916932,0.529875 q 0.264941,0.02943 0.294375,0.294375 0.05888,0.26494 0.05888,0.412126 0,0.529872 -0.323813,0.706498 -0.323811,0.176635 -0.853686,0.294373 -0.117757,0 -0.441563,0 -0.294374,0.02945 -0.647624,0.02945 -0.323811,0.02943 -0.618188,0.02943 -0.294375,0 -0.412123,0 -1.354125,0 -2.502185,-0.206062 -1.118624,-0.206061 -1.913435,-0.735937 -0.794812,-0.559312 -1.236376,-1.471873 -0.441562,-0.941999 -0.441562,-2.413873 z"
         style="font-size:11.2889px;line-height:1.25;font-family:'Indie Flower';-inkscape-font-specification:'Indie Flower';text-align:center;text-anchor:middle;fill:#ffffff;stroke-width:0.706498"
         id="path442" />
      <path
         d="m 38.687561,58.566791 q 0,-1.619062 0.706498,-2.825999 0.7065,-1.206936 1.854561,-2.031183 1.148062,-0.824249 2.561061,-1.206936 1.442434,-0.412126 2.884872,-0.412126 0.765373,0 1.412997,0.294374 0.677062,0.26494 1.265812,0.765374 0.618186,0.471002 1.089188,1.118626 0.470999,0.618185 0.79481,1.295246 0.35325,0.677064 0.529875,1.383562 0.176636,0.677063 0.176636,1.324688 0,1.501311 -0.588752,2.678807 -0.588748,1.1775 -1.589622,2.001749 -1.000875,0.794813 -2.266685,1.236374 -1.265811,0.412126 -2.590497,0.412126 -1.354125,0 -2.502185,-0.412126 -1.118624,-0.441561 -1.97231,-1.206937 -0.82425,-0.765374 -1.295249,-1.883997 -0.471,-1.148061 -0.471,-2.531622 z m 1.442435,-0.235488 q 0,0.912562 0.323813,1.766248 0.353251,0.82425 0.941999,1.442438 0.618188,0.618185 1.442437,1.000875 0.824247,0.353247 1.766249,0.353247 0.500435,0.05888 1.206936,-0.147183 0.735934,-0.235487 1.442434,-0.647625 0.735937,-0.441562 1.383562,-1.030311 0.67706,-0.618187 1.118623,-1.324688 0.441563,-0.735934 0.529876,-1.501311 0.117757,-0.79481 -0.264941,-1.560186 -0.35325,-0.79481 -1.324685,-1.50131 -0.971438,-0.735937 -2.678811,-1.354123 -0.971437,0 -2.031185,0.294375 -1.030311,0.26494 -1.883997,0.824249 -0.853689,0.559312 -1.413001,1.412999 -0.559312,0.853685 -0.559312,1.972309 z"
         style="font-size:11.2889px;line-height:1.25;font-family:'Indie Flower';-inkscape-font-specification:'Indie Flower';text-align:center;text-anchor:middle;fill:#ffffff;stroke-width:0.706498"
         id="path444" />
      <path
         d="m 53.317982,61.0101 q 0.235488,-0.176635 0.412126,-0.206061 0.206062,-0.05888 0.441561,-0.05888 0.26494,0 0.529875,0.147183 0.26494,0.117757 0.470999,0.32381 0.235488,0.176637 0.470999,0.353251 0.235488,0.176635 0.500439,0.294375 0.765374,0.323813 1.206937,0.529874 0.470998,0.206062 0.853685,0.323811 0.382687,0.117758 0.883123,0.147184 0.500438,0.02943 1.295249,0.02943 0.618188,0 1.501311,0.02945 0.883125,0 1.677935,-0.147183 0.794813,-0.176635 1.354125,-0.588748 0.559312,-0.441563 0.559312,-1.324689 0.02943,-0.853685 -0.470999,-1.324685 -0.471,-0.500436 -1.295249,-0.765374 -0.82425,-0.26494 -1.854561,-0.35325 -1.030311,-0.117757 -2.119499,-0.235487 -1.089186,-0.117758 -2.148935,-0.323814 -1.03031,-0.235488 -1.85456,-0.706498 -0.82425,-0.471002 -1.324685,-1.295249 -0.500439,-0.824249 -0.529876,-2.119498 0.176636,-0.941998 0.912563,-1.560186 0.765373,-0.647625 1.795684,-0.971436 1.05975,-0.353249 2.237248,-0.353249 1.1775,-0.02945 2.148935,0.294373 1.000874,0.294375 1.648498,0.971436 0.677065,0.677064 0.706501,1.677935 0.05888,0.588752 -0.0883,0.971439 -0.147183,0.382686 -0.412126,0.588748 -0.235488,0.176635 -0.500435,0.176635 -0.264941,-0.02942 -0.412124,-0.206061 -0.147183,-0.206062 -0.147183,-0.559312 0.02943,-0.382687 0.35325,-0.941999 -0.117757,-0.559312 -0.677061,-0.883125 -0.559312,-0.323811 -1.295249,-0.44156 -0.735937,-0.147183 -1.589623,-0.05888 -0.824249,0.05888 -1.53075,0.294374 -0.677061,0.235488 -1.118624,0.618188 -0.412123,0.382687 -0.353249,0.883123 0,0.883125 0.500438,1.383561 0.529872,0.471 1.354122,0.735938 0.82425,0.26494 1.883997,0.382686 1.089188,0.117757 2.207811,0.235515 1.148063,0.0883 2.207811,0.294374 1.059748,0.176636 1.913437,0.618185 0.853686,0.441562 1.354122,1.206936 0.500436,0.735937 0.500436,1.942873 0,0.912563 -0.471,1.589624 -0.470999,0.647624 -1.206936,1.089187 -0.706498,0.441562 -1.560183,0.647624 -0.85369,0.206062 -1.619063,0.206062 -0.765374,0 -1.648499,0 -0.853687,-0.02943 -1.766248,-0.117757 -0.883123,-0.0883 -1.795685,-0.264942 Q 56.497247,63.9833 55.702436,63.600613 54.937063,63.18849 54.318875,62.570302 53.700687,61.952114 53.318001,61.010116 Z"
         style="font-size:11.2889px;line-height:1.25;font-family:'Indie Flower';-inkscape-font-specification:'Indie Flower';text-align:center;text-anchor:middle;fill:#ffffff;stroke-width:0.706498"
         id="path446" />
      <path
         d="m 72.334586,54.445543 q -0.235487,0 -0.824249,0 -0.588749,0 -1.236373,-0.0883 -0.618188,-0.117757 -1.148061,-0.353248 -0.500438,-0.235514 -0.500438,-0.677063 0,-0.117757 0.02943,-0.323811 0.05888,-0.235488 0.294374,-0.235488 l 3.032057,-0.26494 q 0.117758,-1.089187 0.176636,-1.766248 0.05888,-0.7065 0.02945,-1.295249 -0.02945,-0.618188 -0.0883,-1.265812 -0.02943,-0.677061 -0.05888,-1.736812 0,-0.206062 0.08831,-0.323811 0.0883,-0.117757 0.206061,-0.176635 0.147183,-0.05888 0.294374,-0.0883 0.176637,-0.02943 0.26494,-0.02943 0.176637,0 0.353251,0.117756 0.206061,0.117758 0.35325,0.294375 0.147183,0.176635 0.235488,0.382687 0.0883,0.176635 0.0883,0.353249 l 0.235488,5.504807 2.531622,0.117757 q 0.500438,-0.05888 0.912561,0.206062 0.441564,0.235487 0.471,0.912561 -0.35325,0.382687 -0.853686,0.471 -0.500439,0.05888 -1.059751,0.05888 -0.529872,-0.02943 -1.059748,0 -0.529875,0 -0.941998,0.26494 0,0.176636 0.02943,0.971438 0.02943,0.79481 0.05888,1.883997 0.02943,1.089187 0.05888,2.32556 0.05888,1.236373 0.0883,2.296123 0.02945,1.030312 0.02945,1.766249 0.02943,0.735935 0.02943,0.824247 -0.677062,0.412126 -1.089188,-0.05888 -0.412123,-0.500438 -0.677061,-1.442437 -0.235488,-0.971435 -0.35325,-2.237248 -0.0883,-1.295248 -0.117757,-2.531622 0,-1.265811 0.02943,-2.32556 0.02945,-1.05975 0.08831,-1.53075 z"
         style="font-size:11.2889px;line-height:1.25;font-family:'Indie Flower';-inkscape-font-specification:'Indie Flower';text-align:center;text-anchor:middle;fill:#ffffff;stroke-width:0.706498"
         id="path448" />
    </g>
    <g
       id="g521">
      <path
         d="m 27.579655,72.894356 q 0.08819,-0.06615 0.15434,-0.07717 0.07717,-0.02205 0.165365,-0.02205 0.09922,0 0.198438,0.05512 0.09922,0.0441 0.176389,0.121267 0.08819,0.06615 0.176389,0.132292 0.08819,0.06615 0.187413,0.110243 0.286632,0.121268 0.451997,0.198438 0.176389,0.07717 0.319705,0.121267 0.143316,0.0441 0.33073,0.05512 0.187413,0.01102 0.48507,0.01102 0.23151,0 0.56224,0.01103 0.330729,0 0.628386,-0.05512 0.297656,-0.06615 0.507118,-0.220486 0.209463,-0.165365 0.209463,-0.496095 0.01102,-0.319705 -0.17639,-0.496094 -0.176389,-0.187413 -0.485069,-0.286632 -0.308681,-0.09922 -0.694532,-0.132292 -0.385852,-0.0441 -0.793751,-0.08819 -0.4079,-0.0441 -0.804775,-0.121268 -0.385851,-0.08819 -0.694532,-0.264583 -0.308681,-0.17639 -0.496095,-0.48507 -0.187413,-0.308681 -0.198437,-0.793751 0.06615,-0.352778 0.341754,-0.584289 0.286632,-0.242535 0.672483,-0.363802 0.396875,-0.132292 0.837848,-0.132292 0.440973,-0.01103 0.804775,0.110243 0.374827,0.110243 0.617362,0.363802 0.253559,0.25356 0.264583,0.628386 0.02205,0.220487 -0.03307,0.363803 -0.05512,0.143316 -0.15434,0.220486 -0.0882,0.06615 -0.187413,0.06615 -0.09922,-0.01102 -0.154341,-0.07717 -0.05512,-0.07717 -0.05512,-0.209462 0.01102,-0.143316 0.132291,-0.352778 -0.0441,-0.209462 -0.253559,-0.33073 -0.209462,-0.121267 -0.48507,-0.165365 -0.275608,-0.05512 -0.595313,-0.02205 -0.308681,0.02205 -0.573264,0.110243 -0.25356,0.0882 -0.418924,0.231511 -0.154341,0.143316 -0.132292,0.330729 0,0.33073 0.187413,0.518143 0.198438,0.176389 0.507119,0.275608 0.308681,0.09922 0.705556,0.143316 0.4079,0.0441 0.826824,0.08819 0.429948,0.03307 0.826824,0.110243 0.396875,0.06615 0.71658,0.23151 0.319705,0.165365 0.507119,0.451997 0.187413,0.275608 0.187413,0.727605 0,0.341754 -0.176389,0.595313 -0.176389,0.242535 -0.451997,0.4079 -0.264584,0.165365 -0.584289,0.242535 -0.319705,0.07717 -0.606337,0.07717 -0.286632,0 -0.617362,0 -0.319705,-0.01102 -0.661459,-0.0441 -0.330729,-0.03307 -0.672483,-0.09922 -0.341754,-0.07717 -0.639411,-0.220486 -0.286632,-0.154341 -0.518143,-0.385851 -0.23151,-0.231511 -0.374826,-0.584289 z"
         style="font-size:11.2889px;line-height:1.25;font-family:'Indie Flower';-inkscape-font-specification:'Indie Flower';text-align:center;text-anchor:middle;fill:#ffffff;stroke-width:0.264583"
         id="path450" />
      <path
         d="m 33.411518,71.979338 q 0,-0.606338 0.264584,-1.058335 0.264583,-0.451997 0.694532,-0.760678 0.429948,-0.30868 0.959115,-0.451997 0.540192,-0.15434 1.080383,-0.15434 0.286633,0 0.529168,0.110243 0.253559,0.09922 0.474045,0.286632 0.231511,0.17639 0.4079,0.418924 0.176389,0.231511 0.297657,0.48507 0.132291,0.25356 0.198437,0.518143 0.06615,0.25356 0.06615,0.496095 0,0.56224 -0.220486,1.003212 -0.220487,0.440973 -0.595313,0.749654 -0.374827,0.297656 -0.848873,0.463021 -0.474045,0.154341 -0.97014,0.154341 -0.507118,0 -0.937067,-0.154341 -0.418924,-0.165365 -0.738629,-0.451997 -0.308681,-0.286632 -0.48507,-0.705556 -0.176389,-0.429948 -0.176389,-0.948091 z m 0.540192,-0.08819 q 0,0.341754 0.121267,0.661459 0.132292,0.308681 0.352778,0.540192 0.231511,0.23151 0.540192,0.374826 0.308681,0.132292 0.661459,0.132292 0.187413,0.02205 0.451997,-0.05512 0.275608,-0.08819 0.540191,-0.242535 0.275608,-0.165365 0.518143,-0.385851 0.25356,-0.231511 0.418924,-0.496095 0.165365,-0.275608 0.198438,-0.56224 0.0441,-0.297656 -0.09922,-0.584289 -0.132292,-0.297656 -0.496094,-0.56224 -0.363802,-0.275608 -1.003213,-0.507118 -0.363802,0 -0.760678,0.110243 -0.385851,0.09922 -0.705556,0.308681 -0.319705,0.209462 -0.529167,0.529167 -0.209462,0.319705 -0.209462,0.738629 z"
         style="font-size:11.2889px;line-height:1.25;font-family:'Indie Flower';-inkscape-font-specification:'Indie Flower';text-align:center;text-anchor:middle;fill:#ffffff;stroke-width:0.264583"
         id="path452" />
      <path
         d="m 46.100507,73.842447 q 0,-0.03307 0,-0.08819 0.01102,-0.05512 0.01102,-0.110243 0,-0.05512 0,-0.09922 l 0.01103,-0.06615 q 0,-0.03307 0.01102,-0.187414 0.02205,-0.15434 0.0441,-0.330729 0.02205,-0.176389 0.03307,-0.33073 0.01103,-0.165364 0.01103,-0.209462 -0.02205,-0.23151 -0.09922,-0.606337 -0.07717,-0.374827 -0.242535,-0.738629 -0.154341,-0.363803 -0.396876,-0.628386 -0.242535,-0.264584 -0.573264,-0.264584 -0.297657,0 -0.628386,0.154341 -0.319705,0.143316 -0.606338,0.385851 -0.275607,0.23151 -0.451996,0.540191 -0.187414,0.297657 -0.187414,0.628386 0,0.165365 0.05512,0.33073 0.05512,0.15434 0.110243,0.308681 0.06615,0.15434 0.121267,0.319705 0.05512,0.165365 0.05512,0.341754 0,0.132291 -0.05512,0.264583 -0.0441,0.132292 -0.23151,0.132292 -0.198438,0 -0.33073,-0.231511 -0.121267,-0.23151 -0.23151,-0.584288 -0.09922,-0.363803 -0.220487,-0.771703 -0.110243,-0.407899 -0.286632,-0.760677 -0.165365,-0.363803 -0.418924,-0.595314 -0.242535,-0.23151 -0.628386,-0.23151 -0.297657,0 -0.529167,0.132292 -0.231511,0.121267 -0.385851,0.330729 -0.143317,0.209462 -0.231511,0.474046 -0.07717,0.264583 -0.07717,0.540191 0,0.440973 0.05512,0.870921 0.06615,0.418924 0.06615,0.848873 0,0.15434 -0.03307,0.286632 -0.03307,0.121267 -0.220486,0.121267 -0.121268,0 -0.209462,-0.05512 -0.07717,-0.06615 -0.132292,-0.154341 -0.05512,-0.09922 -0.08819,-0.209462 -0.03307,-0.121267 -0.05512,-0.209462 0.02205,-0.451997 0,-0.837848 -0.01102,-0.385851 -0.0441,-0.727605 -0.02205,-0.352778 -0.05512,-0.705556 -0.02205,-0.352778 -0.02205,-0.749654 0,-0.02205 0,-0.07717 0,-0.05512 0,-0.110243 0.01103,-0.06615 0.01103,-0.110243 0,-0.05512 0,-0.07717 0.01102,-0.02205 0.05512,-0.05512 0.0441,-0.03307 0.05512,-0.05512 h 0.05512 q 0.187413,0 0.275607,0.132291 0.08819,0.110244 0.08819,0.286633 0.176389,-0.187414 0.308681,-0.286633 0.143316,-0.110243 0.264583,-0.165364 0.132292,-0.05512 0.264584,-0.06615 0.143316,-0.01103 0.341754,-0.01103 0.319705,0 0.573264,0.06615 0.264584,0.06615 0.474046,0.198438 0.209462,0.121267 0.385851,0.330729 0.176389,0.198438 0.352778,0.463022 0.01103,0 0.02205,0.01102 0.02205,0 0.03307,0 0.01102,0 0.110243,-0.09922 0.09922,-0.110243 0.264584,-0.253559 0.165364,-0.15434 0.385851,-0.33073 0.220486,-0.187413 0.463021,-0.341753 0.242535,-0.154341 0.496094,-0.25356 0.25356,-0.110243 0.496094,-0.110243 0.374827,0 0.661459,0.154341 0.297657,0.15434 0.529168,0.418924 0.23151,0.253559 0.396875,0.584288 0.165365,0.319706 0.275608,0.672484 0.110243,0.341754 0.15434,0.683507 0.05512,0.341754 0.05512,0.628386 0,0.110244 -0.01102,0.385852 0,0.264583 -0.05512,0.551215 -0.0441,0.275608 -0.15434,0.496095 -0.110243,0.209462 -0.308681,0.209462 -0.09922,0 -0.143316,-0.03307 -0.0441,-0.0441 -0.06615,-0.09922 -0.02205,-0.05512 -0.02205,-0.121268 0,-0.06615 0,-0.143316 z"
         style="font-size:11.2889px;line-height:1.25;font-family:'Indie Flower';-inkscape-font-specification:'Indie Flower';text-align:center;text-anchor:middle;fill:#ffffff;stroke-width:0.264583"
         id="path454" />
      <path
         d="m 47.379327,71.273781 q 0,-0.573264 0.165365,-1.091407 0.176389,-0.529167 0.496094,-0.926043 0.33073,-0.396875 0.793751,-0.628386 0.474046,-0.242535 1.091408,-0.242535 0.363802,0.0441 0.628386,0.198438 0.275608,0.154341 0.440972,0.385851 0.176389,0.220487 0.25356,0.518143 0.06615,0.286632 0.06615,0.617362 0,0.396875 -0.231511,0.71658 -0.231511,0.319706 -0.584289,0.540192 -0.352778,0.209462 -0.760678,0.330729 -0.407899,0.110244 -0.760678,0.110244 -0.132291,0 -0.275608,0 -0.132291,0 -0.242535,-0.0441 -0.110243,-0.0441 -0.176389,-0.132291 -0.06614,-0.08819 -0.06614,-0.264584 0,-0.05512 0.01102,-0.08819 0.02205,-0.0441 0.09922,-0.05512 0.07717,-0.02205 0.23151,-0.01102 0.154341,0.02205 0.418924,0.06615 0.154341,0 0.440973,-0.09922 0.297657,-0.110244 0.595313,-0.275608 0.308681,-0.165365 0.529167,-0.374827 0.220487,-0.220486 0.220487,-0.429948 0,-0.220487 -0.07717,-0.429949 -0.06614,-0.220486 -0.209462,-0.385851 -0.143316,-0.165365 -0.341753,-0.264583 -0.187414,-0.09922 -0.429949,-0.07717 -0.385851,0.03307 -0.705556,0.209462 -0.308681,0.176389 -0.529167,0.463022 -0.220487,0.275608 -0.341754,0.617361 -0.121267,0.341754 -0.121267,0.716581 0,0.286632 0.01102,0.573264 0.01102,0.286633 0.07717,0.562241 0.07717,0.275607 0.231511,0.529167 0.165364,0.253559 0.463021,0.451997 0.308681,0.187413 0.771702,0.319705 0.463021,0.121267 1.146529,0.15434 l 1.973353,-0.132291 q -0.176389,0.242535 -0.451997,0.396875 -0.264584,0.15434 -0.573265,0.253559 -0.297656,0.08819 -0.595313,0.132292 -0.297656,0.0441 -0.56224,0.0441 -0.63941,0 -1.20165,-0.209462 Q 48.735321,73.809389 48.305373,73.434563 47.875425,73.048711 47.621865,72.50852 47.37933,71.957304 47.37933,71.273796 Z"
         style="font-size:11.2889px;line-height:1.25;font-family:'Indie Flower';-inkscape-font-specification:'Indie Flower';text-align:center;text-anchor:middle;fill:#ffffff;stroke-width:0.264583"
         id="path456" />
      <path
         d="m 54.490011,70.435933 q -0.08819,0 -0.30868,0 -0.220487,0 -0.463022,-0.03307 -0.23151,-0.0441 -0.429948,-0.132291 -0.187413,-0.08819 -0.187413,-0.25356 0,-0.0441 0.01102,-0.121267 0.02205,-0.08819 0.110243,-0.08819 l 1.135505,-0.09922 q 0.0441,-0.407899 0.06615,-0.661459 0.02205,-0.264583 0.01102,-0.485069 -0.01102,-0.231511 -0.03307,-0.474046 -0.01102,-0.253559 -0.02205,-0.650435 0,-0.07717 0.03307,-0.121267 0.03307,-0.0441 0.07717,-0.06615 0.05512,-0.02205 0.110244,-0.03307 0.06615,-0.01102 0.09922,-0.01102 0.06615,0 0.132292,0.0441 0.07717,0.0441 0.132292,0.110243 0.05512,0.06615 0.0882,0.143316 0.03307,0.06615 0.03307,0.132292 l 0.08819,2.061547 0.948091,0.0441 q 0.187414,-0.02205 0.341754,0.07717 0.165365,0.08819 0.176389,0.341753 -0.132292,0.143317 -0.319705,0.17639 -0.187413,0.02205 -0.396875,0.02205 -0.198438,-0.01102 -0.396876,0 -0.198437,0 -0.352778,0.09922 0,0.06615 0.01102,0.363802 0.01103,0.297657 0.02205,0.705557 0.01102,0.407899 0.02205,0.870921 0.02205,0.463021 0.03307,0.859896 0.01102,0.385852 0.01102,0.661459 0.01102,0.275608 0.01102,0.308681 -0.253559,0.154341 -0.407899,-0.02205 -0.154341,-0.187414 -0.25356,-0.540192 -0.08819,-0.363802 -0.132292,-0.837848 -0.03307,-0.48507 -0.0441,-0.948091 0,-0.474046 0.01102,-0.870921 0.01102,-0.396876 0.03307,-0.573265 z"
         style="font-size:11.2889px;line-height:1.25;font-family:'Indie Flower';-inkscape-font-specification:'Indie Flower';text-align:center;text-anchor:middle;fill:#ffffff;stroke-width:0.264583"
         id="path458" />
      <path
         d="m 57.389407,70.413885 q 0,-0.0441 0,-0.165365 0,-0.121267 0,-0.253559 0.01102,-0.132292 0.01102,-0.25356 0,-0.121267 0,-0.165364 -0.0441,-0.341754 0.198438,-0.341754 0.110243,0 0.187413,0.05512 0.07717,0.05512 0.143316,0.165365 -0.03307,0.573265 0.0441,1.113456 0.08819,0.529167 0.187414,1.058335 0.110243,0.518142 0.198437,1.04731 0.09922,0.529167 0.09922,1.102431 0,0.154341 -0.09922,0.308681 -0.08819,0.154341 -0.275607,0.154341 -0.143317,0 -0.25356,-0.242535 -0.09922,-0.25356 -0.176389,-0.628386 -0.07717,-0.385851 -0.132292,-0.848873 -0.05512,-0.463021 -0.08819,-0.881945 -0.02205,-0.429948 -0.03307,-0.760678 -0.01102,-0.341754 -0.01102,-0.463021 z m -0.562241,-2.767104 q 0,-0.132292 0.07717,-0.165365 0.07717,-0.0441 0.198437,-0.0441 0.07717,-0.01102 0.198438,0.09922 0.132292,0.09922 0.209462,0.231511 0.08819,0.132292 0.09922,0.242535 0.01102,0.132291 -0.165365,0.15434 h -0.05512 q -0.165365,0 -0.275608,-0.02205 -0.110244,-0.02205 -0.176389,-0.06615 -0.05512,-0.05512 -0.08819,-0.154341 -0.02205,-0.09922 -0.02205,-0.275608 z"
         style="font-size:11.2889px;line-height:1.25;font-family:'Indie Flower';-inkscape-font-specification:'Indie Flower';text-align:center;text-anchor:middle;fill:#ffffff;stroke-width:0.264583"
         id="path460" />
      <path
         d="m 66.065544,73.842447 q 0,-0.03307 0,-0.08819 0.01102,-0.05512 0.01102,-0.110243 0,-0.05512 0,-0.09922 l 0.01102,-0.06615 q 0,-0.03307 0.01103,-0.187414 0.02205,-0.15434 0.0441,-0.330729 0.02205,-0.176389 0.03307,-0.33073 0.01102,-0.165364 0.01102,-0.209462 -0.02205,-0.23151 -0.09922,-0.606337 -0.07717,-0.374827 -0.242535,-0.738629 -0.15434,-0.363803 -0.396875,-0.628386 -0.242535,-0.264584 -0.573265,-0.264584 -0.297656,0 -0.628386,0.154341 -0.319705,0.143316 -0.606337,0.385851 -0.275608,0.23151 -0.451997,0.540191 -0.187413,0.297657 -0.187413,0.628386 0,0.165365 0.05512,0.33073 0.05512,0.15434 0.110243,0.308681 0.06615,0.15434 0.121268,0.319705 0.05512,0.165365 0.05512,0.341754 0,0.132291 -0.05512,0.264583 -0.0441,0.132292 -0.231511,0.132292 -0.198438,0 -0.330729,-0.231511 -0.121268,-0.23151 -0.231511,-0.584288 -0.09922,-0.363803 -0.220486,-0.771703 -0.110244,-0.407899 -0.286633,-0.760677 -0.165364,-0.363803 -0.418924,-0.595314 -0.242535,-0.23151 -0.628386,-0.23151 -0.297656,0 -0.529167,0.132292 -0.231511,0.121267 -0.385851,0.330729 -0.143316,0.209462 -0.231511,0.474046 -0.07717,0.264583 -0.07717,0.540191 0,0.440973 0.05512,0.870921 0.06615,0.418924 0.06615,0.848873 0,0.15434 -0.03307,0.286632 -0.03307,0.121267 -0.220487,0.121267 -0.121267,0 -0.209462,-0.05512 -0.07717,-0.06615 -0.132292,-0.154341 -0.05512,-0.09922 -0.08819,-0.209462 -0.03307,-0.121267 -0.05512,-0.209462 0.02205,-0.451997 0,-0.837848 -0.01102,-0.385851 -0.0441,-0.727605 -0.02205,-0.352778 -0.05512,-0.705556 -0.02205,-0.352778 -0.02205,-0.749654 0,-0.02205 0,-0.07717 0,-0.05512 0,-0.110243 0.01102,-0.06615 0.01102,-0.110243 0,-0.05512 0,-0.07717 0.01102,-0.02205 0.05512,-0.05512 0.0441,-0.03307 0.05512,-0.05512 h 0.05512 q 0.187413,0 0.275608,0.132291 0.08819,0.110244 0.08819,0.286633 0.176389,-0.187414 0.308681,-0.286633 0.143316,-0.110243 0.264584,-0.165364 0.132292,-0.05512 0.264583,-0.06615 0.143317,-0.01103 0.341754,-0.01103 0.319705,0 0.573265,0.06615 0.264583,0.06615 0.474045,0.198438 0.209462,0.121267 0.385851,0.330729 0.17639,0.198438 0.352779,0.463022 0.01102,0 0.02205,0.01102 0.02205,0 0.03307,0 0.01102,0 0.110243,-0.09922 0.09922,-0.110243 0.264584,-0.253559 0.165365,-0.15434 0.385851,-0.33073 0.220486,-0.187413 0.463021,-0.341753 0.242535,-0.154341 0.496095,-0.25356 0.253559,-0.110243 0.496094,-0.110243 0.374827,0 0.661459,0.154341 0.297656,0.15434 0.529167,0.418924 0.231511,0.253559 0.396875,0.584288 0.165365,0.319706 0.275608,0.672484 0.110244,0.341754 0.154341,0.683507 0.05512,0.341754 0.05512,0.628386 0,0.110244 -0.01102,0.385852 0,0.264583 -0.05512,0.551215 -0.0441,0.275608 -0.154341,0.496095 -0.110243,0.209462 -0.308681,0.209462 -0.09922,0 -0.143316,-0.03307 -0.0441,-0.0441 -0.06615,-0.09922 -0.02205,-0.05512 -0.02205,-0.121268 0,-0.06615 0,-0.143316 z"
         style="font-size:11.2889px;line-height:1.25;font-family:'Indie Flower';-inkscape-font-specification:'Indie Flower';text-align:center;text-anchor:middle;fill:#ffffff;stroke-width:0.264583"
         id="path462" />
      <path
         d="m 67.344364,71.273781 q 0,-0.573264 0.165365,-1.091407 0.176389,-0.529167 0.496094,-0.926043 0.330729,-0.396875 0.793751,-0.628386 0.474045,-0.242535 1.091407,-0.242535 0.363802,0.0441 0.628386,0.198438 0.275608,0.154341 0.440973,0.385851 0.176389,0.220487 0.253559,0.518143 0.06615,0.286632 0.06615,0.617362 0,0.396875 -0.231511,0.71658 -0.23151,0.319706 -0.584289,0.540192 -0.352778,0.209462 -0.760677,0.330729 -0.4079,0.110244 -0.760678,0.110244 -0.132292,0 -0.275608,0 -0.132292,0 -0.242535,-0.0441 -0.110243,-0.0441 -0.176389,-0.132291 -0.06615,-0.08819 -0.06615,-0.264584 0,-0.05512 0.01102,-0.08819 0.02205,-0.0441 0.09922,-0.05512 0.07717,-0.02205 0.231511,-0.01102 0.15434,0.02205 0.418924,0.06615 0.15434,0 0.440972,-0.09922 0.297657,-0.110244 0.595314,-0.275608 0.30868,-0.165365 0.529167,-0.374827 0.220486,-0.220486 0.220486,-0.429948 0,-0.220487 -0.07717,-0.429949 -0.06615,-0.220486 -0.209462,-0.385851 -0.143316,-0.165365 -0.341754,-0.264583 -0.187413,-0.09922 -0.429948,-0.07717 -0.385851,0.03307 -0.705557,0.209462 -0.30868,0.176389 -0.529167,0.463022 -0.220486,0.275608 -0.341754,0.617361 -0.121267,0.341754 -0.121267,0.716581 0,0.286632 0.01102,0.573264 0.01103,0.286633 0.07717,0.562241 0.07717,0.275607 0.231511,0.529167 0.165365,0.253559 0.463021,0.451997 0.308681,0.187413 0.771703,0.319705 0.463021,0.121267 1.146529,0.15434 l 1.973352,-0.132291 q -0.176389,0.242535 -0.451997,0.396875 -0.264583,0.15434 -0.573264,0.253559 -0.297657,0.08819 -0.595313,0.132292 -0.297657,0.0441 -0.562241,0.0441 -0.63941,0 -1.20165,-0.209462 -0.56224,-0.209462 -0.992189,-0.584288 -0.429948,-0.385852 -0.683507,-0.926043 -0.242535,-0.551216 -0.242535,-1.234724 z"
         style="font-size:11.2889px;line-height:1.25;font-family:'Indie Flower';-inkscape-font-specification:'Indie Flower';text-align:center;text-anchor:middle;fill:#ffffff;stroke-width:0.264583"
         id="path464" />
      <path
         d="m 73.143154,72.894356 q 0.08819,-0.06615 0.154341,-0.07717 0.07717,-0.02205 0.165364,-0.02205 0.09922,0 0.198438,0.05512 0.09922,0.0441 0.176389,0.121267 0.08819,0.06615 0.176389,0.132292 0.08819,0.06615 0.187414,0.110243 0.286632,0.121268 0.451997,0.198438 0.176389,0.07717 0.319705,0.121267 0.143316,0.0441 0.330729,0.05512 0.187414,0.01102 0.48507,0.01102 0.231511,0 0.56224,0.01103 0.33073,0 0.628386,-0.05512 0.297657,-0.06615 0.507119,-0.220486 0.209462,-0.165365 0.209462,-0.496095 0.01102,-0.319705 -0.176389,-0.496094 -0.176389,-0.187413 -0.48507,-0.286632 -0.308681,-0.09922 -0.694532,-0.132292 -0.385851,-0.0441 -0.793751,-0.08819 -0.4079,-0.0441 -0.804775,-0.121268 -0.385851,-0.08819 -0.694532,-0.264583 -0.308681,-0.17639 -0.496094,-0.48507 -0.187414,-0.308681 -0.198438,-0.793751 0.06615,-0.352778 0.341754,-0.584289 0.286632,-0.242535 0.672483,-0.363802 0.396876,-0.132292 0.837848,-0.132292 0.440973,-0.01103 0.804775,0.110243 0.374827,0.110243 0.617362,0.363802 0.25356,0.25356 0.264584,0.628386 0.02205,0.220487 -0.03307,0.363803 -0.05512,0.143316 -0.154341,0.220486 -0.08819,0.06615 -0.187413,0.06615 -0.09922,-0.01102 -0.15434,-0.07717 -0.05512,-0.07717 -0.05512,-0.209462 0.01102,-0.143316 0.132292,-0.352778 -0.0441,-0.209462 -0.253559,-0.33073 -0.209462,-0.121267 -0.48507,-0.165365 -0.275608,-0.05512 -0.595313,-0.02205 -0.308681,0.02205 -0.573265,0.110243 -0.253559,0.0882 -0.418924,0.231511 -0.15434,0.143316 -0.132292,0.330729 0,0.33073 0.187414,0.518143 0.198437,0.176389 0.507118,0.275608 0.308681,0.09922 0.705556,0.143316 0.4079,0.0441 0.826824,0.08819 0.429949,0.03307 0.826824,0.110243 0.396875,0.06615 0.716581,0.23151 0.319705,0.165365 0.507118,0.451997 0.187414,0.275608 0.187414,0.727605 0,0.341754 -0.17639,0.595313 -0.176389,0.242535 -0.451997,0.4079 -0.264583,0.165365 -0.584288,0.242535 -0.319706,0.07717 -0.606338,0.07717 -0.286632,0 -0.617362,0 -0.319705,-0.01102 -0.661459,-0.0441 -0.330729,-0.03307 -0.672483,-0.09922 -0.341754,-0.07717 -0.63941,-0.220486 -0.286632,-0.154341 -0.518143,-0.385851 -0.231511,-0.231511 -0.374827,-0.584289 z"
         style="font-size:11.2889px;line-height:1.25;font-family:'Indie Flower';-inkscape-font-specification:'Indie Flower';text-align:center;text-anchor:middle;fill:#ffffff;stroke-width:0.264583"
         id="path466" />
    </g>
  </g>
</svg>
