<?xml version="1.0" encoding="UTF-8" standalone="no"?>
<!-- Created with Inkscape (http://www.inkscape.org/) -->

<svg
   width="415.79385"
   height="201.21049"
   viewBox="0 0 110.01212 53.236943"
   version="1.1"
   id="svg5"
   inkscape:version="1.2.1 (9c6d41e410, 2022-07-14, custom)"
   sodipodi:docname="mistakes.svg"
   xmlns:inkscape="http://www.inkscape.org/namespaces/inkscape"
   xmlns:sodipodi="http://sodipodi.sourceforge.net/DTD/sodipodi-0.dtd"
   xmlns:xlink="http://www.w3.org/1999/xlink"
   xmlns="http://www.w3.org/2000/svg"
   xmlns:svg="http://www.w3.org/2000/svg">
  <sodipodi:namedview
     id="namedview7"
     pagecolor="#505050"
     bordercolor="#eeeeee"
     borderopacity="1"
     inkscape:showpageshadow="0"
     inkscape:pageopacity="0"
     inkscape:pagecheckerboard="0"
     inkscape:deskcolor="#505050"
     inkscape:document-units="mm"
     showgrid="false"
     inkscape:zoom="2.0233015"
     inkscape:cx="204.86319"
     inkscape:cy="126.03164"
     inkscape:window-width="1920"
     inkscape:window-height="1005"
     inkscape:window-x="0"
     inkscape:window-y="0"
     inkscape:window-maximized="1"
     inkscape:current-layer="layer1" />
  <defs
     id="defs2">
    <linearGradient
       inkscape:collect="always"
       id="linearGradient833">
      <stop
         style="stop-color:#2c89af;stop-opacity:1;"
         offset="0"
         id="stop829" />
      <stop
         style="stop-color:#9f20c0;stop-opacity:1;"
         offset="1"
         id="stop831" />
    </linearGradient>
    <linearGradient
       inkscape:collect="always"
       xlink:href="#linearGradient833"
       id="linearGradient835"
       x1="5.6693616"
       y1="4.0166559"
       x2="101.37651"
       y2="74.323067"
       gradientUnits="userSpaceOnUse"
       gradientTransform="matrix(1,0,0,0.64336364,0,11.971099)" />
  </defs>
  <g
     inkscape:label="Layer 1"
     inkscape:groupmode="layer"
     id="layer1"
     transform="translate(1.9933084,-10.585258)">
    <rect
       style="fill:url(#linearGradient835);fill-opacity:1;stroke:none;stroke-width:0.372976;stroke-linecap:round;stop-color:#000000"
       id="rect250"
       width="110.01212"
       height="53.236942"
       x="-1.9933084"
       y="10.585258" />
    <g
       aria-label="Every mistake just adds to your story."
       id="text369"
       style="font-size:12.3525px;line-height:1.25;fill:#42192c;stroke-width:0.308812"
       transform="translate(-9.7020995e-5)">
      <path
         d="m 3.5485644,24.723678 q -0.048252,0 -0.084441,-0.01206 0.060315,0.12063 0.060315,0.168882 v 2.183401 q 0.060315,0.0965 0.3498267,0.0965 0.2895117,-0.01206 0.6875903,-0.04825 0.3980786,-0.03619 0.8444092,-0.108567 0.4463306,-0.08444 0.8323462,-0.144756 0.3860156,-0.07238 0.6393384,-0.12063 0.2653857,-0.04825 0.2895117,-0.02413 0.036189,0 0.1326929,0 0.1085669,-0.01206 0.2291967,-0.01206 0.1206299,-0.01206 0.2171338,-0.01206 0.096504,-0.01206 0.1326929,-0.01206 0,0.289512 -0.3257007,0.470457 -0.3136377,0.180945 -0.7961572,0.277449 -0.4825195,0.0965 -1.04948,0.156819 -0.5548974,0.04825 -1.04948,0.08444 -0.4825195,0.03619 -0.8202832,0.08444 -0.3498266,0.02413 -0.3739526,0.12063 -0.072378,0.193008 -0.1085669,0.434268 -0.024126,0.24126 -0.036189,0.494582 0,0.24126 0,0.494583 0.012063,0.24126 0.012063,0.434268 0,0.04825 0,0.168881 0,0.12063 0,0.253323 0,0.12063 0,0.24126 0,0.108567 0,0.144756 0.048252,0.12063 0.2171338,0.180945 0.1688819,0.06031 0.3618897,0.08444 0.1930078,0.01206 0.3618896,0 0.1930078,-0.01206 0.2653858,-0.01206 0.4101416,0 0.8202832,-0.03619 0.4101416,-0.04825 0.8082202,-0.08444 0.4101416,-0.04825 0.8082202,-0.08444 0.4101416,-0.04825 0.8202832,-0.04825 h 0.072378 q 0.024126,0.01206 0.072378,0.02413 0.048252,0.01206 0.096504,0.03619 0.060315,0.02413 0.096504,0.04825 0.048252,0.02413 0.072378,0.02413 0.024126,0.01206 0.072378,0.04825 0.048252,0.02413 0.048252,0.04825 0,0.229197 -0.2533228,0.386016 -0.2533227,0.144756 -0.6393384,0.24126 -0.3860156,0.08444 -0.8444091,0.132693 -0.4583936,0.03619 -0.8805982,0.06031 -0.4222046,0.01206 -0.7237793,0.01206 -0.3015747,0 -0.3860156,0 -0.4825195,0 -0.8564722,-0.08444 Q 3.3796826,31.4307 3.1263598,31.237692 2.8851001,31.032621 2.7644702,30.694858 2.6438403,30.332968 2.6438403,29.826322 q 0,-0.458393 0.060315,-0.916787 0.072378,-0.458393 0.072378,-0.92885 0,-0.193008 -0.060315,-0.3257 -0.060315,-0.132693 -0.060315,-0.289512 v -0.07238 q 0.024126,-0.02413 0.084441,-0.108567 0.060315,-0.0965 0.084441,-0.12063 v -2.66592 q 0,-0.193008 0.036189,-0.289512 0.048252,-0.0965 0.2050708,-0.132693 0.1688818,-0.03619 0.4583935,-0.02413 0.3015748,0.01206 0.8082203,0.03619 0.5187085,0.02413 1.2666137,0.03619 0.7720313,0.01206 1.8335742,0 0.1206299,0.04825 0.2412598,0.108567 0.1206299,0.04825 0.2171338,0.132693 0.1085669,0.08444 0.1688818,0.193008 0.060315,0.108567 0.060315,0.265385 0,0.03619 -0.048252,0.08444 -0.036189,0.04825 -0.060315,0.03619 L 7.4328466,24.615111 Z"
         style="font-family:'Indie Flower';-inkscape-font-specification:'Indie Flower'"
         id="path295" />
      <path
         d="m 9.0130981,27.293095 q 0.012063,-0.03619 0.036189,-0.08444 0.024126,-0.06031 0.060315,-0.12063 0.048252,-0.06031 0.084441,-0.0965 0.048252,-0.04825 0.1085669,-0.04825 0.012063,0 0.012063,0.01206 0,0 0.024126,0 h 0.024126 q 0.2774487,0.132693 0.4583935,0.386016 0.1809445,0.24126 0.3136375,0.554897 0.144756,0.313638 0.265386,0.675528 0.12063,0.349826 0.265385,0.699653 0.156819,0.337764 0.36189,0.663464 0.205071,0.325701 0.518709,0.579024 0.108567,-0.36189 0.217133,-0.699654 0.108567,-0.349826 0.24126,-0.699653 0.144756,-0.349827 0.325701,-0.723779 0.193008,-0.373953 0.434267,-0.80822 0.289512,-0.12063 0.458394,-0.144756 0.180945,-0.02413 0.253323,0.04825 0.07238,0.06031 0.02413,0.193008 -0.04825,0.132692 -0.205071,0.313637 -0.0965,0.08444 -0.229197,0.386016 -0.12063,0.301575 -0.265386,0.711716 -0.144755,0.410142 -0.313637,0.856472 -0.156819,0.446331 -0.325701,0.820283 -0.168882,0.36189 -0.337764,0.60315 -0.156818,0.24126 -0.313637,0.229197 -0.168882,0 -0.386016,-0.253323 Q 10.91905,31.080873 10.67779,30.670732 10.436531,30.26059 10.195271,29.77807 9.9540112,29.283488 9.7248144,28.800968 9.5076806,28.318449 9.3146728,27.92037 9.133728,27.510229 9.0130981,27.293095 Z"
         style="font-family:'Indie Flower';-inkscape-font-specification:'Indie Flower'"
         id="path297" />
      <path
         d="m 13.934797,28.354638 q 0,-0.627276 0.180945,-1.194236 0.193007,-0.579023 0.542834,-1.013291 0.36189,-0.434268 0.868535,-0.68759 0.518709,-0.265386 1.194236,-0.265386 0.398079,0.04825 0.68759,0.217134 0.301575,0.168882 0.48252,0.422204 0.193008,0.24126 0.277449,0.566961 0.07238,0.313637 0.07238,0.675527 0,0.434268 -0.253323,0.784094 -0.253323,0.349827 -0.639339,0.591087 -0.386015,0.229197 -0.832346,0.361889 -0.44633,0.12063 -0.832346,0.12063 -0.144756,0 -0.301575,0 -0.144755,0 -0.265385,-0.04825 -0.12063,-0.04825 -0.193008,-0.144756 -0.07238,-0.0965 -0.07238,-0.289511 0,-0.06031 0.01206,-0.0965 0.02413,-0.04825 0.108567,-0.06032 0.08444,-0.02413 0.253323,-0.01206 0.168881,0.02413 0.458393,0.07238 0.168882,0 0.48252,-0.108567 0.3257,-0.12063 0.651401,-0.301575 0.337764,-0.180945 0.579023,-0.410141 0.24126,-0.24126 0.24126,-0.470457 0,-0.24126 -0.08444,-0.470456 -0.07238,-0.24126 -0.229197,-0.422205 -0.156818,-0.180945 -0.373952,-0.289512 -0.205071,-0.108567 -0.470457,-0.08444 -0.422204,0.03619 -0.772031,0.229197 -0.337764,0.193008 -0.579023,0.506646 -0.24126,0.301574 -0.373953,0.675527 -0.132693,0.373953 -0.132693,0.784094 0,0.313638 0.01206,0.627276 0.01206,0.313637 0.08444,0.615212 0.08444,0.301575 0.253323,0.579023 0.180945,0.277449 0.506645,0.494583 0.337764,0.205071 0.844409,0.349827 0.506646,0.132692 1.254551,0.168881 l 2.159275,-0.144755 q -0.193008,0.265385 -0.494582,0.434267 -0.289512,0.168882 -0.627276,0.277449 -0.3257,0.0965 -0.651401,0.144756 -0.325701,0.04825 -0.615213,0.04825 -0.699653,0 -1.314865,-0.229197 -0.615213,-0.229197 -1.085669,-0.639338 -0.470457,-0.422205 -0.747905,-1.013291 -0.265386,-0.60315 -0.265386,-1.351055 z"
         style="font-family:'Indie Flower';-inkscape-font-specification:'Indie Flower'"
         id="path299" />
      <path
         d="m 21.401788,31.587519 q -0.265386,-0.48252 -0.458394,-1.04948 -0.193008,-0.566961 -0.325701,-1.145984 -0.132692,-0.579024 -0.217133,-1.121858 -0.07238,-0.554898 -0.0965,-1.001228 0,-0.08444 -0.01206,-0.180945 -0.01206,-0.108567 -0.01206,-0.217134 0.01206,-0.108567 0.03619,-0.205071 0.03619,-0.0965 0.108567,-0.168881 h 0.02413 q 0.01206,0 0.01206,0 0,-0.01206 0.01206,-0.01206 0.01206,0 0.01206,0.01206 0,0 0.02412,0 h 0.02413 q 0.02413,0.01206 0.12063,0.04825 0.0965,0.03619 0.12063,0.06031 0.217134,-0.07238 0.446331,-0.168882 0.229197,-0.108567 0.458393,-0.193008 0.24126,-0.0965 0.48252,-0.156819 0.24126,-0.06031 0.470456,-0.06031 0.168882,0 0.289512,0.01206 0.132693,0.01206 0.253323,0.04825 0.132693,0.02413 0.277449,0.07238 0.144755,0.03619 0.337763,0.0965 0.0965,0.07238 0.168882,0.144756 0.08444,0.06031 0.144756,0.144756 0.07238,0.08444 0.108567,0.20507 0.03619,0.12063 0.03619,0.313638 -0.193008,0.02413 -0.458394,-0.02413 -0.253322,-0.06031 -0.542834,-0.144756 -0.277449,-0.08444 -0.579024,-0.144756 -0.301574,-0.06031 -0.579023,-0.04825 -0.277449,0.01206 -0.518709,0.156819 -0.253322,0.12063 -0.44633,0.434268 -0.08444,0.349827 -0.07238,0.68759 0.01206,0.337764 0.08444,0.663465 0.07238,0.313637 0.180945,0.639338 0.12063,0.313638 0.217133,0.639338 0.108567,0.313638 0.193008,0.627276 0.08444,0.313637 0.108567,0.639338 0,0.12063 -0.132693,0.265386 -0.132693,0.132693 -0.301574,0.132693 z"
         style="font-family:'Indie Flower';-inkscape-font-specification:'Indie Flower'"
         id="path301" />
      <path
         d="m 24.912116,35.351171 q 0,-0.08444 0,-0.168882 0,-0.07238 0.02413,-0.132693 0.02413,-0.04825 0.07238,-0.08444 0.07238,-0.02413 0.168882,-0.02413 0.180945,0.205071 0.458394,0.518709 0.289511,0.325701 0.651401,0.627275 0.36189,0.301575 0.759968,0.530772 0.398079,0.229197 0.808221,0.229197 0.337763,-0.01206 0.579023,-0.180945 0.24126,-0.156819 0.410142,-0.422205 0.168881,-0.265386 0.277448,-0.603149 0.108567,-0.337764 0.168882,-0.687591 0.07238,-0.349826 0.0965,-0.675527 0.03619,-0.325701 0.07238,-0.56696 0.02413,-0.12063 0.04825,-0.410142 0.03619,-0.277449 0.06031,-0.627275 0.03619,-0.337764 0.04825,-0.711717 0.02413,-0.373952 0,-0.675527 -0.02413,-0.313638 -0.0965,-0.506646 -0.07238,-0.20507 -0.217134,-0.20507 -0.205071,0 -0.434267,0.12063 -0.229197,0.120629 -0.48252,0.277448 -0.24126,0.144756 -0.494582,0.265386 -0.253323,0.12063 -0.494583,0.12063 -0.458394,0 -0.844409,-0.180945 -0.373953,-0.193008 -0.68759,-0.494582 -0.313638,-0.301575 -0.554898,-0.699654 -0.24126,-0.410141 -0.410142,-0.844409 -0.156818,-0.434267 -0.241259,-0.868535 -0.07238,-0.434268 -0.07238,-0.820283 0,-0.08444 -0.02413,-0.277449 -0.01206,-0.193008 0.01206,-0.398079 0.02413,-0.20507 0.108567,-0.361889 0.08444,-0.156819 0.265385,-0.156819 0.04825,0 0.07238,0.193008 0.03619,0.193008 0.07238,0.506645 0.04825,0.301575 0.108567,0.699654 0.07238,0.398078 0.180945,0.80822 0.108567,0.410141 0.265386,0.80822 0.156819,0.398079 0.386015,0.711716 0.229197,0.301575 0.542835,0.494583 0.325701,0.193008 0.735842,0.193008 0.265386,0 0.554898,-0.108567 0.289511,-0.12063 0.542834,-0.301575 0.265386,-0.180945 0.48252,-0.410142 0.217133,-0.241259 0.337763,-0.470456 0,-0.04825 -0.01206,-0.229197 -0.01206,-0.180945 -0.02413,-0.410142 -0.01206,-0.241259 -0.02413,-0.518708 -0.01206,-0.277449 -0.02413,-0.518709 -0.01206,-0.253322 -0.02413,-0.434267 0,-0.180945 0,-0.229197 0.02413,-0.735842 0.108567,-0.892661 0.08444,-0.168882 0.205071,0.0965 0.12063,0.265386 0.253323,0.892661 0.132693,0.627275 0.24126,1.471685 0.120629,0.832346 0.180944,1.821511 0.07238,0.989165 0.06032,1.97833 -0.01206,1.001228 -0.132693,1.930078 -0.108566,0.92885 -0.361889,1.640566 -0.253323,0.72378 -0.663465,1.17011 -0.410141,0.446331 -1.013291,0.470457 -0.241259,0 -0.579023,-0.0965 -0.325701,-0.08444 -0.663464,-0.24126 -0.33775,-0.156816 -0.675514,-0.373949 -0.3257,-0.217134 -0.591086,-0.470457 -0.253323,-0.253323 -0.422205,-0.530772 -0.156819,-0.277448 -0.156819,-0.554897 z"
         style="font-family:'Indie Flower';-inkscape-font-specification:'Indie Flower'"
         id="path303" />
      <path
         d="m 43.103101,31.165314 q 0,-0.03619 0,-0.0965 0.01206,-0.06031 0.01206,-0.12063 0,-0.06031 0,-0.108567 l 0.01206,-0.07238 q 0,-0.03619 0.01206,-0.20507 0.02413,-0.168882 0.04825,-0.36189 0.02413,-0.193008 0.03619,-0.36189 0.01206,-0.180944 0.01206,-0.229196 -0.02413,-0.253323 -0.108567,-0.663465 -0.08444,-0.410141 -0.265386,-0.80822 -0.168881,-0.398079 -0.434267,-0.68759 -0.265386,-0.289512 -0.627276,-0.289512 -0.3257,0 -0.68759,0.168882 -0.349827,0.156819 -0.663464,0.422204 -0.301575,0.253323 -0.494583,0.591087 -0.205071,0.325701 -0.205071,0.68759 0,0.180945 0.06032,0.36189 0.06032,0.168882 0.12063,0.337764 0.07238,0.168881 0.132693,0.349826 0.06031,0.180945 0.06031,0.373953 0,0.144756 -0.06031,0.289512 -0.04825,0.144755 -0.253323,0.144755 -0.217133,0 -0.361889,-0.253322 -0.132693,-0.253323 -0.253323,-0.639339 -0.108567,-0.398078 -0.24126,-0.844409 -0.12063,-0.44633 -0.313638,-0.832346 -0.180944,-0.398079 -0.458393,-0.651401 -0.265386,-0.253323 -0.68759,-0.253323 -0.325701,0 -0.579024,0.144756 -0.253323,0.132692 -0.422204,0.361889 -0.156819,0.229197 -0.253323,0.518709 -0.08444,0.289511 -0.08444,0.591086 0,0.48252 0.06031,0.952976 0.07238,0.458394 0.07238,0.92885 0,0.168882 -0.03619,0.313638 -0.03619,0.132693 -0.24126,0.132693 -0.132693,0 -0.229197,-0.06032 -0.08444,-0.07238 -0.144756,-0.168882 -0.06032,-0.108567 -0.0965,-0.229197 -0.03619,-0.132693 -0.06032,-0.229196 0.02413,-0.494583 0,-0.916788 -0.01206,-0.422204 -0.04825,-0.796157 -0.02413,-0.386015 -0.06032,-0.772031 -0.02413,-0.386016 -0.02413,-0.820283 0,-0.02413 0,-0.08444 0,-0.06031 0,-0.12063 0.01206,-0.07238 0.01206,-0.12063 0,-0.06031 0,-0.08444 0.01206,-0.02413 0.06032,-0.06032 0.04825,-0.03619 0.06031,-0.06031 h 0.06032 q 0.20507,0 0.301574,0.144756 0.0965,0.12063 0.0965,0.313638 0.193008,-0.205071 0.337764,-0.313638 0.156819,-0.12063 0.289512,-0.180945 0.144755,-0.06031 0.289511,-0.07238 0.156819,-0.01206 0.373953,-0.01206 0.349827,0 0.627275,0.07238 0.289512,0.07238 0.518709,0.217134 0.229197,0.132693 0.422204,0.36189 0.193008,0.217134 0.386016,0.506645 0.01206,0 0.02413,0.01206 0.02413,0 0.03619,0 0.01206,0 0.12063,-0.108567 0.108567,-0.120629 0.289512,-0.277448 0.180944,-0.168882 0.422204,-0.36189 0.24126,-0.205071 0.506646,-0.373953 0.265385,-0.168881 0.542834,-0.277448 0.277449,-0.12063 0.542835,-0.12063 0.410141,0 0.723779,0.168882 0.325701,0.168881 0.579023,0.458393 0.253323,0.277449 0.434268,0.639339 0.180945,0.349826 0.301575,0.735842 0.120629,0.373952 0.168881,0.747905 0.06032,0.373953 0.06032,0.68759 0,0.12063 -0.01206,0.422205 0,0.289512 -0.06031,0.603149 -0.04825,0.301575 -0.168881,0.542835 -0.12063,0.229197 -0.337764,0.229197 -0.108567,0 -0.156819,-0.03619 -0.04825,-0.04825 -0.07238,-0.108567 -0.02413,-0.06031 -0.02413,-0.132693 0,-0.07238 0,-0.156819 z"
         style="font-family:'Indie Flower';-inkscape-font-specification:'Indie Flower'"
         id="path305" />
      <path
         d="m 45.033182,27.413725 q 0,-0.04825 0,-0.180945 0,-0.132693 0,-0.277449 0.01206,-0.144756 0.01206,-0.277449 0,-0.132692 0,-0.180944 -0.04825,-0.373953 0.217134,-0.373953 0.12063,0 0.20507,0.06031 0.08444,0.06031 0.156819,0.180945 -0.03619,0.627275 0.04825,1.218362 0.0965,0.579023 0.205071,1.158046 0.12063,0.566961 0.217134,1.145984 0.108567,0.579024 0.108567,1.206299 0,0.168882 -0.108567,0.337764 -0.0965,0.168882 -0.301575,0.168882 -0.156819,0 -0.277449,-0.265386 -0.108566,-0.277449 -0.193007,-0.68759 -0.08444,-0.422205 -0.144756,-0.92885 -0.06031,-0.506646 -0.0965,-0.96504 -0.02413,-0.470456 -0.03619,-0.832346 -0.01206,-0.373952 -0.01206,-0.506645 z m -0.615213,-3.02781 q 0,-0.144756 0.08444,-0.180945 0.08444,-0.04825 0.217134,-0.04825 0.08444,-0.01206 0.217134,0.108567 0.144756,0.108567 0.229197,0.253323 0.0965,0.144755 0.108567,0.265385 0.01206,0.144756 -0.180945,0.168882 h -0.06032 q -0.180945,0 -0.301575,-0.02413 -0.12063,-0.02413 -0.193008,-0.07238 -0.06031,-0.06031 -0.0965,-0.168882 -0.02413,-0.108566 -0.02413,-0.301574 z"
         style="font-family:'Indie Flower';-inkscape-font-specification:'Indie Flower'"
         id="path307" />
      <path
         d="m 46.637559,30.127897 q 0.0965,-0.07238 0.168882,-0.08444 0.08444,-0.02413 0.180945,-0.02413 0.108567,0 0.217134,0.06031 0.108567,0.04825 0.193008,0.132693 0.0965,0.07238 0.193008,0.144756 0.0965,0.07238 0.20507,0.12063 0.313638,0.132693 0.494583,0.217134 0.193008,0.08444 0.349827,0.132692 0.156818,0.04825 0.361889,0.06032 0.205071,0.01206 0.530772,0.01206 0.253322,0 0.615212,0.01206 0.36189,0 0.68759,-0.06031 0.325701,-0.07238 0.554898,-0.241259 0.229197,-0.180945 0.229197,-0.542835 0.01206,-0.349826 -0.193008,-0.542834 -0.193008,-0.205071 -0.530772,-0.313638 -0.337763,-0.108567 -0.759968,-0.144756 -0.422205,-0.04825 -0.868535,-0.0965 -0.446331,-0.04825 -0.880598,-0.132693 -0.422205,-0.0965 -0.759968,-0.289511 -0.337764,-0.193008 -0.542835,-0.530772 -0.205071,-0.337763 -0.217134,-0.868535 0.07238,-0.386016 0.373953,-0.639338 0.313638,-0.265386 0.735842,-0.398079 0.434268,-0.144756 0.916787,-0.144756 0.48252,-0.01206 0.880598,0.12063 0.410142,0.12063 0.675528,0.398079 0.277448,0.277448 0.289511,0.68759 0.02413,0.24126 -0.03619,0.398079 -0.06032,0.156818 -0.168882,0.241259 -0.0965,0.07238 -0.205071,0.07238 -0.108567,-0.01206 -0.168882,-0.08444 -0.06031,-0.08444 -0.06031,-0.229196 0.01206,-0.156819 0.144756,-0.386016 -0.04825,-0.229197 -0.277449,-0.36189 -0.229197,-0.132693 -0.530771,-0.180944 -0.301575,-0.06032 -0.651402,-0.02413 -0.337763,0.02413 -0.627275,0.120629 -0.277449,0.0965 -0.458394,0.253323 -0.168881,0.156819 -0.144755,0.36189 0,0.361889 0.20507,0.56696 0.217134,0.193008 0.554898,0.301575 0.337764,0.108567 0.772031,0.156819 0.446331,0.04825 0.904724,0.0965 0.470457,0.03619 0.904724,0.12063 0.434268,0.07238 0.784095,0.253322 0.349826,0.180945 0.554897,0.494583 0.205071,0.301575 0.205071,0.796157 0,0.373953 -0.193008,0.651401 -0.193008,0.265386 -0.494583,0.446331 -0.289511,0.180945 -0.639338,0.265386 -0.349827,0.08444 -0.663464,0.08444 -0.313638,0 -0.675528,0 -0.349826,-0.01206 -0.723779,-0.04825 -0.36189,-0.03619 -0.735842,-0.108567 -0.373953,-0.08444 -0.699653,-0.24126 -0.313638,-0.168882 -0.566961,-0.422205 -0.253323,-0.253322 -0.410142,-0.639338 z"
         style="font-family:'Indie Flower';-inkscape-font-specification:'Indie Flower'"
         id="path309" />
      <path
         d="m 54.430248,27.437851 q -0.0965,0 -0.337764,0 -0.241259,0 -0.506645,-0.03619 -0.253323,-0.04825 -0.470457,-0.144756 -0.20507,-0.0965 -0.20507,-0.277449 0,-0.04825 0.01206,-0.132693 0.02413,-0.0965 0.120629,-0.0965 l 1.242488,-0.108566 q 0.04825,-0.446331 0.07238,-0.72378 0.02413,-0.289512 0.01206,-0.530771 -0.01206,-0.253323 -0.03619,-0.518709 -0.01206,-0.277448 -0.02413,-0.711716 0,-0.08444 0.03619,-0.132693 0.03619,-0.04825 0.08444,-0.07238 0.06032,-0.02413 0.12063,-0.03619 0.07238,-0.01206 0.108567,-0.01206 0.07238,0 0.144756,0.04825 0.08444,0.04825 0.144756,0.12063 0.06032,0.07238 0.0965,0.156819 0.03619,0.07238 0.03619,0.144756 l 0.0965,2.255779 1.037417,0.04825 q 0.205071,-0.02413 0.373953,0.08444 0.180945,0.0965 0.193008,0.373953 -0.144756,0.156819 -0.349827,0.193008 -0.205071,0.02413 -0.434267,0.02413 -0.217134,-0.01206 -0.434268,0 -0.217134,0 -0.386016,0.108567 0,0.07238 0.01206,0.398078 0.01206,0.325701 0.02413,0.772032 0.01206,0.44633 0.02413,0.952976 0.02413,0.506645 0.03619,0.940913 0.01206,0.422204 0.01206,0.723779 0.01206,0.301575 0.01206,0.337764 -0.277449,0.168882 -0.44633,-0.02413 -0.168882,-0.205071 -0.277449,-0.591087 -0.0965,-0.398078 -0.144756,-0.916787 -0.03619,-0.530771 -0.04825,-1.037417 0,-0.518708 0.01206,-0.952976 0.01206,-0.434267 0.03619,-0.627275 z"
         style="font-family:'Indie Flower';-inkscape-font-specification:'Indie Flower'"
         id="path311" />
      <path
         d="m 57.072044,29.548874 q 0.01206,-0.205071 0.12063,-0.470457 0.108567,-0.265386 0.337763,-0.518708 0.229197,-0.253323 0.579024,-0.446331 0.349827,-0.205071 0.820283,-0.289512 0.48252,-0.08444 1.085669,-0.01206 0.615212,0.07238 1.363118,0.36189 0,-0.01206 0,-0.12063 l -0.01206,-0.108567 q 0,-0.313637 -0.180945,-0.639338 -0.180945,-0.325701 -0.470457,-0.579024 -0.277448,-0.265385 -0.603149,-0.422204 -0.325701,-0.168882 -0.627275,-0.168882 -0.12063,0 -0.217134,0.03619 -0.08444,0.03619 -0.168882,0.0965 -0.08444,0.04825 -0.168882,0.0965 -0.07238,0.03619 -0.180945,0.03619 -0.02413,0 -0.02413,-0.01206 -0.01206,-0.01206 -0.02413,-0.02413 -0.02413,-0.02413 -0.07238,-0.06031 -0.03619,-0.03619 -0.03619,-0.04825 0,-0.217134 0.07238,-0.373953 0.08444,-0.156819 0.217134,-0.253323 0.144756,-0.0965 0.313638,-0.144755 0.180945,-0.06032 0.373952,-0.06032 0.48252,0.04825 0.916788,0.301574 0.44633,0.24126 0.80822,0.615213 0.373952,0.373952 0.651401,0.868535 0.277449,0.482519 0.458394,1.013291 0.193008,0.518708 0.253322,1.04948 0.07238,0.554897 0.01206,1.037417 -0.01206,0 -0.07238,0 -0.06032,-0.01206 -0.132693,-0.01206 -0.07238,-0.01206 -0.12063,-0.02413 l -0.06032,-0.01206 q -0.253323,-0.56696 -0.566961,-0.916787 -0.313637,-0.349827 -0.627275,-0.542835 -0.301575,-0.20507 -0.56696,-0.277448 -0.265386,-0.08444 -0.434268,-0.12063 -0.180945,0 -0.434268,0.02413 -0.241259,0.02413 -0.506645,0.08444 -0.265386,0.06031 -0.542835,0.168882 -0.265385,0.0965 -0.482519,0.241259 -0.205071,0.144756 -0.337764,0.349827 -0.12063,0.193008 -0.12063,0.458394 0,0.289511 0.229197,0.494582 0.229197,0.193008 0.554898,0.325701 0.3257,0.12063 0.663464,0.168882 0.337764,0.04825 0.542834,0.04825 0.337764,0 0.663465,-0.03619 0.3257,-0.03619 0.639338,-0.08444 0.325701,-0.04825 0.639338,-0.08444 0.313638,-0.03619 0.627276,-0.03619 0.02413,0 0.08444,0 0.06032,0 0.12063,0.01206 0.07238,0 0.12063,0 0.06031,0 0.08444,0 0.0965,0.03619 0.108567,0.108567 0.01206,0.07238 0.01206,0.144755 0,0.07238 -0.156818,0.156819 -0.144756,0.08444 -0.386016,0.168882 -0.24126,0.08444 -0.542835,0.180945 -0.289511,0.08444 -0.56696,0.144756 -0.265386,0.06031 -0.506646,0.108567 -0.229196,0.03619 -0.3257,0.03619 -0.506646,0 -1.073606,-0.08444 -0.566961,-0.08444 -1.037417,-0.301575 -0.470457,-0.229197 -0.784094,-0.627275 -0.301575,-0.398079 -0.301575,-1.025354 z"
         style="font-family:'Indie Flower';-inkscape-font-specification:'Indie Flower'"
         id="path313" />
      <path
         d="m 63.694623,31.237692 q 0,-0.02413 0.01206,-0.12063 0.01206,-0.108567 0.03619,-0.229197 0.02413,-0.12063 0.03619,-0.217133 0.01206,-0.108567 0.01206,-0.132693 0,-0.02413 0,-0.12063 0,-0.108567 0,-0.24126 0.01206,-0.132693 0.01206,-0.277449 0,-0.144756 0,-0.217133 0,-0.07238 0,-0.193008 0,-0.12063 -0.01206,-0.24126 0,-0.132693 0,-0.217134 0,-0.0965 0,-0.108567 -0.03619,-0.554897 -0.144756,-1.17011 -0.0965,-0.627275 -0.217134,-1.242487 -0.108566,-0.615213 -0.217133,-1.206299 -0.0965,-0.591087 -0.144756,-1.085669 0.108567,-0.289512 0.229197,-0.193008 0.132692,0.08444 0.265385,0.422205 0.132693,0.337763 0.265386,0.844409 0.132693,0.494582 0.229197,1.013291 0.108567,0.518708 0.193008,0.977102 0.07238,0.458393 0.12063,0.711716 0.02413,0.02413 0.08444,0.02413 0.07238,0 0.0965,0 0.24126,0 0.422205,-0.144756 0.180945,-0.144756 0.337764,-0.361889 0.168881,-0.229197 0.3257,-0.48252 0.156819,-0.265386 0.325701,-0.482519 0.168882,-0.217134 0.373953,-0.36189 0.20507,-0.156819 0.470456,-0.156819 0.168882,0 0.205071,0.108567 0.03619,0.0965 0.02413,0.229197 -0.168882,0.132693 -0.386016,0.349826 -0.217133,0.217134 -0.470456,0.470457 -0.24126,0.253323 -0.494583,0.530771 -0.241259,0.277449 -0.434267,0.542835 -0.180945,0.253323 -0.313638,0.494582 -0.12063,0.24126 -0.12063,0.422205 0,0.265386 0.168882,0.48252 0.180945,0.217133 0.446331,0.398078 0.277448,0.180945 0.615212,0.313638 0.337764,0.12063 0.675527,0.217134 0.337764,0.08444 0.639339,0.132693 0.289511,0.04825 0.482519,0.04825 0.108567,0.02413 0.12063,0.12063 0.01206,0.0965 0.01206,0.180945 0,0.180945 -0.12063,0.265386 -0.108567,0.08444 -0.277449,0.12063 -0.156818,0.03619 -0.337763,0.03619 -0.168882,0 -0.289512,0 -0.265386,0 -0.615212,-0.168882 -0.337764,-0.168882 -0.663465,-0.36189 -0.313637,-0.20507 -0.554897,-0.373952 -0.24126,-0.168882 -0.337764,-0.168882 -0.193008,0 -0.265386,0.193008 -0.06032,0.180944 -0.08444,0.398078 -0.02413,0.217134 -0.08444,0.410142 -0.04825,0.180945 -0.229197,0.180945 -0.156819,0 -0.289512,-0.08444 -0.132693,-0.08444 -0.132693,-0.277449 z"
         style="font-family:'Indie Flower';-inkscape-font-specification:'Indie Flower'"
         id="path315" />
      <path
         d="m 68.302684,28.354638 q 0,-0.627276 0.180945,-1.194236 0.193008,-0.579023 0.542835,-1.013291 0.361889,-0.434268 0.868535,-0.68759 0.518708,-0.265386 1.194236,-0.265386 0.398078,0.04825 0.68759,0.217134 0.301575,0.168882 0.482519,0.422204 0.193008,0.24126 0.277449,0.566961 0.07238,0.313637 0.07238,0.675527 0,0.434268 -0.253323,0.784094 -0.253322,0.349827 -0.639338,0.591087 -0.386016,0.229197 -0.832346,0.361889 -0.446331,0.12063 -0.832346,0.12063 -0.144756,0 -0.301575,0 -0.144756,0 -0.265386,-0.04825 -0.12063,-0.04825 -0.193008,-0.144756 -0.07238,-0.0965 -0.07238,-0.289511 0,-0.06031 0.01206,-0.0965 0.02413,-0.04825 0.108567,-0.06032 0.08444,-0.02413 0.253323,-0.01206 0.168882,0.02413 0.458394,0.07238 0.168881,0 0.482519,-0.108567 0.325701,-0.12063 0.651401,-0.301575 0.337764,-0.180945 0.579024,-0.410141 0.24126,-0.24126 0.24126,-0.470457 0,-0.24126 -0.08444,-0.470456 -0.07238,-0.24126 -0.229197,-0.422205 -0.156819,-0.180945 -0.373953,-0.289512 -0.20507,-0.108567 -0.470456,-0.08444 -0.422205,0.03619 -0.772031,0.229197 -0.337764,0.193008 -0.579024,0.506646 -0.24126,0.301574 -0.373953,0.675527 -0.132692,0.373953 -0.132692,0.784094 0,0.313638 0.01206,0.627276 0.01206,0.313637 0.08444,0.615212 0.08444,0.301575 0.253322,0.579023 0.180945,0.277449 0.506646,0.494583 0.337763,0.205071 0.844409,0.349827 0.506645,0.132692 1.254551,0.168881 l 2.159275,-0.144755 q -0.193008,0.265385 -0.494583,0.434267 -0.289512,0.168882 -0.627275,0.277449 -0.325701,0.0965 -0.651402,0.144756 -0.3257,0.04825 -0.615212,0.04825 -0.699653,0 -1.314866,-0.229197 -0.615212,-0.229197 -1.085669,-0.639338 -0.470456,-0.422205 -0.747905,-1.013291 -0.265386,-0.60315 -0.265386,-1.351055 z"
         style="font-family:'Indie Flower';-inkscape-font-specification:'Indie Flower'"
         id="path317" />
      <path
         d="m 80.848196,37.12443 q -0.579023,-0.156819 -1.109795,-0.518708 -0.530771,-0.36189 -0.952976,-0.856472 -0.422204,-0.494583 -0.699653,-1.097732 -0.277449,-0.591087 -0.349827,-1.218362 0,-0.08444 0,-0.156819 -0.01206,-0.07238 0,-0.144756 0.01206,-0.07238 0.06032,-0.132693 0.04825,-0.06032 0.156819,-0.08444 0.156819,0.08444 0.313638,0.337764 0.144756,0.265386 0.313638,0.627275 0.168881,0.36189 0.361889,0.759969 0.193008,0.398078 0.446331,0.723779 0.253323,0.325701 0.579023,0.542834 0.325701,0.217134 0.735843,0.217134 0.132692,0 0.217133,-0.07238 0.0965,-0.07238 0.144756,-0.180944 0.06032,-0.0965 0.07238,-0.217134 0.02413,-0.12063 0.02413,-0.217134 0.04825,-1.061543 -0.08444,-2.123086 -0.132693,-1.04948 -0.325701,-2.09896 -0.193007,-1.04948 -0.398078,-2.086897 -0.205071,-1.037417 -0.289512,-2.074834 0.02413,-0.08444 0.02413,-0.144756 0,-0.06031 0.02413,-0.0965 0.03619,-0.04825 0.0965,-0.07238 0.06031,-0.02413 0.205071,-0.02413 0.12063,0.08444 0.253323,0.434268 0.144755,0.349827 0.289511,0.892661 0.144756,0.542835 0.289512,1.242488 0.144756,0.68759 0.265386,1.447559 0.12063,0.759968 0.205071,1.544062 0.08444,0.784094 0.108566,1.519937 0.03619,0.735842 0,1.37518 -0.02413,0.639339 -0.144755,1.085669 -0.108567,0.458394 -0.313638,0.68759 -0.205071,0.24126 -0.518709,0.180945 z M 79.436827,24.615111 q 0,-0.04825 0.08444,-0.132692 0.0965,-0.08444 0.156819,-0.0965 0.168881,-0.03619 0.277448,0.04825 0.12063,0.07238 0.193008,0.20507 0.07238,0.12063 0.108567,0.277449 0.03619,0.156819 0.03619,0.277449 -0.132693,0.12063 -0.289512,0.132693 -0.144756,0.01206 -0.277449,-0.07238 -0.120629,-0.08444 -0.20507,-0.253323 -0.08444,-0.168882 -0.08444,-0.386016 z"
         style="font-family:'Indie Flower';-inkscape-font-specification:'Indie Flower'"
         id="path319" />
      <path
         d="m 86.180033,29.838385 q -0.277449,0.156819 -0.48252,0.386016 -0.193008,0.217134 -0.398079,0.422205 -0.20507,0.193007 -0.458393,0.337763 -0.24126,0.144756 -0.627275,0.144756 -0.434268,0 -0.784095,-0.180945 -0.349826,-0.193007 -0.627275,-0.506645 -0.265386,-0.325701 -0.470457,-0.723779 -0.193007,-0.410142 -0.3257,-0.832347 -0.12063,-0.434267 -0.193008,-0.844409 -0.06032,-0.422204 -0.06032,-0.759968 -0.0965,-0.651401 0.03619,-1.013291 0.132693,-0.373953 0.313638,-0.470457 0.193007,-0.108567 0.3257,0.04825 0.132693,0.144756 0.03619,0.518709 -0.02413,0.04825 -0.03619,0.156819 -0.01206,0.0965 -0.02413,0.20507 -0.01206,0.108567 -0.02413,0.205071 -0.01206,0.0965 -0.01206,0.132693 0,0.253323 0.04825,0.60315 0.04825,0.337763 0.144756,0.711716 0.108567,0.373952 0.265386,0.747905 0.156819,0.36189 0.373953,0.651401 0.217133,0.289512 0.494582,0.470457 0.289512,0.180945 0.627275,0.180945 0.217134,0 0.494583,-0.205071 0.277449,-0.217134 0.518708,-0.506645 0.253323,-0.301575 0.422205,-0.615213 0.180945,-0.313638 0.180945,-0.530771 0,-0.12063 0,-0.398079 0.01206,-0.277449 0.01206,-0.591086 0,-0.313638 -0.01206,-0.591087 0,-0.277449 0,-0.386015 0.07238,-0.12063 0.156819,-0.180945 0.08444,-0.07238 0.20507,-0.07238 0.144756,0 0.24126,0.193008 0.0965,0.193007 0.156819,0.494582 0.06032,0.301575 0.08444,0.651401 0.02413,0.349827 0.03619,0.675528 0.01206,0.325701 0.02413,0.579023 0.01206,0.24126 0.03619,0.325701 0.06031,0.24126 0.168882,0.542834 0.12063,0.301575 0.229197,0.591087 0.108566,0.277449 0.193007,0.518708 0.08444,0.229197 0.08444,0.349827 0,0.180945 -0.108567,0.217134 -0.0965,0.03619 -0.253322,0.03619 -0.193008,0 -0.289512,-0.0965 -0.08444,-0.0965 -0.132693,-0.24126 -0.03619,-0.156819 -0.06032,-0.337764 -0.02413,-0.180944 -0.08444,-0.373952 -0.04825,-0.193008 -0.156819,-0.36189 -0.0965,-0.168882 -0.289511,-0.277449 z"
         style="font-family:'Indie Flower';-inkscape-font-specification:'Indie Flower'"
         id="path321" />
      <path
         d="m 87.953294,30.127897 q 0.0965,-0.07238 0.168882,-0.08444 0.08444,-0.02413 0.180945,-0.02413 0.108567,0 0.217134,0.06031 0.108567,0.04825 0.193008,0.132693 0.0965,0.07238 0.193007,0.144756 0.0965,0.07238 0.205071,0.12063 0.313638,0.132693 0.494583,0.217134 0.193008,0.08444 0.349826,0.132692 0.156819,0.04825 0.36189,0.06032 0.205071,0.01206 0.530772,0.01206 0.253322,0 0.615212,0.01206 0.36189,0 0.68759,-0.06031 0.325701,-0.07238 0.554898,-0.241259 0.229196,-0.180945 0.229196,-0.542835 0.01206,-0.349826 -0.193007,-0.542834 -0.193008,-0.205071 -0.530772,-0.313638 -0.337763,-0.108567 -0.759968,-0.144756 -0.422205,-0.04825 -0.868535,-0.0965 -0.446331,-0.04825 -0.880598,-0.132693 -0.422205,-0.0965 -0.759969,-0.289511 -0.337763,-0.193008 -0.542834,-0.530772 -0.205071,-0.337763 -0.217134,-0.868535 0.07238,-0.386016 0.373953,-0.639338 0.313637,-0.265386 0.735842,-0.398079 0.434268,-0.144756 0.916787,-0.144756 0.48252,-0.01206 0.880598,0.12063 0.410142,0.12063 0.675528,0.398079 0.277448,0.277448 0.289511,0.68759 0.02413,0.24126 -0.03619,0.398079 -0.06032,0.156818 -0.168881,0.241259 -0.0965,0.07238 -0.205071,0.07238 -0.108567,-0.01206 -0.168882,-0.08444 -0.06031,-0.08444 -0.06031,-0.229196 0.01206,-0.156819 0.144756,-0.386016 -0.04825,-0.229197 -0.277449,-0.36189 -0.229197,-0.132693 -0.530771,-0.180944 -0.301575,-0.06032 -0.651402,-0.02413 -0.337763,0.02413 -0.627275,0.120629 -0.277449,0.0965 -0.458394,0.253323 -0.168882,0.156819 -0.144756,0.36189 0,0.361889 0.205071,0.56696 0.217134,0.193008 0.554898,0.301575 0.337763,0.108567 0.772031,0.156819 0.446331,0.04825 0.904724,0.0965 0.470457,0.03619 0.904724,0.12063 0.434268,0.07238 0.784094,0.253322 0.349827,0.180945 0.554898,0.494583 0.205071,0.301575 0.205071,0.796157 0,0.373953 -0.193008,0.651401 -0.193008,0.265386 -0.494583,0.446331 -0.289511,0.180945 -0.639338,0.265386 -0.349827,0.08444 -0.663464,0.08444 -0.313638,0 -0.675528,0 -0.349826,-0.01206 -0.723779,-0.04825 -0.36189,-0.03619 -0.735842,-0.108567 -0.373953,-0.08444 -0.699654,-0.24126 -0.313637,-0.168882 -0.56696,-0.422205 -0.253323,-0.253322 -0.410142,-0.639338 z"
         style="font-family:'Indie Flower';-inkscape-font-specification:'Indie Flower'"
         id="path323" />
      <path
         d="m 95.745983,27.437851 q -0.0965,0 -0.337764,0 -0.241259,0 -0.506645,-0.03619 -0.253323,-0.04825 -0.470457,-0.144756 -0.205071,-0.0965 -0.205071,-0.277449 0,-0.04825 0.01206,-0.132693 0.02413,-0.0965 0.12063,-0.0965 l 1.242488,-0.108566 q 0.04825,-0.446331 0.07238,-0.72378 0.02413,-0.289512 0.01206,-0.530771 -0.01206,-0.253323 -0.03619,-0.518709 -0.01206,-0.277448 -0.02413,-0.711716 0,-0.08444 0.03619,-0.132693 0.03619,-0.04825 0.08444,-0.07238 0.06032,-0.02413 0.12063,-0.03619 0.07238,-0.01206 0.108567,-0.01206 0.07238,0 0.144756,0.04825 0.08444,0.04825 0.144755,0.12063 0.06032,0.07238 0.0965,0.156819 0.03619,0.07238 0.03619,0.144756 l 0.0965,2.255779 1.037417,0.04825 q 0.205071,-0.02413 0.373953,0.08444 0.180945,0.0965 0.193008,0.373953 -0.144756,0.156819 -0.349827,0.193008 -0.205071,0.02413 -0.434268,0.02413 -0.217133,-0.01206 -0.434267,0 -0.217134,0 -0.386016,0.108567 0,0.07238 0.01206,0.398078 0.01206,0.325701 0.02413,0.772032 0.01206,0.44633 0.02413,0.952976 0.02413,0.506645 0.03619,0.940913 0.01206,0.422204 0.01206,0.723779 0.01206,0.301575 0.01206,0.337764 -0.277449,0.168882 -0.44633,-0.02413 -0.168882,-0.205071 -0.277449,-0.591087 -0.0965,-0.398078 -0.144756,-0.916787 -0.03619,-0.530771 -0.04825,-1.037417 0,-0.518708 0.01206,-0.952976 0.01206,-0.434267 0.03619,-0.627275 z"
         style="font-family:'Indie Flower';-inkscape-font-specification:'Indie Flower'"
         id="path325" />
      <path
         d="m 2.6438403,46.466205 q 0.012063,-0.20507 0.1206299,-0.470456 0.1085669,-0.265386 0.3377637,-0.518709 0.2291967,-0.253322 0.5790234,-0.44633 0.3498267,-0.205071 0.8202832,-0.289512 0.4825195,-0.08444 1.0856689,-0.01206 0.6152124,0.07238 1.3631177,0.36189 0,-0.01206 0,-0.12063 l -0.012063,-0.108567 q 0,-0.313638 -0.1809448,-0.639338 Q 6.5763745,43.896789 6.2868628,43.643466 6.009414,43.37808 5.6837133,43.221262 5.3580127,43.05238 5.056438,43.05238 q -0.1206299,0 -0.2171338,0.03619 -0.084441,0.03619 -0.1688819,0.0965 -0.084441,0.04825 -0.1688818,0.0965 -0.072378,0.03619 -0.1809448,0.03619 -0.024126,0 -0.024126,-0.01206 -0.012063,-0.01206 -0.024126,-0.02413 -0.024126,-0.02413 -0.072378,-0.06031 -0.036189,-0.03619 -0.036189,-0.04825 0,-0.217134 0.072378,-0.373953 0.084441,-0.156819 0.2171337,-0.253323 0.1447559,-0.0965 0.3136377,-0.144756 0.1809449,-0.06032 0.3739527,-0.06032 0.4825195,0.04825 0.9167871,0.301575 0.4463305,0.24126 0.8082202,0.615213 0.3739526,0.373952 0.6514014,0.868535 0.2774487,0.482519 0.4583935,1.013291 0.1930078,0.518708 0.2533228,1.04948 0.072378,0.554897 0.012063,1.037417 -0.012063,0 -0.072378,0 -0.060315,-0.01206 -0.1326929,-0.01206 -0.072378,-0.01206 -0.1206298,-0.02413 l -0.060315,-0.01206 Q 7.6017285,46.610961 7.2880908,46.261135 6.9744531,45.911308 6.6608154,45.7183 6.3592407,45.513229 6.0938549,45.440851 5.8284692,45.356411 5.6595874,45.320222 q -0.1809449,0 -0.4342676,0.02413 -0.2412598,0.02413 -0.5066455,0.08444 -0.2653858,0.06032 -0.5428345,0.168882 -0.2653857,0.0965 -0.4825195,0.24126 -0.2050708,0.144756 -0.3377637,0.349827 -0.1206299,0.193008 -0.1206299,0.458393 0,0.289512 0.2291968,0.494583 0.2291968,0.193008 0.5548975,0.325701 0.3257006,0.120629 0.6634643,0.168881 0.3377637,0.04825 0.5428345,0.04825 0.3377637,0 0.6634643,-0.03619 0.3257007,-0.03619 0.6393384,-0.08444 0.3257007,-0.04825 0.6393384,-0.08444 0.3136377,-0.03619 0.6272754,-0.03619 0.024126,0 0.084441,0 0.060315,0 0.1206299,0.01206 0.072378,0 0.1206299,0 0.060315,0 0.084441,0 0.096504,0.03619 0.1085669,0.108566 0.012063,0.07238 0.012063,0.144756 0,0.07238 -0.1568189,0.156819 -0.1447558,0.08444 -0.3860156,0.168882 -0.2412598,0.08444 -0.5428345,0.180945 -0.2895117,0.08444 -0.5669604,0.144756 -0.2653858,0.06031 -0.5066455,0.108567 -0.2291968,0.03619 -0.3257007,0.03619 -0.5066455,0 -1.073606,-0.08444 Q 4.1999658,48.335969 3.7295092,48.118835 3.2590527,47.889638 2.945415,47.491559 2.6438403,47.093481 2.6438403,46.466205 Z"
         style="font-family:'Indie Flower';-inkscape-font-specification:'Indie Flower'"
         id="path327" />
      <path
         d="m 8.8924684,45.766552 q 0,-0.44633 0.1085669,-0.940913 0.1206299,-0.494582 0.3618897,-0.916787 0.2533227,-0.422205 0.6272754,-0.68759 0.3860156,-0.277449 0.9409126,-0.277449 0.289512,0 0.579024,0.08444 0.289512,0.08444 0.591086,0.24126 0.313638,0.156818 0.639339,0.373952 0.337763,0.205071 0.711716,0.458394 0.04825,-0.48252 -0.03619,-0.989165 -0.08444,-0.518709 -0.217134,-1.013291 -0.132693,-0.494583 -0.277448,-0.92885 -0.132693,-0.446331 -0.193008,-0.796158 -0.06031,-0.349826 -0.01206,-0.579023 0.04825,-0.229197 0.289511,-0.289512 0.325701,0.24126 0.554898,0.687591 0.24126,0.434267 0.410141,1.013291 0.168882,0.579023 0.277449,1.242487 0.108567,0.651402 0.180945,1.326929 0.07238,0.675527 0.108567,1.314866 0.04825,0.639338 0.0965,1.182173 0.04825,0.530771 0.08444,0.916787 0.04825,0.373952 0.132693,0.530771 0,0.193008 -0.144756,0.24126 -0.132693,0.04825 -0.277449,0.04825 -0.12063,0 -0.205071,-0.08444 -0.08444,-0.0965 -0.132693,-0.217134 -0.04825,-0.12063 -0.0965,-0.265385 -0.03619,-0.156819 -0.08444,-0.277449 -0.04825,-0.132693 -0.108567,-0.217134 -0.06031,-0.08444 -0.156819,-0.08444 -0.02413,0 -0.07238,0.01206 -0.03619,0 -0.03619,0.01206 -0.229197,0.313638 -0.542835,0.615212 -0.301574,0.289512 -0.675527,0.518709 -0.36189,0.217134 -0.772031,0.349827 -0.398079,0.132692 -0.80822,0.132692 -0.458394,0 -0.8082206,-0.301574 Q 9.5921218,47.901701 9.350862,47.479496 9.1216652,47.057292 9.0010353,46.586835 8.8924684,46.116379 8.8924684,45.766552 Z m 0.7479053,0.217134 q 0.1206299,0.434268 0.2171338,0.759968 0.096504,0.325701 0.2291965,0.530772 0.144756,0.20507 0.337764,0.313637 0.193008,0.0965 0.506645,0.0965 0.386016,0 0.820284,-0.217133 0.434267,-0.229197 0.80822,-0.579024 0.373953,-0.349827 0.615212,-0.759968 0.24126,-0.422205 0.24126,-0.80822 0,-0.03619 0,-0.144756 0,-0.108567 0,-0.144756 Q 12.776751,44.403434 12.233916,44.138049 11.703145,43.8606 11.28094,43.8606 q -0.422204,-0.01206 -0.735842,0.180945 -0.313638,0.193008 -0.518709,0.506645 -0.2050705,0.313638 -0.3015744,0.699654 -0.096504,0.386015 -0.084441,0.735842 z"
         style="font-family:'Indie Flower';-inkscape-font-specification:'Indie Flower'"
         id="path329" />
      <path
         d="m 15.370293,45.766552 q 0,-0.44633 0.108567,-0.940913 0.12063,-0.494582 0.36189,-0.916787 0.253322,-0.422205 0.627275,-0.68759 0.386016,-0.277449 0.940913,-0.277449 0.289512,0 0.579024,0.08444 0.289511,0.08444 0.591086,0.24126 0.313638,0.156818 0.639338,0.373952 0.337764,0.205071 0.711717,0.458394 0.04825,-0.48252 -0.03619,-0.989165 -0.08444,-0.518709 -0.217134,-1.013291 -0.132693,-0.494583 -0.277449,-0.92885 -0.132693,-0.446331 -0.193008,-0.796158 -0.06032,-0.349826 -0.01206,-0.579023 0.04825,-0.229197 0.289512,-0.289512 0.325701,0.24126 0.554898,0.687591 0.241259,0.434267 0.410141,1.013291 0.168882,0.579023 0.277449,1.242487 0.108567,0.651402 0.180945,1.326929 0.07238,0.675527 0.108567,1.314866 0.04825,0.639338 0.0965,1.182173 0.04825,0.530771 0.08444,0.916787 0.04825,0.373952 0.132693,0.530771 0,0.193008 -0.144756,0.24126 -0.132692,0.04825 -0.277448,0.04825 -0.12063,0 -0.205071,-0.08444 -0.08444,-0.0965 -0.132693,-0.217134 -0.04825,-0.12063 -0.0965,-0.265385 -0.03619,-0.156819 -0.08444,-0.277449 -0.04825,-0.132693 -0.108567,-0.217134 -0.06031,-0.08444 -0.156819,-0.08444 -0.02413,0 -0.07238,0.01206 -0.03619,0 -0.03619,0.01206 -0.229197,0.313638 -0.542835,0.615212 -0.301575,0.289512 -0.675527,0.518709 -0.36189,0.217134 -0.772031,0.349827 -0.398079,0.132692 -0.808221,0.132692 -0.458393,0 -0.80822,-0.301574 -0.337764,-0.301575 -0.579023,-0.72378 -0.229197,-0.422204 -0.349827,-0.892661 -0.108567,-0.470456 -0.108567,-0.820283 z m 0.747905,0.217134 q 0.12063,0.434268 0.217134,0.759968 0.0965,0.325701 0.229197,0.530772 0.144756,0.20507 0.337764,0.313637 0.193007,0.0965 0.506645,0.0965 0.386016,0 0.820283,-0.217133 0.434268,-0.229197 0.808221,-0.579024 0.373952,-0.349827 0.615212,-0.759968 0.24126,-0.422205 0.24126,-0.80822 0,-0.03619 0,-0.144756 0,-0.108567 0,-0.144756 -0.639339,-0.627276 -1.182173,-0.892661 -0.530772,-0.277449 -0.952976,-0.277449 -0.422205,-0.01206 -0.735842,0.180945 -0.313638,0.193008 -0.518709,0.506645 -0.205071,0.313638 -0.301575,0.699654 -0.0965,0.386015 -0.08444,0.735842 z"
         style="font-family:'Indie Flower';-inkscape-font-specification:'Indie Flower'"
         id="path331" />
      <path
         d="m 21.823991,47.045229 q 0.0965,-0.07238 0.168882,-0.08444 0.08444,-0.02413 0.180945,-0.02413 0.108567,0 0.217134,0.06032 0.108567,0.04825 0.193008,0.132693 0.0965,0.07238 0.193007,0.144756 0.0965,0.07238 0.205071,0.12063 0.313638,0.132692 0.494583,0.217133 0.193008,0.08444 0.349826,0.132693 0.156819,0.04825 0.36189,0.06032 0.205071,0.01206 0.530772,0.01206 0.253322,0 0.615212,0.01206 0.36189,0 0.68759,-0.06032 0.325701,-0.07238 0.554898,-0.24126 0.229197,-0.180944 0.229197,-0.542834 0.01206,-0.349827 -0.193008,-0.542835 -0.193008,-0.20507 -0.530772,-0.313637 -0.337763,-0.108567 -0.759968,-0.144756 -0.422205,-0.04825 -0.868535,-0.0965 -0.446331,-0.04825 -0.880598,-0.132693 -0.422205,-0.0965 -0.759969,-0.289512 -0.337763,-0.193007 -0.542834,-0.530771 -0.205071,-0.337764 -0.217134,-0.868535 0.07238,-0.386016 0.373953,-0.639339 0.313637,-0.265385 0.735842,-0.398078 0.434268,-0.144756 0.916787,-0.144756 0.48252,-0.01206 0.880598,0.12063 0.410142,0.12063 0.675528,0.398078 0.277448,0.277449 0.289511,0.687591 0.02413,0.24126 -0.03619,0.398078 -0.06031,0.156819 -0.168881,0.24126 -0.0965,0.07238 -0.205071,0.07238 -0.108567,-0.01206 -0.168882,-0.08444 -0.06031,-0.08444 -0.06031,-0.229197 0.01206,-0.156818 0.144756,-0.386015 -0.04825,-0.229197 -0.277449,-0.36189 -0.229197,-0.132693 -0.530771,-0.180945 -0.301575,-0.06031 -0.651402,-0.02413 -0.337763,0.02413 -0.627275,0.12063 -0.277449,0.0965 -0.458394,0.253323 -0.168882,0.156819 -0.144756,0.36189 0,0.361889 0.205071,0.56696 0.217134,0.193008 0.554898,0.301575 0.337763,0.108567 0.772031,0.156819 0.446331,0.04825 0.904724,0.0965 0.470457,0.03619 0.904724,0.120629 0.434268,0.07238 0.784094,0.253323 0.349827,0.180945 0.554898,0.494583 0.205071,0.301574 0.205071,0.796157 0,0.373953 -0.193008,0.651401 -0.193008,0.265386 -0.494583,0.446331 -0.289511,0.180945 -0.639338,0.265386 -0.349827,0.08444 -0.663464,0.08444 -0.313638,0 -0.675528,0 -0.349826,-0.01206 -0.723779,-0.04825 -0.36189,-0.03619 -0.735842,-0.108567 -0.373953,-0.08444 -0.699654,-0.24126 -0.313637,-0.168882 -0.56696,-0.422205 -0.253323,-0.253322 -0.410142,-0.639338 z"
         style="font-family:'Indie Flower';-inkscape-font-specification:'Indie Flower'"
         id="path333" />
      <path
         d="m 34.248871,44.355183 q -0.0965,0 -0.337764,0 -0.24126,0 -0.506646,-0.03619 -0.253322,-0.04825 -0.470456,-0.144756 -0.205071,-0.0965 -0.205071,-0.277449 0,-0.04825 0.01206,-0.132693 0.02413,-0.0965 0.12063,-0.0965 l 1.242488,-0.108567 q 0.04825,-0.44633 0.07238,-0.723779 0.02413,-0.289512 0.01206,-0.530771 -0.01206,-0.253323 -0.03619,-0.518709 -0.01206,-0.277449 -0.02413,-0.711716 0,-0.08444 0.03619,-0.132693 0.03619,-0.04825 0.08444,-0.07238 0.06031,-0.02413 0.12063,-0.03619 0.07238,-0.01206 0.108566,-0.01206 0.07238,0 0.144756,0.04825 0.08444,0.04825 0.144756,0.12063 0.06032,0.07238 0.0965,0.156819 0.03619,0.07238 0.03619,0.144756 l 0.0965,2.255778 1.037417,0.04825 q 0.205071,-0.02413 0.373953,0.08444 0.180944,0.0965 0.193007,0.373953 -0.144755,0.156819 -0.349826,0.193008 -0.205071,0.02413 -0.434268,0.02413 -0.217134,-0.01206 -0.434267,0 -0.217134,0 -0.386016,0.108567 0,0.07238 0.01206,0.398078 0.01206,0.325701 0.02413,0.772031 0.01206,0.446331 0.02413,0.952976 0.02413,0.506646 0.03619,0.940914 0.01206,0.422204 0.01206,0.723779 0.01206,0.301575 0.01206,0.337763 -0.277449,0.168882 -0.446331,-0.02412 -0.168882,-0.205071 -0.277448,-0.591087 -0.0965,-0.398079 -0.144756,-0.916787 -0.03619,-0.530772 -0.04825,-1.037417 0,-0.518709 0.01206,-0.952976 0.01206,-0.434268 0.03619,-0.627275 z"
         style="font-family:'Indie Flower';-inkscape-font-specification:'Indie Flower'"
         id="path335" />
      <path
         d="m 36.890663,46.044001 q 0,-0.663464 0.289511,-1.158047 0.289512,-0.494583 0.759969,-0.832346 0.470456,-0.337764 1.04948,-0.494583 0.591086,-0.168882 1.182172,-0.168882 0.313638,0 0.579024,0.12063 0.277449,0.108567 0.518708,0.313638 0.253323,0.193008 0.446331,0.458394 0.193008,0.253322 0.325701,0.530771 0.144755,0.277449 0.217133,0.566961 0.07238,0.277448 0.07238,0.542834 0,0.615212 -0.241259,1.097732 -0.24126,0.482519 -0.651402,0.820283 -0.410141,0.325701 -0.92885,0.506646 -0.518708,0.168881 -1.061543,0.168881 -0.554897,0 -1.025354,-0.168881 -0.458393,-0.180945 -0.80822,-0.494583 -0.337764,-0.313638 -0.530772,-0.772031 -0.193007,-0.470457 -0.193007,-1.037417 z m 0.591086,-0.0965 q 0,0.373953 0.132693,0.723779 0.144756,0.337764 0.386016,0.591087 0.253322,0.253322 0.591086,0.410141 0.337764,0.144756 0.723779,0.144756 0.205071,0.02413 0.494583,-0.06031 0.301575,-0.0965 0.591086,-0.265386 0.301575,-0.180944 0.566961,-0.422204 0.277448,-0.253323 0.458393,-0.542835 0.180945,-0.301574 0.217134,-0.615212 0.04825,-0.325701 -0.108567,-0.639338 -0.144756,-0.325701 -0.542834,-0.615213 -0.398079,-0.301574 -1.097732,-0.554897 -0.398079,0 -0.832346,0.12063 -0.422205,0.108567 -0.772032,0.337763 -0.349826,0.229197 -0.579023,0.579024 -0.229197,0.349826 -0.229197,0.80822 z"
         style="font-family:'Indie Flower';-inkscape-font-specification:'Indie Flower'"
         id="path337" />
      <path
         d="m 47.867982,52.268503 q 0,-0.08444 0,-0.168882 0,-0.07238 0.02413,-0.132693 0.02413,-0.04825 0.07238,-0.08444 0.07238,-0.02413 0.168882,-0.02413 0.180945,0.205071 0.458394,0.518709 0.289511,0.3257 0.651401,0.627275 0.36189,0.301575 0.759968,0.530772 0.398079,0.229196 0.80822,0.229196 0.337764,-0.01206 0.579024,-0.180944 0.24126,-0.156819 0.410141,-0.422205 0.168882,-0.265386 0.277449,-0.603149 0.108567,-0.337764 0.168882,-0.687591 0.07238,-0.349826 0.0965,-0.675527 0.03619,-0.325701 0.07238,-0.566961 0.02413,-0.120629 0.04825,-0.410141 0.03619,-0.277449 0.06032,-0.627276 0.03619,-0.337763 0.04825,-0.711716 0.02413,-0.373953 0,-0.675527 -0.02413,-0.313638 -0.0965,-0.506646 -0.07238,-0.205071 -0.217134,-0.205071 -0.205071,0 -0.434268,0.12063 -0.229196,0.12063 -0.482519,0.277449 -0.24126,0.144756 -0.494583,0.265386 -0.253322,0.12063 -0.494582,0.12063 -0.458394,0 -0.844409,-0.180945 -0.373953,-0.193008 -0.687591,-0.494583 -0.313637,-0.301574 -0.554897,-0.699653 -0.24126,-0.410142 -0.410142,-0.844409 -0.156819,-0.434268 -0.241259,-0.868535 -0.07238,-0.434268 -0.07238,-0.820283 0,-0.08444 -0.02413,-0.277449 -0.01206,-0.193008 0.01206,-0.398079 0.02413,-0.205071 0.108567,-0.361889 0.08444,-0.156819 0.265385,-0.156819 0.04825,0 0.07238,0.193007 0.03619,0.193008 0.07238,0.506646 0.04825,0.301575 0.108567,0.699653 0.07238,0.398079 0.180945,0.808221 0.108567,0.410141 0.265386,0.80822 0.156818,0.398078 0.386015,0.711716 0.229197,0.301575 0.542835,0.494583 0.3257,0.193007 0.735842,0.193007 0.265386,0 0.554897,-0.108567 0.289512,-0.120629 0.542835,-0.301574 0.265386,-0.180945 0.482519,-0.410142 0.217134,-0.24126 0.337764,-0.470456 0,-0.04825 -0.01206,-0.229197 -0.01206,-0.180945 -0.02413,-0.410142 -0.01206,-0.24126 -0.02413,-0.518708 -0.01206,-0.277449 -0.02413,-0.518709 -0.01206,-0.253322 -0.02413,-0.434267 0,-0.180945 0,-0.229197 0.02413,-0.735842 0.108567,-0.892661 0.08444,-0.168882 0.205071,0.0965 0.12063,0.265385 0.253323,0.892661 0.132693,0.627275 0.241259,1.471684 0.12063,0.832347 0.180945,1.821512 0.07238,0.989165 0.06032,1.97833 -0.01206,1.001228 -0.132693,1.930078 -0.108567,0.92885 -0.361889,1.640566 -0.253323,0.72378 -0.663465,1.17011 -0.410141,0.446331 -1.013291,0.470457 -0.241259,0 -0.579023,-0.0965 Q 50.051383,54.3554 49.71362,54.198581 49.375856,54.041762 49.038092,53.824628 48.712391,53.607495 48.447006,53.354172 48.193683,53.100849 48.024801,52.8234 47.867982,52.545952 47.867982,52.268503 Z"
         style="font-family:'Indie Flower';-inkscape-font-specification:'Indie Flower'"
         id="path339" />
      <path
         d="m 53.561714,46.044001 q 0,-0.663464 0.289511,-1.158047 0.289512,-0.494583 0.759969,-0.832346 0.470456,-0.337764 1.04948,-0.494583 0.591086,-0.168882 1.182172,-0.168882 0.313638,0 0.579024,0.12063 0.277449,0.108567 0.518708,0.313638 0.253323,0.193008 0.446331,0.458394 0.193008,0.253322 0.325701,0.530771 0.144756,0.277449 0.217133,0.566961 0.07238,0.277448 0.07238,0.542834 0,0.615212 -0.241259,1.097732 -0.24126,0.482519 -0.651402,0.820283 -0.410141,0.325701 -0.92885,0.506646 -0.518708,0.168881 -1.061543,0.168881 -0.554897,0 -1.025354,-0.168881 -0.458393,-0.180945 -0.80822,-0.494583 -0.337764,-0.313638 -0.530772,-0.772031 -0.193007,-0.470457 -0.193007,-1.037417 z m 0.591086,-0.0965 q 0,0.373953 0.132693,0.723779 0.144756,0.337764 0.386016,0.591087 0.253322,0.253322 0.591086,0.410141 0.337764,0.144756 0.723779,0.144756 0.205071,0.02413 0.494583,-0.06031 0.301575,-0.0965 0.591086,-0.265386 0.301575,-0.180944 0.566961,-0.422204 0.277448,-0.253323 0.458393,-0.542835 0.180945,-0.301574 0.217134,-0.615212 0.04825,-0.325701 -0.108567,-0.639338 -0.144756,-0.325701 -0.542834,-0.615213 -0.398079,-0.301574 -1.097732,-0.554897 -0.398079,0 -0.832346,0.12063 -0.422205,0.108567 -0.772032,0.337763 -0.349826,0.229197 -0.579023,0.579024 -0.229197,0.349826 -0.229197,0.80822 z"
         style="font-family:'Indie Flower';-inkscape-font-specification:'Indie Flower'"
         id="path341" />
      <path
         d="m 63.984136,46.755717 q -0.277448,0.156819 -0.482519,0.386016 -0.193008,0.217134 -0.398079,0.422204 -0.20507,0.193008 -0.458393,0.337764 -0.24126,0.144756 -0.627276,0.144756 -0.434267,0 -0.784094,-0.180945 -0.349827,-0.193008 -0.627275,-0.506645 -0.265386,-0.325701 -0.470457,-0.72378 -0.193008,-0.410141 -0.3257,-0.832346 -0.12063,-0.434267 -0.193008,-0.844409 -0.06031,-0.422205 -0.06031,-0.759968 -0.0965,-0.651402 0.03619,-1.013291 0.132693,-0.373953 0.313637,-0.470457 0.193008,-0.108567 0.325701,0.04825 0.132693,0.144756 0.03619,0.518709 -0.02413,0.04825 -0.03619,0.156818 -0.01206,0.0965 -0.02413,0.205071 -0.01206,0.108567 -0.02413,0.205071 -0.01206,0.0965 -0.01206,0.132693 0,0.253323 0.04825,0.603149 0.04825,0.337764 0.144756,0.711717 0.108567,0.373952 0.265386,0.747905 0.156819,0.36189 0.373952,0.651401 0.217134,0.289512 0.494583,0.470457 0.289512,0.180945 0.627275,0.180945 0.217134,0 0.494583,-0.205071 0.277449,-0.217134 0.518708,-0.506646 0.253323,-0.301574 0.422205,-0.615212 0.180945,-0.313638 0.180945,-0.530772 0,-0.120629 0,-0.398078 0.01206,-0.277449 0.01206,-0.591087 0,-0.313637 -0.01206,-0.591086 0,-0.277449 0,-0.386016 0.07238,-0.12063 0.156819,-0.180944 0.08444,-0.07238 0.20507,-0.07238 0.144756,0 0.24126,0.193007 0.0965,0.193008 0.156819,0.494583 0.06032,0.301575 0.08444,0.651401 0.02413,0.349827 0.03619,0.675528 0.01206,0.3257 0.02413,0.579023 0.01206,0.24126 0.03619,0.325701 0.06032,0.24126 0.168882,0.542834 0.120629,0.301575 0.229196,0.591087 0.108567,0.277448 0.193008,0.518708 0.08444,0.229197 0.08444,0.349827 0,0.180945 -0.108567,0.217134 -0.0965,0.03619 -0.253323,0.03619 -0.193007,0 -0.289511,-0.0965 -0.08444,-0.0965 -0.132693,-0.24126 -0.03619,-0.156819 -0.06031,-0.337764 -0.02413,-0.180945 -0.08444,-0.373952 -0.04825,-0.193008 -0.156819,-0.36189 -0.0965,-0.168882 -0.289512,-0.277449 z"
         style="font-family:'Indie Flower';-inkscape-font-specification:'Indie Flower'"
         id="path343" />
      <path
         d="m 66.879252,48.50485 q -0.265385,-0.482519 -0.458393,-1.049479 -0.193008,-0.566961 -0.325701,-1.145984 -0.132693,-0.579024 -0.217134,-1.121858 -0.07238,-0.554898 -0.0965,-1.001228 0,-0.08444 -0.01206,-0.180945 -0.01206,-0.108567 -0.01206,-0.217134 0.01206,-0.108567 0.03619,-0.205071 0.03619,-0.0965 0.108567,-0.168882 h 0.02413 q 0.01206,0 0.01206,0 0,-0.01206 0.01206,-0.01206 0.01206,0 0.01206,0.01206 0,0 0.02413,0 h 0.02413 q 0.02413,0.01206 0.12063,0.04825 0.0965,0.03619 0.12063,0.06031 0.217134,-0.07238 0.44633,-0.168881 0.229197,-0.108567 0.458394,-0.193008 0.24126,-0.0965 0.48252,-0.156819 0.241259,-0.06032 0.470456,-0.06032 0.168882,0 0.289512,0.01206 0.132693,0.01206 0.253323,0.04825 0.132692,0.02413 0.277448,0.07238 0.144756,0.03619 0.337764,0.0965 0.0965,0.07238 0.168882,0.144756 0.08444,0.06031 0.144756,0.144755 0.07238,0.08444 0.108567,0.205071 0.03619,0.12063 0.03619,0.313638 -0.193008,0.02413 -0.458394,-0.02413 -0.253323,-0.06032 -0.542835,-0.144756 -0.277448,-0.08444 -0.579023,-0.144756 -0.301575,-0.06031 -0.579023,-0.04825 -0.277449,0.01206 -0.518709,0.156819 -0.253323,0.12063 -0.44633,0.434268 -0.08444,0.349826 -0.07238,0.68759 0.01206,0.337764 0.08444,0.663464 0.07238,0.313638 0.180944,0.639339 0.12063,0.313637 0.217134,0.639338 0.108567,0.313638 0.193008,0.627276 0.08444,0.313637 0.108567,0.639338 0,0.12063 -0.132693,0.265386 -0.132693,0.132692 -0.301575,0.132692 z"
         style="font-family:'Indie Flower';-inkscape-font-specification:'Indie Flower'"
         id="path345" />
      <path
         d="m 74.671945,47.045229 q 0.0965,-0.07238 0.168882,-0.08444 0.08444,-0.02413 0.180945,-0.02413 0.108567,0 0.217134,0.06032 0.108567,0.04825 0.193007,0.132693 0.0965,0.07238 0.193008,0.144756 0.0965,0.07238 0.205071,0.12063 0.313638,0.132692 0.494583,0.217133 0.193007,0.08444 0.349826,0.132693 0.156819,0.04825 0.36189,0.06032 0.205071,0.01206 0.530771,0.01206 0.253323,0 0.615213,0.01206 0.361889,0 0.68759,-0.06032 0.325701,-0.07238 0.554898,-0.24126 0.229196,-0.180944 0.229196,-0.542834 0.01206,-0.349827 -0.193008,-0.542835 -0.193007,-0.20507 -0.530771,-0.313637 -0.337764,-0.108567 -0.759968,-0.144756 -0.422205,-0.04825 -0.868535,-0.0965 -0.446331,-0.04825 -0.880599,-0.132693 -0.422204,-0.0965 -0.759968,-0.289512 -0.337763,-0.193007 -0.542834,-0.530771 -0.205071,-0.337764 -0.217134,-0.868535 0.07238,-0.386016 0.373953,-0.639339 0.313637,-0.265385 0.735842,-0.398078 0.434267,-0.144756 0.916787,-0.144756 0.482519,-0.01206 0.880598,0.12063 0.410142,0.12063 0.675527,0.398078 0.277449,0.277449 0.289512,0.687591 0.02413,0.24126 -0.03619,0.398078 -0.06032,0.156819 -0.168882,0.24126 -0.0965,0.07238 -0.20507,0.07238 -0.108567,-0.01206 -0.168882,-0.08444 -0.06032,-0.08444 -0.06032,-0.229197 0.01206,-0.156818 0.144756,-0.386015 -0.04825,-0.229197 -0.277449,-0.36189 -0.229197,-0.132693 -0.530772,-0.180945 -0.301574,-0.06031 -0.651401,-0.02413 -0.337764,0.02413 -0.627275,0.12063 -0.277449,0.0965 -0.458394,0.253323 -0.168882,0.156819 -0.144756,0.36189 0,0.361889 0.205071,0.56696 0.217134,0.193008 0.554898,0.301575 0.337763,0.108567 0.772031,0.156819 0.44633,0.04825 0.904724,0.0965 0.470456,0.03619 0.904724,0.120629 0.434268,0.07238 0.784094,0.253323 0.349827,0.180945 0.554898,0.494583 0.205071,0.301574 0.205071,0.796157 0,0.373953 -0.193008,0.651401 -0.193008,0.265386 -0.494583,0.446331 -0.289512,0.180945 -0.639338,0.265386 -0.349827,0.08444 -0.663465,0.08444 -0.313637,0 -0.675527,0 -0.349827,-0.01206 -0.723779,-0.04825 -0.36189,-0.03619 -0.735842,-0.108567 -0.373953,-0.08444 -0.699654,-0.24126 -0.313637,-0.168882 -0.56696,-0.422205 -0.253323,-0.253322 -0.410142,-0.639338 z"
         style="font-family:'Indie Flower';-inkscape-font-specification:'Indie Flower'"
         id="path347" />
      <path
         d="m 82.464634,44.355183 q -0.0965,0 -0.337764,0 -0.24126,0 -0.506645,-0.03619 -0.253323,-0.04825 -0.470457,-0.144756 -0.205071,-0.0965 -0.205071,-0.277449 0,-0.04825 0.01206,-0.132693 0.02413,-0.0965 0.12063,-0.0965 l 1.242488,-0.108567 q 0.04825,-0.44633 0.07238,-0.723779 0.02413,-0.289512 0.01206,-0.530771 -0.01206,-0.253323 -0.03619,-0.518709 -0.01206,-0.277449 -0.02413,-0.711716 0,-0.08444 0.03619,-0.132693 0.03619,-0.04825 0.08444,-0.07238 0.06032,-0.02413 0.12063,-0.03619 0.07238,-0.01206 0.108567,-0.01206 0.07238,0 0.144755,0.04825 0.08444,0.04825 0.144756,0.12063 0.06032,0.07238 0.0965,0.156819 0.03619,0.07238 0.03619,0.144756 l 0.0965,2.255778 1.037417,0.04825 q 0.205071,-0.02413 0.373953,0.08444 0.180944,0.0965 0.193007,0.373953 -0.144755,0.156819 -0.349826,0.193008 -0.205071,0.02413 -0.434268,0.02413 -0.217134,-0.01206 -0.434267,0 -0.217134,0 -0.386016,0.108567 0,0.07238 0.01206,0.398078 0.01206,0.325701 0.02413,0.772031 0.01206,0.446331 0.02413,0.952976 0.02413,0.506646 0.03619,0.940914 0.01206,0.422204 0.01206,0.723779 0.01206,0.301575 0.01206,0.337763 -0.277449,0.168882 -0.446331,-0.02412 -0.168881,-0.205071 -0.277448,-0.591087 -0.0965,-0.398079 -0.144756,-0.916787 -0.03619,-0.530772 -0.04825,-1.037417 0,-0.518709 0.01206,-0.952976 0.01206,-0.434268 0.03619,-0.627275 z"
         style="font-family:'Indie Flower';-inkscape-font-specification:'Indie Flower'"
         id="path349" />
      <path
         d="m 85.106426,46.044001 q 0,-0.663464 0.289511,-1.158047 0.289512,-0.494583 0.759969,-0.832346 0.470456,-0.337764 1.04948,-0.494583 0.591086,-0.168882 1.182173,-0.168882 0.313637,0 0.579023,0.12063 0.277449,0.108567 0.518708,0.313638 0.253323,0.193008 0.446331,0.458394 0.193008,0.253322 0.325701,0.530771 0.144756,0.277449 0.217134,0.566961 0.07238,0.277448 0.07238,0.542834 0,0.615212 -0.241259,1.097732 -0.24126,0.482519 -0.651402,0.820283 -0.410141,0.325701 -0.92885,0.506646 -0.518708,0.168881 -1.061543,0.168881 -0.554897,0 -1.025354,-0.168881 -0.458393,-0.180945 -0.80822,-0.494583 -0.337764,-0.313638 -0.530771,-0.772031 -0.193008,-0.470457 -0.193008,-1.037417 z m 0.591086,-0.0965 q 0,0.373953 0.132693,0.723779 0.144756,0.337764 0.386016,0.591087 0.253322,0.253322 0.591086,0.410141 0.337764,0.144756 0.723779,0.144756 0.205071,0.02413 0.494583,-0.06031 0.301575,-0.0965 0.591086,-0.265386 0.301575,-0.180944 0.566961,-0.422204 0.277449,-0.253323 0.458393,-0.542835 0.180945,-0.301574 0.217134,-0.615212 0.04825,-0.325701 -0.108567,-0.639338 -0.144756,-0.325701 -0.542834,-0.615213 -0.398079,-0.301574 -1.097732,-0.554897 -0.398079,0 -0.832346,0.12063 -0.422205,0.108567 -0.772032,0.337763 -0.349826,0.229197 -0.579023,0.579024 -0.229197,0.349826 -0.229197,0.80822 z"
         style="font-family:'Indie Flower';-inkscape-font-specification:'Indie Flower'"
         id="path351" />
      <path
         d="m 92.22359,48.50485 q -0.265386,-0.482519 -0.458394,-1.049479 -0.193008,-0.566961 -0.3257,-1.145984 -0.132693,-0.579024 -0.217134,-1.121858 -0.07238,-0.554898 -0.0965,-1.001228 0,-0.08444 -0.01206,-0.180945 -0.01206,-0.108567 -0.01206,-0.217134 0.01206,-0.108567 0.03619,-0.205071 0.03619,-0.0965 0.108567,-0.168882 h 0.02413 q 0.01206,0 0.01206,0 0,-0.01206 0.01206,-0.01206 0.01206,0 0.01206,0.01206 0,0 0.02413,0 h 0.02413 q 0.02413,0.01206 0.120629,0.04825 0.0965,0.03619 0.12063,0.06031 0.217134,-0.07238 0.446331,-0.168881 0.229197,-0.108567 0.458393,-0.193008 0.24126,-0.0965 0.48252,-0.156819 0.24126,-0.06032 0.470457,-0.06032 0.168881,0 0.289511,0.01206 0.132693,0.01206 0.253323,0.04825 0.132693,0.02413 0.277449,0.07238 0.144756,0.03619 0.337763,0.0965 0.0965,0.07238 0.168882,0.144756 0.08444,0.06031 0.144756,0.144755 0.07238,0.08444 0.108567,0.205071 0.03619,0.12063 0.03619,0.313638 -0.193008,0.02413 -0.458394,-0.02413 -0.253322,-0.06032 -0.542834,-0.144756 -0.277449,-0.08444 -0.579023,-0.144756 -0.301575,-0.06031 -0.579024,-0.04825 -0.277449,0.01206 -0.518708,0.156819 -0.253323,0.12063 -0.446331,0.434268 -0.08444,0.349826 -0.07238,0.68759 0.01206,0.337764 0.08444,0.663464 0.07238,0.313638 0.180945,0.639339 0.12063,0.313637 0.217134,0.639338 0.108567,0.313638 0.193007,0.627276 0.08444,0.313637 0.108567,0.639338 0,0.12063 -0.132693,0.265386 -0.132692,0.132692 -0.301574,0.132692 z"
         style="font-family:'Indie Flower';-inkscape-font-specification:'Indie Flower'"
         id="path353" />
      <path
         d="m 95.733922,52.268503 q 0,-0.08444 0,-0.168882 0,-0.07238 0.02413,-0.132693 0.02413,-0.04825 0.07238,-0.08444 0.07238,-0.02413 0.168882,-0.02413 0.180945,0.205071 0.458394,0.518709 0.289511,0.3257 0.651401,0.627275 0.36189,0.301575 0.759968,0.530772 0.398079,0.229196 0.808221,0.229196 0.337763,-0.01206 0.579023,-0.180944 0.24126,-0.156819 0.410142,-0.422205 0.168881,-0.265386 0.277448,-0.603149 0.108569,-0.337764 0.168889,-0.687591 0.0724,-0.349826 0.0965,-0.675527 0.0362,-0.325701 0.0724,-0.566961 0.0241,-0.120629 0.0482,-0.410141 0.0362,-0.277449 0.0603,-0.627276 0.0362,-0.337763 0.0482,-0.711716 0.0241,-0.373953 0,-0.675527 -0.0241,-0.313638 -0.0965,-0.506646 -0.0724,-0.205071 -0.21713,-0.205071 -0.205075,0 -0.434271,0.12063 -0.229197,0.12063 -0.48252,0.277449 -0.24126,0.144756 -0.494583,0.265386 -0.253322,0.12063 -0.494582,0.12063 -0.458394,0 -0.844409,-0.180945 -0.373953,-0.193008 -0.687591,-0.494583 -0.313637,-0.301574 -0.554897,-0.699653 -0.24126,-0.410142 -0.410142,-0.844409 -0.156818,-0.434268 -0.241259,-0.868535 -0.07238,-0.434268 -0.07238,-0.820283 0,-0.08444 -0.02413,-0.277449 -0.01206,-0.193008 0.01206,-0.398079 0.02413,-0.205071 0.108567,-0.361889 0.08444,-0.156819 0.265385,-0.156819 0.04825,0 0.07238,0.193007 0.03619,0.193008 0.07238,0.506646 0.04825,0.301575 0.108567,0.699653 0.07238,0.398079 0.180945,0.808221 0.108567,0.410141 0.265386,0.80822 0.156819,0.398078 0.386015,0.711716 0.229197,0.301575 0.542835,0.494583 0.3257,0.193007 0.735842,0.193007 0.265386,0 0.554898,-0.108567 0.289511,-0.120629 0.542834,-0.301574 0.265386,-0.180945 0.48252,-0.410142 0.217133,-0.24126 0.33776,-0.470456 0,-0.04825 -0.0121,-0.229197 -0.0121,-0.180945 -0.0241,-0.410142 -0.0121,-0.24126 -0.02412,-0.518708 -0.01206,-0.277449 -0.02413,-0.518709 -0.01206,-0.253322 -0.02413,-0.434267 0,-0.180945 0,-0.229197 0.02413,-0.735842 0.10857,-0.892661 0.0844,-0.168882 0.20507,0.0965 0.12063,0.265385 0.25333,0.892661 0.13269,0.627275 0.24126,1.471684 0.12063,0.832347 0.18094,1.821512 0.0724,0.989165 0.0603,1.97833 -0.0121,1.001228 -0.1327,1.930078 -0.10856,0.92885 -0.36189,1.640566 -0.25332,0.72378 -0.663467,1.17011 -0.410141,0.446331 -1.013291,0.470457 -0.241259,0 -0.579023,-0.0965 -0.325701,-0.08444 -0.663464,-0.24126 -0.337764,-0.156819 -0.675528,-0.373953 -0.3257,-0.217133 -0.591086,-0.470456 -0.253323,-0.253323 -0.422205,-0.530772 -0.156819,-0.277448 -0.156819,-0.554897 z"
         style="font-family:'Indie Flower';-inkscape-font-specification:'Indie Flower'"
         id="path355" />
      <path
         d="m 101.74129,47.346804 q 0,-0.0965 0.0724,-0.289512 0.0844,-0.193008 0.19301,-0.386016 0.10856,-0.205071 0.21713,-0.349826 0.12063,-0.144756 0.20507,-0.144756 0.24126,0 0.42221,0.132693 0.18094,0.12063 0.28951,0.313637 0.12063,0.193008 0.18094,0.422205 0.0603,0.229197 0.0603,0.422205 0,0.144755 -0.0844,0.3257 -0.0844,0.180945 -0.21714,0.337764 -0.12063,0.156819 -0.27745,0.265386 -0.15681,0.108566 -0.31363,0.108566 -0.18095,0 -0.31364,-0.120629 -0.13269,-0.132693 -0.24126,-0.313638 -0.0965,-0.193008 -0.14476,-0.386016 -0.0482,-0.205071 -0.0482,-0.337763 z"
         style="font-family:'Indie Flower';-inkscape-font-specification:'Indie Flower'"
         id="path357" />
    </g>
  </g>
</svg>
