<?xml version="1.0" encoding="UTF-8" standalone="no"?>
<!-- Created with Inkscape (http://www.inkscape.org/) -->

<svg
   width="400"
   height="300"
   viewBox="0 0 105.83333 79.375"
   version="1.1"
   id="svg5"
   inkscape:version="1.2.1 (9c6d41e410, 2022-07-14, custom)"
   sodipodi:docname="rainandflowers.svg"
   xmlns:inkscape="http://www.inkscape.org/namespaces/inkscape"
   xmlns:sodipodi="http://sodipodi.sourceforge.net/DTD/sodipodi-0.dtd"
   xmlns:xlink="http://www.w3.org/1999/xlink"
   xmlns="http://www.w3.org/2000/svg"
   xmlns:svg="http://www.w3.org/2000/svg">
  <sodipodi:namedview
     id="namedview7"
     pagecolor="#505050"
     bordercolor="#eeeeee"
     borderopacity="1"
     inkscape:showpageshadow="0"
     inkscape:pageopacity="0"
     inkscape:pagecheckerboard="0"
     inkscape:deskcolor="#505050"
     inkscape:document-units="mm"
     showgrid="false"
     inkscape:zoom="2.4620873"
     inkscape:cx="225.62157"
     inkscape:cy="144.59276"
     inkscape:window-width="1920"
     inkscape:window-height="1005"
     inkscape:window-x="0"
     inkscape:window-y="0"
     inkscape:window-maximized="1"
     inkscape:current-layer="layer1"
     showguides="false" />
  <defs
     id="defs2">
    <linearGradient
       inkscape:collect="always"
       id="linearGradient833">
      <stop
         style="stop-color:#116548;stop-opacity:1;"
         offset="0"
         id="stop829" />
      <stop
         style="stop-color:#0c4f3f;stop-opacity:1;"
         offset="1"
         id="stop831" />
    </linearGradient>
    <linearGradient
       inkscape:collect="always"
       xlink:href="#linearGradient833"
       id="linearGradient835"
       x1="5.6693616"
       y1="4.0166559"
       x2="96.301926"
       y2="69.873955"
       gradientUnits="userSpaceOnUse" />
  </defs>
  <g
     inkscape:label="Layer 1"
     inkscape:groupmode="layer"
     id="layer1">
    <rect
       style="fill:url(#linearGradient835);stroke:none;stroke-width:0.465;stroke-linecap:round;stop-color:#000000;fill-opacity:1"
       id="rect250"
       width="110.01212"
       height="82.747826"
       x="-1.9933084"
       y="-2.1540589" />
    <text
       xml:space="preserve"
       style="font-style:normal;font-weight:normal;font-size:10.5833px;line-height:1.25;font-family:Sacramento;fill:#000000;fill-opacity:1;stroke:none;stroke-width:0.264583;-inkscape-font-specification:Sacramento;font-stretch:normal;font-variant:normal"
       x="29.98974"
       y="20.772097"
       id="text304"><tspan
         sodipodi:role="line"
         id="tspan302"
         style="stroke-width:0.264583;-inkscape-font-specification:Sacramento;font-family:Sacramento;font-weight:normal;font-style:normal;font-stretch:normal;font-variant:normal"
         x="29.98974"
         y="20.772097" /></text>
    <path
       d="m 39.42762,6.6743167 q 0.238625,0 0.413615,0.1749899 0.190898,0.1590867 0.190898,0.4295212 0,0.3499815 -0.302255,0.5249714 -0.04773,0.031825 -0.429523,0.3022555 -0.365889,0.2704401 -0.811319,0.8749511 -0.445428,0.6045111 -0.859042,1.6067282 -0.413613,0.986308 -0.52497,2.449863 -0.03182,0.254531 -0.04773,0.509063 0,0.254531 -0.01588,0.509063 0.286347,-0.03182 0.588602,-0.04773 0.318164,-0.03181 0.668146,-0.03181 1.145389,0 2.211239,0.254532 1.065849,0.254531 1.956709,0.731777 2.306689,-0.922676 3.53162,-2.449864 1.224931,-1.527186 1.224931,-3.4043541 0,-1.3999207 -0.699961,-2.481679 Q 45.82272,5.5289217 44.550063,4.7812363 43.293315,4.0335509 41.527506,3.6358459 39.777604,3.2381409 37.67772,3.2381409 q -1.829442,0 -3.738425,0.2863476 -1.893077,0.2704393 -3.674794,0.8272264 -1.765811,0.5567869 -3.324815,1.3840133 -1.559004,0.8272265 -2.720302,1.9089848 -1.161299,1.0658478 -1.829443,2.386229 -0.668144,1.320381 -0.668144,2.863476 0,1.145391 0.397704,2.020342 0.397705,0.859042 1.049941,1.447647 0.668145,0.572693 1.527188,0.874951 0.859042,0.286347 1.797626,0.286347 1.113574,0 1.956709,-0.222714 0.843134,-0.222716 1.41583,-0.477248 0.572695,-0.270438 0.859042,-0.493154 0.302256,-0.238622 0.334073,-0.27044 0.111359,-0.07953 0.254531,-0.17499 0.143166,-0.111358 0.302256,-0.111358 0.238623,0 0.413613,0.174989 0.174989,0.159087 0.174989,0.413615 0,0.254529 -0.174989,0.413612 -0.03182,0.03181 -0.413613,0.34998 -0.365888,0.302256 -1.06585,0.652237 -0.699961,0.34998 -1.718084,0.636329 -1.002217,0.286346 -2.30669,0.286346 -1.209024,0 -2.306689,-0.397705 -1.081758,-0.397704 -1.908985,-1.14539 -0.827225,-0.747685 -1.320381,-1.813535 -0.477245,-1.081758 -0.477245,-2.449863 0,-1.511278 0.620419,-2.8952916 0.62042,-1.3999225 1.749903,-2.6089446 1.129482,-1.209024 2.704394,-2.179424 1.574911,-0.9863084 3.467988,-1.6862691 1.908983,-0.6999609 4.088406,-1.0817578 2.179424,-0.3817967 4.502022,-0.3817967 2.370321,0 4.342938,0.477246 1.988525,0.4613378 3.420263,1.352197 1.431738,0.8749509 2.227149,2.1635151 0.79541,1.2726567 0.79541,2.8952932 0,2.1476065 -1.24084,3.8975085 -1.224933,1.749902 -3.611161,2.9112 0.874951,0.747685 1.368105,1.749902 0.509063,0.986308 0.747685,2.004434 0.254532,1.018125 0.318165,1.9408 0.07953,0.922676 0.111358,1.543095 0.03182,0.906767 0.159087,1.479463 0.143165,0.556786 0.381797,0.874951 0.254531,0.318164 0.604511,0.44543 0.36589,0.111358 0.874951,0.111358 0.71587,0 1.320381,-0.334071 0.604511,-0.349981 1.081759,-0.859044 0.493154,-0.509061 0.859042,-1.097665 0.381797,-0.604511 0.636328,-1.113574 0.254532,-0.524971 0.381797,-0.859042 0.143166,-0.349982 0.143166,-0.365889 0.159086,-0.397705 0.556786,-0.397705 0.270441,0 0.429522,0.190898 0.17499,0.17499 0.17499,0.413613 0,0.07953 -0.03183,0.206807 -0.01588,0.06363 -0.190899,0.493154 -0.159086,0.413613 -0.477245,1.018125 -0.318164,0.588603 -0.79541,1.272655 -0.477247,0.684053 -1.113573,1.272657 -0.62042,0.572696 -1.415832,0.954493 -0.779501,0.381795 -1.733993,0.381795 -0.843134,0 -1.41583,-0.270438 -0.556786,-0.27044 -0.922675,-0.779503 -0.349981,-0.524969 -0.524971,-1.256748 -0.159087,-0.747685 -0.190899,-1.702176 -0.01588,-0.397706 -0.04773,-0.938584 -0.03182,-0.556787 -0.127262,-1.1613 -0.07953,-0.62042 -0.238622,-1.272655 -0.159087,-0.652237 -0.44543,-1.272657 -0.286347,-0.620419 -0.715868,-1.177206 -0.429523,-0.556787 -1.049943,-0.9704 -1.224931,0.413613 -2.545312,0.652235 -1.304472,0.222716 -2.704393,0.238625 v 0.477245 q 0,1.956708 -0.397705,3.674795 -0.381798,1.702178 -1.256749,2.974833 -0.874951,1.256748 -2.258963,1.972616 -1.384014,0.731778 -3.372538,0.731778 -0.986309,0 -1.95671,-0.27044 -0.954492,-0.254531 -1.797626,-0.71587 -0.827227,-0.461336 -1.495371,-1.081756 -0.652237,-0.636328 -1.034032,-1.368105 -0.07953,-0.127262 -0.07953,-0.286349 0,-0.222714 0.159086,-0.397704 0.17499,-0.190898 0.44543,-0.190898 0.349982,0 0.524972,0.302255 0.349979,0.62042 0.906766,1.145391 0.556787,0.52497 1.24084,0.906767 0.699961,0.365888 1.479464,0.572696 0.795409,0.206807 1.606728,0.206807 1.638543,0 2.799843,-0.572696 1.161298,-0.588604 1.893074,-1.654454 0.731779,-1.081756 1.06585,-2.577127 0.334073,-1.511279 0.334073,-3.372539 v -0.620419 q -0.524972,-0.17499 -0.843136,-0.493154 -0.318162,-0.318165 -0.318162,-0.779503 0,-0.461337 0.302255,-0.811318 0.302256,-0.34998 0.859043,-0.572694 0,-0.36589 0.01588,-0.71587 0.01588,-0.365889 0.04773,-0.715868 0.09546,-1.145391 0.34998,-2.05216 0.27044,-0.9067664 0.62042,-1.590819 0.365888,-0.6840525 0.747685,-1.1612979 0.381797,-0.4772473 0.71587,-0.7795028 0.334071,-0.3181642 0.556787,-0.4613367 0.222714,-0.1431836 0.254531,-0.1590867 0.111359,-0.063631 0.270439,-0.063631 z m 1.495371,8.8767763 q -0.270438,-0.07953 -0.524969,-0.159086 -0.254532,-0.07953 -0.556787,-0.127262 -0.286349,-0.06363 -0.652237,-0.09546 -0.34998,-0.04773 -0.811319,-0.04773 -0.827225,0 -1.352196,0.09546 v 0.01588 0.763592 q 0.970399,0 1.988525,-0.111359 1.034032,-0.111359 1.908983,-0.334071 z"
       style="font-size:17.6389px;line-height:1.25;font-family:Sacramento;-inkscape-font-specification:Sacramento;text-align:center;text-anchor:middle;fill:#5695af;stroke-width:0.488697"
       id="path1014" />
    <path
       d="m 64.8012,21.723473 q -0.06363,0.127262 -0.27044,0.540881 -0.190898,0.397703 -0.509062,0.922675 -0.302256,0.524971 -0.715869,1.097665 -0.413612,0.572695 -0.922675,1.049941 -0.509063,0.477247 -1.097667,0.795411 -0.588602,0.302256 -1.240839,0.302256 -0.922676,0 -1.559004,-0.588604 -0.62042,-0.588603 -0.906767,-1.479463 -0.540878,0.906767 -1.288563,1.447647 -0.747686,0.52497 -1.495371,0.52497 -0.588604,0 -1.06585,-0.206806 -0.477247,-0.222716 -0.811318,-0.604513 -0.334073,-0.397703 -0.524971,-0.922675 -0.17499,-0.524969 -0.17499,-1.145389 0,-1.24084 0.413612,-2.179424 0.429522,-0.954492 1.081759,-1.590821 0.652237,-0.636328 1.431738,-0.95449 0.795409,-0.318165 1.527186,-0.318165 0.493156,0 0.906768,0.143166 0.413613,0.127262 0.699962,0.286348 0.302255,0.159087 0.461336,0.302256 0.159087,0.127262 0.17499,0.143183 0.17499,0.206806 0.17499,0.429522 0,0.238622 -0.17499,0.429521 -0.17499,0.17499 -0.413612,0.17499 -0.254532,0 -0.429521,-0.17499 -0.03181,-0.03183 -0.143166,-0.111359 -0.111358,-0.09546 -0.302255,-0.190899 -0.190899,-0.09546 -0.461337,-0.159086 -0.254531,-0.07953 -0.588604,-0.07953 -0.493154,0 -1.049941,0.222715 -0.556787,0.222714 -1.018125,0.699962 -0.461337,0.461336 -0.779501,1.177206 -0.302256,0.69996 -0.302256,1.670361 0,0.302256 0.06363,0.62042 0.06363,0.302255 0.222714,0.556787 0.159087,0.254531 0.429521,0.413612 0.27044,0.159087 0.668144,0.159087 0.286349,0 0.652237,-0.190899 0.381797,-0.190898 0.715868,-0.588604 0.349982,-0.397704 0.62042,-1.002217 0.286349,-0.604511 0.397706,-1.431738 0.03182,-0.222714 0.206807,-0.365888 0.17499,-0.159087 0.413613,-0.159087 0.222715,0 0.381797,0.17499 0.174989,0.17499 0.190898,0.397706 0.01588,0.302255 0.06363,0.859042 0.04773,0.540878 0.206807,1.081757 0.17499,0.54088 0.509061,0.938584 0.334073,0.397705 0.922677,0.397705 0.381796,0 0.747686,-0.206807 0.381795,-0.206805 0.731776,-0.540878 0.365889,-0.34998 0.684053,-0.779501 0.334071,-0.44543 0.604511,-0.89086 0.27044,-0.44543 0.477246,-0.859042 0.206807,-0.413615 0.349981,-0.71587 0.07953,-0.17499 0.222714,-0.27044 0.159087,-0.09546 0.334073,-0.09546 0.27044,0 0.429521,0.206807 0.17499,0.190899 0.17499,0.413613 0,0.111359 -0.04773,0.222714 z"
       style="font-size:17.6389px;line-height:1.25;font-family:Sacramento;-inkscape-font-specification:Sacramento;text-align:center;text-anchor:middle;fill:#5695af;stroke-width:0.488697"
       id="path1016" />
    <path
       d="m 66.296569,13.673926 q 0,0.604511 -0.429521,1.034032 -0.413612,0.413614 -1.018124,0.413614 -0.604512,0 -1.034034,-0.413614 -0.413612,-0.429521 -0.413612,-1.034032 0,-0.302256 0.111359,-0.556787 0.111359,-0.27044 0.302255,-0.461339 0.206807,-0.206807 0.461339,-0.318164 0.27044,-0.111359 0.572695,-0.111359 0.302256,0 0.556787,0.111359 0.270438,0.111359 0.461337,0.318164 0.206807,0.190899 0.318164,0.461339 0.111359,0.254531 0.111359,0.556787 z m -2.577127,9.322204 q 0,-2.29078 0.286347,-4.565654 0.03183,-0.222714 0.190898,-0.381797 0.17499,-0.17499 0.44543,-0.17499 0.238623,0 0.397706,0.190899 0.159087,0.17499 0.159087,0.413614 0,0.09546 -0.04773,0.572694 -0.03183,0.477247 -0.09546,1.145391 -0.04773,0.652237 -0.09546,1.399923 -0.03182,0.731776 -0.03182,1.352196 0,0.843134 0.159086,1.368105 0.17499,0.509063 0.429522,0.79541 0.27044,0.286347 0.556787,0.381797 0.302255,0.09546 0.572695,0.09546 0.44543,0 0.922675,-0.318165 0.477246,-0.318162 0.9704,-0.890858 0.509063,-0.572695 1.018125,-1.368105 0.509063,-0.811318 1.002217,-1.797626 0.07953,-0.159087 0.222714,-0.238625 0.143165,-0.09546 0.318164,-0.09546 0.254532,0 0.413615,0.190898 0.174989,0.190899 0.174989,0.413613 0,0.159086 -0.06363,0.27044 -0.190898,0.365888 -0.477245,0.89086 -0.286349,0.524969 -0.652237,1.081756 -0.365888,0.556787 -0.811318,1.113574 -0.429521,0.54088 -0.922675,0.98631 -0.493155,0.429521 -1.034035,0.699959 -0.540878,0.27044 -1.097665,0.27044 -0.715868,0 -1.256748,-0.302255 -0.540878,-0.302256 -0.922675,-0.811319 -0.365889,-0.509062 -0.556787,-1.193115 -0.17499,-0.699961 -0.17499,-1.495371 z m 1.686269,-9.322204 q 0,-0.222716 -0.174989,-0.381798 -0.159087,-0.174989 -0.381798,-0.174989 -0.222715,0 -0.381797,0.174989 -0.159086,0.159087 -0.159086,0.381798 0,0.222714 0.159086,0.381797 0.159087,0.159086 0.381797,0.159086 0.222715,0 0.381798,-0.159086 0.174989,-0.159087 0.174989,-0.381797 z"
       style="font-size:17.6389px;line-height:1.25;font-family:Sacramento;-inkscape-font-specification:Sacramento;text-align:center;text-anchor:middle;fill:#5695af;stroke-width:0.488697"
       id="path1018" />
    <path
       d="m 74.075679,24.730124 q 0.254531,-0.52497 0.588604,-1.145389 0.334071,-0.636329 0.715868,-1.272657 0.381797,-0.652237 0.79541,-1.288564 0.429523,-0.636328 0.89086,-1.209024 0.461338,-0.556787 0.922675,-0.79541 0.477247,-0.254531 0.89086,-0.254531 0.827227,0 1.224931,0.604511 0.397705,0.604513 0.397705,1.495371 0,0.206807 -0.03182,0.509063 -0.01589,0.286347 -0.04773,0.620419 -0.01588,0.334073 -0.04773,0.684053 -0.01588,0.334073 -0.01588,0.636328 0,0.381798 0.03182,0.731777 0.04773,0.349982 0.159087,0.62042 0.111358,0.254531 0.318164,0.413614 0.206807,0.143165 0.540878,0.143165 0.604513,0 1.177207,-0.461336 0.572695,-0.477247 1.049942,-1.113574 0.493155,-0.652237 0.843134,-1.320381 0.365889,-0.668146 0.540878,-1.081758 0.07953,-0.17499 0.222716,-0.27044 0.159087,-0.09546 0.334071,-0.09546 0.27044,0 0.429523,0.206807 0.17499,0.190899 0.17499,0.413613 0,0.111359 -0.04773,0.222714 -0.06363,0.127262 -0.254529,0.524971 -0.190899,0.397706 -0.509063,0.922675 -0.302255,0.509063 -0.71587,1.097667 -0.413612,0.572694 -0.922675,1.049941 -0.493154,0.477246 -1.081758,0.79541 -0.572694,0.318164 -1.209022,0.318164 -0.71587,0 -1.1613,-0.27044 -0.445428,-0.286347 -0.69996,-0.731777 -0.254531,-0.461338 -0.349981,-1.002217 -0.07953,-0.556786 -0.07953,-1.113573 0,-0.238623 0.01588,-0.540879 0.03182,-0.302257 0.06363,-0.636328 0.04773,-0.334073 0.06363,-0.668144 0.03183,-0.334073 0.03183,-0.636328 0,-0.509063 -0.159087,-0.684053 -0.159086,-0.190898 -0.286347,-0.190898 -0.254531,0 -0.588604,0.302255 -0.318162,0.286347 -0.684052,0.763594 -0.34998,0.477246 -0.731777,1.081757 -0.365888,0.588604 -0.699961,1.177206 -0.318163,0.588605 -0.604511,1.129483 -0.27044,0.524971 -0.429522,0.874951 -0.318164,0.668146 -0.636328,0.89086 -0.318164,0.238622 -0.652235,0.238622 -0.461339,0 -0.747686,-0.27044 -0.27044,-0.286347 -0.27044,-0.795409 0,-0.111359 0.03182,-0.429521 0.03182,-0.334073 0.07953,-0.779501 0.04773,-0.461339 0.09546,-0.98631 0.04773,-0.52497 0.09546,-1.034033 0.04773,-0.524969 0.07953,-0.970399 0.03181,-0.44543 0.03181,-0.747685 0,-0.397706 -0.03181,-0.763595 -0.03183,-0.365888 -0.127262,-0.445429 -0.143165,0.04773 -0.509063,0.604511 -0.365888,0.54088 -0.938584,1.924892 -0.07953,0.17499 -0.238623,0.27044 -0.159086,0.09546 -0.334073,0.09546 -0.270438,0 -0.429521,-0.174989 -0.159086,-0.190899 -0.159086,-0.429522 0,-0.111358 0.04773,-0.238622 0.71587,-1.702178 1.33629,-2.497588 0.636327,-0.811318 1.256746,-0.811318 0.365891,0 0.62042,0.190898 0.254531,0.17499 0.397706,0.477248 0.159087,0.302255 0.222716,0.668143 0.07953,0.365889 0.07953,0.747686 0,0.286347 -0.04773,0.89086 -0.03182,0.604511 -0.09546,1.304472 -0.06363,0.684053 -0.127262,1.368105 -0.04773,0.684053 -0.09546,1.145389 z"
       style="font-size:17.6389px;line-height:1.25;font-family:Sacramento;-inkscape-font-specification:Sacramento;text-align:center;text-anchor:middle;fill:#5695af;stroke-width:0.488697"
       id="path1020" />
    <path
       d="m 39.951144,36.320474 q 0,0.239061 -0.169859,0.40892 -0.163568,0.163568 -0.402629,0.163568 -0.239062,0 -0.408921,-0.163568 -0.163568,-0.169859 -0.163568,-0.40892 0,-0.11953 0.04404,-0.220187 0.04404,-0.106949 0.119531,-0.182442 0.08178,-0.08178 0.182442,-0.125822 0.106947,-0.04404 0.226479,-0.04404 0.11953,0 0.220187,0.04404 0.106948,0.04404 0.182441,0.125822 0.08179,0.07549 0.125822,0.182442 0.04404,0.100657 0.04404,0.220187 z m -1.019155,3.686574 q 0,-0.905915 0.113239,-1.80554 0.01259,-0.08807 0.07549,-0.150986 0.0692,-0.0692 0.176151,-0.0692 0.09437,0 0.157277,0.07549 0.06291,0.0692 0.06291,0.163568 0,0.03775 -0.01888,0.226479 -0.01258,0.188733 -0.03775,0.452958 -0.01888,0.257934 -0.03775,0.553615 -0.01259,0.28939 -0.01259,0.534742 0,0.333427 0.06291,0.541033 0.0692,0.201315 0.169859,0.314554 0.106949,0.11324 0.220188,0.150986 0.119531,0.03775 0.226479,0.03775 0.176151,0 0.364883,-0.125822 0.188732,-0.125821 0.383756,-0.3523 0.201314,-0.226479 0.402629,-0.541033 0.201315,-0.320846 0.396338,-0.710893 0.03145,-0.06291 0.08808,-0.09437 0.05662,-0.03775 0.125822,-0.03775 0.100657,0 0.163569,0.07549 0.0692,0.07549 0.0692,0.163567 0,0.06291 -0.02516,0.106949 -0.07549,0.144695 -0.188733,0.352301 -0.113239,0.207605 -0.257934,0.427793 -0.144695,0.220188 -0.320845,0.440376 -0.16986,0.213897 -0.364883,0.390047 -0.195024,0.16986 -0.408921,0.276808 -0.213896,0.106948 -0.434084,0.106948 -0.283099,0 -0.496996,-0.11953 -0.213896,-0.119531 -0.364883,-0.320845 -0.144694,-0.201315 -0.220187,-0.471832 -0.0692,-0.276808 -0.0692,-0.591362 z m 0.666855,-3.686574 q 0,-0.08807 -0.0692,-0.150986 -0.06291,-0.0692 -0.150985,-0.0692 -0.08808,0 -0.150986,0.0692 -0.06291,0.06291 -0.06291,0.150986 0,0.08808 0.06291,0.150986 0.06291,0.06291 0.150986,0.06291 0.08807,0 0.150985,-0.06291 0.0692,-0.06291 0.0692,-0.150986 z"
       style="font-size:17.6389px;line-height:1.25;font-family:Sacramento;-inkscape-font-specification:Sacramento;text-align:center;text-anchor:middle;fill:#5695af;stroke-width:0.193261"
       id="path1022" />
    <path
       d="m 42.329173,38.931274 q -0.03775,0.100657 -0.09437,0.226478 -0.05033,0.125822 -0.11953,0.264226 -0.05662,0.106948 -0.119531,0.169859 -0.05662,0.05662 -0.150986,0.05662 -0.106948,0 -0.16986,-0.06291 -0.06291,-0.0692 -0.06291,-0.157278 0,-0.03145 0.0063,-0.05033 0.0063,-0.02516 0.03145,-0.07549 0.163568,-0.314555 0.239061,-0.547324 0.08178,-0.239061 0.132112,-0.496996 -0.04404,-0.144695 -0.06291,-0.245352 -0.01888,-0.100657 -0.01888,-0.207606 0,-0.207605 0.08808,-0.333427 0.08808,-0.132113 0.245352,-0.132113 0.144695,0 0.226479,0.125822 0.08808,0.125821 0.08808,0.308263 0,0.100657 -0.01887,0.201315 -0.01887,0.100656 -0.05033,0.251643 0.144695,0.358592 0.28939,0.635399 0.144696,0.276808 0.257935,0.509578 0.113239,0.226479 0.182441,0.427793 0.07549,0.201315 0.07549,0.40263 0,0.264225 -0.106948,0.503286 -0.106949,0.239061 -0.352301,0.402629 0.03145,0.0063 0.06291,0.0063 0.03145,0 0.06291,0 0.358592,0 0.660564,-0.163568 0.301972,-0.163568 0.541033,-0.421502 0.245352,-0.264226 0.434085,-0.57878 0.188732,-0.320846 0.327136,-0.6354 0.06291,-0.144694 0.17615,-0.144694 0.106949,0 0.163569,0.07549 0.06291,0.07549 0.06291,0.163568 0,0.05033 -0.01888,0.09437 -0.0692,0.16986 -0.182442,0.390047 -0.106948,0.213897 -0.264225,0.446667 -0.150986,0.226479 -0.352301,0.446667 -0.201315,0.220187 -0.452957,0.396338 -0.245352,0.169859 -0.541033,0.270516 -0.295681,0.106949 -0.647982,0.106949 -0.421503,0 -0.786385,-0.150986 -0.358592,-0.144695 -0.585071,-0.484413 -0.03775,-0.05662 -0.03775,-0.119531 0,-0.09437 0.0692,-0.163568 0.07549,-0.07549 0.169859,-0.07549 0.100657,0 0.16986,0.0692 0.0063,0.01259 0.04404,0.04404 0.03775,0.02516 0.08808,0.06291 0.05662,0.03145 0.125822,0.05662 0.07549,0.02516 0.150986,0.02516 0.150986,0 0.251643,-0.06291 0.106948,-0.06291 0.169859,-0.150987 0.06291,-0.09437 0.08807,-0.195023 0.03145,-0.106948 0.03145,-0.182441 0,-0.157277 -0.05033,-0.314554 -0.05033,-0.157277 -0.132113,-0.314555 -0.07549,-0.157276 -0.16986,-0.320845 -0.08807,-0.169859 -0.163567,-0.3523 z"
       style="font-size:17.6389px;line-height:1.25;font-family:Sacramento;-inkscape-font-specification:Sacramento;text-align:center;text-anchor:middle;fill:#5695af;stroke-width:0.193261"
       id="path1024" />
    <path
       d="m 52.143262,39.510053 q -0.01888,0.327136 -0.08808,0.660563 -0.0692,0.327137 -0.220188,0.591362 -0.144695,0.264226 -0.383757,0.434085 -0.23906,0.163568 -0.591361,0.163568 -0.220188,0 -0.390047,-0.0692 -0.163568,-0.06291 -0.28939,-0.169859 -0.11953,-0.11324 -0.201315,-0.251643 -0.08178,-0.144695 -0.138403,-0.301972 -0.220188,0.364882 -0.52216,0.566197 -0.295681,0.195024 -0.591362,0.195024 -0.239061,0 -0.434084,-0.08807 -0.188733,-0.08808 -0.327137,-0.245353 -0.132113,-0.163567 -0.207606,-0.390047 -0.07549,-0.226479 -0.07549,-0.509578 0,-0.47183 0.08178,-0.811549 0.08807,-0.34601 0.188733,-0.566198 0.106948,-0.220188 0.195023,-0.327135 0.08808,-0.11324 0.08808,-0.11324 0.03145,-0.03775 0.07549,-0.05662 0.05033,-0.01887 0.100657,-0.01887 0.100658,0 0.163568,0.07549 0.0692,0.0692 0.0692,0.163568 0,0.0692 -0.05033,0.150986 -0.02516,0.03775 -0.100658,0.144695 -0.0692,0.106948 -0.144695,0.28939 -0.07549,0.182441 -0.138403,0.446667 -0.05662,0.264225 -0.05662,0.622816 0,0.371174 0.150986,0.566198 0.150986,0.188733 0.421502,0.188733 0.132113,0 0.28939,-0.0692 0.157277,-0.07549 0.295681,-0.226479 0.138404,-0.150986 0.239061,-0.383756 0.100657,-0.23277 0.125821,-0.547324 l 0.08179,-1.082066 q 0.0063,-0.09437 0.07549,-0.157278 0.07549,-0.06291 0.169859,-0.06291 0.106948,0 0.169859,0.08178 0.06291,0.07549 0.06291,0.17615 l -0.0692,1.038029 q -0.01888,0.333427 0.01887,0.572489 0.04404,0.239061 0.138404,0.396337 0.09437,0.150986 0.23277,0.22648 0.138404,0.0692 0.308263,0.0692 0.226479,0 0.383756,-0.132112 0.157277,-0.132113 0.251643,-0.358592 0.09437,-0.226478 0.132113,-0.522159 0.04404,-0.301972 0.04404,-0.6354 0,-0.396338 -0.04404,-0.660564 -0.04404,-0.264225 -0.04404,-0.3523 0,-0.09437 0.0692,-0.163568 0.0692,-0.07549 0.169859,-0.07549 0.08808,0 0.150986,0.05662 0.06291,0.05033 0.08178,0.138404 0.0063,0.02516 0.03775,0.144694 0.03145,0.119532 0.08808,0.289391 0.05662,0.163568 0.144696,0.3523 0.09437,0.182442 0.220188,0.339719 0.132112,0.157277 0.295681,0.264225 0.169859,0.100658 0.383755,0.100658 0.119531,0 0.201315,-0.04404 0.08807,-0.05033 0.144695,-0.11324 0.05662,-0.06291 0.08178,-0.11953 0.03145,-0.05662 0.03775,-0.0692 0.03145,-0.0692 0.08808,-0.106948 0.06291,-0.04404 0.132113,-0.04404 0.106949,0 0.169859,0.08178 0.0692,0.07549 0.0692,0.163568 0,0.07549 -0.0692,0.201314 -0.06291,0.125822 -0.182441,0.245353 -0.119531,0.113239 -0.295681,0.201314 -0.169859,0.08178 -0.377465,0.08178 -0.182442,0 -0.339718,-0.05033 -0.157277,-0.05662 -0.295681,-0.144695 -0.132113,-0.08807 -0.245352,-0.201315 -0.11324,-0.113239 -0.207606,-0.239061 z"
       style="font-size:17.6389px;line-height:1.25;font-family:Sacramento;-inkscape-font-specification:Sacramento;text-align:center;text-anchor:middle;fill:#5695af;stroke-width:0.193261"
       id="path1026" />
    <path
       d="m 54.200445,40.724232 q 0.100658,-0.213897 0.232771,-0.459249 0.132113,-0.251643 0.283098,-0.509578 0.150986,-0.264225 0.320845,-0.52216 0.16986,-0.257934 0.352301,-0.484413 0.182442,-0.220188 0.364883,-0.314554 0.188733,-0.100657 0.3523,-0.100657 0.163568,0 0.2831,0.0692 0.125821,0.06291 0.201314,0.176151 0.08178,0.113239 0.11953,0.264225 0.04404,0.150986 0.04404,0.327137 0,0.144694 -0.03145,0.390047 -0.02516,0.23906 -0.02516,0.503286 0,0.150986 0.01259,0.301972 0.01887,0.144695 0.05662,0.264226 0.04404,0.113239 0.125821,0.188732 0.08178,0.0692 0.213897,0.0692 0.150986,0 0.301972,-0.08178 0.150986,-0.08807 0.295681,-0.226479 0.144695,-0.144695 0.276808,-0.314554 0.132113,-0.17615 0.239061,-0.346009 0.106948,-0.176151 0.188733,-0.333428 0.08178,-0.163568 0.132112,-0.270517 0.06291,-0.144694 0.220188,-0.144694 0.106948,0 0.169859,0.07549 0.06291,0.07549 0.06291,0.163567 0,0.05033 -0.01888,0.09437 -0.02516,0.05033 -0.100657,0.207606 -0.0692,0.157277 -0.195024,0.364882 -0.119531,0.207606 -0.283099,0.434085 -0.163568,0.226479 -0.364883,0.421502 -0.195023,0.188733 -0.427793,0.314555 -0.22648,0.11953 -0.478122,0.11953 -0.289391,0 -0.46554,-0.11953 -0.176151,-0.125822 -0.276808,-0.314555 -0.09437,-0.188732 -0.132113,-0.421502 -0.03145,-0.23277 -0.03145,-0.452958 0,-0.113239 0.0063,-0.239061 0.01258,-0.132113 0.02516,-0.257934 0.01259,-0.125822 0.01887,-0.23277 0.01259,-0.11324 0.01259,-0.188733 0,-0.195024 -0.05662,-0.264225 -0.05033,-0.0692 -0.11953,-0.0692 -0.100658,0 -0.232771,0.11953 -0.125821,0.11324 -0.270516,0.301972 -0.138404,0.188733 -0.283098,0.427794 -0.138404,0.23277 -0.270517,0.46554 -0.132113,0.23277 -0.239061,0.446667 -0.106948,0.207606 -0.17615,0.346009 -0.132113,0.264225 -0.270517,0.352301 -0.132113,0.09437 -0.239061,0.09437 -0.195024,0 -0.301972,-0.150986 -0.100657,-0.157277 -0.100657,-0.377464 v -0.396339 q 0,-1.189014 0,-2.264789 0.0063,-1.082066 0.03145,-2.006856 0.03145,-0.93108 0.09437,-1.679719 0.0692,-0.75493 0.201314,-1.283381 0.132113,-0.534742 0.333427,-0.824131 0.207606,-0.28939 0.515869,-0.28939 0.264225,0 0.446667,0.144695 0.182442,0.144695 0.295681,0.396338 0.113239,0.245352 0.163568,0.578779 0.05033,0.327137 0.05033,0.692019 0,0.742348 -0.138404,1.459532 -0.132113,0.710892 -0.358592,1.390329 -0.226478,0.679437 -0.52845,1.327418 -0.301972,0.64169 -0.635399,1.251926 0,0.113239 0,0.270516 0,0.157277 0,0.314554 0,0.157277 0,0.295681 0,0.138404 0,0.220188 z m 0,-2.32141 q 0.264226,-0.578779 0.478123,-1.126103 0.220188,-0.553616 0.371174,-1.100939 0.157277,-0.547325 0.245352,-1.107231 0.08807,-0.566197 0.08807,-1.176433 0,-0.100657 -0.01258,-0.320845 -0.0063,-0.220188 -0.05662,-0.446667 -0.04404,-0.226478 -0.144695,-0.396338 -0.09437,-0.169859 -0.270516,-0.169859 -0.138404,0 -0.239061,0.188733 -0.100658,0.18244 -0.176151,0.503286 -0.07549,0.314554 -0.125821,0.736056 -0.05033,0.421503 -0.08179,0.893334 -0.03145,0.471831 -0.05033,0.968827 -0.01259,0.496996 -0.01888,0.968827 -0.0063,0.46554 -0.0063,0.87446 0,0.40892 0,0.710892 z"
       style="font-size:17.6389px;line-height:1.25;font-family:Sacramento;-inkscape-font-specification:Sacramento;text-align:center;text-anchor:middle;fill:#5695af;stroke-width:0.193261"
       id="path1028" />
    <path
       d="m 63.404299,39.503762 q -0.02516,0.05033 -0.106948,0.213897 -0.07549,0.157276 -0.201314,0.364882 -0.119531,0.207606 -0.283099,0.434085 -0.163568,0.226479 -0.364883,0.415211 -0.201314,0.188733 -0.434085,0.314555 -0.23277,0.11953 -0.490704,0.11953 -0.364883,0 -0.616526,-0.23277 -0.245352,-0.23277 -0.358592,-0.58507 -0.213897,0.358591 -0.509578,0.572488 -0.29568,0.207606 -0.591361,0.207606 -0.23277,0 -0.421503,-0.08178 -0.188732,-0.08808 -0.320845,-0.239062 -0.132112,-0.157276 -0.207605,-0.364882 -0.0692,-0.207606 -0.0692,-0.452958 0,-0.490705 0.163568,-0.861878 0.169859,-0.377465 0.427794,-0.629109 0.257934,-0.251643 0.566197,-0.377465 0.314554,-0.125821 0.603944,-0.125821 0.195023,0 0.358591,0.05662 0.163569,0.05033 0.276808,0.11324 0.11953,0.06291 0.182441,0.119531 0.06291,0.05033 0.0692,0.05662 0.0692,0.08178 0.0692,0.169859 0,0.09437 -0.0692,0.16986 -0.0692,0.0692 -0.163568,0.0692 -0.100657,0 -0.169859,-0.0692 -0.01259,-0.01259 -0.05662,-0.04404 -0.04404,-0.03775 -0.119531,-0.07549 -0.07549,-0.03775 -0.182441,-0.06291 -0.100658,-0.03145 -0.23277,-0.03145 -0.195023,0 -0.415212,0.08808 -0.220188,0.08807 -0.402629,0.276807 -0.182442,0.182441 -0.308263,0.46554 -0.119531,0.276808 -0.119531,0.660564 0,0.11953 0.02516,0.245352 0.02516,0.119531 0.08807,0.220188 0.06291,0.100657 0.16986,0.163568 0.106948,0.06291 0.264225,0.06291 0.113239,0 0.257934,-0.07549 0.150986,-0.07549 0.283099,-0.232771 0.138404,-0.157276 0.245352,-0.396338 0.113239,-0.239061 0.157277,-0.566197 0.01259,-0.08808 0.08178,-0.144695 0.0692,-0.06291 0.163569,-0.06291 0.08808,0 0.150986,0.0692 0.0692,0.0692 0.07549,0.157277 0.0063,0.119531 0.02516,0.339718 0.01887,0.213897 0.08178,0.427794 0.0692,0.213897 0.201315,0.371173 0.132113,0.157278 0.364882,0.157278 0.150986,0 0.295681,-0.08178 0.150986,-0.08178 0.28939,-0.213897 0.144695,-0.138404 0.270516,-0.308263 0.132113,-0.17615 0.239062,-0.352301 0.106948,-0.17615 0.188732,-0.339718 0.08178,-0.163568 0.138404,-0.283099 0.03145,-0.0692 0.08807,-0.106949 0.06291,-0.03775 0.132113,-0.03775 0.106948,0 0.16986,0.08178 0.0692,0.07549 0.0692,0.163568 0,0.04404 -0.01887,0.08807 z"
       style="font-size:17.6389px;line-height:1.25;font-family:Sacramento;-inkscape-font-specification:Sacramento;text-align:center;text-anchor:middle;fill:#5695af;stroke-width:0.193261"
       id="path1030" />
    <path
       d="m 68.06599,34.9616 q 0,0.100658 -0.0692,0.163568 -0.0692,0.05662 -0.169859,0.05662 h -3.189579 v 0.0692 q 0,0.383757 -0.05662,0.817841 -0.05662,0.434085 -0.157277,0.86817 -0.09437,0.427793 -0.220188,0.836714 -0.11953,0.40892 -0.251643,0.754929 -0.125822,0.34601 -0.251644,0.603944 -0.125821,0.251643 -0.226479,0.377465 0.08178,0.28939 0.195024,0.541033 0.11324,0.245352 0.251643,0.434085 0.144695,0.182441 0.308264,0.28939 0.163568,0.106948 0.3523,0.106948 0.220188,0 0.434085,-0.182441 0.220188,-0.188732 0.402629,-0.440376 0.188733,-0.257934 0.327136,-0.515868 0.144695,-0.264226 0.207606,-0.421503 0.06291,-0.150986 0.220188,-0.150986 0.106948,0 0.169859,0.07549 0.0692,0.07549 0.0692,0.163568 0,0.04404 -0.01887,0.08808 -0.01887,0.04404 -0.09437,0.201314 -0.0692,0.157278 -0.188733,0.364884 -0.113239,0.207605 -0.270516,0.440375 -0.150986,0.22648 -0.34601,0.415212 -0.188732,0.188732 -0.40892,0.314554 -0.220188,0.125821 -0.46554,0.125821 -0.434085,0 -0.780095,-0.283098 -0.346008,-0.283099 -0.591361,-0.792676 -0.239061,-0.509579 -0.364883,-1.207888 -0.125822,-0.698311 -0.125822,-1.528733 0,-0.207606 0.0063,-0.484413 0.0063,-0.2831 0.02516,-0.591362 0.01887,-0.314555 0.05662,-0.641691 0.03775,-0.333427 0.100657,-0.647981 h -2.258499 q -0.100656,0 -0.169859,-0.05662 -0.0692,-0.06291 -0.0692,-0.163568 0,-0.100657 0.0692,-0.157277 0.0692,-0.06291 0.169859,-0.06291 H 63.052 q 0.06291,-0.226479 0.144696,-0.415211 0.08807,-0.188733 0.195023,-0.327136 0.11324,-0.138404 0.245353,-0.213897 0.138403,-0.08178 0.301971,-0.08178 0.157277,0 0.270516,0.08178 0.119532,0.07549 0.201315,0.213897 0.08179,0.138403 0.125822,0.327136 0.05033,0.188732 0.07549,0.415211 h 3.214744 q 0.100656,0 0.169859,0.06291 0.0692,0.05662 0.0692,0.157277 z m -4.737185,3.919345 q 0.188733,-0.415211 0.339718,-0.893334 0.157277,-0.484413 0.264226,-0.975117 0.113239,-0.490705 0.169859,-0.962536 0.06291,-0.471831 0.06291,-0.86817 H 63.42317 q -0.08808,0.390047 -0.144695,0.968827 -0.05033,0.572488 -0.05033,1.39662 0,0.459249 0.02516,0.773803 0.02516,0.308263 0.07549,0.559907 z m 0.58507,-4.70573 q -0.05662,0 -0.163568,0.125822 -0.106948,0.11953 -0.213896,0.440376 h 0.603943 q -0.03145,-0.264226 -0.09437,-0.415212 -0.05662,-0.150986 -0.132113,-0.150986 z m -0.484413,5.158687 v 0.0063 z"
       style="font-size:17.6389px;line-height:1.25;font-family:Sacramento;-inkscape-font-specification:Sacramento;text-align:center;text-anchor:middle;fill:#5695af;stroke-width:0.193261"
       id="path1032" />
    <path
       d="m 72.387966,39.516344 q -0.0692,0.144695 -0.17615,0.34601 -0.100658,0.195023 -0.23277,0.40892 -0.132113,0.213897 -0.295681,0.427794 -0.163568,0.207605 -0.358592,0.377465 -0.188733,0.163568 -0.408921,0.264225 -0.213896,0.106948 -0.459248,0.106948 -0.377465,0 -0.647982,-0.23277 -0.270517,-0.23277 -0.459249,-0.610235 -0.188733,-0.377465 -0.308263,-0.855587 -0.113239,-0.484413 -0.176151,-0.981409 -0.06291,-0.503286 -0.08807,-0.975117 -0.01888,-0.471832 -0.01888,-0.836714 0,-0.528452 0.03145,-1.094649 0.03775,-0.566198 0.113239,-1.107231 0.07549,-0.541033 0.188732,-1.025446 0.119531,-0.484413 0.276808,-0.849296 0.163568,-0.364883 0.371174,-0.578779 0.207606,-0.213897 0.471831,-0.213897 0.207605,0 0.371174,0.100657 0.169859,0.09437 0.283098,0.314554 0.11324,0.220188 0.176151,0.572489 0.06291,0.3523 0.06291,0.861878 0,0.629108 -0.132112,1.302254 -0.132113,0.666855 -0.358592,1.346292 -0.226478,0.679436 -0.534742,1.358874 -0.308262,0.673145 -0.660563,1.314835 0.157277,0.798968 0.421502,1.258217 0.264226,0.452958 0.6354,0.452958 0.251643,0 0.484413,-0.195023 0.23277,-0.201315 0.427794,-0.471832 0.195023,-0.270516 0.339718,-0.547324 0.150986,-0.283098 0.23277,-0.452957 0.03145,-0.06291 0.08808,-0.09437 0.05662,-0.03775 0.125822,-0.03775 0.106948,0 0.169859,0.07549 0.0692,0.07549 0.0692,0.169859 0,0.03775 -0.02516,0.100657 z m -3.151833,-2.529015 q 0,0.402629 0.01888,0.773803 0.01887,0.371174 0.05033,0.710892 0.264225,-0.509577 0.503286,-1.082066 0.239061,-0.578779 0.421503,-1.16385 0.182442,-0.591361 0.289389,-1.170141 0.11324,-0.585071 0.11324,-1.113522 0,-0.742348 -0.11953,-1.063193 -0.119531,-0.320845 -0.320845,-0.320845 -0.132113,0 -0.257935,0.182441 -0.11953,0.182442 -0.226479,0.496996 -0.106948,0.314554 -0.195024,0.742348 -0.08807,0.427793 -0.150986,0.918497 -0.05662,0.490705 -0.09437,1.025447 -0.03145,0.534742 -0.03145,1.063193 z"
       style="font-size:17.6389px;line-height:1.25;font-family:Sacramento;-inkscape-font-specification:Sacramento;text-align:center;text-anchor:middle;fill:#5695af;stroke-width:0.193261"
       id="path1034" />
    <path
       d="m 72.715101,40.566955 q 0.132113,0.182441 0.339719,0.29568 0.207605,0.106949 0.509577,0.106949 0.308263,0 0.559906,-0.144695 0.251644,-0.150986 0.45925,-0.390047 0.207605,-0.239061 0.371174,-0.534742 0.163568,-0.295681 0.29568,-0.591362 0.03145,-0.0692 0.08808,-0.100657 0.05662,-0.03775 0.125822,-0.03775 0.106948,0 0.169859,0.07549 0.0692,0.07549 0.0692,0.163568 0,0.03145 -0.0063,0.05662 -0.0063,0.01887 -0.01887,0.04404 -0.434085,0.956244 -0.949953,1.440658 -0.509579,0.484413 -1.15756,0.496995 -0.415211,0 -0.717183,-0.163568 -0.301972,-0.157276 -0.496996,-0.40892 -0.195023,-0.257935 -0.289389,-0.57878 -0.09437,-0.320845 -0.09437,-0.64169 0,-0.320845 0.07549,-0.591362 0.08178,-0.270517 0.226478,-0.471831 0.150986,-0.201314 0.352301,-0.314554 0.207606,-0.113239 0.452958,-0.113239 0.144695,0 0.283098,0.06291 0.144695,0.05662 0.257935,0.169859 0.113239,0.106949 0.182441,0.264226 0.0692,0.157277 0.0692,0.358592 0,0.257935 -0.08808,0.484413 -0.08808,0.226479 -0.245352,0.421503 -0.150986,0.195023 -0.364883,0.358592 -0.213897,0.163567 -0.459249,0.283098 z m -0.188733,-0.40892 q 0.195024,-0.08178 0.352301,-0.207606 0.163568,-0.125822 0.276808,-0.276808 0.113239,-0.150986 0.17615,-0.314554 0.06291,-0.169859 0.06291,-0.339719 0,-0.188732 -0.09437,-0.283098 -0.09437,-0.100657 -0.220188,-0.100657 -0.169859,0 -0.28939,0.09437 -0.11953,0.09437 -0.195023,0.245352 -0.07549,0.150986 -0.11324,0.339718 -0.03145,0.182442 -0.03145,0.364883 0,0.11324 0.01887,0.239062 0.02516,0.125821 0.05662,0.239061 z"
       style="font-size:17.6389px;line-height:1.25;font-family:Sacramento;-inkscape-font-specification:Sacramento;text-align:center;text-anchor:middle;fill:#5695af;stroke-width:0.193261"
       id="path1036" />
    <path
       d="m 80.346185,34.9616 q 0,0.100658 -0.0692,0.163568 -0.0692,0.05662 -0.169859,0.05662 h -3.189579 v 0.0692 q 0,0.383757 -0.05662,0.817841 -0.05662,0.434085 -0.157278,0.86817 -0.09437,0.427793 -0.220188,0.836714 -0.11953,0.40892 -0.251643,0.754929 -0.125822,0.34601 -0.251644,0.603944 -0.125821,0.251643 -0.226478,0.377465 0.08178,0.28939 0.195024,0.541033 0.113239,0.245352 0.251643,0.434085 0.144695,0.182441 0.308263,0.28939 0.163568,0.106948 0.352301,0.106948 0.220187,0 0.434084,-0.182441 0.220188,-0.188732 0.402629,-0.440376 0.188733,-0.257934 0.327136,-0.515868 0.144696,-0.264226 0.207606,-0.421503 0.06291,-0.150986 0.220188,-0.150986 0.106949,0 0.169859,0.07549 0.0692,0.07549 0.0692,0.163568 0,0.04404 -0.01887,0.08808 -0.01887,0.04404 -0.09437,0.201314 -0.0692,0.157278 -0.188732,0.364884 -0.11324,0.207605 -0.270516,0.440375 -0.150986,0.22648 -0.34601,0.415212 -0.188733,0.188732 -0.408921,0.314554 -0.220188,0.125821 -0.46554,0.125821 -0.434084,0 -0.780094,-0.283098 -0.346009,-0.283099 -0.591362,-0.792676 -0.23906,-0.509579 -0.364882,-1.207888 -0.125822,-0.698311 -0.125822,-1.528733 0,-0.207606 0.0063,-0.484413 0.0063,-0.2831 0.02516,-0.591362 0.01887,-0.314555 0.05662,-0.641691 0.03775,-0.333427 0.100657,-0.647981 h -2.258513 q -0.100658,0 -0.169859,-0.05662 -0.0692,-0.06291 -0.0692,-0.163568 0,-0.100657 0.0692,-0.157277 0.0692,-0.06291 0.169859,-0.06291 h 2.365447 q 0.06291,-0.226479 0.144695,-0.415211 0.08807,-0.188733 0.195023,-0.327136 0.113239,-0.138404 0.245352,-0.213897 0.138404,-0.08178 0.301972,-0.08178 0.157277,0 0.270517,0.08178 0.11953,0.07549 0.201315,0.213897 0.08178,0.138403 0.125822,0.327136 0.05033,0.188732 0.07549,0.415211 h 3.214743 q 0.100658,0 0.169859,0.06291 0.0692,0.05662 0.0692,0.157277 z M 75.609,38.880945 q 0.188733,-0.415211 0.339719,-0.893334 0.157276,-0.484413 0.264225,-0.975117 0.113239,-0.490705 0.169859,-0.962536 0.06291,-0.471831 0.06291,-0.86817 h -0.74235 q -0.08808,0.390047 -0.144694,0.968827 -0.05033,0.572488 -0.05033,1.39662 0,0.459249 0.02516,0.773803 0.02516,0.308263 0.07549,0.559907 z m 0.585071,-4.70573 q -0.05662,0 -0.163569,0.125822 -0.106948,0.11953 -0.213896,0.440376 H 76.42055 Q 76.3891,34.477187 76.32618,34.326201 76.26956,34.175215 76.194068,34.175215 Z m -0.484414,5.158687 v 0.0063 z"
       style="font-size:17.6389px;line-height:1.25;font-family:Sacramento;-inkscape-font-specification:Sacramento;text-align:center;text-anchor:middle;fill:#5695af;stroke-width:0.193261"
       id="path1038" />
    <path
       d="m 78.955855,38.931274 q -0.03775,0.100657 -0.09437,0.226478 -0.05033,0.125822 -0.119532,0.264226 -0.05662,0.106948 -0.11953,0.169859 -0.05662,0.05662 -0.150986,0.05662 -0.106948,0 -0.169859,-0.06291 -0.06291,-0.0692 -0.06291,-0.157278 0,-0.03145 0.0063,-0.05033 0.0063,-0.02516 0.03145,-0.07549 0.163569,-0.314555 0.239062,-0.547324 0.08178,-0.239061 0.132112,-0.496996 -0.04404,-0.144695 -0.06291,-0.245352 -0.01888,-0.100657 -0.01888,-0.207606 0,-0.207605 0.08808,-0.333427 0.08808,-0.132113 0.245352,-0.132113 0.144695,0 0.226479,0.125822 0.08807,0.125821 0.08807,0.308263 0,0.100657 -0.01887,0.201315 -0.01887,0.100656 -0.05033,0.251643 0.144695,0.358592 0.28939,0.635399 0.144695,0.276808 0.257935,0.509578 0.113239,0.226479 0.182441,0.427793 0.07549,0.201315 0.07549,0.40263 0,0.264225 -0.106948,0.503286 -0.106949,0.239061 -0.352301,0.402629 0.03145,0.0063 0.06291,0.0063 0.03145,0 0.06291,0 0.358592,0 0.660564,-0.163568 0.301972,-0.163568 0.541033,-0.421502 0.245352,-0.264226 0.434084,-0.57878 0.188733,-0.320846 0.327137,-0.6354 0.06291,-0.144694 0.17615,-0.144694 0.106949,0 0.163568,0.07549 0.06291,0.07549 0.06291,0.163568 0,0.05033 -0.01888,0.09437 -0.0692,0.16986 -0.182441,0.390047 -0.106949,0.213897 -0.264226,0.446667 -0.150986,0.226479 -0.352301,0.446667 -0.201314,0.220187 -0.452958,0.396338 -0.245352,0.169859 -0.541033,0.270516 -0.295681,0.106949 -0.647981,0.106949 -0.421502,0 -0.786385,-0.150986 -0.358592,-0.144695 -0.585071,-0.484413 -0.03775,-0.05662 -0.03775,-0.119531 0,-0.09437 0.0692,-0.163568 0.07549,-0.07549 0.16986,-0.07549 0.100657,0 0.169859,0.0692 0.0063,0.01259 0.04404,0.04404 0.03775,0.02516 0.08807,0.06291 0.05662,0.03145 0.125821,0.05662 0.07549,0.02516 0.150987,0.02516 0.150986,0 0.251643,-0.06291 0.106948,-0.06291 0.169859,-0.150987 0.06291,-0.09437 0.08808,-0.195023 0.03145,-0.106948 0.03145,-0.182441 0,-0.157277 -0.05033,-0.314554 -0.05033,-0.157277 -0.132113,-0.314555 -0.07549,-0.157276 -0.169859,-0.320845 -0.08808,-0.169859 -0.163568,-0.3523 z"
       style="font-size:17.6389px;line-height:1.25;font-family:Sacramento;-inkscape-font-specification:Sacramento;text-align:center;text-anchor:middle;fill:#5695af;stroke-width:0.193261"
       id="path1040" />
    <path
       d="m 22.90599,40.226759 q 0.330375,0 0.709335,0.07773 0.388676,0.06802 0.719051,0.242923 0.330375,0.165187 0.544146,0.456695 0.213773,0.281789 0.213773,0.709334 0,0.524712 -0.310941,0.952257 -0.301224,0.427544 -0.855089,0.738485 -0.553863,0.301224 -1.331216,0.476128 -0.767635,0.165188 -1.700459,0.165188 -1.049425,0 -2.273756,-0.145753 -0.223489,0.699616 -0.340092,1.564422 -0.106886,0.864805 -0.116603,1.923947 0.369242,-0.0097 0.748202,-0.0097 0.388676,-0.0097 0.796786,-0.0097 0.544147,0 1.098011,0.01944 0.553864,0.0097 1.117445,0.02915 0.165188,0.0097 0.252639,0.12632 0.09717,0.106886 0.09717,0.252639 0,0.155471 -0.106886,0.252641 -0.106886,0.09717 -0.25264,0.09717 -0.553864,0 -1.107728,-0.01944 -0.544146,-0.01943 -1.078576,-0.01943 -0.408111,0 -0.796787,0.0097 -0.388676,0 -0.767636,0.0097 0,0.136038 0,0.262358 0.0097,0.126319 0.0097,0.262356 0,1.515838 -0.456695,2.701301 -0.456694,1.175746 -1.340933,1.982249 -0.874522,0.806503 -2.157154,1.22433 -1.282632,0.417827 -2.944223,0.417827 -1.224331,0 -2.1765882,-0.223489 Q 8.1557109,54.539776 7.4366598,54.180249 6.7273259,53.820724 6.2123291,53.373747 5.7070495,52.917052 5.3669578,52.460357 5.0268661,51.993946 4.8228117,51.566401 4.6187562,51.129141 4.5215876,50.8182 q -0.0097,-0.02915 -0.019439,-0.04858 0,-0.02915 0,-0.0583 0,-0.145755 0.1068858,-0.25264 0.1068858,-0.116603 0.2720736,-0.116603 0.116603,0 0.2040555,0.06802 0.097172,0.06802 0.1360362,0.184622 0.087458,0.272073 0.2623565,0.651032 0.174905,0.378961 0.4761291,0.78707 0.3109412,0.398393 0.7579187,0.796787 0.4566947,0.398392 1.0980106,0.709334 0.651033,0.310941 1.4964043,0.505279 0.8550871,0.194339 1.9628151,0.194339 3.05111,0 4.605815,-1.418669 1.564422,-1.418669 1.564422,-4.187988 0,-0.116603 -0.0097,-0.233206 0,-0.126319 0,-0.242922 -0.981408,0.03887 -1.807345,0.09717 -0.825938,0.04858 -1.447819,0.106886 -0.612166,0.04858 -0.991125,0.08745 -0.378959,0.02915 -0.466412,0.02915 -0.165188,0 -0.291507,-0.08745 -0.12632,-0.09717 -0.12632,-0.28179 0,-0.136037 0.09717,-0.233206 0.09717,-0.106886 0.233206,-0.126321 0.0097,0 0.369243,-0.03887 0.369243,-0.03887 1.010558,-0.08745 0.641316,-0.0583 1.515838,-0.106886 0.874522,-0.05831 1.904514,-0.09717 0.01944,-2.147436 0.446978,-3.61469 -1.059143,-0.15547 -2.157154,-0.369242 -1.09801,-0.223489 -2.186305,-0.466412 -1.088293,-0.24292 -2.147436,-0.476126 Q 10.342029,42.247895 9.3703379,42.053557 8.3986476,41.859219 7.5435591,41.742616 6.6884717,41.626013 5.9888539,41.626013 q -0.9814076,0 -1.8267789,0.204055 -0.845371,0.194338 -1.4672531,0.573298 -0.6121652,0.378959 -0.9716909,0.932822 -0.3498087,0.544148 -0.3498087,1.243765 0,0.456695 0.1651875,0.825937 0.1749043,0.359527 0.3886763,0.621883 0.213772,0.252639 0.3983932,0.398393 0.1846213,0.136037 0.2040551,0.145753 0.087452,0.04858 0.1263198,0.136037 0.038868,0.08745 0.038868,0.174904 0,0.165188 -0.1166029,0.272074 -0.1068858,0.09717 -0.2429228,0.09717 -0.1068858,0 -0.204055,-0.06802 Q 1.8980342,47.028595 1.6356777,46.775955 1.3733211,46.523316 1.1498323,46.202658 0.93606027,45.872283 0.79030672,45.464173 0.64455305,45.056062 0.64455305,44.579934 q 0,-0.874521 0.40811015,-1.554705 0.4178271,-0.680183 1.1368783,-1.156312 0.7190513,-0.476128 1.6907421,-0.719052 0.9814082,-0.252639 2.1182863,-0.252639 0.6704663,0 1.5255548,0.126319 0.8550874,0.116603 1.8364949,0.310941 0.9911244,0.194339 2.0697024,0.437262 1.088293,0.242922 2.215455,0.495562 1.127161,0.242922 2.264039,0.466411 1.136878,0.223489 2.225173,0.378959 0.272072,-0.757918 0.777352,-1.302064 0.514997,-0.553865 1.16603,-0.903674 0.651031,-0.349808 1.3798,-0.514995 0.738485,-0.165188 1.447819,-0.165188 z m 1.44782,1.467254 q 0,-0.233206 -0.155471,-0.369244 -0.145753,-0.145753 -0.369242,-0.223488 -0.223489,-0.08745 -0.476129,-0.116603 -0.242922,-0.02915 -0.446978,-0.02915 -0.466412,0 -1.039708,0.09717 -0.563582,0.09717 -1.127162,0.349809 -0.553864,0.25264 -1.049426,0.6899 -0.485845,0.437262 -0.796786,1.117445 1.078576,0.116603 1.991965,0.116603 0.748203,0 1.379801,-0.116603 0.641316,-0.12632 1.098011,-0.340091 0.466412,-0.213773 0.728768,-0.514997 0.262357,-0.301224 0.262357,-0.660751 z"
       style="font-size:17.6389px;line-height:1.25;font-family:Sacramento;-inkscape-font-specification:Sacramento;text-align:center;text-anchor:middle;fill:#5695af;stroke-width:0.298502"
       id="path1042" />
    <path
       d="m 30.310274,51.9162 q -0.106886,0.223489 -0.272073,0.53443 -0.155471,0.301224 -0.359527,0.631599 -0.204054,0.330375 -0.456694,0.66075 -0.25264,0.320657 -0.553864,0.583014 -0.291506,0.25264 -0.631598,0.408111 -0.330376,0.165186 -0.709335,0.165186 -0.583014,0 -1.000841,-0.359525 -0.417827,-0.359526 -0.709335,-0.94254 -0.291507,-0.583014 -0.476128,-1.3215 -0.174905,-0.748201 -0.272074,-1.515837 -0.09717,-0.777353 -0.136036,-1.506121 -0.02915,-0.728768 -0.02915,-1.292349 0,-0.81622 0.04858,-1.690742 0.05831,-0.874522 0.174904,-1.710176 0.116603,-0.835654 0.291508,-1.583856 0.184621,-0.748201 0.427544,-1.311783 0.252639,-0.56358 0.573296,-0.893955 0.320659,-0.330375 0.728769,-0.330375 0.320658,0 0.573297,0.155471 0.262357,0.145754 0.437262,0.485845 0.174904,0.340092 0.272073,0.884238 0.09717,0.544147 0.09717,1.331217 0,0.971691 -0.204055,2.011401 -0.204054,1.029992 -0.553863,2.079418 -0.349809,1.049425 -0.825937,2.098852 -0.476129,1.039709 -1.020277,2.030833 0.242924,1.234048 0.651033,1.943382 0.408111,0.699618 0.981409,0.699618 0.388676,0 0.748202,-0.301224 0.359525,-0.310941 0.66075,-0.728768 0.301224,-0.417827 0.524713,-0.845372 0.233206,-0.43726 0.359525,-0.699616 0.04858,-0.09717 0.136037,-0.145755 0.08745,-0.05831 0.194338,-0.05831 0.165187,0 0.262357,0.116603 0.106886,0.116603 0.106886,0.262356 0,0.0583 -0.03887,0.155471 z m -4.868171,-3.906197 q 0,0.621882 0.02915,1.195179 0.02915,0.573298 0.07773,1.098011 0.40811,-0.787069 0.777353,-1.671308 0.369242,-0.893955 0.651033,-1.797629 0.28179,-0.913389 0.446977,-1.807344 0.174904,-0.903672 0.174904,-1.719893 0,-1.146596 -0.184621,-1.642158 -0.184621,-0.495562 -0.495562,-0.495562 -0.204056,0 -0.398393,0.28179 -0.184622,0.281791 -0.349809,0.767636 -0.165188,0.485846 -0.301224,1.146596 -0.136037,0.660749 -0.233206,1.418668 -0.08746,0.757918 -0.145753,1.583856 -0.04858,0.825937 -0.04858,1.642158 z"
       style="font-size:17.6389px;line-height:1.25;font-family:Sacramento;-inkscape-font-specification:Sacramento;text-align:center;text-anchor:middle;fill:#5695af;stroke-width:0.298502"
       id="path1044" />
    <path
       d="m 34.12902,53.538923 q -0.242924,0 -0.427545,-0.03887 -0.145753,0.291508 -0.349809,0.544147 -0.204054,0.242923 -0.476128,0.427544 -0.262356,0.184621 -0.592732,0.291507 -0.330374,0.106886 -0.719051,0.106886 -0.456694,0 -0.835654,-0.165187 -0.378959,-0.15547 -0.660749,-0.437261 -0.281791,-0.291507 -0.437261,-0.689901 -0.155471,-0.40811 -0.155471,-0.893955 0,-0.621882 0.223489,-1.078577 0.223489,-0.466412 0.514997,-0.767636 0.291506,-0.310941 0.583013,-0.456695 0.291508,-0.15547 0.437262,-0.15547 0.165188,0 0.242922,0.08745 0.08746,0.08745 0.08746,0.233205 0,0.165188 -0.106886,0.25264 -0.09717,0.07773 -0.252639,0.15547 -0.155471,0.07773 -0.330376,0.223489 -0.174904,0.136037 -0.330374,0.349809 -0.145754,0.213772 -0.242923,0.50528 -0.09717,0.291506 -0.09717,0.651033 0,0.320657 0.09717,0.602448 0.09717,0.272073 0.28179,0.476128 0.184621,0.194338 0.437262,0.310941 0.252639,0.106886 0.56358,0.106886 0.553864,0 0.91339,-0.252639 0.369242,-0.262357 0.56358,-0.660751 -0.573297,-0.301224 -0.94254,-0.855087 -0.369243,-0.553864 -0.369243,-1.243764 0,-0.553864 0.262356,-0.903673 0.272074,-0.349809 0.709335,-0.349809 0.262357,0 0.495563,0.12632 0.233206,0.12632 0.40811,0.398394 0.184621,0.272073 0.291507,0.699616 0.106885,0.427545 0.106885,1.020276 0,0.310941 -0.07773,0.651033 0.05831,0.0097 0.116603,0.0097 0.05831,0 0.126319,0 0.330376,0 0.592732,-0.07773 0.262357,-0.07773 0.476128,-0.233206 0.213772,-0.155471 0.37896,-0.398393 0.174905,-0.242923 0.330374,-0.56358 0.02915,-0.0583 0.12632,-0.106886 0.09717,-0.05831 0.194339,-0.05831 0.12632,0 0.233206,0.106886 0.116603,0.09717 0.116603,0.262356 0,0.07773 -0.03887,0.174905 -0.03887,0.08745 -0.07773,0.165187 -0.165188,0.291508 -0.388676,0.56358 -0.213772,0.262358 -0.514996,0.466412 -0.291508,0.194338 -0.66075,0.310941 -0.369243,0.116603 -0.825937,0.106886 z m -1.661593,-2.44866 q 0,0.184621 0.04858,0.388676 0.04858,0.204055 0.145753,0.408111 0.106886,0.194338 0.252641,0.378959 0.15547,0.174904 0.359525,0.301224 0.02915,-0.204055 0.02915,-0.398394 0,-0.262356 -0.03887,-0.53443 -0.03887,-0.272073 -0.116602,-0.495562 -0.06802,-0.233206 -0.174905,-0.369242 -0.106886,-0.145754 -0.252639,-0.145754 -0.05831,0 -0.155471,0.08746 -0.09717,0.08745 -0.09717,0.37896 z"
       style="font-size:17.6389px;line-height:1.25;font-family:Sacramento;-inkscape-font-specification:Sacramento;text-align:center;text-anchor:middle;fill:#5695af;stroke-width:0.298502"
       id="path1046" />
    <path
       d="m 42.747916,51.906483 q -0.02915,0.505279 -0.136036,1.020275 -0.106886,0.50528 -0.340092,0.91339 -0.223489,0.40811 -0.592732,0.670467 -0.369242,0.252639 -0.91339,0.252639 -0.340091,0 -0.602448,-0.106886 -0.252639,-0.09717 -0.446977,-0.262356 -0.184621,-0.174905 -0.310941,-0.388677 -0.12632,-0.223488 -0.213772,-0.466412 -0.340092,0.563581 -0.806504,0.874522 -0.456694,0.301224 -0.913389,0.301224 -0.369242,0 -0.670466,-0.136036 -0.291508,-0.136037 -0.50528,-0.378959 -0.204055,-0.252641 -0.320658,-0.602449 -0.116603,-0.349808 -0.116603,-0.78707 0,-0.728767 0.12632,-1.253481 0.136037,-0.53443 0.291508,-0.874522 0.165187,-0.340092 0.301224,-0.505278 0.136036,-0.174905 0.136036,-0.174905 0.04858,-0.05831 0.116603,-0.08745 0.07773,-0.02915 0.155471,-0.02915 0.15547,0 0.252639,0.116603 0.106886,0.106886 0.106886,0.25264 0,0.106886 -0.07773,0.233205 -0.03887,0.05831 -0.15547,0.22349 -0.106886,0.165187 -0.22349,0.446978 -0.116603,0.281789 -0.213771,0.6899 -0.08745,0.40811 -0.08745,0.961974 0,0.573297 0.233206,0.874521 0.233206,0.291508 0.651033,0.291508 0.204055,0 0.446977,-0.106886 0.242923,-0.116602 0.456695,-0.349808 0.213773,-0.233206 0.369243,-0.592733 0.155471,-0.359525 0.194337,-0.84537 l 0.126321,-1.671309 q 0.0097,-0.145753 0.116603,-0.242922 0.116603,-0.09717 0.262356,-0.09717 0.165188,0 0.262356,0.12632 0.09717,0.116603 0.09717,0.272074 l -0.106885,1.60329 q -0.02915,0.514995 0.02915,0.884239 0.06802,0.369242 0.213772,0.612164 0.145753,0.233206 0.359526,0.349809 0.213772,0.106886 0.476128,0.106886 0.349809,0 0.592732,-0.204055 0.242922,-0.204055 0.388676,-0.553864 0.145754,-0.349808 0.204055,-0.806503 0.06802,-0.466411 0.06802,-0.981408 0,-0.612166 -0.06802,-1.020275 -0.06802,-0.40811 -0.06802,-0.544148 0,-0.145753 0.106886,-0.252639 0.106885,-0.116603 0.262356,-0.116603 0.136037,0 0.233206,0.08745 0.09717,0.07773 0.12632,0.213772 0.0097,0.03887 0.05831,0.223488 0.04858,0.184623 0.136037,0.446979 0.08745,0.252639 0.223489,0.544146 0.145753,0.281791 0.340091,0.524714 0.204055,0.242922 0.456695,0.40811 0.262357,0.155471 0.592731,0.155471 0.184621,0 0.310941,-0.06802 0.136037,-0.07773 0.223489,-0.174905 0.08745,-0.09717 0.12632,-0.184621 0.04858,-0.08745 0.05831,-0.106886 0.04858,-0.106885 0.136037,-0.165187 0.09717,-0.06802 0.204054,-0.06802 0.165188,0 0.262357,0.12632 0.106886,0.116603 0.106886,0.25264 0,0.116603 -0.106886,0.310941 -0.09717,0.194338 -0.28179,0.378959 -0.184621,0.174904 -0.456695,0.310942 -0.262356,0.126319 -0.583014,0.126319 -0.28179,0 -0.524713,-0.07773 -0.242923,-0.08745 -0.456695,-0.223489 -0.204055,-0.136036 -0.378959,-0.310941 -0.174904,-0.174904 -0.320659,-0.369243 z"
       style="font-size:17.6389px;line-height:1.25;font-family:Sacramento;-inkscape-font-specification:Sacramento;text-align:center;text-anchor:middle;fill:#5695af;stroke-width:0.298502"
       id="path1048" />
    <path
       d="m 46.323738,53.538923 q 0.204056,0.281791 0.524713,0.456695 0.320659,0.165188 0.78707,0.165188 0.476128,0 0.864805,-0.223489 0.388677,-0.233206 0.709334,-0.602448 0.320658,-0.369243 0.573298,-0.825938 0.25264,-0.456695 0.456694,-0.913389 0.04858,-0.106886 0.136038,-0.155471 0.08745,-0.05831 0.194337,-0.05831 0.165188,0 0.262357,0.116603 0.106886,0.116603 0.106886,0.252639 0,0.04858 -0.0097,0.08745 -0.0097,0.02915 -0.02915,0.06802 -0.670467,1.47697 -1.467254,2.225172 -0.787069,0.748202 -1.787911,0.767635 -0.641316,0 -1.107727,-0.252639 -0.466412,-0.242923 -0.767636,-0.631598 -0.301224,-0.398394 -0.446978,-0.893957 -0.145754,-0.495562 -0.145754,-0.991124 0,-0.495563 0.116603,-0.91339 0.12632,-0.417827 0.349809,-0.728768 0.233206,-0.31094 0.544147,-0.485845 0.320658,-0.174904 0.699617,-0.174904 0.223489,0 0.437262,0.09717 0.223488,0.08745 0.398392,0.262356 0.174905,0.165188 0.281791,0.408111 0.106886,0.242922 0.106886,0.553863 0,0.398394 -0.136036,0.748202 -0.136038,0.349809 -0.37896,0.651033 -0.233206,0.301224 -0.563581,0.553864 -0.330375,0.25264 -0.709334,0.437261 z m -0.291507,-0.631598 q 0.301224,-0.12632 0.544146,-0.320659 0.252641,-0.194338 0.427545,-0.427544 0.174905,-0.233205 0.272073,-0.485845 0.09717,-0.262356 0.09717,-0.524713 0,-0.291507 -0.145754,-0.43726 -0.145754,-0.155471 -0.340092,-0.155471 -0.262356,0 -0.446978,0.145754 -0.184621,0.145753 -0.301224,0.378959 -0.116603,0.233206 -0.174903,0.524713 -0.04858,0.281791 -0.04858,0.56358 0,0.174905 0.02915,0.369244 0.03887,0.194337 0.08745,0.369242 z"
       style="font-size:17.6389px;line-height:1.25;font-family:Sacramento;-inkscape-font-specification:Sacramento;text-align:center;text-anchor:middle;fill:#5695af;stroke-width:0.298502"
       id="path1050" />
    <path
       d="m 51.25993,50.614134 q -0.03887,0.262357 -0.09717,0.495562 -0.05831,0.223489 -0.116603,0.398394 -0.04858,0.165187 -0.08745,0.272073 -0.03887,0.106886 -0.04858,0.116603 -0.09717,0.223488 -0.340092,0.223488 -0.136036,0 -0.252639,-0.09717 -0.116603,-0.106885 -0.116603,-0.262356 0,-0.0583 0.01943,-0.08745 0.01944,-0.02915 0.05831,-0.116603 0.03887,-0.08745 0.09717,-0.291507 0.05831,-0.204055 0.145753,-0.631598 -0.165187,0 -0.340092,-0.0097 -0.174903,-0.0097 -0.320657,-0.06802 -0.155471,-0.05831 -0.25264,-0.184622 -0.09717,-0.126319 -0.09717,-0.349808 0,-0.165188 0.09717,-0.446979 0.08746,-0.281789 0.242923,-0.553863 0.155471,-0.272074 0.349809,-0.466412 0.194338,-0.204054 0.388676,-0.204054 0.223489,0 0.359525,0.165186 0.145754,0.165188 0.223489,0.408111 0.07773,0.233205 0.106886,0.495563 0.03887,0.262356 0.03887,0.456695 0.165188,0 0.320659,0 0.165188,-0.0097 0.310941,-0.0097 0.553864,0 0.845372,0.242922 0.291506,0.242923 0.291506,0.796786 0,0.22349 -0.02915,0.466412 -0.02915,0.242923 -0.06802,0.50528 -0.03887,0.252639 -0.06802,0.505279 -0.02915,0.25264 -0.02915,0.495563 0,0.349808 0.09717,0.583014 0.09717,0.223488 0.242924,0.359526 0.145753,0.136036 0.310941,0.194338 0.165188,0.04858 0.301224,0.04858 0.417827,0 0.787069,-0.272072 0.369243,-0.272074 0.680184,-0.651033 0.310941,-0.388677 0.553864,-0.816221 0.252639,-0.427544 0.417827,-0.748202 0.04858,-0.08746 0.136036,-0.136037 0.08745,-0.04858 0.184621,-0.04858 0.174905,0 0.272074,0.116603 0.09717,0.106885 0.09717,0.242922 0,0.09717 -0.03887,0.174905 -0.223488,0.398392 -0.524712,0.903672 -0.291508,0.495562 -0.670468,0.932823 -0.378959,0.437261 -0.855087,0.738485 -0.466412,0.301224 -1.029993,0.301224 -0.349808,0 -0.66075,-0.136036 -0.310941,-0.12632 -0.544147,-0.369243 -0.223489,-0.25264 -0.359525,-0.612166 -0.136037,-0.369242 -0.136037,-0.825937 0,-0.485845 0.09717,-0.961974 0.09717,-0.485845 0.09717,-0.923105 0,-0.184623 -0.08745,-0.272074 -0.07773,-0.09717 -0.359526,-0.09717 -0.136037,0 -0.301224,0 -0.155471,0 -0.340092,0.0097 z m -0.651033,-0.719051 q 0,-0.06802 -0.0097,-0.174904 0,-0.116603 -0.01944,-0.22349 -0.0097,-0.106886 -0.03887,-0.184621 -0.01944,-0.07773 -0.04858,-0.07773 -0.02915,0 -0.07773,0.07773 -0.03887,0.06802 -0.08745,0.174905 -0.04858,0.09717 -0.08745,0.213772 -0.03887,0.116603 -0.05831,0.194338 z"
       style="font-size:17.6389px;line-height:1.25;font-family:Sacramento;-inkscape-font-specification:Sacramento;text-align:center;text-anchor:middle;fill:#5695af;stroke-width:0.298502"
       id="path1052" />
    <path
       d="m 57.352432,51.012528 q -0.05831,0.155471 -0.145754,0.349808 -0.07773,0.194338 -0.184621,0.408111 -0.08745,0.165186 -0.184621,0.262356 -0.08746,0.08745 -0.233206,0.08745 -0.165188,0 -0.262356,-0.09717 -0.09717,-0.106886 -0.09717,-0.242923 0,-0.04858 0.0097,-0.07773 0.0097,-0.03887 0.04858,-0.116602 0.252639,-0.485846 0.369242,-0.845371 0.12632,-0.369244 0.204055,-0.767636 -0.06802,-0.223489 -0.09717,-0.37896 -0.02915,-0.15547 -0.02915,-0.320658 0,-0.320658 0.136036,-0.514996 0.136037,-0.204055 0.378959,-0.204055 0.223489,0 0.349809,0.194338 0.136037,0.194338 0.136037,0.476129 0,0.155471 -0.02915,0.31094 -0.02915,0.155471 -0.07773,0.388677 0.223488,0.553864 0.446978,0.981407 0.223489,0.427545 0.398393,0.787071 0.174905,0.349809 0.281791,0.660749 0.116603,0.310941 0.116603,0.621882 0,0.40811 -0.165188,0.777353 -0.165188,0.369243 -0.544147,0.621882 0.04858,0.0097 0.09717,0.0097 0.04858,0 0.09717,0 0.553864,0 1.020275,-0.252639 0.466412,-0.25264 0.835654,-0.651033 0.378959,-0.408111 0.670467,-0.893956 0.291507,-0.495562 0.505279,-0.981407 0.09717,-0.223489 0.272073,-0.223489 0.165188,0 0.252641,0.116603 0.09717,0.116603 0.09717,0.252639 0,0.07773 -0.02915,0.145753 -0.106886,0.262357 -0.281791,0.60245 -0.165187,0.330374 -0.40811,0.689899 -0.233206,0.349809 -0.544147,0.689901 -0.310941,0.340092 -0.699617,0.612165 -0.378959,0.262357 -0.835654,0.417827 -0.456694,0.165188 -1.000842,0.165188 -0.651033,0 -1.214613,-0.233206 -0.553865,-0.223489 -0.903672,-0.748201 -0.05831,-0.08746 -0.05831,-0.184623 0,-0.145753 0.106886,-0.252639 0.116603,-0.116603 0.262358,-0.116603 0.155469,0 0.262356,0.106886 0.0097,0.01944 0.06802,0.06802 0.05831,0.03887 0.136036,0.09717 0.08745,0.04858 0.194339,0.08746 0.116603,0.03887 0.233206,0.03887 0.233206,0 0.388676,-0.09717 0.165187,-0.09717 0.262357,-0.233206 0.09717,-0.145754 0.136036,-0.301224 0.04858,-0.165187 0.04858,-0.28179 0,-0.242923 -0.07773,-0.485845 -0.07773,-0.242923 -0.204055,-0.485846 -0.116602,-0.242922 -0.262357,-0.495563 -0.136036,-0.262356 -0.252639,-0.544146 z"
       style="font-size:17.6389px;line-height:1.25;font-family:Sacramento;-inkscape-font-specification:Sacramento;text-align:center;text-anchor:middle;fill:#5695af;stroke-width:0.298502"
       id="path1054" />
    <path
       d="m 76.980418,58.313589 q 0,0.176665 -0.129554,0.317997 -0.117778,0.141332 -0.30622,0.141332 -0.176665,0 -0.306221,-0.117778 -0.129554,-0.117778 -0.153109,-0.317997 -0.01176,-0.04711 -0.05888,-0.447551 -0.03533,-0.400443 -0.235554,-0.977549 -0.188443,-0.588884 -0.588884,-1.248435 -0.400441,-0.671328 -1.107103,-1.236657 -0.694884,-0.565329 -1.766653,-0.942216 -1.07177,-0.376885 -2.60287,-0.376885 -1.354435,0 -2.732424,0.412219 -1.366211,0.400442 -2.626424,1.142436 -1.260214,0.730216 -2.355538,1.754875 -1.095325,1.012881 -1.907987,2.23776 -0.800882,1.224882 -1.271989,2.614648 -0.45933,1.389767 -0.45933,2.861979 0,1.330879 0.365108,2.284872 0.365108,0.942215 1.012881,1.542876 0.647773,0.600662 1.519323,0.883327 0.883326,0.270887 1.896207,0.270887 1.754876,0 3.274199,-0.600662 1.531099,-0.61244 2.826645,-1.637098 1.307322,-1.036438 2.379092,-2.40265 1.071771,-1.377989 1.919764,-2.897311 0.09422,-1.436878 0.329774,-2.19065 0.247333,-0.76555 0.730217,-0.76555 0.270887,0 0.447554,0.223776 0.188442,0.223776 0.188442,0.577107 0,0.388663 -0.20022,0.989326 -0.200221,0.600662 -0.612441,1.389767 -0.03533,0.553552 -0.03533,1.189547 0,0.930438 0.07068,2.03754 0.08244,1.107103 0.247331,2.355538 0.494663,-0.247332 0.76555,-0.35333 0.282664,-0.117778 0.41222,-0.15311 0.129554,-0.04711 0.164887,-0.03533 0.03533,0 0.05888,0 0.176666,0 0.30622,0.129555 0.141332,0.117778 0.141332,0.317997 0,0.141332 -0.08245,0.259109 -0.08245,0.105997 -0.223776,0.15311 -0.02356,0.01176 -0.412219,0.164887 -0.376886,0.141332 -1.012882,0.459331 0.05888,0.635996 0.09422,1.283769 0.03533,0.647773 0.03533,1.307322 0,1.554657 -0.223776,2.967978 -0.223777,1.413323 -0.741994,2.485093 -0.506441,1.07177 -1.354435,1.695986 -0.847994,0.635995 -2.084651,0.635995 -0.61244,0 -1.130658,-0.211998 -0.518219,-0.211998 -0.895106,-0.588884 -0.376886,-0.376885 -0.588884,-0.906883 -0.211998,-0.518217 -0.211998,-1.142434 0,-0.883328 0.294442,-1.743099 0.306221,-0.859771 0.800884,-1.660654 0.506441,-0.800883 1.154214,-1.519322 0.647773,-0.706662 1.330878,-1.307323 0.683106,-0.600663 1.342657,-1.059993 0.671327,-0.459329 1.224879,-0.741994 -0.153109,-1.177769 -0.24733,-2.308426 -0.09422,-1.142437 -0.117778,-2.214206 -1.02466,1.637099 -2.261317,2.885534 -1.224879,1.248434 -2.567537,2.096427 -1.342655,0.847995 -2.767756,1.28377 -1.413323,0.423996 -2.814867,0.423996 -1.271991,0 -2.308427,-0.376885 -1.036437,-0.388665 -1.778431,-1.130659 -0.741996,-0.741994 -1.142437,-1.83732 -0.400442,-1.095325 -0.400442,-2.520425 0,-1.507545 0.471109,-2.967978 0.471107,-1.472211 1.307323,-2.791312 0.836216,-1.33088 1.978652,-2.449759 1.154214,-1.118881 2.508646,-1.931541 1.366214,-0.824438 2.873758,-1.283769 1.519322,-0.471106 3.097533,-0.471106 1.519321,0 2.6382,0.35333 1.118881,0.341553 1.896209,0.883326 0.789105,0.529995 1.271992,1.165992 0.494661,0.624217 0.777326,1.189547 0.235555,0.482883 0.365108,0.930437 0.141332,0.447552 0.200221,0.789105 0.07068,0.341552 0.08245,0.55355 0.02355,0.211999 0.02355,0.223777 z m -2.979755,10.482143 q -0.588884,0.329775 -1.224881,0.789105 -0.624216,0.447552 -1.224879,0.989327 -0.588884,0.541773 -1.11888,1.16599 -0.529996,0.624219 -0.930436,1.295546 -0.400443,0.671328 -0.635997,1.377989 -0.223776,0.71844 -0.223776,1.436878 0,0.447552 0.141333,0.800884 0.141332,0.365108 0.40044,0.61244 0.259111,0.259108 0.612441,0.400441 0.35333,0.141332 0.777328,0.141332 1.660654,0 2.591091,-1.766653 0.930438,-1.754876 0.930438,-5.135074 0,-0.50644 -0.02356,-1.036435 -0.02355,-0.518218 -0.07068,-1.07177 z"
       style="font-size:17.6389px;line-height:1.25;font-family:Sacramento;-inkscape-font-specification:Sacramento;text-align:center;text-anchor:middle;fill:#5695af;stroke-width:0.361809"
       id="path1056" />
    <path
       d="m 79.135729,64.791317 q -0.04711,0.317999 -0.117778,0.600662 -0.07068,0.270887 -0.141332,0.482886 -0.05888,0.20022 -0.105997,0.329775 -0.04711,0.129555 -0.05888,0.141332 -0.117778,0.270886 -0.412219,0.270886 -0.164888,0 -0.306219,-0.117778 -0.141333,-0.129553 -0.141333,-0.317997 0,-0.07066 0.02355,-0.105996 0.02356,-0.03533 0.07068,-0.141333 0.04711,-0.105996 0.117778,-0.35333 0.07068,-0.247331 0.176666,-0.765549 -0.20022,0 -0.412219,-0.01176 -0.211998,-0.01176 -0.388663,-0.08245 -0.188443,-0.07068 -0.306221,-0.223777 -0.117778,-0.153109 -0.117778,-0.423996 0,-0.200221 0.117778,-0.541775 0.105996,-0.341551 0.294442,-0.671327 0.188444,-0.329776 0.423997,-0.56533 0.235553,-0.24733 0.471108,-0.24733 0.270885,0 0.435775,0.200219 0.176664,0.200222 0.270887,0.494664 0.09422,0.282664 0.129553,0.600663 0.04711,0.317997 0.04711,0.553552 0.200221,0 0.388663,0 0.20022,-0.01176 0.376887,-0.01176 0.671328,0 1.024658,0.294441 0.353332,0.294443 0.353332,0.96577 0,0.270888 -0.03533,0.565329 -0.03533,0.294443 -0.08245,0.612441 -0.04711,0.306219 -0.08245,0.61244 -0.03533,0.30622 -0.03533,0.600663 0,0.423996 0.117778,0.70666 0.117778,0.270886 0.294442,0.435775 0.176665,0.164887 0.376886,0.235554 0.20022,0.05888 0.365108,0.05888 0.506441,0 0.953994,-0.329774 0.447551,-0.329776 0.824437,-0.789105 0.376886,-0.471108 0.671329,-0.989327 0.30622,-0.518218 0.506442,-0.906882 0.05888,-0.106008 0.164886,-0.164888 0.106009,-0.05888 0.223776,-0.05888 0.211999,0 0.329775,0.141333 0.117778,0.129553 0.117778,0.294441 0,0.117778 -0.04711,0.211999 -0.270888,0.482884 -0.635996,1.095325 -0.35333,0.600661 -0.81266,1.130658 -0.45933,0.529996 -1.036438,0.895104 -0.565328,0.365108 -1.248433,0.365108 -0.423997,0 -0.800883,-0.164887 -0.376887,-0.15311 -0.659551,-0.447552 -0.270887,-0.306221 -0.435774,-0.741996 -0.164889,-0.447551 -0.164889,-1.001103 0,-0.588884 0.117778,-1.165991 0.117778,-0.588884 0.117778,-1.118879 0,-0.223778 -0.106009,-0.329776 -0.09421,-0.117778 -0.435773,-0.117778 -0.164888,0 -0.365109,0 -0.188443,0 -0.412219,0.01176 z m -0.789105,-0.871548 q 0,-0.08245 -0.01176,-0.211998 0,-0.141333 -0.02356,-0.270889 -0.01176,-0.129554 -0.04711,-0.223775 -0.02356,-0.09421 -0.05888,-0.09421 -0.03533,0 -0.09421,0.09421 -0.04711,0.08244 -0.105997,0.211999 -0.05888,0.117778 -0.105996,0.259109 -0.04711,0.141332 -0.07068,0.235554 z"
       style="font-size:17.6389px;line-height:1.25;font-family:Sacramento;-inkscape-font-specification:Sacramento;text-align:center;text-anchor:middle;fill:#5695af;stroke-width:0.361809"
       id="path1058" />
    <path
       d="m 90.642537,68.336401 q -0.294442,0 -0.518219,-0.04711 -0.176665,0.353331 -0.423996,0.65955 -0.247332,0.294443 -0.577107,0.518219 -0.317998,0.223776 -0.718439,0.35333 -0.400442,0.129555 -0.871548,0.129555 -0.553552,0 -1.012881,-0.20022 -0.459331,-0.188443 -0.800885,-0.529997 -0.341552,-0.35333 -0.529996,-0.836216 -0.188442,-0.494663 -0.188442,-1.083547 0,-0.753772 0.270887,-1.307324 0.270887,-0.565329 0.624217,-0.930437 0.35333,-0.376886 0.706662,-0.553552 0.35333,-0.188442 0.529995,-0.188442 0.200221,0 0.294443,0.105996 0.106008,0.105997 0.106008,0.282664 0,0.200221 -0.129553,0.30622 -0.117778,0.09422 -0.306221,0.188442 -0.188442,0.09422 -0.40044,0.270887 -0.211999,0.164888 -0.400443,0.423998 -0.176664,0.259109 -0.294441,0.61244 -0.117778,0.35333 -0.117778,0.789106 0,0.388662 0.117778,0.730216 0.117778,0.329775 0.341553,0.577106 0.223777,0.235554 0.529996,0.376886 0.306219,0.129555 0.683106,0.129555 0.671329,0 1.107102,-0.306219 0.447552,-0.317999 0.683107,-0.800885 -0.694884,-0.365108 -1.142436,-1.036435 -0.447552,-0.671329 -0.447552,-1.507544 0,-0.671329 0.317997,-1.095326 0.329776,-0.423997 0.859771,-0.423997 0.317997,0 0.600662,0.15311 0.282665,0.15311 0.494663,0.482886 0.223777,0.329775 0.353331,0.847992 0.129555,0.51822 0.129555,1.236658 0,0.376886 -0.09422,0.789106 0.07066,0.01176 0.141332,0.01176 0.07068,0 0.15311,0 0.400442,0 0.718439,-0.09422 0.317997,-0.09421 0.577107,-0.282665 0.25911,-0.188444 0.45933,-0.482885 0.211998,-0.294443 0.400441,-0.683105 0.03533,-0.07067 0.15311,-0.129555 0.117778,-0.07068 0.235553,-0.07068 0.15311,0 0.282665,0.129554 0.141332,0.117778 0.141332,0.317997 0,0.09422 -0.04711,0.212 -0.04711,0.105996 -0.09421,0.20022 -0.20022,0.353331 -0.471107,0.683105 -0.25911,0.317999 -0.624218,0.565329 -0.35333,0.235554 -0.800884,0.376886 -0.447551,0.141333 -1.001103,0.129555 z m -2.013985,-2.967976 q 0,0.223775 0.05888,0.471107 0.05888,0.247331 0.176666,0.494664 0.129553,0.235553 0.306219,0.459329 0.188444,0.211998 0.435775,0.365108 0.03533,-0.247331 0.03533,-0.482886 0,-0.317997 -0.04711,-0.647773 -0.04711,-0.329775 -0.141333,-0.600662 -0.08245,-0.282664 -0.211998,-0.447551 -0.129553,-0.176666 -0.30622,-0.176666 -0.07066,0 -0.188444,0.106009 -0.117778,0.105996 -0.117778,0.45933 z"
       style="font-size:17.6389px;line-height:1.25;font-family:Sacramento;-inkscape-font-specification:Sacramento;text-align:center;text-anchor:middle;fill:#5695af;stroke-width:0.361809"
       id="path1060" />
    <path
       d="m 101.08935,66.35775 q -0.0353,0.61244 -0.16488,1.236657 -0.12956,0.612441 -0.41222,1.107104 -0.27089,0.494662 -0.71845,0.812661 -0.447549,0.306219 -1.107091,0.306219 -0.412224,0 -0.730223,-0.129555 -0.30622,-0.117778 -0.541774,-0.317997 -0.223777,-0.211999 -0.376887,-0.471108 -0.153109,-0.270886 -0.259108,-0.56533 -0.412219,0.683107 -0.977549,1.059993 -0.553551,0.365108 -1.107102,0.365108 -0.447553,0 -0.812661,-0.164887 -0.353329,-0.164888 -0.61244,-0.459329 -0.247331,-0.306222 -0.388662,-0.730218 -0.141332,-0.423996 -0.141332,-0.953993 0,-0.883326 0.153109,-1.519322 0.164888,-0.647773 0.353331,-1.059992 0.200219,-0.41222 0.365108,-0.612439 0.164887,-0.211999 0.164887,-0.211999 0.05888,-0.07068 0.141332,-0.105996 0.09422,-0.03533 0.188444,-0.03533 0.188442,0 0.306219,0.141333 0.129555,0.129554 0.129555,0.30622 0,0.129555 -0.09422,0.282664 -0.04711,0.07068 -0.188443,0.270888 -0.129554,0.20022 -0.270887,0.541774 -0.141332,0.341551 -0.25911,0.836215 -0.105997,0.494663 -0.105997,1.165992 0,0.694883 0.282663,1.059991 0.282664,0.353331 0.789105,0.353331 0.247333,0 0.541775,-0.129554 0.294442,-0.141332 0.553552,-0.423996 0.259108,-0.282665 0.447552,-0.718441 0.188443,-0.435774 0.235553,-1.024658 l 0.153109,-2.025763 q 0.01176,-0.176665 0.141332,-0.294442 0.141333,-0.117778 0.317999,-0.117778 0.20022,0 0.317998,0.15311 0.117778,0.141333 0.117778,0.329776 l -0.129555,1.943319 q -0.03533,0.624216 0.03533,1.07177 0.08245,0.447552 0.25911,0.741993 0.176665,0.282665 0.435775,0.423997 0.259108,0.129555 0.577096,0.129555 0.423998,0 0.718437,-0.247331 0.294451,-0.247332 0.471112,-0.671329 0.17666,-0.423996 0.24734,-0.977548 0.0824,-0.565328 0.0824,-1.189547 0,-0.741995 -0.0824,-1.236656 -0.0824,-0.494663 -0.0824,-0.659552 0,-0.176665 0.12955,-0.30622 0.12955,-0.141332 0.318,-0.141332 0.16489,0 0.28266,0.105997 0.11781,0.09421 0.15311,0.259109 0.0121,0.04711 0.0707,0.270886 0.0589,0.223778 0.16489,0.541775 0.10594,0.306219 0.27089,0.659549 0.17666,0.341554 0.41222,0.635997 0.24733,0.294441 0.55355,0.494662 0.318,0.188444 0.71844,0.188444 0.22379,0 0.3769,-0.08245 0.16488,-0.09422 0.27088,-0.211999 0.10606,-0.117778 0.15311,-0.223776 0.0589,-0.105996 0.0707,-0.129554 0.0589,-0.129554 0.16489,-0.200221 0.11782,-0.08244 0.24733,-0.08244 0.20023,0 0.318,0.15311 0.12955,0.141332 0.12955,0.30622 0,0.141333 -0.12955,0.376886 -0.11781,0.235554 -0.34155,0.45933 -0.22378,0.211998 -0.55356,0.376887 -0.318,0.153109 -0.70667,0.153109 -0.34155,0 -0.63599,-0.09422 -0.29445,-0.105997 -0.55356,-0.270887 -0.24733,-0.164887 -0.45933,-0.376886 -0.212,-0.211998 -0.38867,-0.447553 z"
       style="font-size:17.6389px;line-height:1.25;font-family:Sacramento;-inkscape-font-specification:Sacramento;text-align:center;text-anchor:middle;fill:#5695af;stroke-width:0.361809"
       id="path1062" />
  </g>
</svg>
