<?xml version="1.0" encoding="UTF-8" standalone="no"?>
<!-- Created with Inkscape (http://www.inkscape.org/) -->

<svg
   width="400"
   height="150"
   viewBox="0 0 105.83333 39.687499"
   version="1.1"
   id="svg5"
   inkscape:version="1.2.1 (9c6d41e410, 2022-07-14, custom)"
   sodipodi:docname="willbewept.svg"
   xmlns:inkscape="http://www.inkscape.org/namespaces/inkscape"
   xmlns:sodipodi="http://sodipodi.sourceforge.net/DTD/sodipodi-0.dtd"
   xmlns:xlink="http://www.w3.org/1999/xlink"
   xmlns="http://www.w3.org/2000/svg"
   xmlns:svg="http://www.w3.org/2000/svg">
  <sodipodi:namedview
     id="namedview7"
     pagecolor="#505050"
     bordercolor="#eeeeee"
     borderopacity="1"
     inkscape:showpageshadow="0"
     inkscape:pageopacity="0"
     inkscape:pagecheckerboard="0"
     inkscape:deskcolor="#505050"
     inkscape:document-units="mm"
     showgrid="false"
     inkscape:zoom="2.647615"
     inkscape:cx="203.0129"
     inkscape:cy="58.543254"
     inkscape:window-width="1920"
     inkscape:window-height="1005"
     inkscape:window-x="0"
     inkscape:window-y="0"
     inkscape:window-maximized="1"
     inkscape:current-layer="layer1" />
  <defs
     id="defs2">
    <linearGradient
       inkscape:collect="always"
       id="linearGradient1033">
      <stop
         style="stop-color:#ec6a45;stop-opacity:1;"
         offset="0"
         id="stop1029" />
      <stop
         style="stop-color:#d062c8;stop-opacity:1;"
         offset="1"
         id="stop1031" />
    </linearGradient>
    <linearGradient
       inkscape:collect="always"
       xlink:href="#linearGradient1033"
       id="linearGradient1035"
       x1="49.190716"
       y1="3.2105608"
       x2="59.978752"
       y2="42.267773"
       gradientUnits="userSpaceOnUse" />
  </defs>
  <g
     inkscape:label="Layer 1"
     inkscape:groupmode="layer"
     id="layer1">
    <rect
       style="fill:url(#linearGradient1035);stroke-width:7.9375;stroke-linecap:round;stop-color:#000000;fill-opacity:1"
       id="rect450"
       width="108.89458"
       height="41.631046"
       x="-1.1775762"
       y="-0.68140453" />
    <g
       aria-label="What cannot be said
will be wept."
       id="text236"
       style="font-size:10.5833px;line-height:1.25;fill:#ffffff;stroke-width:0.264583">
      <path
         d="m 11.374484,13.37173 q -0.01034,0 -0.02067,0 0,0 -0.01033,0 h -0.02067 q -0.454751,0.41341 -0.733803,0.640786 -0.279052,0.227375 -0.444416,0.341063 -0.165364,0.103353 -0.2377107,0.124023 -0.072347,0.01034 -0.1033526,0.01034 -0.3927396,0 -0.6821267,-0.217041 Q 8.8423471,14.043522 8.6459773,13.692123 8.4599428,13.340724 8.3359197,12.896309 8.2222319,12.441557 8.1602204,11.997141 q -0.062012,-0.444415 -0.093017,-0.837155 -0.02067,-0.39274 -0.02067,-0.661456 0,-0.03101 0,-0.217041 0,-0.196369 0.031006,-0.4134098 0.031006,-0.2170403 0.1136878,-0.3927396 0.1033525,-0.1756993 0.2687166,-0.1756993 0.072347,0 0.1033525,0.1963698 0.031006,0.1963698 0.051676,0.5064279 0.031006,0.310057 0.062011,0.713132 0.031006,0.403075 0.062012,0.82682 0.041341,0.423746 0.1033525,0.826821 0.072347,0.403074 0.1756994,0.723467 0.1136877,0.310058 0.2687165,0.506428 0.1653641,0.186034 0.3927397,0.186034 0.1860345,0 0.3513983,-0.103352 0.1757,-0.103353 0.320393,-0.248046 0.144694,-0.144694 0.258382,-0.299723 0.124023,-0.155028 0.21704,-0.258381 0.06201,-0.144694 0.08268,-0.330728 0.03101,-0.186035 0.03101,-0.382404 0.01034,-0.19637 0,-0.37207 0,-0.175699 -0.01034,-0.299722 0.05168,-0.144694 0.124023,-0.19637 0.07235,-0.06201 0.134359,-0.04134 0.06201,0.02067 0.124023,0.113688 0.06201,0.08268 0.113688,0.227376 0.05168,0.330728 0.186034,0.733803 0.134358,0.403074 0.351399,0.754473 0.227375,0.341063 0.547768,0.578774 0.320393,0.227376 0.744138,0.227376 0.227376,0 0.465087,-0.09302 0.248046,-0.09302 0.43408,-0.258382 0.19637,-0.165364 0.320393,-0.382404 0.124023,-0.21704 0.124023,-0.465087 0,-0.392739 -0.124023,-0.764808 -0.124023,-0.372069 -0.279052,-0.733803 -0.155028,-0.372069 -0.279051,-0.733803 -0.124023,-0.372069 -0.124023,-0.7544738 0.134358,-0.2893871 0.289387,-0.2377109 0.165364,0.041341 0.320393,0.2997224 0.165364,0.2583813 0.310057,0.6717913 0.144694,0.403075 0.258381,0.82682 0.113688,0.413411 0.165365,0.78548 0.06201,0.361734 0.05168,0.537433 0,0.39274 -0.165364,0.744138 -0.165364,0.351399 -0.454751,0.630451 -0.279052,0.279051 -0.651121,0.444416 -0.361734,0.165364 -0.754474,0.165364 -0.310057,0 -0.60978,-0.186035 Q 12.263316,14.19855 12.025605,13.971175 11.79823,13.743799 11.62253,13.557765 11.457166,13.37173 11.374484,13.37173 Z"
         style="font-family:'Indie Flower';-inkscape-font-specification:'Indie Flower'"
         id="path1215" />
      <path
         d="m 18.774526,14.384585 q 0.02067,-0.268717 0.04134,-0.558104 0.02067,-0.289387 0.03101,-0.578774 0.02067,-0.289387 0.02067,-0.568439 0.01033,-0.279052 0.01033,-0.506427 0,-0.330728 -0.09302,-0.630451 -0.09302,-0.299722 -0.268717,-0.516762 -0.175699,-0.227376 -0.444416,-0.351399 -0.258381,-0.134358 -0.620115,-0.134358 -0.144693,0 -0.248046,0.02067 -0.103352,0.02067 -0.206705,0.07235 -0.103352,0.04134 -0.227376,0.113688 -0.124023,0.08268 -0.289387,0.19637 0,0.02067 -0.01033,0.08268 0,0.05168 0,0.06201 0,0.227376 0.04134,0.60978 0.05168,0.372069 0.103353,0.785479 0.05168,0.403075 0.103352,0.78548 0.05168,0.382404 0.05168,0.620115 0,0.02067 0,0.08268 0,0.06201 -0.01034,0.134358 0,0.07235 0,0.134358 0,0.06201 0,0.09302 -0.06201,0.144693 -0.155029,0.186034 -0.08268,0.03101 -0.206705,0.03101 -0.124023,0.02067 -0.186034,-0.175699 -0.06201,-0.19637 -0.09302,-0.568439 -0.03101,-0.372069 -0.06201,-0.899167 -0.02067,-0.527098 -0.07235,-1.157549 -0.04134,-0.63045 -0.134358,-1.333247 Q 15.766967,9.7027152 15.601603,8.9585769 15.518921,8.6691898 15.467245,8.47282 15.425904,8.2661149 15.384562,8.1110861 15.343221,7.9457221 15.312216,7.780358 15.28121,7.6046587 15.239869,7.3669479 v -0.041341 q 0,-0.041341 0.05168,-0.072347 0.05168,-0.041341 0.113688,-0.072347 0.07235,-0.031006 0.134358,-0.041341 0.07235,-0.020671 0.113688,-0.020671 0.19637,0.5167627 0.310058,0.8784965 0.124023,0.3513986 0.19637,0.60978 0.07235,0.2583813 0.103352,0.4340806 0.03101,0.1756993 0.05168,0.3410634 0.02067,0.1653641 0.03101,0.3410634 0.01034,0.1756993 0.04134,0.4237453 0.537433,-0.3307281 0.971514,-0.3617338 0.444416,-0.031006 0.785479,0.1343583 0.341064,0.1550285 0.58911,0.4857565 0.258381,0.330729 0.423745,0.744139 0.165364,0.41341 0.248046,0.878496 0.09302,0.465087 0.113688,0.899167 0.03101,0.434081 -0.02067,0.80615 -0.04134,0.361734 -0.134358,0.589109 -0.09302,0.217041 -0.248046,0.248047 -0.155029,0.04134 -0.341063,-0.186035 z"
         style="font-family:'Indie Flower';-inkscape-font-specification:'Indie Flower'"
         id="path1217" />
      <path
         d="m 20.107773,12.823962 q 0.01034,-0.1757 0.103353,-0.403075 0.09302,-0.227376 0.289387,-0.444416 0.19637,-0.21704 0.496092,-0.382404 0.299723,-0.1757 0.702798,-0.248047 0.41341,-0.07235 0.930172,-0.01033 0.527098,0.06201 1.167884,0.310058 0,-0.01033 0,-0.103353 l -0.01034,-0.09302 q 0,-0.268717 -0.155029,-0.547768 -0.155029,-0.279052 -0.403075,-0.496093 -0.237711,-0.227375 -0.516763,-0.361733 -0.279051,-0.144694 -0.537433,-0.144694 -0.103352,0 -0.186034,0.031006 -0.07235,0.031006 -0.144694,0.082682 -0.07235,0.04134 -0.144693,0.08268 -0.06201,0.03101 -0.155029,0.03101 -0.02067,0 -0.02067,-0.01034 -0.01034,-0.01033 -0.02067,-0.02067 -0.02067,-0.02067 -0.06201,-0.05168 -0.03101,-0.03101 -0.03101,-0.04134 0,-0.1860351 0.06201,-0.3203933 0.07235,-0.1343583 0.186035,-0.2170404 0.124023,-0.082682 0.268716,-0.124023 0.155029,-0.051676 0.320393,-0.051676 0.41341,0.041341 0.785479,0.2583814 0.382405,0.206705 0.692462,0.5270976 0.320393,0.320393 0.558104,0.744139 0.237711,0.41341 0.39274,0.868161 0.165364,0.444416 0.21704,0.899167 0.06201,0.475422 0.01034,0.888832 -0.01034,0 -0.06201,0 -0.05168,-0.01034 -0.113688,-0.01034 -0.06201,-0.01033 -0.103353,-0.02067 l -0.05168,-0.01033 q -0.21704,-0.485757 -0.485757,-0.78548 -0.268717,-0.299722 -0.537433,-0.465086 -0.258381,-0.175699 -0.485757,-0.237711 -0.227376,-0.07235 -0.372069,-0.103352 -0.155029,0 -0.372069,0.02067 -0.206705,0.02067 -0.434081,0.07235 -0.227375,0.05168 -0.465086,0.144693 -0.227376,0.08268 -0.41341,0.206706 -0.1757,0.124023 -0.289388,0.299722 -0.103352,0.165364 -0.103352,0.39274 0,0.248046 0.19637,0.423745 0.19637,0.165364 0.475421,0.279052 0.279052,0.103352 0.568439,0.144693 0.289387,0.04134 0.465087,0.04134 0.289387,0 0.568439,-0.03101 0.279052,-0.03101 0.547768,-0.07235 0.279052,-0.04134 0.547769,-0.07235 0.268716,-0.03101 0.537433,-0.03101 0.02067,0 0.07235,0 0.05168,0 0.103352,0.01034 0.06201,0 0.103353,0 0.05168,0 0.07235,0 0.08268,0.03101 0.09302,0.09302 0.01033,0.06201 0.01033,0.124023 0,0.06201 -0.134358,0.134358 -0.124023,0.07235 -0.330729,0.144694 -0.206705,0.07235 -0.465086,0.155028 -0.248046,0.07235 -0.485757,0.124024 -0.227375,0.05168 -0.43408,0.09302 -0.19637,0.03101 -0.279052,0.03101 -0.434081,0 -0.919838,-0.07235 -0.485757,-0.07235 -0.888832,-0.258382 -0.403075,-0.196369 -0.671791,-0.537433 -0.258382,-0.341063 -0.258382,-0.878496 z"
         style="font-family:'Indie Flower';-inkscape-font-specification:'Indie Flower'"
         id="path1219" />
      <path
         d="m 26.670659,11.015292 q -0.08268,0 -0.289387,0 -0.206705,0 -0.434081,-0.03101 -0.21704,-0.04134 -0.403075,-0.124023 -0.175699,-0.08268 -0.175699,-0.237711 0,-0.04134 0.01033,-0.113688 0.02067,-0.08268 0.103353,-0.08268 l 1.064531,-0.09302 q 0.04134,-0.3824048 0.06201,-0.6201156 0.02067,-0.2480461 0.01033,-0.4547511 -0.01033,-0.2170404 -0.03101,-0.4444159 -0.01034,-0.2377109 -0.02067,-0.60978 0,-0.072347 0.03101,-0.1136878 0.03101,-0.041341 0.07235,-0.062012 0.05168,-0.02067 0.103352,-0.031006 0.06201,-0.010335 0.09302,-0.010335 0.06201,0 0.124023,0.041341 0.07235,0.041341 0.124023,0.1033525 0.05168,0.062012 0.08268,0.1343583 0.03101,0.062012 0.03101,0.1240231 l 0.08268,1.932692 0.888832,0.04134 q 0.1757,-0.02067 0.320393,0.07235 0.155029,0.08268 0.165364,0.320393 -0.124023,0.134358 -0.299722,0.165364 -0.175699,0.02067 -0.372069,0.02067 -0.186035,-0.01034 -0.372069,0 -0.186035,0 -0.330729,0.09302 0,0.06201 0.01034,0.341063 0.01034,0.279052 0.02067,0.661456 0.01034,0.382405 0.02067,0.816485 0.02067,0.434081 0.03101,0.80615 0.01034,0.361734 0.01034,0.620115 0.01034,0.258382 0.01034,0.289388 -0.237711,0.144693 -0.382404,-0.02067 -0.144694,-0.175699 -0.237711,-0.506427 -0.08268,-0.341064 -0.124023,-0.78548 -0.03101,-0.454751 -0.04134,-0.888831 0,-0.444416 0.01033,-0.816485 0.01034,-0.37207 0.03101,-0.537434 z"
         style="font-family:'Indie Flower';-inkscape-font-specification:'Indie Flower'"
         id="path1221" />
      <path
         d="m 32.902817,12.265858 q 0,-0.454751 0.1757,-0.878497 0.175699,-0.43408 0.475421,-0.764808 0.310058,-0.330728 0.713133,-0.527098 0.403075,-0.19637 0.857826,-0.19637 0.206705,0 0.434081,0.051676 0.23771,0.041341 0.444415,0.1446938 0.206706,0.103352 0.341064,0.279052 0.134358,0.165364 0.134358,0.423745 0,0.04134 -0.03101,0.165364 -0.02067,0.124023 -0.06201,0.248046 -0.04134,0.124023 -0.103353,0.227376 -0.05168,0.09302 -0.09302,0.09302 0,-0.485757 -0.268717,-0.80615 -0.268716,-0.330728 -0.785479,-0.330728 -0.392739,0 -0.702797,0.165364 -0.310058,0.165364 -0.516763,0.434081 -0.206705,0.268716 -0.320393,0.60978 -0.103352,0.330728 -0.103352,0.682127 0,0.475421 0.155029,0.785479 0.155028,0.310057 0.423745,0.506427 0.268717,0.186035 0.620115,0.279052 0.351399,0.09302 0.744139,0.124023 0.392739,0.03101 0.785479,0.02067 0.392739,-0.01034 0.754473,-0.03101 0.03101,0 0.103353,0.04134 0.07235,0.04134 0.103352,0.05168 v 0.03101 q 0,0.02067 0,0.02067 0.01034,0 0.01034,0.01034 0,0.113687 -0.113688,0.196369 -0.113688,0.08268 -0.279052,0.134359 -0.165364,0.05168 -0.361734,0.07235 -0.19637,0.02067 -0.39274,0.04134 -0.186034,0.01033 -0.330728,0.01033 -0.144693,0 -0.206705,0 -0.599444,0 -1.085201,-0.134358 -0.475422,-0.134359 -0.816485,-0.413411 -0.330728,-0.289387 -0.516763,-0.723467 -0.186035,-0.444416 -0.186035,-1.043861 z"
         style="font-family:'Indie Flower';-inkscape-font-specification:'Indie Flower'"
         id="path1223" />
      <path
         d="m 37.657035,12.823962 q 0.01033,-0.1757 0.103352,-0.403075 0.09302,-0.227376 0.289387,-0.444416 0.19637,-0.21704 0.496092,-0.382404 0.299723,-0.1757 0.702798,-0.248047 0.41341,-0.07235 0.930172,-0.01033 0.527098,0.06201 1.167884,0.310058 0,-0.01033 0,-0.103353 l -0.01033,-0.09302 q 0,-0.268717 -0.155029,-0.547768 -0.155029,-0.279052 -0.403075,-0.496093 -0.237711,-0.227375 -0.516763,-0.361733 -0.279051,-0.144694 -0.537433,-0.144694 -0.103352,0 -0.186034,0.031006 -0.07235,0.031006 -0.144694,0.082682 -0.07235,0.04134 -0.144693,0.08268 -0.06201,0.03101 -0.155029,0.03101 -0.02067,0 -0.02067,-0.01034 -0.01033,-0.01033 -0.02067,-0.02067 -0.02067,-0.02067 -0.06201,-0.05168 -0.03101,-0.03101 -0.03101,-0.04134 0,-0.1860351 0.06201,-0.3203933 0.07235,-0.1343583 0.186035,-0.2170404 0.124023,-0.082682 0.268716,-0.124023 0.155029,-0.051676 0.320393,-0.051676 0.41341,0.041341 0.785479,0.2583814 0.382405,0.206705 0.692462,0.5270976 0.320393,0.320393 0.558104,0.744139 0.237711,0.41341 0.39274,0.868161 0.165364,0.444416 0.21704,0.899167 0.06201,0.475422 0.01034,0.888832 -0.01034,0 -0.06201,0 -0.05168,-0.01034 -0.113688,-0.01034 -0.06201,-0.01033 -0.103353,-0.02067 l -0.05168,-0.01033 q -0.21704,-0.485757 -0.485757,-0.78548 -0.268716,-0.299722 -0.537433,-0.465086 -0.258381,-0.175699 -0.485757,-0.237711 -0.227375,-0.07235 -0.372069,-0.103352 -0.155029,0 -0.372069,0.02067 -0.206705,0.02067 -0.434081,0.07235 -0.227375,0.05168 -0.465086,0.144693 -0.227376,0.08268 -0.41341,0.206706 -0.1757,0.124023 -0.289387,0.299722 -0.103353,0.165364 -0.103353,0.39274 0,0.248046 0.19637,0.423745 0.19637,0.165364 0.475421,0.279052 0.279052,0.103352 0.568439,0.144693 0.289388,0.04134 0.465087,0.04134 0.289387,0 0.568439,-0.03101 0.279052,-0.03101 0.547768,-0.07235 0.279052,-0.04134 0.547769,-0.07235 0.268716,-0.03101 0.537433,-0.03101 0.02067,0 0.07235,0 0.05168,0 0.103352,0.01034 0.06201,0 0.103353,0 0.05168,0 0.07235,0 0.08268,0.03101 0.09302,0.09302 0.01034,0.06201 0.01034,0.124023 0,0.06201 -0.134358,0.134358 -0.124023,0.07235 -0.330728,0.144694 -0.206705,0.07235 -0.465087,0.155028 -0.248046,0.07235 -0.485757,0.124024 -0.227375,0.05168 -0.43408,0.09302 -0.19637,0.03101 -0.279052,0.03101 -0.434081,0 -0.919838,-0.07235 -0.485757,-0.07235 -0.888832,-0.258382 -0.403075,-0.196369 -0.671791,-0.537433 -0.258381,-0.341063 -0.258381,-0.878496 z"
         style="font-family:'Indie Flower';-inkscape-font-specification:'Indie Flower'"
         id="path1225" />
      <path
         d="m 43.11405,10.539871 q 0,-0.09302 0.06201,-0.113688 0.07235,-0.03101 0.155029,-0.03101 0.06201,0 0.08268,0.03101 0.03101,0.03101 0.04134,0.07235 0.01034,0.04134 0.03101,0.08268 0.02067,0.031 0.07235,0.031 0.144694,0 0.351399,-0.113687 0.206705,-0.113688 0.444416,-0.248046 0.248046,-0.134359 0.516763,-0.248046 0.279052,-0.1136883 0.547768,-0.1136883 0.351399,0 0.640786,0.1860343 0.299722,0.1757 0.527098,0.475422 0.237711,0.299722 0.403075,0.671791 0.165364,0.37207 0.279052,0.764809 0.113687,0.382405 0.165364,0.754474 0.05168,0.361734 0.05168,0.63045 0,0.09302 -0.02067,0.279052 -0.01033,0.186035 -0.05168,0.372069 -0.03101,0.186035 -0.113688,0.330728 -0.08268,0.134359 -0.206705,0.134359 -0.02067,0 -0.07235,0 -0.05168,-0.01034 -0.103352,-0.02067 -0.05168,-0.02067 -0.09302,-0.04134 -0.03101,-0.02067 -0.03101,-0.06201 0.09302,-0.795815 0,-1.488277 -0.09302,-0.702797 -0.299722,-1.229895 -0.206706,-0.527098 -0.506428,-0.837156 -0.299722,-0.310057 -0.640786,-0.310057 -0.320392,0 -0.599444,0.103352 -0.279052,0.103353 -0.485757,0.299723 -0.206705,0.196369 -0.330728,0.475421 -0.113688,0.279052 -0.113688,0.60978 0,0.330728 0.06201,0.661456 0.06201,0.320393 0.134359,0.651121 0.08268,0.320393 0.144693,0.651121 0.06201,0.330728 0.06201,0.661457 -0.289387,0 -0.485757,-0.237711 -0.19637,-0.237711 -0.320393,-0.60978 -0.113688,-0.372069 -0.186035,-0.837156 -0.06201,-0.465086 -0.09302,-0.909502 -0.02067,-0.454751 -0.02067,-0.847491 0,-0.403075 0,-0.63045 z"
         style="font-family:'Indie Flower';-inkscape-font-specification:'Indie Flower'"
         id="path1227" />
      <path
         d="m 47.981954,10.539871 q 0,-0.09302 0.06201,-0.113688 0.07235,-0.03101 0.155029,-0.03101 0.06201,0 0.08268,0.03101 0.03101,0.03101 0.04134,0.07235 0.01034,0.04134 0.03101,0.08268 0.02067,0.031 0.07235,0.031 0.144694,0 0.351399,-0.113687 0.206705,-0.113688 0.444416,-0.248046 0.248046,-0.134359 0.516762,-0.248046 0.279052,-0.1136883 0.547769,-0.1136883 0.351398,0 0.640786,0.1860343 0.299722,0.1757 0.527097,0.475422 0.237711,0.299722 0.403075,0.671791 0.165364,0.37207 0.279052,0.764809 0.113688,0.382405 0.165364,0.754474 0.05168,0.361734 0.05168,0.63045 0,0.09302 -0.02067,0.279052 -0.01033,0.186035 -0.05168,0.372069 -0.03101,0.186035 -0.113688,0.330728 -0.08268,0.134359 -0.206705,0.134359 -0.02067,0 -0.07235,0 -0.05168,-0.01034 -0.103352,-0.02067 -0.05168,-0.02067 -0.09302,-0.04134 -0.03101,-0.02067 -0.03101,-0.06201 0.09302,-0.795815 0,-1.488277 -0.09302,-0.702797 -0.299723,-1.229895 -0.206705,-0.527098 -0.506427,-0.837156 -0.299723,-0.310057 -0.640786,-0.310057 -0.320393,0 -0.599445,0.103352 -0.279052,0.103353 -0.485757,0.299723 -0.206705,0.196369 -0.330728,0.475421 -0.113688,0.279052 -0.113688,0.60978 0,0.330728 0.06201,0.661456 0.06201,0.320393 0.134358,0.651121 0.08268,0.320393 0.144694,0.651121 0.06201,0.330728 0.06201,0.661457 -0.289387,0 -0.485757,-0.237711 -0.196369,-0.237711 -0.320392,-0.60978 -0.113688,-0.372069 -0.186035,-0.837156 -0.06201,-0.465086 -0.09302,-0.909502 -0.02067,-0.454751 -0.02067,-0.847491 0,-0.403075 0,-0.63045 z"
         style="font-family:'Indie Flower';-inkscape-font-specification:'Indie Flower'"
         id="path1229" />
      <path
         d="m 52.746503,12.462228 q 0,-0.568439 0.248046,-0.992184 0.248046,-0.423746 0.651121,-0.713133 0.403075,-0.289387 0.899167,-0.423745 0.506427,-0.144694 1.012855,-0.144694 0.268716,0 0.496092,0.103353 0.237711,0.09302 0.444416,0.268716 0.21704,0.165364 0.382404,0.39274 0.165364,0.21704 0.279052,0.454751 0.124023,0.237711 0.186034,0.485757 0.06201,0.237711 0.06201,0.465086 0,0.527098 -0.206705,0.940508 -0.206705,0.413411 -0.558104,0.702798 -0.351398,0.279051 -0.795814,0.43408 -0.444416,0.144694 -0.909503,0.144694 -0.475421,0 -0.878496,-0.144694 -0.39274,-0.155029 -0.692462,-0.423745 -0.289387,-0.268717 -0.454751,-0.661456 -0.165364,-0.403075 -0.165364,-0.888832 z m 0.506427,-0.08268 q 0,0.320393 0.113688,0.620115 0.124023,0.289387 0.330728,0.506427 0.21704,0.217041 0.506427,0.351399 0.289387,0.124023 0.620116,0.124023 0.175699,0.02067 0.423745,-0.05168 0.258381,-0.08268 0.506427,-0.227376 0.258382,-0.155029 0.485757,-0.361734 0.237711,-0.21704 0.39274,-0.465086 0.155029,-0.258381 0.186034,-0.527098 0.04134,-0.279052 -0.09302,-0.547768 -0.124023,-0.279052 -0.465086,-0.527098 -0.341064,-0.258382 -0.940508,-0.475422 -0.341064,0 -0.713133,0.103353 -0.361734,0.09302 -0.661456,0.289387 -0.299722,0.196369 -0.496092,0.496092 -0.19637,0.299722 -0.19637,0.692462 z"
         style="font-family:'Indie Flower';-inkscape-font-specification:'Indie Flower'"
         id="path1231" />
      <path
         d="m 59.113019,11.015292 q -0.08268,0 -0.289387,0 -0.206706,0 -0.434081,-0.03101 -0.21704,-0.04134 -0.403075,-0.124023 -0.175699,-0.08268 -0.175699,-0.237711 0,-0.04134 0.01033,-0.113688 0.02067,-0.08268 0.103352,-0.08268 l 1.064532,-0.09302 q 0.04134,-0.3824048 0.06201,-0.6201156 0.02067,-0.2480461 0.01034,-0.4547511 -0.01034,-0.2170404 -0.03101,-0.4444159 -0.01034,-0.2377109 -0.02067,-0.60978 0,-0.072347 0.03101,-0.1136878 0.03101,-0.041341 0.07235,-0.062012 0.05168,-0.02067 0.103352,-0.031006 0.06201,-0.010335 0.09302,-0.010335 0.06201,0 0.124024,0.041341 0.07235,0.041341 0.124023,0.1033525 0.05168,0.062012 0.08268,0.1343583 0.03101,0.062012 0.03101,0.1240231 l 0.08268,1.932692 0.888832,0.04134 q 0.175699,-0.02067 0.320393,0.07235 0.155029,0.08268 0.165364,0.320393 -0.124023,0.134358 -0.299722,0.165364 -0.1757,0.02067 -0.372069,0.02067 -0.186035,-0.01034 -0.37207,0 -0.186034,0 -0.330728,0.09302 0,0.06201 0.01034,0.341063 0.01034,0.279052 0.02067,0.661456 0.01033,0.382405 0.02067,0.816485 0.02067,0.434081 0.03101,0.80615 0.01034,0.361734 0.01034,0.620115 0.01033,0.258382 0.01033,0.289388 -0.237711,0.144693 -0.382404,-0.02067 -0.144694,-0.175699 -0.237711,-0.506427 -0.08268,-0.341064 -0.124023,-0.78548 -0.03101,-0.454751 -0.04134,-0.888831 0,-0.444416 0.01034,-0.816485 0.01033,-0.37207 0.03101,-0.537434 z"
         style="font-family:'Indie Flower';-inkscape-font-specification:'Indie Flower'"
         id="path1233" />
      <path
         d="m 65.44853,9.6096979 q -0.05168,-0.4547512 -0.124023,-0.775144 -0.07235,-0.3203929 -0.07235,-0.527098 0.01033,-0.206705 0.134358,-0.3203928 0.134359,-0.1136878 0.465087,-0.1550288 0.02067,0.1033525 0.05168,0.3927396 0.03101,0.2893871 0.06201,0.6614562 0.04134,0.3617339 0.08268,0.7648088 0.05168,0.3927401 0.09302,0.7234681 0.04134,0.330728 0.09302,0.537433 0.05168,0.227375 0.09302,0.206705 0.186035,0 0.361734,-0.06201 0.186035,-0.06201 0.39274,-0.06201 0.310058,0 0.661456,0.06201 0.351399,0.05168 0.692462,0.165364 0.351399,0.113688 0.671792,0.299723 0.330728,0.175699 0.568439,0.41341 0.248046,0.237711 0.392739,0.547768 0.144694,0.310058 0.144694,0.682127 0,0.475422 -0.237711,0.764809 -0.227376,0.279052 -0.58911,0.423745 -0.361733,0.144694 -0.785479,0.186035 -0.43408,0.04134 -0.80615,0.04134 -0.516762,0 -0.857826,-0.124023 -0.341063,-0.134359 -0.558103,-0.361734 -0.217041,-0.227376 -0.330728,-0.527098 -0.113688,-0.299722 -0.165364,-0.651121 -0.05168,-0.361734 -0.07235,-0.744138 -0.02067,-0.39274 -0.06201,-0.78548 -0.01033,-0.07235 -0.05168,-0.320392 -0.04134,-0.258382 -0.103353,-0.558104 -0.05168,-0.310058 -0.09302,-0.568439 -0.04134,-0.2583813 -0.05168,-0.3307281 z m 0.992184,2.7078361 q -0.103352,0.454751 0.05168,0.78548 0.165365,0.330728 0.465087,0.547768 0.310058,0.206705 0.702797,0.289387 0.403075,0.08268 0.795815,0.03101 0.392739,-0.06201 0.702797,-0.248046 0.330728,-0.19637 0.475422,-0.537433 0,-0.279052 -0.134359,-0.506428 -0.124023,-0.227375 -0.330728,-0.403075 -0.206705,-0.175699 -0.475422,-0.299722 -0.258381,-0.134358 -0.537433,-0.21704 -0.268716,-0.08268 -0.537433,-0.124023 -0.268716,-0.05168 -0.475422,-0.05168 -0.341063,0 -0.527097,0.19637 -0.1757,0.19637 -0.1757,0.537433 z"
         style="font-family:'Indie Flower';-inkscape-font-specification:'Indie Flower'"
         id="path1235" />
      <path
         d="m 70.60582,11.800772 q 0,-0.537434 0.155029,-1.02319 0.165364,-0.496093 0.465087,-0.8681618 0.310057,-0.3720691 0.744138,-0.5891094 0.444416,-0.2273756 1.02319,-0.2273756 0.341063,0.041341 0.589109,0.1860346 0.258382,0.1446935 0.413411,0.3617338 0.165364,0.2067051 0.23771,0.4857574 0.06201,0.268716 0.06201,0.578774 0,0.372069 -0.21704,0.671791 -0.217041,0.299723 -0.547769,0.506428 -0.330728,0.196369 -0.713132,0.310057 -0.382405,0.103353 -0.713133,0.103353 -0.124023,0 -0.258381,0 -0.124023,0 -0.227376,-0.04134 -0.103352,-0.04134 -0.165364,-0.124023 -0.06201,-0.08268 -0.06201,-0.248046 0,-0.05168 0.01033,-0.08268 0.02067,-0.04134 0.09302,-0.05168 0.07235,-0.02067 0.21704,-0.01034 0.144694,0.02067 0.39274,0.06201 0.144694,0 0.41341,-0.09302 0.279052,-0.103352 0.558104,-0.258381 0.289387,-0.155029 0.496092,-0.351399 0.206705,-0.206705 0.206705,-0.403074 0,-0.206706 -0.07235,-0.403075 -0.06201,-0.206705 -0.196369,-0.3617343 -0.134359,-0.1550288 -0.320393,-0.248046 -0.1757,-0.093017 -0.403075,-0.072347 -0.361734,0.031006 -0.661456,0.1963698 -0.289387,0.1653641 -0.496093,0.4340803 -0.206705,0.258382 -0.320392,0.578775 -0.113688,0.320392 -0.113688,0.671791 0,0.268717 0.01033,0.537433 0.01033,0.268717 0.07235,0.527098 0.07235,0.258381 0.21704,0.496092 0.155029,0.237711 0.434081,0.423746 0.289387,0.175699 0.723468,0.299722 0.43408,0.113688 1.074866,0.144694 l 1.85001,-0.124023 q -0.165364,0.227375 -0.423745,0.372069 -0.248046,0.144693 -0.537433,0.237711 -0.279052,0.08268 -0.558104,0.124023 -0.279052,0.04134 -0.527098,0.04134 -0.599445,0 -1.126543,-0.19637 Q 71.877057,14.17788 71.473982,13.826481 71.070907,13.464747 70.833196,12.95832 70.60582,12.441557 70.60582,11.800772 Z"
         style="font-family:'Indie Flower';-inkscape-font-specification:'Indie Flower'"
         id="path1237" />
      <path
         d="m 80.010901,13.320054 q 0.08268,-0.06201 0.144693,-0.07235 0.07235,-0.02067 0.155029,-0.02067 0.09302,0 0.186034,0.05168 0.09302,0.04134 0.165365,0.113688 0.08268,0.06201 0.165364,0.124023 0.08268,0.06201 0.175699,0.103352 0.268717,0.113688 0.423745,0.186035 0.165364,0.07235 0.299723,0.113688 0.134358,0.04134 0.310057,0.05168 0.1757,0.01033 0.454751,0.01033 0.217041,0 0.527098,0.01033 0.310058,0 0.58911,-0.05168 0.279052,-0.06201 0.475421,-0.206705 0.19637,-0.155029 0.19637,-0.465086 0.01034,-0.299723 -0.165364,-0.465087 -0.165364,-0.175699 -0.454751,-0.268716 -0.289387,-0.09302 -0.651121,-0.124023 -0.361734,-0.04134 -0.744138,-0.08268 -0.382405,-0.04134 -0.754474,-0.113688 -0.361734,-0.08268 -0.651121,-0.248046 -0.289387,-0.165364 -0.465086,-0.454751 -0.175699,-0.289388 -0.186035,-0.744139 0.06201,-0.330728 0.320393,-0.547768 0.268717,-0.2273757 0.630451,-0.3410635 0.372069,-0.1240231 0.785479,-0.1240231 0.41341,-0.010335 0.754473,0.1033526 0.351399,0.1033525 0.578775,0.341063 0.237711,0.237711 0.248046,0.58911 0.02067,0.206705 -0.03101,0.341063 -0.05168,0.134358 -0.144694,0.206705 -0.08268,0.06201 -0.175699,0.06201 -0.09302,-0.01034 -0.144693,-0.07235 -0.05168,-0.07235 -0.05168,-0.19637 0.01034,-0.134358 0.124023,-0.330728 -0.04134,-0.19637 -0.23771,-0.310058 -0.19637,-0.113687 -0.454752,-0.155028 -0.258381,-0.05168 -0.558103,-0.02067 -0.289387,0.02067 -0.537433,0.103353 -0.237711,0.08268 -0.39274,0.21704 -0.144694,0.134358 -0.124023,0.310058 0,0.310057 0.175699,0.485757 0.186035,0.165364 0.475422,0.258381 0.289387,0.09302 0.661456,0.134358 0.382404,0.04134 0.775144,0.08268 0.403075,0.03101 0.775144,0.103353 0.372069,0.06201 0.671792,0.21704 0.299722,0.155029 0.475421,0.423745 0.1757,0.258382 0.1757,0.682127 0,0.320393 -0.165365,0.558104 -0.165364,0.227375 -0.423745,0.382404 -0.248046,0.155029 -0.547768,0.227376 -0.299723,0.07235 -0.568439,0.07235 -0.268717,0 -0.578775,0 -0.299722,-0.01034 -0.620115,-0.04134 -0.310057,-0.03101 -0.63045,-0.09302 -0.320393,-0.07235 -0.599445,-0.206705 -0.268716,-0.144693 -0.485757,-0.361734 -0.21704,-0.21704 -0.351398,-0.547768 z"
         style="font-family:'Indie Flower';-inkscape-font-specification:'Indie Flower'"
         id="path1239" />
      <path
         d="m 85.478249,12.823962 q 0.01033,-0.1757 0.103353,-0.403075 0.09302,-0.227376 0.289387,-0.444416 0.19637,-0.21704 0.496092,-0.382404 0.299722,-0.1757 0.702797,-0.248047 0.41341,-0.07235 0.930173,-0.01033 0.527098,0.06201 1.167884,0.310058 0,-0.01033 0,-0.103353 l -0.01033,-0.09302 q 0,-0.268717 -0.155029,-0.547768 -0.155029,-0.279052 -0.403075,-0.496093 -0.237711,-0.227375 -0.516763,-0.361733 -0.279052,-0.144694 -0.537433,-0.144694 -0.103353,0 -0.186035,0.031006 -0.07235,0.031006 -0.144693,0.082682 -0.07235,0.04134 -0.144694,0.08268 -0.06201,0.03101 -0.155029,0.03101 -0.02067,0 -0.02067,-0.01034 -0.01033,-0.01033 -0.02067,-0.02067 -0.02067,-0.02067 -0.06201,-0.05168 -0.03101,-0.03101 -0.03101,-0.04134 0,-0.1860351 0.06201,-0.3203933 0.07235,-0.1343583 0.186034,-0.2170404 0.124023,-0.082682 0.268717,-0.124023 0.155029,-0.051676 0.320393,-0.051676 0.41341,0.041341 0.785479,0.2583814 0.382404,0.206705 0.692462,0.5270976 0.320393,0.320393 0.558104,0.744139 0.237711,0.41341 0.392739,0.868161 0.165364,0.444416 0.217041,0.899167 0.06201,0.475422 0.01034,0.888832 -0.01034,0 -0.06201,0 -0.05168,-0.01034 -0.113687,-0.01034 -0.06201,-0.01033 -0.103353,-0.02067 l -0.05168,-0.01033 q -0.217041,-0.485757 -0.485757,-0.78548 -0.268717,-0.299722 -0.537433,-0.465086 -0.258382,-0.175699 -0.485757,-0.237711 -0.227376,-0.07235 -0.372069,-0.103352 -0.155029,0 -0.372069,0.02067 -0.206706,0.02067 -0.434081,0.07235 -0.227376,0.05168 -0.465087,0.144693 -0.227375,0.08268 -0.41341,0.206706 -0.175699,0.124023 -0.289387,0.299722 -0.103352,0.165364 -0.103352,0.39274 0,0.248046 0.196369,0.423745 0.19637,0.165364 0.475422,0.279052 0.279052,0.103352 0.568439,0.144693 0.289387,0.04134 0.465087,0.04134 0.289387,0 0.568438,-0.03101 0.279052,-0.03101 0.547769,-0.07235 0.279052,-0.04134 0.547768,-0.07235 0.268717,-0.03101 0.537434,-0.03101 0.02067,0 0.07235,0 0.05168,0 0.103353,0.01034 0.06201,0 0.103352,0 0.05168,0 0.07235,0 0.08268,0.03101 0.09302,0.09302 0.01034,0.06201 0.01034,0.124023 0,0.06201 -0.134359,0.134358 -0.124023,0.07235 -0.330728,0.144694 -0.206705,0.07235 -0.465086,0.155028 -0.248046,0.07235 -0.485757,0.124024 -0.227376,0.05168 -0.434081,0.09302 -0.19637,0.03101 -0.279052,0.03101 -0.43408,0 -0.919837,-0.07235 -0.485757,-0.07235 -0.888832,-0.258382 -0.403075,-0.196369 -0.671791,-0.537433 -0.258382,-0.341063 -0.258382,-0.878496 z"
         style="font-family:'Indie Flower';-inkscape-font-specification:'Indie Flower'"
         id="path1241" />
      <path
         d="m 91.286669,10.994622 q 0,-0.04134 0,-0.155029 0,-0.113688 0,-0.237711 0.01033,-0.124023 0.01033,-0.237711 0,-0.113687 0,-0.155028 -0.04134,-0.3203933 0.186034,-0.3203933 0.103353,0 0.1757,0.051676 0.07235,0.051676 0.134358,0.155029 -0.03101,0.537433 0.04134,1.04386 0.08268,0.496093 0.175699,0.992185 0.103353,0.485757 0.186035,0.981849 0.09302,0.496092 0.09302,1.033525 0,0.144694 -0.09302,0.289387 -0.08268,0.144694 -0.258381,0.144694 -0.134359,0 -0.237711,-0.227376 -0.09302,-0.237711 -0.165364,-0.589109 -0.07235,-0.361734 -0.124023,-0.795815 -0.05168,-0.43408 -0.08268,-0.82682 -0.02067,-0.403075 -0.03101,-0.713132 -0.01033,-0.320393 -0.01033,-0.434081 z M 90.759571,8.4004732 q 0,-0.124023 0.07235,-0.1550288 0.07235,-0.041341 0.186035,-0.041341 0.07235,-0.010335 0.186035,0.093017 0.124023,0.093017 0.196369,0.2170403 0.08268,0.124023 0.09302,0.2273756 0.01033,0.124023 -0.155029,0.1446935 h -0.05168 q -0.155029,0 -0.258382,-0.020671 -0.103352,-0.02067 -0.165364,-0.062011 -0.05168,-0.051676 -0.08268,-0.1446935 -0.02067,-0.093017 -0.02067,-0.2583814 z"
         style="font-family:'Indie Flower';-inkscape-font-specification:'Indie Flower'"
         id="path1243" />
      <path
         d="m 92.681924,12.224517 q 0,-0.382404 0.09302,-0.80615 0.103352,-0.423745 0.310057,-0.785479 0.217041,-0.361734 0.537434,-0.589109 0.330728,-0.2377113 0.806149,-0.2377113 0.248046,0 0.496093,0.072347 0.248046,0.072347 0.506427,0.2067055 0.268717,0.134358 0.547768,0.320392 0.289388,0.1757 0.60978,0.39274 0.04134,-0.41341 -0.03101,-0.8474908 Q 96.485297,9.5063453 96.371609,9.0825999 96.257921,8.6588546 96.133898,8.2867854 96.02021,7.904381 95.968534,7.6046587 q -0.05168,-0.2997224 -0.01034,-0.4960922 0.04134,-0.1963698 0.248046,-0.2480461 0.279052,0.2067051 0.475422,0.5891095 0.206705,0.3720691 0.351398,0.8681613 0.144694,0.4960922 0.237711,1.0645311 0.09302,0.5581037 0.155029,1.1368777 0.06201,0.578774 0.09302,1.126543 0.04134,0.547768 0.08268,1.012855 0.04134,0.454751 0.07235,0.785479 0.04134,0.320393 0.113688,0.454751 0,0.165364 -0.124023,0.206705 -0.113688,0.04134 -0.237711,0.04134 -0.103353,0 -0.175699,-0.07235 -0.07235,-0.08268 -0.113688,-0.186034 -0.04134,-0.103353 -0.08268,-0.227376 -0.03101,-0.134358 -0.07235,-0.237711 -0.04134,-0.113687 -0.09302,-0.186034 -0.05168,-0.07235 -0.134359,-0.07235 -0.02067,0 -0.06201,0.01033 -0.03101,0 -0.03101,0.01034 -0.19637,0.268716 -0.465086,0.527098 -0.258382,0.248046 -0.578774,0.444415 -0.310058,0.186035 -0.661457,0.299723 -0.341063,0.113688 -0.692462,0.113688 -0.392739,0 -0.692462,-0.258382 -0.289387,-0.258381 -0.496092,-0.620115 -0.19637,-0.361734 -0.299722,-0.764809 -0.09302,-0.403075 -0.09302,-0.702797 z m 0.640785,0.186035 q 0.103353,0.372069 0.186035,0.651121 0.08268,0.279051 0.19637,0.454751 0.124023,0.175699 0.289387,0.268716 0.165364,0.08268 0.43408,0.08268 0.330729,0 0.702798,-0.186034 0.372069,-0.19637 0.692462,-0.496092 0.320392,-0.299723 0.527098,-0.651121 0.206705,-0.361734 0.206705,-0.692462 0,-0.03101 0,-0.124023 0,-0.09302 0,-0.124023 -0.547769,-0.537434 -1.012855,-0.764809 -0.454751,-0.237711 -0.816485,-0.237711 -0.361734,-0.01033 -0.630451,0.155029 -0.268716,0.165364 -0.444416,0.43408 -0.175699,0.268717 -0.258381,0.599445 -0.08268,0.330728 -0.07235,0.630451 z"
         style="font-family:'Indie Flower';-inkscape-font-specification:'Indie Flower'"
         id="path1245" />
      <path
         d="m 11.519178,28.072764 q -0.41341,0.558103 -0.837156,0.785479 -0.41341,0.21704 -0.7958142,0.19637 Q 9.5141386,29.023607 9.1730753,28.775561 8.8423471,28.527515 8.5943011,28.155446 8.3565902,27.783377 8.2015614,27.31829 8.0568679,26.842869 8.0465326,26.357112 q -0.010335,-0.485757 0.1240231,-0.940508 0.1446935,-0.465087 0.4754216,-0.826821 0.1653641,0.06201 0.1860346,0.165364 0.020671,0.113688 0.020671,0.237711 0,0.175699 -0.041341,0.341063 -0.031006,0.155029 -0.072347,0.320393 -0.041341,0.165364 -0.082682,0.341064 -0.031006,0.175699 -0.031006,0.361734 0,0.134358 0.031006,0.341063 0.031006,0.19637 0.082682,0.423745 0.062012,0.227376 0.1550288,0.454752 0.093017,0.21704 0.2170403,0.403074 0.1343583,0.1757 0.2893871,0.299723 0.1550288,0.113688 0.3513987,0.113688 0.1756993,0 0.4134105,-0.103353 0.248046,-0.113688 0.465086,-0.279052 0.227376,-0.165364 0.372069,-0.372069 0.155029,-0.206705 0.155029,-0.41341 l 0.06201,-1.343583 q 0,-0.03101 0.04134,-0.06201 0.04134,-0.03101 0.08268,-0.05168 0.05168,-0.03101 0.103352,-0.05168 0.05168,-0.02067 0.07235,-0.02067 0.144693,0 0.19637,0.186035 0.05168,0.186034 0.08268,0.485757 0.03101,0.289387 0.07235,0.620115 0.04134,0.330728 0.144694,0.630451 0.113688,0.289387 0.330728,0.475421 0.206705,0.186035 0.599445,0.186035 0.382404,-0.01034 0.60978,-0.155029 0.227375,-0.155029 0.330728,-0.403075 0.103352,-0.248046 0.09302,-0.547768 0,-0.310058 -0.08268,-0.60978 -0.07235,-0.310058 -0.206705,-0.58911 -0.124023,-0.279052 -0.279052,-0.485757 -0.02067,-0.08268 0,-0.113687 0.02067,-0.04134 0.05168,-0.05168 0.04134,-0.02067 0.09302,-0.02067 0.05168,-0.01034 0.08268,-0.01034 0.165364,0.04134 0.351398,0.279052 0.19637,0.227376 0.341064,0.547769 0.144693,0.320393 0.21704,0.713132 0.08268,0.39274 0.04134,0.775144 -0.03101,0.382405 -0.21704,0.713133 -0.186035,0.330728 -0.568439,0.537433 -0.454751,0.03101 -0.744138,0.04134 -0.289388,0 -0.485757,-0.02067 -0.186035,-0.03101 -0.299723,-0.09302 -0.113687,-0.06201 -0.21704,-0.155029 -0.103353,-0.103352 -0.227376,-0.23771 -0.113687,-0.134359 -0.310057,-0.320393 z"
         style="font-family:'Indie Flower';-inkscape-font-specification:'Indie Flower'"
         id="path1247" />
      <path
         d="m 15.539592,25.48895 q 0,-0.04134 0,-0.155029 0,-0.113687 0,-0.23771 0.01033,-0.124023 0.01033,-0.237711 0,-0.113688 0,-0.155029 -0.04134,-0.320393 0.186034,-0.320393 0.103353,0 0.1757,0.05168 0.07235,0.05168 0.134358,0.155029 -0.03101,0.537433 0.04134,1.043861 0.08268,0.496092 0.175699,0.992184 0.103353,0.485757 0.186035,0.981849 0.09302,0.496092 0.09302,1.033526 0,0.144693 -0.09302,0.289387 -0.08268,0.144693 -0.258381,0.144693 -0.134359,0 -0.237711,-0.227375 -0.09302,-0.237711 -0.165364,-0.58911 -0.07235,-0.361734 -0.124023,-0.795814 -0.05168,-0.434081 -0.08268,-0.826821 -0.02067,-0.403074 -0.03101,-0.713132 -0.01033,-0.320393 -0.01033,-0.434081 z m -0.527098,-2.594148 q 0,-0.124023 0.07235,-0.155029 0.07235,-0.04134 0.186035,-0.04134 0.07235,-0.01034 0.186035,0.09302 0.124023,0.09302 0.196369,0.21704 0.08268,0.124023 0.09302,0.227376 0.01033,0.124023 -0.155029,0.144694 h -0.05168 q -0.155029,0 -0.258382,-0.02067 -0.103352,-0.02067 -0.165364,-0.06201 -0.05168,-0.05168 -0.08268,-0.144694 -0.02067,-0.09302 -0.02067,-0.258381 z"
         style="font-family:'Indie Flower';-inkscape-font-specification:'Indie Flower'"
         id="path1249" />
      <path
         d="m 17.162227,28.982266 q -0.103353,-0.733803 -0.134358,-1.457271 -0.02067,-0.733803 -0.02067,-1.467606 0,-0.733803 0.02067,-1.457271 0.02067,-0.723467 0.01034,-1.446935 0,-0.08268 0.06201,-0.113688 0.06201,-0.03101 0.144694,-0.03101 0.09302,0 0.165364,0.07235 0.07235,0.06201 0.124023,0.165364 0.05168,0.09302 0.07235,0.19637 0.03101,0.09302 0.03101,0.155029 0.06201,1.477941 0.08268,2.470125 0.02067,0.98185 0,1.59163 -0.02067,0.599444 -0.07235,0.888831 -0.04134,0.289387 -0.113688,0.39274 -0.07235,0.103353 -0.175699,0.08268 -0.09302,-0.02067 -0.19637,-0.04134 z"
         style="font-family:'Indie Flower';-inkscape-font-specification:'Indie Flower'"
         id="path1251" />
      <path
         d="m 18.433462,28.982266 q -0.103352,-0.733803 -0.134358,-1.457271 -0.02067,-0.733803 -0.02067,-1.467606 0,-0.733803 0.02067,-1.457271 0.02067,-0.723467 0.01034,-1.446935 0,-0.08268 0.06201,-0.113688 0.06201,-0.03101 0.144693,-0.03101 0.09302,0 0.165364,0.07235 0.07235,0.06201 0.124024,0.165364 0.05168,0.09302 0.07235,0.19637 0.03101,0.09302 0.03101,0.155029 0.06201,1.477941 0.08268,2.470125 0.02067,0.98185 0,1.59163 -0.02067,0.599444 -0.07235,0.888831 -0.04134,0.289387 -0.113687,0.39274 -0.07235,0.103353 -0.1757,0.08268 -0.09302,-0.02067 -0.19637,-0.04134 z"
         style="font-family:'Indie Flower';-inkscape-font-specification:'Indie Flower'"
         id="path1253" />
      <path
         d="m 23.549413,24.104026 q -0.05168,-0.454751 -0.124023,-0.775144 -0.07235,-0.320393 -0.07235,-0.527098 0.01033,-0.206705 0.134358,-0.320392 0.134358,-0.113688 0.465086,-0.155029 0.02067,0.103352 0.05168,0.392739 0.03101,0.289387 0.06201,0.661457 0.04134,0.361733 0.08268,0.764808 0.05168,0.39274 0.09302,0.723468 0.04134,0.330728 0.09302,0.537433 0.05168,0.227376 0.09302,0.206705 0.186034,0 0.361734,-0.06201 0.186034,-0.06201 0.392739,-0.06201 0.310058,0 0.661457,0.06201 0.351398,0.05168 0.692462,0.165364 0.351398,0.113688 0.671791,0.299722 0.330728,0.1757 0.568439,0.41341 0.248046,0.237711 0.39274,0.547769 0.144693,0.310057 0.144693,0.682127 0,0.475421 -0.237711,0.764808 -0.227375,0.279052 -0.589109,0.423746 -0.361734,0.144693 -0.785479,0.186034 -0.434081,0.04134 -0.80615,0.04134 -0.516763,0 -0.857826,-0.124023 -0.341063,-0.134358 -0.558104,-0.361734 -0.21704,-0.227375 -0.330728,-0.527098 -0.113688,-0.299722 -0.165364,-0.651121 -0.05168,-0.361733 -0.07235,-0.744138 -0.02067,-0.392739 -0.06201,-0.785479 -0.01034,-0.07235 -0.05168,-0.320393 -0.04134,-0.258381 -0.103352,-0.558104 -0.05168,-0.310057 -0.09302,-0.568439 -0.04134,-0.258381 -0.05168,-0.330728 z m 0.992185,2.707837 q -0.103353,0.454751 0.05168,0.785479 0.165364,0.330728 0.465086,0.547768 0.310058,0.206706 0.702798,0.289388 0.403075,0.08268 0.795814,0.031 0.39274,-0.06201 0.702797,-0.248046 0.330729,-0.19637 0.475422,-0.537433 0,-0.279052 -0.134358,-0.506427 -0.124023,-0.227376 -0.330728,-0.403075 -0.206705,-0.1757 -0.475422,-0.299723 -0.258381,-0.134358 -0.537433,-0.21704 -0.268717,-0.08268 -0.537433,-0.124023 -0.268717,-0.05168 -0.475422,-0.05168 -0.341063,0 -0.527098,0.19637 -0.175699,0.196369 -0.175699,0.537433 z"
         style="font-family:'Indie Flower';-inkscape-font-specification:'Indie Flower'"
         id="path1255" />
      <path
         d="m 28.706704,26.2951 q 0,-0.537433 0.155029,-1.02319 0.165364,-0.496092 0.465086,-0.868161 0.310058,-0.372069 0.744138,-0.58911 0.444416,-0.227375 1.02319,-0.227375 0.341064,0.04134 0.58911,0.186034 0.258381,0.144694 0.41341,0.361734 0.165364,0.206705 0.237711,0.485757 0.06201,0.268717 0.06201,0.578774 0,0.372069 -0.21704,0.671792 -0.21704,0.299722 -0.547768,0.506427 -0.330729,0.19637 -0.713133,0.310058 -0.382404,0.103352 -0.713132,0.103352 -0.124023,0 -0.258382,0 -0.124023,0 -0.227375,-0.04134 -0.103353,-0.04134 -0.165364,-0.124023 -0.06201,-0.08268 -0.06201,-0.248046 0,-0.05168 0.01033,-0.08268 0.02067,-0.04134 0.09302,-0.05168 0.07235,-0.02067 0.21704,-0.01034 0.144694,0.02067 0.39274,0.06201 0.144693,0 0.41341,-0.09302 0.279052,-0.103353 0.558103,-0.258382 0.289388,-0.155028 0.496093,-0.351398 0.206705,-0.206705 0.206705,-0.403075 0,-0.206705 -0.07235,-0.403075 -0.06201,-0.206705 -0.19637,-0.361734 -0.134358,-0.155029 -0.320393,-0.248046 -0.175699,-0.09302 -0.403075,-0.07235 -0.361734,0.03101 -0.661456,0.19637 -0.289387,0.165364 -0.496092,0.434081 -0.206705,0.258381 -0.320393,0.578774 -0.113688,0.320393 -0.113688,0.671791 0,0.268717 0.01034,0.537434 0.01033,0.268716 0.07235,0.527098 0.07235,0.258381 0.217041,0.496092 0.155028,0.237711 0.43408,0.423745 0.289387,0.175699 0.723468,0.299722 0.434081,0.113688 1.074866,0.144694 l 1.850011,-0.124023 q -0.165364,0.227376 -0.423746,0.372069 -0.248046,0.144694 -0.537433,0.237711 -0.279052,0.08268 -0.558103,0.124023 -0.279052,0.04134 -0.527098,0.04134 -0.599445,0 -1.126543,-0.19637 Q 29.97794,28.672208 29.574865,28.32081 29.17179,27.959076 28.934079,27.452648 28.706704,26.935886 28.706704,26.2951 Z"
         style="font-family:'Indie Flower';-inkscape-font-specification:'Indie Flower'"
         id="path1257" />
      <path
         d="m 41.512084,28.072764 q -0.41341,0.558103 -0.837155,0.785479 -0.41341,0.21704 -0.795815,0.19637 -0.372069,-0.03101 -0.713132,-0.279052 -0.330728,-0.248046 -0.578774,-0.620115 -0.237711,-0.372069 -0.39274,-0.837156 -0.144694,-0.475421 -0.155029,-0.961178 -0.01034,-0.485757 0.124023,-0.940508 0.144694,-0.465087 0.475422,-0.826821 0.165364,0.06201 0.186034,0.165364 0.02067,0.113688 0.02067,0.237711 0,0.175699 -0.04134,0.341063 -0.03101,0.155029 -0.07235,0.320393 -0.04134,0.165364 -0.08268,0.341064 -0.03101,0.175699 -0.03101,0.361734 0,0.134358 0.03101,0.341063 0.03101,0.19637 0.08268,0.423745 0.06201,0.227376 0.155029,0.454752 0.09302,0.21704 0.21704,0.403074 0.134359,0.1757 0.289387,0.299723 0.155029,0.113688 0.351399,0.113688 0.175699,0 0.41341,-0.103353 0.248046,-0.113688 0.465087,-0.279052 0.227375,-0.165364 0.372069,-0.372069 0.155029,-0.206705 0.155029,-0.41341 l 0.06201,-1.343583 q 0,-0.03101 0.04134,-0.06201 0.04134,-0.03101 0.08268,-0.05168 0.05168,-0.03101 0.103353,-0.05168 0.05168,-0.02067 0.07235,-0.02067 0.144694,0 0.19637,0.186035 0.05168,0.186034 0.08268,0.485757 0.03101,0.289387 0.07235,0.620115 0.04134,0.330728 0.144694,0.630451 0.113687,0.289387 0.330728,0.475421 0.206705,0.186035 0.599444,0.186035 0.382405,-0.01034 0.60978,-0.155029 0.227376,-0.155029 0.330728,-0.403075 0.103353,-0.248046 0.09302,-0.547768 0,-0.310058 -0.08268,-0.60978 -0.07235,-0.310058 -0.206705,-0.58911 -0.124023,-0.279052 -0.279052,-0.485757 -0.02067,-0.08268 0,-0.113687 0.02067,-0.04134 0.05168,-0.05168 0.04134,-0.02067 0.09302,-0.02067 0.05168,-0.01034 0.08268,-0.01034 0.165364,0.04134 0.351399,0.279052 0.19637,0.227376 0.341063,0.547769 0.144694,0.320393 0.217041,0.713132 0.08268,0.39274 0.04134,0.775144 -0.03101,0.382405 -0.217041,0.713133 -0.186034,0.330728 -0.568439,0.537433 -0.454751,0.03101 -0.744138,0.04134 -0.289387,0 -0.485757,-0.02067 -0.186034,-0.03101 -0.299722,-0.09302 -0.113688,-0.06201 -0.21704,-0.155029 -0.103353,-0.103352 -0.227376,-0.23771 -0.113688,-0.134359 -0.310058,-0.320393 z"
         style="font-family:'Indie Flower';-inkscape-font-specification:'Indie Flower'"
         id="path1259" />
      <path
         d="m 45.077748,26.2951 q 0,-0.537433 0.155029,-1.02319 0.165364,-0.496092 0.465086,-0.868161 0.310058,-0.372069 0.744138,-0.58911 0.444416,-0.227375 1.023191,-0.227375 0.341063,0.04134 0.589109,0.186034 0.258381,0.144694 0.41341,0.361734 0.165364,0.206705 0.237711,0.485757 0.06201,0.268717 0.06201,0.578774 0,0.372069 -0.217041,0.671792 -0.21704,0.299722 -0.547768,0.506427 -0.330728,0.19637 -0.713133,0.310058 -0.382404,0.103352 -0.713132,0.103352 -0.124023,0 -0.258382,0 -0.124023,0 -0.227375,-0.04134 -0.103353,-0.04134 -0.165364,-0.124023 -0.06201,-0.08268 -0.06201,-0.248046 0,-0.05168 0.01034,-0.08268 0.02067,-0.04134 0.09302,-0.05168 0.07235,-0.02067 0.21704,-0.01034 0.144694,0.02067 0.39274,0.06201 0.144693,0 0.41341,-0.09302 0.279052,-0.103353 0.558104,-0.258382 0.289387,-0.155028 0.496092,-0.351398 0.206705,-0.206705 0.206705,-0.403075 0,-0.206705 -0.07235,-0.403075 -0.06201,-0.206705 -0.19637,-0.361734 -0.134358,-0.155029 -0.320393,-0.248046 -0.175699,-0.09302 -0.403075,-0.07235 -0.361733,0.03101 -0.661456,0.19637 -0.289387,0.165364 -0.496092,0.434081 -0.206705,0.258381 -0.320393,0.578774 -0.113688,0.320393 -0.113688,0.671791 0,0.268717 0.01034,0.537434 0.01033,0.268716 0.07235,0.527098 0.07235,0.258381 0.217041,0.496092 0.155029,0.237711 0.43408,0.423745 0.289388,0.175699 0.723468,0.299722 0.434081,0.113688 1.074867,0.144694 l 1.85001,-0.124023 q -0.165364,0.227376 -0.423745,0.372069 -0.248047,0.144694 -0.537434,0.237711 -0.279051,0.08268 -0.558103,0.124023 -0.279052,0.04134 -0.527098,0.04134 -0.599445,0 -1.126543,-0.19637 -0.527098,-0.19637 -0.930173,-0.547768 -0.403075,-0.361734 -0.640785,-0.868162 -0.227376,-0.516762 -0.227376,-1.157548 z"
         style="font-family:'Indie Flower';-inkscape-font-specification:'Indie Flower'"
         id="path1261" />
      <path
         d="m 50.53476,27.71103 q 0,-0.651121 0.227376,-1.095537 0.227375,-0.444416 0.599444,-0.713133 0.382405,-0.268716 0.878497,-0.392739 0.506427,-0.124023 1.054196,-0.124023 0.444416,0 0.857826,0.144693 0.423745,0.144694 0.754473,0.403075 0.330729,0.258382 0.527098,0.630451 0.19637,0.372069 0.19637,0.84749 0,0.413411 -0.155029,0.682127 -0.155028,0.258382 -0.423745,0.41341 -0.268717,0.144694 -0.599445,0.206705 -0.320393,0.06201 -0.661456,0.06201 -0.330728,0 -0.682127,-0.03101 -0.341063,-0.03101 -0.63045,-0.144693 -0.289387,-0.113688 -0.475422,-0.341064 -0.186034,-0.227375 -0.186034,-0.640785 0.21704,0 0.41341,0.09302 0.206705,0.08268 0.41341,0.186034 0.206705,0.09302 0.41341,0.1757 0.19637,0.09302 0.423745,0.09302 0.165364,0 0.434081,-0.03101 0.279052,-0.03101 0.516763,-0.113688 0.248046,-0.09302 0.423745,-0.248046 0.175699,-0.155028 0.175699,-0.392739 0,-0.351399 -0.155028,-0.60978 -0.155029,-0.258382 -0.403075,-0.423746 -0.248046,-0.175699 -0.558104,-0.268716 -0.310058,-0.09302 -0.620115,-0.09302 -0.04134,0 -0.206705,0.02067 -0.155029,0.02067 -0.361734,0.07235 -0.206705,0.04134 -0.434081,0.113688 -0.227375,0.06201 -0.423745,0.165364 -0.186035,0.09302 -0.310058,0.21704 -0.124023,0.124023 -0.124023,0.279052 v 0.124023 q 0.01034,0.113688 0.02067,0.310057 0.02067,0.186035 0.03101,0.382405 0.01034,0.186034 0.03101,0.330728 0.02067,0.144693 0.02067,0.165364 0.02067,0.165364 0.07235,0.516763 0.05168,0.341063 0.113687,0.764808 0.06201,0.434081 0.134359,0.909503 0.08268,0.475421 0.155028,0.899167 0.07235,0.43408 0.124023,0.775144 0.06201,0.341063 0.09302,0.496092 0,0.02067 0,0.03101 0.01033,0.02067 0.01033,0.03101 0,0.01034 0,0.01034 l -0.01033,0.02067 v 0.02067 q -0.02067,0.03101 -0.09302,0.103352 -0.08268,0.06201 -0.103352,0.08268 h -0.06201 q -0.103352,0 -0.21704,-0.19637 -0.113688,-0.186034 -0.237711,-0.516762 -0.113688,-0.320393 -0.237711,-0.744138 -0.113687,-0.423746 -0.227375,-0.878497 -0.113688,-0.454751 -0.206705,-0.899167 -0.09302,-0.444416 -0.165364,-0.82682 -0.07235,-0.382405 -0.113688,-0.661457 -0.03101,-0.279051 -0.03101,-0.392739 z"
         style="font-family:'Indie Flower';-inkscape-font-specification:'Indie Flower'"
         id="path1263" />
      <path
         d="m 57.252675,25.509621 q -0.08268,0 -0.289387,0 -0.206705,0 -0.434081,-0.03101 -0.21704,-0.04134 -0.403075,-0.124023 -0.175699,-0.08268 -0.175699,-0.237711 0,-0.04134 0.01034,-0.113688 0.02067,-0.08268 0.103353,-0.08268 l 1.064531,-0.09302 q 0.04134,-0.382404 0.06201,-0.620115 0.02067,-0.248046 0.01033,-0.454751 -0.01033,-0.217041 -0.03101,-0.444416 -0.01034,-0.237711 -0.02067,-0.60978 0,-0.07235 0.03101,-0.113688 0.03101,-0.04134 0.07235,-0.06201 0.05168,-0.02067 0.103352,-0.03101 0.06201,-0.01034 0.09302,-0.01034 0.06201,0 0.124023,0.04134 0.07235,0.04134 0.124023,0.103352 0.05168,0.06201 0.08268,0.134358 0.03101,0.06201 0.03101,0.124023 l 0.08268,1.932693 0.888832,0.04134 q 0.1757,-0.02067 0.320393,0.07235 0.155029,0.08268 0.165364,0.320392 -0.124023,0.134359 -0.299722,0.165365 -0.1757,0.02067 -0.372069,0.02067 -0.186035,-0.01033 -0.372069,0 -0.186035,0 -0.330729,0.09302 0,0.06201 0.01034,0.341064 0.01033,0.279052 0.02067,0.661456 0.01033,0.382404 0.02067,0.816485 0.02067,0.434081 0.03101,0.80615 0.01034,0.361734 0.01034,0.620115 0.01034,0.258381 0.01034,0.289387 -0.237711,0.144694 -0.382404,-0.02067 -0.144694,-0.1757 -0.237711,-0.506428 -0.08268,-0.341063 -0.124023,-0.785479 -0.03101,-0.454751 -0.04134,-0.888832 0,-0.444416 0.01033,-0.816485 0.01034,-0.372069 0.03101,-0.537433 z"
         style="font-family:'Indie Flower';-inkscape-font-specification:'Indie Flower'"
         id="path1265" />
      <path
         d="m 59.784811,28.072764 q 0,-0.08268 0.06201,-0.248046 0.07235,-0.165364 0.165364,-0.330729 0.09302,-0.175699 0.186035,-0.299722 0.103352,-0.124023 0.175699,-0.124023 0.206705,0 0.361734,0.113688 0.155029,0.103352 0.248046,0.268716 0.103352,0.165365 0.155029,0.361734 0.05168,0.19637 0.05168,0.361734 0,0.124023 -0.07235,0.279052 -0.07235,0.155029 -0.186034,0.289387 -0.103353,0.134358 -0.237711,0.227376 -0.134359,0.09302 -0.268717,0.09302 -0.155029,0 -0.268716,-0.103353 -0.113688,-0.113687 -0.206705,-0.268716 -0.08268,-0.165364 -0.124024,-0.330728 -0.04134,-0.1757 -0.04134,-0.289387 z"
         style="font-family:'Indie Flower';-inkscape-font-specification:'Indie Flower'"
         id="path1267" />
    </g>
  </g>
</svg>
