<?xml version="1.0" encoding="UTF-8" standalone="no"?>
<!-- Created with Inkscape (http://www.inkscape.org/) -->

<svg
   width="400"
   height="300"
   viewBox="0 0 105.83333 79.375"
   version="1.1"
   id="svg5"
   inkscape:version="1.2.1 (9c6d41e410, 2022-07-14, custom)"
   sodipodi:docname="withoutdarkness.svg"
   xmlns:inkscape="http://www.inkscape.org/namespaces/inkscape"
   xmlns:sodipodi="http://sodipodi.sourceforge.net/DTD/sodipodi-0.dtd"
   xmlns:xlink="http://www.w3.org/1999/xlink"
   xmlns="http://www.w3.org/2000/svg"
   xmlns:svg="http://www.w3.org/2000/svg">
  <sodipodi:namedview
     id="namedview7"
     pagecolor="#505050"
     bordercolor="#eeeeee"
     borderopacity="1"
     inkscape:showpageshadow="0"
     inkscape:pageopacity="0"
     inkscape:pagecheckerboard="0"
     inkscape:deskcolor="#505050"
     inkscape:document-units="mm"
     showgrid="false"
     inkscape:zoom="2.4620873"
     inkscape:cx="263.80056"
     inkscape:cy="163.2761"
     inkscape:window-width="1920"
     inkscape:window-height="1005"
     inkscape:window-x="0"
     inkscape:window-y="0"
     inkscape:window-maximized="1"
     inkscape:current-layer="layer1" />
  <defs
     id="defs2">
    <linearGradient
       inkscape:collect="always"
       id="linearGradient833">
      <stop
         style="stop-color:#101445;stop-opacity:1;"
         offset="0"
         id="stop829" />
      <stop
         style="stop-color:#1f2966;stop-opacity:1;"
         offset="0.71877104"
         id="stop1890" />
      <stop
         style="stop-color:#3c0d3b;stop-opacity:1;"
         offset="0.82444817"
         id="stop831" />
      <stop
         style="stop-color:#883779;stop-opacity:1;"
         offset="0.92783576"
         id="stop1894" />
      <stop
         style="stop-color:#ff7ada;stop-opacity:1;"
         offset="1"
         id="stop1892" />
    </linearGradient>
    <linearGradient
       inkscape:collect="always"
       xlink:href="#linearGradient833"
       id="linearGradient835"
       x1="5.3901944"
       y1="72.067001"
       x2="110.19566"
       y2="12.824646"
       gradientUnits="userSpaceOnUse" />
  </defs>
  <g
     inkscape:label="Layer 1"
     inkscape:groupmode="layer"
     id="layer1">
    <rect
       style="fill:url(#linearGradient835);stroke:none;stroke-width:0.465;stroke-linecap:round;stop-color:#000000;fill-opacity:1"
       id="rect250"
       width="110.01212"
       height="82.747826"
       x="-1.9933084"
       y="-2.1540589" />
    <g
       aria-label="Without darkness,
there are no stars."
       id="text312"
       style="font-size:13.7539px;line-height:1.25;stroke-width:0.343848">
      <path
         d="m 16.977534,26.035883 h -2.723272 v 0.261324 c 0.701449,0.06877 0.949019,0.220062 0.949019,0.591418 0,0.288832 -0.08252,0.646433 -0.220062,1.031542 l -1.719238,4.662572 -1.815514,-4.69008 c -0.206309,-0.536402 -0.371356,-0.880249 -0.371356,-1.114065 0,-0.330094 0.31634,-0.467633 1.059051,-0.481387 V 26.035883 H 8.4638704 v 0.261324 c 0.7839723,0.01375 0.9490191,0.123785 1.3891439,1.237851 l 0.4538787,1.12782 -1.4716673,3.878599 -1.9805616,-5.171466 c -0.096277,-0.24757 -0.1512929,-0.481386 -0.1512929,-0.632679 0,-0.302586 0.1925546,-0.398863 0.8940035,-0.440125 V 26.035883 H 4.2276693 v 0.261324 c 0.7014489,0.06877 0.9490191,0.302586 1.4166517,1.609206 l 2.6545026,7.385844 h 0.2063085 l 2.1181009,-5.817899 2.200624,5.817899 h 0.206308 c 1.169082,-3.589767 1.306621,-3.974877 2.805796,-8.018523 0.261324,-0.715203 0.412617,-0.838988 1.141573,-0.976527 z"
         style="font-family:FreeSerif;-inkscape-font-specification:FreeSerif;fill:#ffffff"
         id="path298" />
      <path
         d="m 17.967822,29.735682 c 0.330094,0 0.453879,0.206308 0.453879,0.81148 v 3.190905 c 0,0.990281 -0.137539,1.141573 -1.086558,1.196589 v 0.206309 h 3.259674 v -0.206309 c -0.907757,-0.06877 -1.017789,-0.206308 -1.017789,-1.196589 v -4.882635 l -0.05501,-0.04126 c -0.715203,0.288832 -1.416652,0.550156 -2.131855,0.756464 v 0.206309 c 0.206309,-0.02751 0.453879,-0.04126 0.577664,-0.04126 z m 0.907758,-3.988631 c -0.371356,0 -0.687695,0.31634 -0.687695,0.701449 0,0.385109 0.302585,0.701449 0.687695,0.701449 0.398863,0 0.715202,-0.302586 0.715202,-0.701449 0,-0.385109 -0.316339,-0.701449 -0.715202,-0.701449 z"
         style="font-family:FreeSerif;-inkscape-font-specification:FreeSerif;fill:#ffffff"
         id="path300" />
      <path
         d="m 24.225839,28.95171 h -1.389144 v -1.595453 c 0,-0.137539 -0.01375,-0.1788 -0.09628,-0.1788 -0.09628,0.123785 -0.1788,0.24757 -0.275078,0.385109 -1.224097,1.760499 -1.567944,1.457913 -1.567944,1.732991 0,0.04126 0.01375,0.06877 0.05502,0.09628 h 0.728957 v 4.139924 c 0,1.155328 0.412617,1.746746 1.224097,1.746746 0.673941,0 1.196589,-0.330094 1.650468,-1.045297 l -0.178801,-0.151293 c -0.288831,0.343848 -0.522648,0.481387 -0.825234,0.481387 -0.508894,0 -0.715202,-0.371356 -0.715202,-1.237851 v -3.933616 h 1.389144 z"
         style="font-family:FreeSerif;-inkscape-font-specification:FreeSerif;fill:#ffffff"
         id="path302" />
      <path
         d="m 26.729061,30.423377 c 0.577664,-0.632679 0.990281,-0.866496 1.526683,-0.866496 0.687695,0 1.031542,0.495141 1.031542,1.457914 v 2.723272 c 0,0.935265 -0.137539,1.114066 -0.935265,1.196589 v 0.206309 h 2.915827 v -0.206309 c -0.742711,-0.137539 -0.825234,-0.24757 -0.825234,-1.196589 v -2.737026 c 0,-1.44416 -0.577664,-2.18687 -1.69173,-2.18687 -0.81148,0 -1.389144,0.330093 -2.021823,1.155327 v -4.181185 l -0.06877,-0.04126 c -0.770219,0.275078 -1.169082,0.398863 -1.953054,0.605172 v 0.220062 c 0.05502,-0.01375 0.178801,-0.02751 0.233816,-0.02751 0.536402,0 0.632679,0.123785 0.632679,0.715203 v 6.478087 c 0,0.962773 -0.08252,1.086558 -0.880249,1.196589 v 0.206309 h 2.970842 v -0.206309 c -0.797726,-0.08252 -0.935265,-0.24757 -0.935265,-1.196589 z"
         style="font-family:FreeSerif;-inkscape-font-specification:FreeSerif;fill:#ffffff"
         id="path304" />
      <path
         d="m 34.651293,28.814171 c -1.788006,0 -3.039611,1.320374 -3.039611,3.218412 0,1.856777 1.279112,3.245921 3.012104,3.245921 1.732991,0 3.053365,-1.457914 3.053365,-3.355952 0,-1.801761 -1.265358,-3.108381 -3.025858,-3.108381 z m -1.80176,2.544471 c 0,-1.30662 0.646433,-2.159362 1.62296,-2.159362 1.155327,0 1.966807,1.320374 1.966807,3.204658 0,1.554191 -0.618925,2.489456 -1.650468,2.489456 -1.182835,0 -1.939299,-1.62296 -1.939299,-3.534752 z"
         style="font-family:FreeSerif;-inkscape-font-specification:FreeSerif;fill:#ffffff"
         id="path306" />
      <path
         d="m 44.485318,34.45327 h -0.06877 c -0.63268,0 -0.783973,-0.151293 -0.783973,-0.783973 V 28.95171 H 41.45946 v 0.233816 c 0.852742,0.04126 1.017789,0.178801 1.017789,0.866496 v 3.232166 c 0,1.045296 -1.19659,1.196589 -1.471668,1.196589 -0.536402,0 -0.976526,-0.467632 -0.976526,-1.045296 V 28.95171 h -2.00807 v 0.192554 c 0.660187,0.04126 0.852742,0.24757 0.852742,0.88025 v 3.465983 c 0,1.086558 0.660187,1.788007 1.664222,1.788007 0.990281,0 1.526683,-0.701449 2.008069,-1.182836 v 1.141574 l 0.05502,0.02751 c 0.687695,-0.275078 1.182835,-0.426371 1.884284,-0.618926 z"
         style="font-family:FreeSerif;-inkscape-font-specification:FreeSerif;fill:#ffffff"
         id="path308" />
      <path
         d="m 48.185113,28.95171 h -1.389144 v -1.595453 c 0,-0.137539 -0.01375,-0.1788 -0.09628,-0.1788 -0.09628,0.123785 -0.178801,0.24757 -0.275078,0.385109 -1.224097,1.760499 -1.567945,1.457913 -1.567945,1.732991 0,0.04126 0.01375,0.06877 0.05502,0.09628 h 0.728956 v 4.139924 c 0,1.155328 0.412617,1.746746 1.224097,1.746746 0.673942,0 1.19659,-0.330094 1.650468,-1.045297 l -0.1788,-0.151293 c -0.288832,0.343848 -0.522648,0.481387 -0.825234,0.481387 -0.508895,0 -0.715203,-0.371356 -0.715203,-1.237851 v -3.933616 h 1.389144 z"
         style="font-family:FreeSerif;-inkscape-font-specification:FreeSerif;fill:#ffffff"
         id="path310" />
      <path
         d="m 56.657528,35.278504 2.021823,-0.715203 v -0.220063 c -0.24757,0.01375 -0.275078,0.01375 -0.31634,0.01375 -0.49514,0 -0.605172,-0.151293 -0.605172,-0.783972 v -7.798461 l -0.06877,-0.02751 c -0.660187,0.233816 -1.141574,0.371355 -2.021823,0.605172 v 0.220062 c 0.110031,-0.01375 0.192554,-0.01375 0.302586,-0.01375 0.508894,0 0.632679,0.137539 0.632679,0.701449 v 2.145608 c -0.522648,-0.440124 -0.894004,-0.591417 -1.44416,-0.591417 -1.581698,0 -2.860811,1.55419 -2.860811,3.507244 0,1.760499 1.031543,2.957089 2.544472,2.957089 0.770218,0 1.292866,-0.275078 1.760499,-0.921512 v 0.88025 z m -1.279113,-0.715203 c -1.141574,0 -1.898038,-1.100312 -1.898038,-2.792042 0,-1.554191 0.673941,-2.571979 1.719237,-2.571979 0.728957,0 1.402898,0.646433 1.402898,1.37539 v 3.163397 c 0,0.233816 -0.440125,0.825234 -1.224097,0.825234 z"
         style="font-family:FreeSerif;-inkscape-font-specification:FreeSerif;fill:#ffffff"
         id="path312" />
      <path
         d="m 59.160746,33.806836 c 0,0.866496 0.605172,1.471668 1.44416,1.471668 0.605171,0 1.169081,-0.288832 2.008069,-1.004035 0.06877,0.715203 0.31634,1.004035 0.88025,1.004035 0.467632,0 0.756464,-0.165047 1.237851,-0.687695 v -0.357602 c -0.233817,0.192555 -0.398863,0.261324 -0.605172,0.261324 -0.31634,0 -0.412617,-0.192554 -0.412617,-0.797726 v -2.68201 c 0,-1.37539 -0.385109,-2.200624 -1.980561,-2.200624 -1.292867,0 -2.310656,0.673941 -2.310656,1.540436 0,0.31634 0.275078,0.591418 0.591418,0.591418 0.330094,0 0.618926,-0.275078 0.618926,-0.577664 0,-0.123785 -0.06877,-0.357601 -0.06877,-0.550156 0,-0.371355 0.440125,-0.673941 0.990281,-0.673941 0.673941,0 1.045296,0.398863 1.045296,1.141574 v 0.838988 c -1.705483,0.687695 -3.438475,1.196589 -3.438475,2.68201 z m 3.438475,-0.357601 c 0,0.426371 -0.06877,0.550156 -0.357601,0.715203 -0.330094,0.192554 -0.715203,0.316339 -1.004035,0.316339 -0.343847,0 -0.866496,-0.288832 -0.866496,-1.114066 0,-0.81148 0.56391,-1.30662 2.228132,-1.911792 z"
         style="font-family:FreeSerif;-inkscape-font-specification:FreeSerif;fill:#ffffff"
         id="path314" />
      <path
         d="m 68.939759,30.162053 c 0.330094,0 0.536403,-0.233816 0.536403,-0.618926 0,-0.453878 -0.288832,-0.728956 -0.756465,-0.728956 -0.577664,0 -0.976527,0.316339 -1.650468,1.292866 v -1.265358 l -0.06877,-0.02751 c -0.728957,0.302585 -1.224097,0.481386 -2.035578,0.74271 v 0.220063 c 0.192555,-0.04126 0.31634,-0.05502 0.481387,-0.05502 0.343847,0 0.467633,0.220062 0.467633,0.825234 v 3.438475 c 0,0.687695 -0.09628,0.783972 -0.976527,0.949019 v 0.206309 h 3.300936 v -0.206309 c -0.935266,-0.04126 -1.169082,-0.24757 -1.169082,-1.031542 v -3.094628 c 0,-0.440125 0.591418,-1.12782 0.962773,-1.12782 0.220062,0 0.536402,0.481387 0.907757,0.481387 z"
         style="font-family:FreeSerif;-inkscape-font-specification:FreeSerif;fill:#ffffff"
         id="path316" />
      <path
         d="m 69.544922,26.572285 c 0.165047,-0.01375 0.302586,-0.02751 0.440125,-0.02751 0.453879,0 0.591418,0.178801 0.591418,0.838988 v 6.62938 c 0,0.715203 -0.04126,0.756464 -1.031543,0.921511 v 0.206309 h 3.218413 V 34.934656 C 71.814316,34.783363 71.731792,34.70084 71.731792,34.040653 v -2.351917 l 1.925546,2.571979 c 0.110032,0.165047 0.288832,0.330094 0.288832,0.467633 0,0.1788 -0.1788,0.206308 -0.550156,0.206308 v 0.206309 h 2.99835 v -0.206309 c -0.605171,-0.04126 -1.031542,-0.302586 -1.609206,-1.004035 l -2.104346,-2.668256 0.398863,-0.371355 c 1.843022,-1.719238 2.296901,-1.732992 2.970842,-1.732992 V 28.95171 h -2.805796 v 0.192554 c 0.536403,0.01375 0.687695,0.06877 0.687695,0.261324 0,0.110032 -0.123785,0.302586 -0.316339,0.467633 l -1.884285,1.677976 v -5.776638 l -0.05501,-0.02751 c -0.756465,0.24757 -1.279113,0.398863 -2.131855,0.605172 z"
         style="font-family:FreeSerif;-inkscape-font-specification:FreeSerif;fill:#ffffff"
         id="path318" />
      <path
         d="m 76.600678,29.666912 c 0.08252,-0.04126 0.220062,-0.05502 0.371355,-0.05502 0.38511,0 0.508895,0.206308 0.508895,0.880249 v 3.410968 c 0,0.783972 -0.151293,0.976526 -0.852742,1.031542 v 0.206309 h 2.915827 v -0.206309 c -0.701449,-0.05502 -0.907758,-0.220062 -0.907758,-0.715203 v -3.864846 c 0.660187,-0.618925 0.962773,-0.783972 1.416652,-0.783972 0.673941,0 1.004035,0.426371 1.004035,1.334128 v 2.874565 c 0,0.866496 -0.178801,1.100312 -0.866496,1.155328 v 0.206309 h 2.860811 v -0.206309 c -0.673941,-0.06877 -0.838988,-0.233816 -0.838988,-0.907757 v -3.149643 c 0,-1.292867 -0.605172,-2.063085 -1.62296,-2.063085 -0.632679,0 -1.05905,0.233816 -1.994316,1.114066 v -1.086558 l -0.09628,-0.02751 c -0.673941,0.24757 -1.141573,0.398863 -1.898038,0.618925 z"
         style="font-family:FreeSerif;-inkscape-font-specification:FreeSerif;fill:#ffffff"
         id="path320" />
      <path
         d="m 84.385387,31.331134 h 4.236201 c -0.206309,-1.664222 -0.935265,-2.516963 -2.351917,-2.516963 -1.664222,0 -2.874565,1.334128 -2.874565,3.383459 0,1.898038 0.990281,3.080874 2.571979,3.080874 1.306621,0 2.338163,-0.811481 2.915827,-2.296902 l -0.220062,-0.09628 c -0.660188,1.045296 -1.251605,1.444159 -2.131855,1.444159 -0.894003,0 -2.063085,-0.550156 -2.145608,-2.99835 z m 0.02751,-0.440124 c 0.151293,-1.072805 0.618925,-1.581699 1.457913,-1.581699 0.838988,0 1.169081,0.385109 1.347882,1.581699 z"
         style="font-family:FreeSerif;-inkscape-font-specification:FreeSerif;fill:#ffffff"
         id="path322" />
      <path
         d="m 92.706496,29.089249 c -0.302586,0 -0.536402,-0.261324 -1.334128,-0.261324 -1.086558,0 -1.87053,0.701448 -1.87053,1.691729 0,0.770219 0.440124,1.320375 1.609206,1.980562 l 0.797726,0.453878 c 0.481386,0.275078 0.715203,0.605172 0.715203,1.031543 0,0.605172 -0.440125,0.990281 -1.141574,0.990281 -1.402898,0 -1.62296,-1.37539 -1.746745,-1.925546 h -0.220063 v 2.145608 h 0.178801 c 0.09628,-0.137539 0.151293,-0.165047 0.31634,-0.165047 0.343847,0 1.017788,0.247571 1.636714,0.247571 1.05905,0 1.9393,-0.797727 1.9393,-1.7605 0,-0.687695 -0.330094,-1.141573 -1.155328,-1.636714 l -1.485421,-0.880249 c -0.385109,-0.220063 -0.591418,-0.56391 -0.591418,-0.935265 0,-0.550156 0.426371,-0.935266 1.059051,-0.935266 0.783972,0 1.196589,0.467633 1.512929,1.69173 h 0.206308 l -0.05502,-1.87053 h -0.151292 c -0.08252,0.05502 -0.137539,0.137539 -0.220063,0.137539 z"
         style="font-family:FreeSerif;-inkscape-font-specification:FreeSerif;fill:#ffffff"
         id="path324" />
      <path
         d="m 97.754187,29.089249 c -0.302585,0 -0.536402,-0.261324 -1.334128,-0.261324 -1.086558,0 -1.87053,0.701448 -1.87053,1.691729 0,0.770219 0.440125,1.320375 1.609206,1.980562 l 0.797726,0.453878 c 0.481387,0.275078 0.715203,0.605172 0.715203,1.031543 0,0.605172 -0.440125,0.990281 -1.141574,0.990281 -1.402897,0 -1.62296,-1.37539 -1.746745,-1.925546 h -0.220062 v 2.145608 h 0.1788 c 0.09628,-0.137539 0.151293,-0.165047 0.31634,-0.165047 0.343848,0 1.017789,0.247571 1.636714,0.247571 1.05905,0 1.9393,-0.797727 1.9393,-1.7605 0,-0.687695 -0.330094,-1.141573 -1.155327,-1.636714 l -1.485422,-0.880249 c -0.385109,-0.220063 -0.591417,-0.56391 -0.591417,-0.935265 0,-0.550156 0.426371,-0.935266 1.05905,-0.935266 0.783972,0 1.196589,0.467633 1.512929,1.69173 h 0.206308 l -0.05502,-1.87053 H 97.97425 c -0.08252,0.05502 -0.137539,0.137539 -0.220063,0.137539 z"
         style="font-family:FreeSerif;-inkscape-font-specification:FreeSerif;fill:#ffffff"
         id="path326" />
      <path
         d="m 101.06888,35.168472 c 0.11003,0 0.19255,0.08252 0.19255,0.192555 0,0.440125 -0.3851,0.949019 -1.12782,1.457913 l 0.12379,0.261324 c 0.92151,-0.453878 1.54044,-1.292866 1.54044,-2.1181 0,-0.687695 -0.48139,-1.224097 -1.10032,-1.224097 -0.48138,0 -0.811475,0.316339 -0.811475,0.783972 0,0.440125 0.316335,0.701449 0.811475,0.701449 0.23382,0 0.31634,-0.05502 0.37136,-0.05502 z"
         style="font-family:FreeSerif;-inkscape-font-specification:FreeSerif;fill:#ffffff"
         id="path328" />
      <path
         d="M 7.6523903,46.352109 H 6.2632465 v -1.595452 c 0,-0.137539 -0.013754,-0.178801 -0.096277,-0.178801 -0.096277,0.123785 -0.1788007,0.247571 -0.275078,0.38511 -1.2240971,1.760499 -1.5679446,1.457913 -1.5679446,1.732991 0,0.04126 0.013754,0.06877 0.055016,0.09628 h 0.7289567 v 4.139924 c 0,1.155327 0.412617,1.746745 1.2240971,1.746745 0.673941,0 1.1965892,-0.330093 1.6504679,-1.045296 L 7.8036832,51.482314 C 7.5148513,51.826161 7.281035,51.9637 6.9784492,51.9637 c -0.5088942,0 -0.7152027,-0.371355 -0.7152027,-1.237851 v -3.933615 h 1.3891438 z"
         style="font-family:FreeSerif;-inkscape-font-specification:FreeSerif;fill:#ffffff"
         id="path330" />
      <path
         d="m 10.155613,47.823777 c 0.577664,-0.63268 0.990281,-0.866496 1.526683,-0.866496 0.687695,0 1.031542,0.49514 1.031542,1.457913 v 2.723272 c 0,0.935266 -0.137539,1.114066 -0.935265,1.19659 v 0.206308 H 14.6944 v -0.206308 c -0.742711,-0.137539 -0.825234,-0.247571 -0.825234,-1.19659 V 48.40144 c 0,-1.444159 -0.577664,-2.18687 -1.69173,-2.18687 -0.81148,0 -1.389144,0.330094 -2.021823,1.155328 v -4.181186 l -0.06877,-0.04126 c -0.7702188,0.275078 -1.1690819,0.398863 -1.9530541,0.605171 v 0.220063 c 0.055016,-0.01375 0.1788007,-0.02751 0.2338163,-0.02751 0.536402,0 0.6326793,0.123785 0.6326793,0.715203 v 6.478086 c 0,0.962773 -0.082523,1.086558 -0.8802495,1.19659 v 0.206308 h 2.970842 v -0.206308 c -0.797726,-0.08252 -0.935265,-0.247571 -0.935265,-1.19659 z"
         style="font-family:FreeSerif;-inkscape-font-specification:FreeSerif;fill:#ffffff"
         id="path332" />
      <path
         d="m 16.028514,48.731534 h 4.236201 C 20.058407,47.067312 19.32945,46.21457 17.912799,46.21457 c -1.664222,0 -2.874566,1.334129 -2.874566,3.38346 0,1.898038 0.990281,3.080873 2.57198,3.080873 1.30662,0 2.338163,-0.81148 2.915826,-2.296901 l -0.220062,-0.09628 c -0.660187,1.045296 -1.251605,1.444159 -2.131854,1.444159 -0.894004,0 -2.063085,-0.550156 -2.145609,-2.99835 z m 0.02751,-0.440125 c 0.151293,-1.072804 0.618926,-1.581698 1.457913,-1.581698 0.838988,0 1.169082,0.385109 1.347883,1.581698 z"
         style="font-family:FreeSerif;-inkscape-font-specification:FreeSerif;fill:#ffffff"
         id="path334" />
      <path
         d="m 24.803502,47.562453 c 0.330094,0 0.536402,-0.233817 0.536402,-0.618926 0,-0.453879 -0.288832,-0.728957 -0.756464,-0.728957 -0.577664,0 -0.976527,0.31634 -1.650468,1.292867 v -1.265359 l -0.06877,-0.02751 c -0.728956,0.302586 -1.224097,0.481387 -2.035577,0.742711 v 0.220062 c 0.192555,-0.04126 0.31634,-0.05501 0.481387,-0.05501 0.343847,0 0.467632,0.220062 0.467632,0.825234 v 3.438475 c 0,0.687695 -0.09628,0.783972 -0.976526,0.949019 v 0.206308 h 3.300935 v -0.206308 c -0.935265,-0.04126 -1.169081,-0.247571 -1.169081,-1.031543 v -3.094627 c 0,-0.440125 0.591418,-1.12782 0.962773,-1.12782 0.220062,0 0.536402,0.481387 0.907757,0.481387 z"
         style="font-family:FreeSerif;-inkscape-font-specification:FreeSerif;fill:#ffffff"
         id="path336" />
      <path
         d="m 26.605251,48.731534 h 4.236201 c -0.206309,-1.664222 -0.935265,-2.516964 -2.351917,-2.516964 -1.664222,0 -2.874565,1.334129 -2.874565,3.38346 0,1.898038 0.990281,3.080873 2.571979,3.080873 1.306621,0 2.338163,-0.81148 2.915827,-2.296901 l -0.220063,-0.09628 c -0.660187,1.045296 -1.251604,1.444159 -2.131854,1.444159 -0.894003,0 -2.063085,-0.550156 -2.145608,-2.99835 z m 0.02751,-0.440125 c 0.151292,-1.072804 0.618925,-1.581698 1.457913,-1.581698 0.838988,0 1.169081,0.385109 1.347882,1.581698 z"
         style="font-family:FreeSerif;-inkscape-font-specification:FreeSerif;fill:#ffffff"
         id="path338" />
      <path
         d="m 35.16018,51.207236 c 0,0.866496 0.605171,1.471667 1.444159,1.471667 0.605172,0 1.169082,-0.288832 2.00807,-1.004034 0.06877,0.715202 0.316339,1.004034 0.880249,1.004034 0.467633,0 0.756465,-0.165047 1.237851,-0.687695 v -0.357601 c -0.233816,0.192554 -0.398863,0.261324 -0.605171,0.261324 -0.31634,0 -0.412617,-0.192555 -0.412617,-0.797726 v -2.682011 c 0,-1.37539 -0.38511,-2.200624 -1.980562,-2.200624 -1.292867,0 -2.310655,0.673941 -2.310655,1.540437 0,0.31634 0.275078,0.591418 0.591418,0.591418 0.330093,0 0.618925,-0.275078 0.618925,-0.577664 0,-0.123785 -0.06877,-0.357601 -0.06877,-0.550156 0,-0.371355 0.440124,-0.673941 0.99028,-0.673941 0.673941,0 1.045297,0.398863 1.045297,1.141574 v 0.838988 c -1.705484,0.687694 -3.438475,1.196589 -3.438475,2.68201 z m 3.438475,-0.357601 c 0,0.42637 -0.06877,0.550156 -0.357602,0.715202 -0.330093,0.192555 -0.715202,0.31634 -1.004034,0.31634 -0.343848,0 -0.866496,-0.288832 -0.866496,-1.114066 0,-0.81148 0.56391,-1.30662 2.228132,-1.911792 z"
         style="font-family:FreeSerif;-inkscape-font-specification:FreeSerif;fill:#ffffff"
         id="path340" />
      <path
         d="m 44.939195,47.562453 c 0.330093,0 0.536402,-0.233817 0.536402,-0.618926 0,-0.453879 -0.288832,-0.728957 -0.756465,-0.728957 -0.577663,0 -0.976526,0.31634 -1.650467,1.292867 v -1.265359 l -0.06877,-0.02751 c -0.728957,0.302586 -1.224097,0.481387 -2.035577,0.742711 v 0.220062 c 0.192554,-0.04126 0.31634,-0.05501 0.481386,-0.05501 0.343848,0 0.467633,0.220062 0.467633,0.825234 v 3.438475 c 0,0.687695 -0.09628,0.783972 -0.976527,0.949019 v 0.206308 h 3.300936 v -0.206308 c -0.935265,-0.04126 -1.169081,-0.247571 -1.169081,-1.031543 v -3.094627 c 0,-0.440125 0.591417,-1.12782 0.962773,-1.12782 0.220062,0 0.536402,0.481387 0.907757,0.481387 z"
         style="font-family:FreeSerif;-inkscape-font-specification:FreeSerif;fill:#ffffff"
         id="path342" />
      <path
         d="m 46.740943,48.731534 h 4.236201 c -0.206308,-1.664222 -0.935265,-2.516964 -2.351916,-2.516964 -1.664222,0 -2.874565,1.334129 -2.874565,3.38346 0,1.898038 0.99028,3.080873 2.571979,3.080873 1.30662,0 2.338163,-0.81148 2.915826,-2.296901 l -0.220062,-0.09628 c -0.660187,1.045296 -1.251605,1.444159 -2.131854,1.444159 -0.894004,0 -2.063085,-0.550156 -2.145609,-2.99835 z m 0.02751,-0.440125 c 0.151293,-1.072804 0.618926,-1.581698 1.457913,-1.581698 0.838988,0 1.169082,0.385109 1.347883,1.581698 z"
         style="font-family:FreeSerif;-inkscape-font-specification:FreeSerif;fill:#ffffff"
         id="path344" />
      <path
         d="m 55.089562,47.067312 c 0.08252,-0.04126 0.220062,-0.05502 0.371355,-0.05502 0.38511,0 0.508895,0.206308 0.508895,0.880249 v 3.410967 c 0,0.783972 -0.151293,0.976527 -0.852742,1.031543 v 0.206308 h 2.915827 v -0.206308 c -0.701449,-0.05502 -0.907758,-0.220063 -0.907758,-0.715203 v -3.864846 c 0.660187,-0.618925 0.962773,-0.783972 1.416652,-0.783972 0.673941,0 1.004034,0.426371 1.004034,1.334128 v 2.874565 c 0,0.866496 -0.1788,1.100312 -0.866495,1.155328 v 0.206308 h 2.860811 V 52.335056 C 60.8662,52.266286 60.701153,52.101239 60.701153,51.427298 v -3.149643 c 0,-1.292866 -0.605172,-2.063085 -1.62296,-2.063085 -0.632679,0 -1.05905,0.233817 -1.994316,1.114066 V 46.242078 L 56.9876,46.21457 c -0.673941,0.247571 -1.141573,0.398863 -1.898038,0.618926 z"
         style="font-family:FreeSerif;-inkscape-font-specification:FreeSerif;fill:#ffffff"
         id="path346" />
      <path
         d="m 64.923602,46.21457 c -1.788007,0 -3.039612,1.320375 -3.039612,3.218413 0,1.856776 1.279113,3.24592 3.012104,3.24592 1.732991,0 3.053366,-1.457913 3.053366,-3.355951 0,-1.801761 -1.265359,-3.108382 -3.025858,-3.108382 z m -1.801761,2.544472 c 0,-1.306621 0.646433,-2.159362 1.62296,-2.159362 1.155328,0 1.966808,1.320374 1.966808,3.204658 0,1.554191 -0.618926,2.489456 -1.650468,2.489456 -1.182836,0 -1.9393,-1.62296 -1.9393,-3.534752 z"
         style="font-family:FreeSerif;-inkscape-font-specification:FreeSerif;fill:#ffffff"
         id="path348" />
      <path
         d="m 75.417815,46.489648 c -0.302586,0 -0.536402,-0.261324 -1.334128,-0.261324 -1.086558,0 -1.87053,0.701449 -1.87053,1.69173 0,0.770218 0.440124,1.320374 1.609206,1.980561 l 0.797726,0.453879 c 0.481386,0.275078 0.715203,0.605172 0.715203,1.031543 0,0.605171 -0.440125,0.99028 -1.141574,0.99028 -1.402898,0 -1.62296,-1.37539 -1.746745,-1.925546 H 72.22691 v 2.145609 h 0.178801 c 0.09628,-0.137539 0.151293,-0.165047 0.31634,-0.165047 0.343847,0 1.017788,0.24757 1.636714,0.24757 1.05905,0 1.9393,-0.797726 1.9393,-1.760499 0,-0.687695 -0.330094,-1.141574 -1.155328,-1.636714 l -1.485421,-0.88025 c -0.385109,-0.220062 -0.591418,-0.563909 -0.591418,-0.935265 0,-0.550156 0.426371,-0.935265 1.059051,-0.935265 0.783972,0 1.196589,0.467633 1.512929,1.69173 h 0.206308 l -0.05502,-1.870531 h -0.151292 c -0.08252,0.05502 -0.137539,0.137539 -0.220063,0.137539 z"
         style="font-family:FreeSerif;-inkscape-font-specification:FreeSerif;fill:#ffffff"
         id="path350" />
      <path
         d="m 80.204179,46.352109 h -1.389144 v -1.595452 c 0,-0.137539 -0.01375,-0.178801 -0.09628,-0.178801 -0.09628,0.123785 -0.1788,0.247571 -0.275077,0.38511 -1.224098,1.760499 -1.567945,1.457913 -1.567945,1.732991 0,0.04126 0.01375,0.06877 0.05502,0.09628 h 0.728956 v 4.139924 c 0,1.155327 0.412617,1.746745 1.224097,1.746745 0.673941,0 1.19659,-0.330093 1.650468,-1.045296 l -0.1788,-0.151293 c -0.288832,0.343847 -0.522649,0.481386 -0.825234,0.481386 -0.508895,0 -0.715203,-0.371355 -0.715203,-1.237851 v -3.933615 h 1.389144 z"
         style="font-family:FreeSerif;-inkscape-font-specification:FreeSerif;fill:#ffffff"
         id="path352" />
      <path
         d="m 80.878131,51.207236 c 0,0.866496 0.605171,1.471667 1.444159,1.471667 0.605172,0 1.169082,-0.288832 2.008069,-1.004034 0.06877,0.715202 0.31634,1.004034 0.88025,1.004034 0.467633,0 0.756464,-0.165047 1.237851,-0.687695 v -0.357601 c -0.233816,0.192554 -0.398863,0.261324 -0.605172,0.261324 -0.316339,0 -0.412617,-0.192555 -0.412617,-0.797726 v -2.682011 c 0,-1.37539 -0.385109,-2.200624 -1.980561,-2.200624 -1.292867,0 -2.310655,0.673941 -2.310655,1.540437 0,0.31634 0.275078,0.591418 0.591417,0.591418 0.330094,0 0.618926,-0.275078 0.618926,-0.577664 0,-0.123785 -0.06877,-0.357601 -0.06877,-0.550156 0,-0.371355 0.440125,-0.673941 0.990281,-0.673941 0.673941,0 1.045297,0.398863 1.045297,1.141574 v 0.838988 c -1.705484,0.687694 -3.438475,1.196589 -3.438475,2.68201 z m 3.438475,-0.357601 c 0,0.42637 -0.06877,0.550156 -0.357602,0.715202 -0.330093,0.192555 -0.715203,0.31634 -1.004035,0.31634 -0.343847,0 -0.866495,-0.288832 -0.866495,-1.114066 0,-0.81148 0.56391,-1.30662 2.228132,-1.911792 z"
         style="font-family:FreeSerif;-inkscape-font-specification:FreeSerif;fill:#ffffff"
         id="path354" />
      <path
         d="m 90.657148,47.562453 c 0.330093,0 0.536402,-0.233817 0.536402,-0.618926 0,-0.453879 -0.288832,-0.728957 -0.756465,-0.728957 -0.577664,0 -0.976527,0.31634 -1.650468,1.292867 v -1.265359 l -0.06877,-0.02751 c -0.728957,0.302586 -1.224097,0.481387 -2.035577,0.742711 v 0.220062 c 0.192554,-0.04126 0.316339,-0.05501 0.481386,-0.05501 0.343848,0 0.467633,0.220062 0.467633,0.825234 v 3.438475 c 0,0.687695 -0.09628,0.783972 -0.976527,0.949019 v 0.206308 h 3.300936 v -0.206308 c -0.935265,-0.04126 -1.169082,-0.247571 -1.169082,-1.031543 v -3.094627 c 0,-0.440125 0.591418,-1.12782 0.962773,-1.12782 0.220063,0 0.536402,0.481387 0.907758,0.481387 z"
         style="font-family:FreeSerif;-inkscape-font-specification:FreeSerif;fill:#ffffff"
         id="path356" />
      <path
         d="m 94.948356,46.489648 c -0.302586,0 -0.536402,-0.261324 -1.334129,-0.261324 -1.086558,0 -1.87053,0.701449 -1.87053,1.69173 0,0.770218 0.440125,1.320374 1.609206,1.980561 l 0.797726,0.453879 c 0.481387,0.275078 0.715203,0.605172 0.715203,1.031543 0,0.605171 -0.440125,0.99028 -1.141573,0.99028 -1.402898,0 -1.622961,-1.37539 -1.746746,-1.925546 h -0.220062 v 2.145609 h 0.178801 c 0.09628,-0.137539 0.151292,-0.165047 0.316339,-0.165047 0.343848,0 1.017789,0.24757 1.636714,0.24757 1.059051,0 1.9393,-0.797726 1.9393,-1.760499 0,-0.687695 -0.330093,-1.141574 -1.155327,-1.636714 l -1.485422,-0.88025 c -0.385109,-0.220062 -0.591417,-0.563909 -0.591417,-0.935265 0,-0.550156 0.426371,-0.935265 1.05905,-0.935265 0.783972,0 1.196589,0.467633 1.512929,1.69173 h 0.206308 l -0.05501,-1.870531 h -0.151293 c -0.08252,0.05502 -0.137539,0.137539 -0.220062,0.137539 z"
         style="font-family:FreeSerif;-inkscape-font-specification:FreeSerif;fill:#ffffff"
         id="path358" />
      <path
         d="m 98.029239,51.165974 c -0.412617,0 -0.756464,0.357602 -0.756464,0.783973 0,0.398863 0.343847,0.74271 0.74271,0.74271 0.426371,0 0.783973,-0.343847 0.783973,-0.74271 0,-0.426371 -0.357602,-0.783973 -0.770219,-0.783973 z"
         style="font-family:FreeSerif;-inkscape-font-specification:FreeSerif;fill:#ffffff"
         id="path360" />
    </g>
  </g>
</svg>
