<?xml version="1.0" encoding="UTF-8" standalone="no"?>
<!-- Created with Inkscape (http://www.inkscape.org/) -->

<svg
   width="400"
   height="300"
   viewBox="0 0 105.83333 79.375"
   version="1.1"
   id="svg5"
   inkscape:version="1.2.1 (9c6d41e410, 2022-07-14, custom)"
   sodipodi:docname="youcanmakeit.svg"
   xmlns:inkscape="http://www.inkscape.org/namespaces/inkscape"
   xmlns:sodipodi="http://sodipodi.sourceforge.net/DTD/sodipodi-0.dtd"
   xmlns:xlink="http://www.w3.org/1999/xlink"
   xmlns="http://www.w3.org/2000/svg"
   xmlns:svg="http://www.w3.org/2000/svg">
  <sodipodi:namedview
     id="namedview7"
     pagecolor="#505050"
     bordercolor="#eeeeee"
     borderopacity="1"
     inkscape:showpageshadow="0"
     inkscape:pageopacity="0"
     inkscape:pagecheckerboard="0"
     inkscape:deskcolor="#505050"
     inkscape:document-units="mm"
     showgrid="false"
     inkscape:zoom="1.7409586"
     inkscape:cx="175.47804"
     inkscape:cy="129.23914"
     inkscape:window-width="1920"
     inkscape:window-height="1005"
     inkscape:window-x="0"
     inkscape:window-y="0"
     inkscape:window-maximized="1"
     inkscape:current-layer="layer1" />
  <defs
     id="defs2">
    <linearGradient
       inkscape:collect="always"
       id="linearGradient833">
      <stop
         style="stop-color:#dc473c;stop-opacity:1;"
         offset="0"
         id="stop829" />
      <stop
         style="stop-color:#bb3030;stop-opacity:1;"
         offset="1"
         id="stop831" />
    </linearGradient>
    <linearGradient
       inkscape:collect="always"
       xlink:href="#linearGradient833"
       id="linearGradient835"
       x1="5.6693616"
       y1="4.0166559"
       x2="96.301926"
       y2="69.873955"
       gradientUnits="userSpaceOnUse" />
  </defs>
  <g
     inkscape:label="Layer 1"
     inkscape:groupmode="layer"
     id="layer1">
    <rect
       style="fill:url(#linearGradient835);stroke:none;stroke-width:0.465;stroke-linecap:round;stop-color:#000000;fill-opacity:1"
       id="rect250"
       width="110.01212"
       height="82.747826"
       x="-1.9933084"
       y="-2.1540589" />
    <path
       d="m 27.666085,12.2917 h -5.984719 v 0.519222 c 1.42103,0.02733 1.885597,0.245948 1.885597,0.901807 0,0.273275 -0.136647,0.601203 -0.382584,1.011117 l -3.907831,6.176012 -4.044469,-6.066703 c -0.300601,-0.43724 -0.464567,-0.901807 -0.464567,-1.202408 0,-0.601205 0.819825,-0.737842 1.940253,-0.819825 V 12.2917 H 9.0560702 v 0.519222 c 1.3117178,0.05466 1.7762848,0.382585 4.4270508,4.290415 l 3.579899,5.246877 v 4.754982 c 0,2.377491 -0.273274,2.650766 -2.760075,2.760075 v 0.519223 h 8.362211 v -0.519223 c -2.432147,-0.05466 -2.814731,-0.382584 -2.814731,-2.459474 v -5.301531 l 4.044466,-6.176011 c 1.612322,-2.459473 2.377491,-3.006023 3.771194,-3.115333 z"
       style="font-size:10.5833px;line-height:1.25;font-family:FreeSerif;-inkscape-font-specification:FreeSerif;white-space:pre;inline-size:78.823;fill:#ffffff;stroke-width:0.683188"
       id="path1195" />
    <path
       d="m 33.295573,17.811852 c -3.552573,0 -6.039373,2.623439 -6.039373,6.39463 0,3.689209 2.541456,6.449287 5.984717,6.449287 3.443263,0 6.066702,-2.896714 6.066702,-6.667906 0,-3.579902 -2.514129,-6.176011 -6.012046,-6.176011 z m -3.579899,5.055583 c 0,-2.59611 1.284391,-4.290415 3.224642,-4.290415 2.295508,0 3.90783,2.623439 3.90783,6.367304 0,3.088006 -1.229738,4.946274 -3.279298,4.946274 -2.350164,0 -3.853174,-3.224642 -3.853174,-7.023163 z"
       style="font-size:10.5833px;line-height:1.25;font-family:FreeSerif;-inkscape-font-specification:FreeSerif;white-space:pre;inline-size:78.823;fill:#ffffff;stroke-width:0.683188"
       id="path1197" />
    <path
       d="M 52.834696,29.01612 H 52.69805 c -1.257065,0 -1.557666,-0.300604 -1.557666,-1.557667 v -9.373326 h -4.317742 v 0.464567 c 1.694303,0.08198 2.022234,0.355257 2.022234,1.721631 v 6.421957 c 0,2.07689 -2.377491,2.377491 -2.924041,2.377491 -1.065772,0 -1.94025,-0.929134 -1.94025,-2.076889 v -8.908757 h -3.989813 v 0.382584 c 1.311718,0.08198 1.694302,0.491894 1.694302,1.748958 v 6.886527 c 0,2.158869 1.311721,3.552573 3.306627,3.552573 1.967577,0 3.03335,-1.393704 3.989811,-2.350164 v 2.268181 l 0.109301,0.05466 c 1.366374,-0.54655 2.350162,-0.847151 3.743865,-1.229736 z"
       style="font-size:10.5833px;line-height:1.25;font-family:FreeSerif;-inkscape-font-specification:FreeSerif;white-space:pre;inline-size:78.823;fill:#ffffff;stroke-width:0.683188"
       id="path1199" />
    <path
       d="m 60.623025,24.56174 c 0,3.552573 2.158869,6.094029 5.192219,6.094029 3.224645,0 4.809638,-3.169989 5.383517,-4.290415 l -0.382587,-0.245948 c -1.311718,1.912924 -2.295508,2.568783 -3.853174,2.568783 -2.486801,0 -4.235759,-2.186199 -4.235759,-5.328858 0,-2.814731 1.50301,-4.754981 3.716536,-4.754981 0.983789,0 1.339047,0.300601 1.612322,1.311718 l 0.163965,0.601203 c 0.218629,0.765171 0.710515,1.257065 1.284392,1.257065 0.710515,0 1.311718,-0.519221 1.311718,-1.147753 0,-1.53034 -1.912924,-2.814731 -4.208432,-2.814731 -3.03335,0 -5.984717,2.541456 -5.984717,6.749888 z"
       style="font-size:10.5833px;line-height:1.25;font-family:FreeSerif;-inkscape-font-specification:FreeSerif;white-space:pre;inline-size:78.823;fill:#ffffff;stroke-width:0.683188"
       id="path1201" />
    <path
       d="m 72.48315,27.731728 c 0,1.721629 1.202408,2.924041 2.869384,2.924041 1.202409,0 2.322837,-0.573879 3.989813,-1.994907 0.136646,1.421028 0.628532,1.994907 1.748958,1.994907 0.929134,0 1.503011,-0.327931 2.459474,-1.366374 V 28.57888 c -0.464567,0.382584 -0.792498,0.519222 -1.202409,0.519222 -0.628532,0 -0.819824,-0.382586 -0.819824,-1.584995 v -5.328858 c 0,-2.732748 -0.765172,-4.372397 -3.935157,-4.372397 -2.568786,0 -4.591019,1.339045 -4.591019,3.060676 0,0.628533 0.54655,1.175082 1.175082,1.175082 0.655859,0 1.229738,-0.546549 1.229738,-1.147752 0,-0.245949 -0.136647,-0.710515 -0.136647,-1.0931 0,-0.737841 0.874481,-1.339047 1.96758,-1.339047 1.339045,0 2.076889,0.792498 2.076889,2.268181 v 1.666976 c -3.388609,1.366374 -6.83187,2.377491 -6.83187,5.32886 z m 6.83187,-0.710515 c 0,0.847151 -0.136646,1.0931 -0.710515,1.421028 -0.655859,0.382587 -1.42103,0.628532 -1.994906,0.628532 -0.683189,0 -1.721632,-0.573876 -1.721632,-2.213525 0,-1.612322 1.120426,-2.59611 4.427053,-3.798521 z"
       style="font-size:10.5833px;line-height:1.25;font-family:FreeSerif;-inkscape-font-specification:FreeSerif;white-space:pre;inline-size:78.823;fill:#ffffff;stroke-width:0.683188"
       id="path1203" />
    <path
       d="m 83.960674,19.506154 c 0.163966,-0.08198 0.43724,-0.109302 0.737842,-0.109302 0.765171,0 1.011119,0.409914 1.011119,1.748959 v 6.777217 c 0,1.557666 -0.300604,1.940251 -1.694305,2.04956 v 0.409914 h 5.793428 v -0.409914 c -1.393704,-0.109302 -1.803615,-0.43724 -1.803615,-1.421027 v -7.679025 c 1.311718,-1.229735 1.912924,-1.557666 2.814731,-1.557666 1.339045,0 1.994904,0.847154 1.994904,2.650765 v 5.711445 c 0,1.721632 -0.355255,2.186199 -1.721629,2.295508 v 0.409914 h 5.684115 v -0.409914 c -1.339047,-0.136644 -1.666975,-0.464575 -1.666975,-1.803622 v -6.257992 c 0,-2.568783 -1.202412,-4.099122 -3.224645,-4.099122 -1.257064,0 -2.104216,0.464567 -3.962483,2.213525 v -2.158872 l -0.191285,-0.05466 c -1.339047,0.491894 -2.268181,0.792498 -3.771194,1.229736 z"
       style="font-size:10.5833px;line-height:1.25;font-family:FreeSerif;-inkscape-font-specification:FreeSerif;white-space:pre;inline-size:78.823;fill:#ffffff;stroke-width:0.683188"
       id="path1205" />
    <path
       d="m 3.7769265,55.530844 c 0.4404072,-0.10163 0.7114322,-0.135501 1.0840874,-0.135501 0.8808231,0 1.185724,0.542045 1.185724,2.168177 v 8.571081 c 0,1.8294 -0.4742918,2.337569 -2.3714454,2.371445 v 0.508165 H 11.19616 V 68.506046 C 9.4006367,68.438284 8.8924714,68.065635 8.8924714,66.7444 v -9.553534 c 1.0502102,-1.558379 3.0151206,-1.998791 3.9975776,-1.998791 1.490623,0 2.235934,1.185725 2.235934,3.557169 v 7.35148 c 0,1.897154 -0.372654,2.269812 -2.303687,2.405322 v 0.508165 h 7.588623 v -0.508165 c -1.931033,-0.03387 -2.439202,-0.609802 -2.439202,-2.710223 v -8.537204 c 1.016334,-1.456745 2.134301,-2.066544 3.69268,-2.066544 1.931034,0 2.540833,0.9147 2.540833,3.726557 v 7.148213 c 0,1.931033 -0.271034,2.202057 -2.235935,2.439201 v 0.508165 h 7.419237 v -0.508165 l -0.880823,-0.06776 c -1.016335,-0.06776 -1.456745,-0.677556 -1.456745,-1.998788 v -6.978825 c 0,-3.99758 -1.321232,-6.030245 -3.929821,-6.030245 -1.964915,0 -3.692681,0.880821 -5.52208,2.845734 -0.609802,-1.931034 -1.761646,-2.845734 -3.591047,-2.845734 -1.490621,0 -2.439202,0.474288 -5.2510546,2.608589 V 53.49818 L 8.519826,53.430419 c -1.7277664,0.643675 -2.8796094,1.016333 -4.7428871,1.524498 z"
       style="font-size:10.5833px;line-height:1.25;font-family:FreeSerif;-inkscape-font-specification:FreeSerif;white-space:pre;inline-size:78.823;fill:#ffffff;stroke-width:0.846946"
       id="path1207" />
    <path
       d="m 30.404872,65.728057 c 0,2.134301 1.490621,3.624923 3.557166,3.624923 1.490625,0 2.879613,-0.711433 4.946158,-2.473079 0.169399,1.761646 0.779189,2.473079 2.168177,2.473079 1.151848,0 1.86328,-0.406532 3.049002,-1.69389 v -0.880819 c -0.575923,0.474288 -0.982454,0.643675 -1.490623,0.643675 -0.779189,0 -1.016333,-0.474288 -1.016333,-1.964911 v -6.606169 c 0,-3.387779 -0.948577,-5.420444 -4.878401,-5.420444 -3.184511,0 -5.691467,1.66001 -5.691467,3.794311 0,0.779189 0.677555,1.456745 1.456745,1.456745 0.813067,0 1.524499,-0.677556 1.524499,-1.422869 0,-0.304901 -0.1694,-0.880819 -0.1694,-1.355111 0,-0.9147 1.084086,-1.66001 2.439199,-1.66001 1.660012,0 2.574712,0.982454 2.574712,2.811858 v 2.066543 c -4.200845,1.69389 -8.469447,2.947368 -8.469447,6.606168 z m 8.469446,-0.880823 c 0,1.050213 -0.169399,1.355111 -0.880823,1.761646 -0.813066,0.474288 -1.761642,0.77919 -2.473078,0.77919 -0.846943,0 -2.134301,-0.711434 -2.134301,-2.744101 0,-1.99879 1.388992,-3.218391 5.488202,-4.709014 z"
       style="font-size:10.5833px;line-height:1.25;font-family:FreeSerif;-inkscape-font-specification:FreeSerif;white-space:pre;inline-size:78.823;fill:#ffffff;stroke-width:0.846946"
       id="path1209" />
    <path
       d="m 44.464165,47.908342 c 0.406531,-0.03387 0.745309,-0.06776 1.084087,-0.06776 1.117968,0 1.456746,0.440412 1.456746,2.066544 v 16.329096 c 0,1.761642 -0.101631,1.863276 -2.540833,2.269811 v 0.508165 h 7.927402 v -0.50816 C 50.053998,68.133383 49.850731,67.930116 49.850731,66.30398 v -5.793101 l 4.742891,6.335146 c 0.271034,0.406535 0.711436,0.813066 0.711436,1.151844 0,0.440412 -0.440412,0.508169 -1.355113,0.508169 v 0.508165 h 7.385357 v -0.508165 c -1.490621,-0.10163 -2.540835,-0.745313 -3.963701,-2.47308 l -5.183302,-6.57229 0.982457,-0.9147 c 4.539623,-4.234724 5.65759,-4.268601 7.3176,-4.268601 V 53.7692 h -6.911068 v 0.474288 c 1.321235,0.03387 1.693889,0.169401 1.693889,0.643677 0,0.271034 -0.304901,0.745312 -0.779189,1.151847 L 49.850731,60.1721 V 45.94343 L 49.71523,45.87567 c -1.863277,0.609799 -3.150635,0.982453 -5.251055,1.490622 z"
       style="font-size:10.5833px;line-height:1.25;font-family:FreeSerif;-inkscape-font-specification:FreeSerif;white-space:pre;inline-size:78.823;fill:#ffffff;stroke-width:0.846946"
       id="path1211" />
    <path
       d="m 63.605137,59.630055 h 10.43436 c -0.508169,-4.099211 -2.303691,-6.199633 -5.793104,-6.199633 -4.099211,0 -7.080456,3.286146 -7.080456,8.333934 0,4.675136 2.4392,7.588624 6.335146,7.588624 3.218389,0 5.759225,-1.998787 7.182089,-5.657591 l -0.542041,-0.237134 c -1.626136,2.574712 -3.082881,3.557169 -5.25106,3.557169 -2.202054,0 -5.081668,-1.355112 -5.284934,-7.385359 z m 0.06776,-1.084088 c 0.372656,-2.642469 1.5245,-3.895947 3.591047,-3.895947 2.066545,0 2.879611,0.948581 3.320022,3.895947 z"
       style="font-size:10.5833px;line-height:1.25;font-family:FreeSerif;-inkscape-font-specification:FreeSerif;white-space:pre;inline-size:78.823;fill:#ffffff;stroke-width:0.846946"
       id="path1213" />
    <path
       d="m 85.930606,55.700234 c 0.813066,0 1.117967,0.508165 1.117967,1.998787 v 7.859648 c 0,2.439199 -0.338778,2.811857 -2.676346,2.947368 v 0.508165 h 8.029035 V 68.506037 C 90.16533,68.336636 89.894307,67.997868 89.894307,65.558669 V 53.532053 l -0.135502,-0.101631 c -1.761642,0.711432 -3.489412,1.355108 -5.251054,1.863277 v 0.508165 c 0.508165,-0.06776 1.117967,-0.10163 1.422865,-0.10163 z m 2.235934,-9.824559 c -0.9147,0 -1.693889,0.77919 -1.693889,1.727767 0,0.948577 0.745313,1.727766 1.693889,1.727766 0.982457,0 1.761646,-0.745309 1.761646,-1.727766 0,-0.948577 -0.779189,-1.727767 -1.761646,-1.727767 z"
       style="font-size:10.5833px;line-height:1.25;font-family:FreeSerif;-inkscape-font-specification:FreeSerif;white-space:pre;inline-size:78.823;fill:#ffffff;stroke-width:0.846946"
       id="path1215" />
    <path
       d="m 101.34498,53.7692 h -3.42166 v -3.929824 c 0,-0.338777 -0.03387,-0.440411 -0.237134,-0.440411 -0.237136,0.304901 -0.440413,0.609799 -0.677557,0.948576 -3.015124,4.33636 -3.862066,3.591047 -3.862066,4.268603 0,0.10163 0.03387,0.169399 0.1355,0.237134 h 1.795523 v 10.197214 c 0,2.845733 1.016334,4.302478 3.015125,4.302478 1.660009,0 2.947369,-0.813066 4.065329,-2.574709 l -0.44041,-0.372658 c -0.71143,0.846946 -1.28735,1.185724 -2.032664,1.185724 -1.253477,0 -1.761646,-0.9147 -1.761646,-3.049001 v -9.689048 h 3.42166 z"
       style="font-size:10.5833px;line-height:1.25;font-family:FreeSerif;-inkscape-font-specification:FreeSerif;white-space:pre;inline-size:78.823;fill:#ffffff;stroke-width:0.846946"
       id="path1217" />
  </g>
</svg>
