<?xml version="1.0" encoding="UTF-8" standalone="no"?>
<!-- Created with Inkscape (http://www.inkscape.org/) -->

<svg
   width="320"
   height="320"
   viewBox="0 0 84.666664 84.666664"
   version="1.1"
   id="svg5"
   inkscape:version="1.2.1 (9c6d41e410, 2022-07-14, custom)"
   sodipodi:docname="youvegotthis.svg"
   xmlns:inkscape="http://www.inkscape.org/namespaces/inkscape"
   xmlns:sodipodi="http://sodipodi.sourceforge.net/DTD/sodipodi-0.dtd"
   xmlns:xlink="http://www.w3.org/1999/xlink"
   xmlns="http://www.w3.org/2000/svg"
   xmlns:svg="http://www.w3.org/2000/svg">
  <sodipodi:namedview
     id="namedview7"
     pagecolor="#505050"
     bordercolor="#eeeeee"
     borderopacity="1"
     inkscape:showpageshadow="0"
     inkscape:pageopacity="0"
     inkscape:pagecheckerboard="0"
     inkscape:deskcolor="#505050"
     inkscape:document-units="mm"
     showgrid="false"
     inkscape:zoom="1.6960957"
     inkscape:cx="104.65211"
     inkscape:cy="137.96391"
     inkscape:window-width="1920"
     inkscape:window-height="1005"
     inkscape:window-x="0"
     inkscape:window-y="0"
     inkscape:window-maximized="1"
     inkscape:current-layer="layer1" />
  <defs
     id="defs2">
    <linearGradient
       inkscape:collect="always"
       id="linearGradient833">
      <stop
         style="stop-color:#9f20c0;stop-opacity:1;"
         offset="0"
         id="stop829" />
      <stop
         style="stop-color:#69189c;stop-opacity:1;"
         offset="1"
         id="stop831" />
    </linearGradient>
    <linearGradient
       inkscape:collect="always"
       xlink:href="#linearGradient833"
       id="linearGradient835"
       x1="5.6693616"
       y1="4.0166559"
       x2="96.301926"
       y2="69.873955"
       gradientUnits="userSpaceOnUse"
       gradientTransform="matrix(0.81162889,0,0,1.0662902,-0.37548172,0.14279299)" />
  </defs>
  <g
     inkscape:label="Layer 1"
     inkscape:groupmode="layer"
     id="layer1">
    <rect
       style="fill:url(#linearGradient835);fill-opacity:1;stroke:none;stroke-width:0.432583;stroke-linecap:round;stop-color:#000000"
       id="rect250"
       width="89.289017"
       height="88.233192"
       x="-1.9933084"
       y="-2.1540589" />
    <g
       aria-label="You've got this"
       id="text382"
       style="font-size:26.9179px;line-height:1.25;font-family:'Indie Flower';-inkscape-font-specification:'Indie Flower';stroke-width:0.672949"
       transform="matrix(0.89111385,0,0,0.89111385,-4.5035754,6.5964582)">
      <path
         d="m 19.989264,26.018254 q 0,-0.07886 0,-0.262871 0,-0.210296 0,-0.420592 0,-0.236583 0,-0.420592 0,-0.210296 0,-0.289157 0,-1.130342 0.105148,-1.997813 0.131435,-0.893758 0.315444,-1.734943 0.210297,-0.841184 0.499454,-1.708655 0.289157,-0.893759 0.604601,-1.997813 0,-0.05257 0,-0.184009 0.02629,-0.157723 0.02629,-0.210297 0.05257,-0.02629 -0.473166,-0.26287 -0.499453,-0.236583 -1.23549,-0.657175 -0.736036,-0.446879 -1.603507,-1.104054 -0.867472,-0.657176 -1.603508,-1.524647 -0.70975,-0.867472 -1.156629,-1.945239 -0.420592,-1.077767 -0.315444,-2.3921181 0.02629,0 0.131435,0 0.131435,-0.026287 0.26287,-0.026287 0.157722,-0.026287 0.289157,-0.052574 h 0.157723 q 0.184009,0.5257402 0.499453,1.1829151 0.315444,0.657176 0.762323,1.340638 0.473166,0.683462 1.025194,1.340638 0.552027,0.630888 1.156628,1.156628 0.630888,0.499453 1.288064,0.814897 0.683462,0.289158 1.393211,0.289158 0.473166,-1.051481 0.736037,-1.656082 0.289157,-0.630888 0.446879,-0.97262 0.157722,-0.341731 0.210296,-0.499453 0.05257,-0.184009 0.07886,-0.368018 0.02629,-0.210296 0.05257,-0.473166 0.02629,-0.289157 0.131435,-0.867472 0,-0.105148 0.210296,-0.2102956 0.210296,-0.1314351 0.420592,-0.1577221 0.236583,-0.026287 0.420592,0.052574 0.210297,0.078861 0.210297,0.3154437 0,1.445786 -0.315445,2.760137 -0.315444,1.288063 -0.78861,2.523553 -0.473166,1.235489 -0.998906,2.470979 -0.525741,1.209202 -0.920046,2.497266 -0.394305,1.288064 -0.578314,2.681275 -0.157722,1.393212 0.07886,2.970433 -0.157722,0.289157 -0.315444,0.394305 -0.157722,0.131435 -0.420592,0.131435 -0.26287,0 -0.44688,-0.131435 -0.184009,-0.105148 -0.341731,-0.394305 z"
         id="path1018" />
      <path
         d="m 26.035277,20.760851 q 0,-1.445785 0.630888,-2.523553 0.630889,-1.077767 1.656082,-1.813804 1.025194,-0.736036 2.28697,-1.077767 1.288064,-0.368018 2.576127,-0.368018 0.683463,0 1.261777,0.26287 0.604601,0.236583 1.130341,0.683462 0.552028,0.420592 0.97262,0.998907 0.420592,0.552027 0.709749,1.156628 0.315444,0.604601 0.473166,1.23549 0.157722,0.604601 0.157722,1.182915 0,1.340638 -0.52574,2.392118 -0.52574,1.051481 -1.419499,1.787517 -0.893758,0.709749 -2.024099,1.104054 -1.130342,0.368019 -2.313257,0.368019 -1.209203,0 -2.234396,-0.368019 -0.998907,-0.394305 -1.76123,-1.077767 -0.736037,-0.683462 -1.156629,-1.682369 -0.420592,-1.025193 -0.420592,-2.260683 z m 1.288064,-0.210296 q 0,0.814898 0.289157,1.577221 0.315444,0.736036 0.841184,1.288063 0.552027,0.552028 1.288064,0.893759 0.736036,0.315444 1.57722,0.315444 0.44688,0.05257 1.077768,-0.131435 0.657175,-0.210296 1.288063,-0.578314 0.657176,-0.394306 1.23549,-0.920046 0.604601,-0.552027 0.998906,-1.182915 0.394306,-0.657176 0.473167,-1.340638 0.105148,-0.709749 -0.236583,-1.393212 -0.315445,-0.709749 -1.182916,-1.340637 -0.867471,-0.657175 -2.392118,-1.209203 -0.867471,0 -1.813804,0.26287 -0.920045,0.236584 -1.682369,0.736037 -0.762323,0.499453 -1.261776,1.261776 -0.499453,0.762324 -0.499453,1.76123 z"
         id="path1020" />
      <path
         d="m 48.747255,22.311785 q -0.604601,0.341731 -1.05148,0.841184 -0.420592,0.473167 -0.867472,0.920046 -0.446879,0.420592 -0.998906,0.736036 -0.52574,0.315444 -1.366925,0.315444 -0.946332,0 -1.708655,-0.394305 -0.762324,-0.420592 -1.366925,-1.104054 -0.578314,-0.70975 -1.025193,-1.577221 -0.420593,-0.893759 -0.70975,-1.813804 -0.26287,-0.946332 -0.420592,-1.840091 -0.131435,-0.920045 -0.131435,-1.656082 -0.210296,-1.419498 0.07886,-2.208109 0.289157,-0.814897 0.683462,-1.025193 0.420593,-0.236583 0.70975,0.105148 0.289157,0.315444 0.07886,1.130342 -0.05257,0.105148 -0.07886,0.341731 -0.02629,0.210296 -0.05257,0.446879 -0.02629,0.236583 -0.05257,0.446879 -0.02629,0.210296 -0.02629,0.289157 0,0.552027 0.105148,1.314351 0.105148,0.736036 0.315444,1.550934 0.236583,0.814897 0.578314,1.629794 0.341731,0.788611 0.814897,1.419499 0.473167,0.630888 1.077768,1.025193 0.630888,0.394306 1.366925,0.394306 0.473166,0 1.077767,-0.44688 0.604601,-0.473166 1.130341,-1.104054 0.552028,-0.657175 0.920046,-1.340638 0.394305,-0.683462 0.394305,-1.156628 0,-0.26287 0,-0.867472 0.02629,-0.604601 0.02629,-1.288063 0,-0.683463 -0.02629,-1.288064 0,-0.604601 0,-0.841184 0.157722,-0.26287 0.341731,-0.394305 0.184009,-0.157722 0.446879,-0.157722 0.315445,0 0.525741,0.420592 0.210296,0.420592 0.341731,1.077767 0.131435,0.657175 0.184009,1.419499 0.05257,0.762323 0.07886,1.472072 0.02629,0.70975 0.05257,1.261777 0.02629,0.52574 0.07886,0.709749 0.131435,0.525741 0.368018,1.182916 0.26287,0.657175 0.499453,1.288063 0.236584,0.604602 0.420593,1.130342 0.184009,0.499453 0.184009,0.762323 0,0.394306 -0.236583,0.473167 -0.210297,0.07886 -0.552028,0.07886 -0.420592,0 -0.630888,-0.210297 -0.184009,-0.210296 -0.289157,-0.52574 -0.07886,-0.341731 -0.131435,-0.736036 -0.05257,-0.394305 -0.184009,-0.814897 -0.105148,-0.420593 -0.341731,-0.788611 -0.210296,-0.368018 -0.630889,-0.604601 z"
         id="path1022" />
      <path
         d="m 52.690307,7.4070492 q 0,-0.157722 0,-0.2628701 0,-0.131435 0.05257,-0.2102961 0.05257,-0.105148 0.157722,-0.2102961 0.105148,-0.105148 0.26287,-0.2628701 0.289158,0.1577221 0.499454,0.5520273 0.236583,0.3943051 0.368018,0.9200454 0.157722,0.4994532 0.236583,1.1303415 0.07886,0.6046013 0.131435,1.209203 0.05257,0.578314 0.05257,1.077767 0.02629,0.499453 0.02629,0.814897 0,0.368019 -0.05257,0.604602 -0.05257,0.236583 -0.473166,0.236583 -0.341731,0 -0.578314,-0.394305 -0.210297,-0.394306 -0.368019,-0.97262 -0.131435,-0.604601 -0.210296,-1.31435 -0.05257,-0.7097498 -0.07886,-1.3406381 -0.02629,-0.6308882 -0.02629,-1.0514804 0,-0.4468792 0,-0.5257403 z"
         id="path1024" />
      <path
         d="m 55.187573,16.765225 q 0.02629,-0.07886 0.07886,-0.184009 0.05257,-0.131435 0.131435,-0.26287 0.105148,-0.131435 0.184009,-0.210296 0.105148,-0.105148 0.236583,-0.105148 0.02629,0 0.02629,0.02629 0,0 0.05257,0 h 0.05257 q 0.604601,0.289157 0.998907,0.841184 0.394305,0.525741 0.683462,1.209203 0.315444,0.683462 0.578314,1.472073 0.26287,0.762323 0.578314,1.524646 0.341732,0.736037 0.788611,1.445786 0.446879,0.709749 1.130341,1.261777 0.236583,-0.788611 0.473166,-1.524647 0.236584,-0.762323 0.525741,-1.524647 0.315444,-0.762323 0.709749,-1.57722 0.420592,-0.814898 0.946332,-1.76123 0.630889,-0.26287 0.998907,-0.315444 0.394305,-0.05257 0.552027,0.105148 0.157722,0.131435 0.05257,0.420592 -0.105148,0.289157 -0.446879,0.683462 -0.210296,0.184009 -0.499453,0.841185 -0.26287,0.657175 -0.578315,1.550933 -0.315444,0.893759 -0.683462,1.866378 -0.341731,0.972619 -0.709749,1.787517 -0.368018,0.78861 -0.736036,1.31435 -0.341732,0.525741 -0.683463,0.499454 -0.368018,0 -0.841184,-0.552028 Q 59.340921,25.019347 58.81518,24.125589 58.28944,23.23183 57.7637,22.18035 57.23796,21.102582 56.738506,20.051102 56.26534,18.999621 55.844748,18.13215 55.450443,17.238392 55.187573,16.765225 Z"
         id="path1026" />
      <path
         d="m 65.912674,19.078482 q 0,-1.366924 0.394305,-2.602414 0.420592,-1.261776 1.182915,-2.208109 0.788611,-0.946332 1.892665,-1.498359 1.130342,-0.578315 2.602414,-0.578315 0.867472,0.105148 1.49836,0.473167 0.657175,0.368018 1.051481,0.920045 0.420592,0.52574 0.604601,1.23549 0.157722,0.683462 0.157722,1.472072 0,0.946333 -0.552027,1.708656 -0.552028,0.762323 -1.393212,1.288064 -0.841184,0.499453 -1.813804,0.78861 -0.972619,0.26287 -1.813804,0.26287 -0.315444,0 -0.657175,0 -0.315444,0 -0.578314,-0.105148 -0.26287,-0.105148 -0.420592,-0.315444 -0.157722,-0.210296 -0.157722,-0.630888 0,-0.131435 0.02629,-0.210297 0.05257,-0.105148 0.236583,-0.131435 0.184009,-0.05257 0.552027,-0.02629 0.368018,0.05257 0.998906,0.157722 0.368019,0 1.051481,-0.236583 0.709749,-0.26287 1.419498,-0.657175 0.736037,-0.394305 1.261777,-0.893758 0.52574,-0.525741 0.52574,-1.025194 0,-0.52574 -0.184009,-1.025193 -0.157722,-0.52574 -0.499453,-0.920046 -0.341731,-0.394305 -0.814897,-0.630888 -0.44688,-0.236583 -1.025194,-0.184009 -0.920045,0.07886 -1.682369,0.499453 -0.736036,0.420592 -1.261776,1.104055 -0.52574,0.657175 -0.814898,1.472072 -0.289157,0.814898 -0.289157,1.708656 0,0.683462 0.02629,1.366925 0.02629,0.683462 0.184009,1.340637 0.184009,0.657176 0.552028,1.261777 0.394305,0.604601 1.104054,1.077767 0.736036,0.44688 1.840091,0.762324 1.104054,0.289157 2.733849,0.368018 l 4.705375,-0.315444 q -0.420592,0.578314 -1.077767,0.946332 -0.630888,0.368018 -1.366925,0.604601 -0.709749,0.210297 -1.419498,0.315445 -0.70975,0.105148 -1.340638,0.105148 -1.524647,0 -2.865284,-0.499454 -1.340638,-0.499453 -2.365831,-1.393211 -1.025194,-0.920046 -1.629795,-2.208109 -0.578314,-1.314351 -0.578314,-2.944146 z"
         id="path1028" />
      <path
         d="m 11.156828,67.078566 q -0.105148,-0.368018 0.02629,-0.657175 0.105148,-0.289157 0.315444,-0.473166 0.210297,-0.18401 0.473167,-0.236584 0.236583,-0.05257 0.420592,0.05257 0.157722,0.131435 0.210296,0.44688 0.02629,0.315444 -0.184009,0.867471 0,0.578314 0.499453,1.130342 0.473166,0.552027 1.261777,0.998906 0.762323,0.446879 1.682368,0.814897 0.920046,0.368019 1.787517,0.630889 0.867472,0.26287 1.550934,0.394305 0.630888,0.131435 0.946332,0.131435 0.657176,0 1.104055,-0.341731 0.473166,-0.341731 0.78861,-0.893759 0.341731,-0.552027 0.52574,-1.261776 0.210297,-0.683463 0.315445,-1.393212 0.105148,-0.683462 0.131435,-1.340637 0.02629,-0.657176 0.02629,-1.104055 0,-0.210296 -0.05257,-0.78861 -0.02629,-0.552028 -0.105148,-1.288064 -0.07886,-0.736036 -0.184009,-1.524647 -0.105149,-0.78861 -0.236584,-1.472072 -0.131435,-0.683463 -0.289157,-1.104055 -0.131435,-0.420592 -0.289157,-0.420592 -0.26287,0 -0.630888,0.157722 -0.341731,0.157722 -0.736036,0.341731 -0.368019,0.184009 -0.762324,0.341731 -0.394305,0.157723 -0.762323,0.157723 -0.736036,0 -1.445786,-0.315445 -0.709749,-0.315444 -1.235489,-0.814897 -0.499454,-0.499453 -0.814898,-1.182916 -0.315444,-0.683462 -0.315444,-1.419498 0,-1.156629 0.446879,-2.365831 0.473167,-1.209203 1.261777,-2.208109 0.814897,-0.998907 1.892665,-1.629795 1.104054,-0.630888 2.339544,-0.630888 0.946332,0.26287 1.524646,1.209202 0.604602,0.920046 0.920046,2.28697 0.341731,1.366925 0.473166,3.049294 0.157722,1.656081 0.210296,3.391024 0.05257,1.734943 0.07886,3.391025 0.05257,1.682369 0.210296,3.049293 0,0.604601 -0.07886,1.419499 -0.05257,0.841184 -0.210296,1.708656 -0.157722,0.867471 -0.446879,1.708655 -0.26287,0.867472 -0.709749,1.524647 -0.44688,0.683462 -1.104055,1.077767 -0.630888,0.420593 -1.472072,0.420593 -0.683463,0 -1.656082,-0.157722 -0.946343,-0.157718 -1.997823,-0.49945 -1.025194,-0.341731 -2.050387,-0.841184 -1.025193,-0.499453 -1.840091,-1.156629 -0.814897,-0.630888 -1.31435,-1.445785 -0.499454,-0.788611 -0.499454,-1.734943 z m 5.520273,-12.013164 q 0,0.473166 0.131435,0.920045 0.157722,0.420592 0.420592,0.762323 0.289157,0.341732 0.683462,0.552028 0.420593,0.184009 0.920046,0.184009 1.340637,0 2.0241,-0.525741 0.709749,-0.52574 0.972619,-1.31435 0.26287,-0.78861 0.26287,-1.682369 -0.02629,-0.920045 -0.07886,-1.656082 0,-0.368018 -0.05257,-0.736036 -0.05257,-0.368018 -0.210296,-0.683462 -0.157722,-0.315444 -0.446879,-0.499453 -0.26287,-0.18401 -0.683462,-0.18401 -0.867472,0 -1.603508,0.499454 -0.736036,0.473166 -1.261777,1.209202 -0.499453,0.70975 -0.78861,1.577221 -0.289157,0.841184 -0.289157,1.577221 z"
         id="path1030" />
      <path
         d="m 25.036371,54.408226 q 0,-1.445785 0.630888,-2.523553 0.630888,-1.077767 1.656082,-1.813804 1.025193,-0.736036 2.28697,-1.077767 1.288064,-0.368018 2.576127,-0.368018 0.683462,0 1.261777,0.26287 0.604601,0.236583 1.130341,0.683462 0.552027,0.420592 0.97262,0.998907 0.420592,0.552027 0.709749,1.156628 0.315444,0.604601 0.473166,1.23549 0.157722,0.604601 0.157722,1.182915 0,1.340638 -0.52574,2.392118 -0.52574,1.051481 -1.419499,1.787517 -0.893758,0.709749 -2.0241,1.104055 -1.130341,0.368018 -2.313257,0.368018 -1.209202,0 -2.234396,-0.368018 -0.998906,-0.394306 -1.761229,-1.077768 -0.736037,-0.683462 -1.156629,-1.682369 -0.420592,-1.025193 -0.420592,-2.260683 z m 1.288063,-0.210296 q 0,0.814898 0.289158,1.577221 0.315444,0.736036 0.841184,1.288064 0.552027,0.552027 1.288064,0.893758 0.736036,0.315444 1.57722,0.315444 0.446879,0.05257 1.077768,-0.131435 0.657175,-0.210296 1.288063,-0.578314 0.657176,-0.394305 1.23549,-0.920046 0.604601,-0.552027 0.998906,-1.182915 0.394306,-0.657175 0.473167,-1.340638 0.105148,-0.709749 -0.236584,-1.393211 -0.315444,-0.70975 -1.182915,-1.340638 -0.867471,-0.657175 -2.392118,-1.209203 -0.867472,0 -1.813804,0.262871 -0.920045,0.236583 -1.682369,0.736036 -0.762323,0.499453 -1.261776,1.261776 -0.499454,0.762324 -0.499454,1.76123 z"
         id="path1032" />
      <path
         d="m 41.229171,50.728045 q -0.210296,0 -0.736036,0 -0.52574,0 -1.104055,-0.07886 -0.552027,-0.105148 -1.025193,-0.315444 -0.446879,-0.210297 -0.446879,-0.604602 0,-0.105148 0.02629,-0.289157 0.05257,-0.210296 0.26287,-0.210296 l 2.707562,-0.236583 q 0.105148,-0.97262 0.157722,-1.577221 0.05257,-0.630888 0.02629,-1.156628 -0.02629,-0.552028 -0.07886,-1.130342 -0.02629,-0.604601 -0.05257,-1.550934 0,-0.184009 0.07886,-0.289157 0.07886,-0.105148 0.184009,-0.157722 0.131435,-0.05257 0.26287,-0.07886 0.157722,-0.02629 0.236583,-0.02629 0.157723,0 0.315445,0.105148 0.184009,0.105148 0.315444,0.26287 0.131435,0.157722 0.210296,0.341732 0.07886,0.157722 0.07886,0.315444 l 0.210296,4.915671 2.260683,0.105148 q 0.446879,-0.05257 0.814897,0.184009 0.394306,0.210296 0.420593,0.814897 -0.315445,0.341732 -0.762324,0.420593 -0.446879,0.05257 -0.946332,0.05257 -0.473166,-0.02629 -0.946333,0 -0.473166,0 -0.841184,0.236583 0,0.157722 0.02629,0.867471 0.02629,0.709749 0.05257,1.682369 0.02629,0.972619 0.05257,2.076674 0.05257,1.104054 0.07886,2.050387 0.02629,0.920045 0.02629,1.57722 0.02629,0.657176 0.02629,0.736037 -0.604601,0.368018 -0.972619,-0.05257 -0.368019,-0.446879 -0.604602,-1.288064 -0.210296,-0.867471 -0.315444,-1.997813 -0.07886,-1.156628 -0.105148,-2.260683 0,-1.130341 0.02629,-2.076674 0.02629,-0.946332 0.07886,-1.366924 z"
         id="path1034" />
      <path
         d="m 60.155818,50.728045 q -0.210296,0 -0.736036,0 -0.52574,0 -1.104054,-0.07886 -0.552028,-0.105148 -1.025194,-0.315444 -0.446879,-0.210297 -0.446879,-0.604602 0,-0.105148 0.02629,-0.289157 0.05257,-0.210296 0.26287,-0.210296 l 2.707562,-0.236583 q 0.105148,-0.97262 0.157722,-1.577221 0.05257,-0.630888 0.02629,-1.156628 -0.02629,-0.552028 -0.07886,-1.130342 -0.02629,-0.604601 -0.05257,-1.550934 0,-0.184009 0.07886,-0.289157 0.07886,-0.105148 0.184009,-0.157722 0.131435,-0.05257 0.262871,-0.07886 0.157722,-0.02629 0.236583,-0.02629 0.157722,0 0.315444,0.105148 0.184009,0.105148 0.315444,0.26287 0.131435,0.157722 0.210296,0.341732 0.07886,0.157722 0.07886,0.315444 l 0.210296,4.915671 2.260683,0.105148 q 0.446879,-0.05257 0.814898,0.184009 0.394305,0.210296 0.420592,0.814897 -0.315444,0.341732 -0.762324,0.420593 -0.446879,0.05257 -0.946332,0.05257 -0.473166,-0.02629 -0.946332,0 -0.473167,0 -0.841185,0.236583 0,0.157722 0.02629,0.867471 0.02629,0.709749 0.05257,1.682369 0.02629,0.972619 0.05257,2.076674 0.05257,1.104054 0.07886,2.050387 0.02629,0.920045 0.02629,1.57722 0.02629,0.657176 0.02629,0.736037 -0.604601,0.368018 -0.972619,-0.05257 -0.368018,-0.446879 -0.604601,-1.288064 -0.210297,-0.867471 -0.315445,-1.997813 -0.07886,-1.156628 -0.105148,-2.260683 0,-1.130341 0.02629,-2.076674 0.02629,-0.946332 0.07886,-1.366924 z"
         id="path1036" />
      <path
         d="m 74.03536,59.297611 q 0.05257,-0.683463 0.105148,-1.419499 0.05257,-0.736036 0.07886,-1.472073 0.05257,-0.736036 0.05257,-1.445785 0.02629,-0.70975 0.02629,-1.288064 0,-0.841184 -0.236583,-1.603508 -0.236583,-0.762323 -0.683462,-1.31435 -0.446879,-0.578315 -1.130342,-0.893759 -0.657175,-0.341731 -1.57722,-0.341731 -0.368018,0 -0.630889,0.05257 -0.26287,0.05257 -0.52574,0.184009 -0.26287,0.105148 -0.578314,0.289157 -0.315444,0.210296 -0.736036,0.499454 0,0.05257 -0.02629,0.210296 0,0.131435 0,0.157722 0,0.578314 0.105148,1.550933 0.131435,0.946333 0.26287,1.997813 0.131435,1.025194 0.26287,1.997813 0.131435,0.97262 0.131435,1.577221 0,0.05257 0,0.210296 0,0.157722 -0.02629,0.341731 0,0.184009 0,0.341731 0,0.157722 0,0.236583 -0.157722,0.368019 -0.394305,0.473167 -0.210296,0.07886 -0.52574,0.07886 -0.315445,0.05257 -0.473167,-0.446879 Q 67.358451,58.771865 67.27959,57.825533 67.20073,56.8792 67.121868,55.538563 67.069302,54.19793 66.937867,52.594423 66.832719,50.990915 66.596136,49.203398 66.38584,47.389594 65.965248,45.496929 65.754952,44.760893 65.623516,44.26144 65.518368,43.7357 65.41322,43.341394 65.308072,42.920802 65.229211,42.50021 65.15035,42.053331 65.045202,41.44873 v -0.105149 q 0,-0.105148 0.131435,-0.184009 0.131435,-0.105148 0.289157,-0.184009 0.18401,-0.07886 0.341732,-0.105148 0.184009,-0.05257 0.289157,-0.05257 0.499453,1.314351 0.78861,2.234396 0.315444,0.893759 0.499453,1.550934 0.184009,0.657175 0.26287,1.104054 0.07886,0.44688 0.131435,0.867472 0.05257,0.420592 0.07886,0.867471 0.02629,0.446879 0.105148,1.077768 1.366924,-0.841185 2.470979,-0.920046 1.130341,-0.07886 1.997813,0.341731 0.867471,0.394306 1.498359,1.23549 0.657176,0.841184 1.077768,1.892665 0.420592,1.05148 0.630888,2.234396 0.236583,1.182915 0.289157,2.28697 0.07886,1.104054 -0.05257,2.050387 -0.105148,0.920045 -0.341731,1.498359 -0.236583,0.552028 -0.630888,0.630889 -0.394306,0.105148 -0.867472,-0.473166 z"
         id="path1038" />
      <path
         d="m 78.583012,50.675471 q 0,-0.105148 0,-0.394306 0,-0.289157 0,-0.604601 0.02629,-0.315444 0.02629,-0.604601 0,-0.289157 0,-0.394305 -0.105148,-0.814898 0.473166,-0.814898 0.262871,0 0.44688,0.131435 0.184009,0.131436 0.341731,0.394306 -0.07886,1.366924 0.105148,2.654988 0.210296,1.261776 0.446879,2.523553 0.26287,1.23549 0.473166,2.497266 0.236583,1.261777 0.236583,2.628701 0,0.368018 -0.236583,0.736037 -0.210296,0.368018 -0.657175,0.368018 -0.341731,0 -0.604601,-0.578314 -0.236583,-0.604602 -0.420593,-1.49836 -0.184009,-0.920046 -0.315444,-2.0241 -0.131435,-1.104055 -0.210296,-2.102961 -0.05257,-1.025193 -0.07886,-1.813804 -0.02629,-0.814897 -0.02629,-1.104054 z m -1.340637,-6.59804 q 0,-0.315444 0.184009,-0.394305 0.184009,-0.105149 0.473166,-0.105149 0.184009,-0.02629 0.473166,0.236584 0.315444,0.236583 0.499453,0.552027 0.210296,0.315444 0.236583,0.578314 0.02629,0.315444 -0.394305,0.368018 h -0.131435 q -0.394305,0 -0.657175,-0.05257 -0.26287,-0.05257 -0.420592,-0.157722 -0.131435,-0.131435 -0.210296,-0.368018 -0.05257,-0.236583 -0.05257,-0.657175 z"
         id="path1040" />
      <path
         d="m 82.079185,56.590048 q 0.210296,-0.157722 0.368018,-0.184009 0.18401,-0.05257 0.394306,-0.05257 0.236583,0 0.473166,0.131435 0.236583,0.105148 0.420592,0.289157 0.210296,0.157722 0.420592,0.315445 0.210296,0.157722 0.446879,0.26287 0.683463,0.289157 1.077768,0.473166 0.420592,0.184009 0.762323,0.289157 0.341731,0.105148 0.788611,0.131435 0.446879,0.02629 1.156628,0.02629 0.552027,0 1.340638,0.02629 0.78861,0 1.498359,-0.131435 0.70975,-0.157722 1.209203,-0.52574 0.499453,-0.394305 0.499453,-1.182916 0.02629,-0.762323 -0.420592,-1.182915 -0.420592,-0.446879 -1.156629,-0.683463 -0.736036,-0.236583 -1.656081,-0.315444 -0.920046,-0.105148 -1.892665,-0.210296 -0.97262,-0.105148 -1.918952,-0.289157 -0.920045,-0.210296 -1.656082,-0.630888 -0.736036,-0.420592 -1.182915,-1.156629 -0.446879,-0.736036 -0.473166,-1.892665 0.157722,-0.841184 0.814897,-1.393211 0.683462,-0.578314 1.603508,-0.867472 0.946332,-0.315444 1.997813,-0.315444 1.05148,-0.02629 1.918951,0.26287 0.893759,0.26287 1.472073,0.867472 0.604601,0.604601 0.630888,1.498359 0.05257,0.525741 -0.07886,0.867472 -0.131435,0.341731 -0.368018,0.52574 -0.210296,0.157722 -0.446879,0.157722 -0.236583,-0.02629 -0.368018,-0.184009 -0.131435,-0.184009 -0.131435,-0.499453 0.02629,-0.341731 0.315444,-0.841185 -0.105148,-0.499453 -0.604601,-0.78861 -0.499454,-0.289157 -1.156629,-0.394305 -0.657175,-0.131435 -1.419499,-0.05257 -0.736036,0.05257 -1.366924,0.26287 -0.604601,0.210296 -0.998907,0.552027 -0.368018,0.341731 -0.315444,0.788611 0,0.78861 0.446879,1.235489 0.473167,0.420592 1.209203,0.657175 0.736036,0.236584 1.682369,0.341732 0.972619,0.105148 1.971526,0.210296 1.025193,0.07886 1.971525,0.26287 0.946333,0.157722 1.708656,0.552027 0.762324,0.394305 1.209203,1.077768 0.446879,0.657175 0.446879,1.734942 0,0.814898 -0.420592,1.419499 -0.420592,0.578314 -1.077768,0.972619 -0.630888,0.394306 -1.393211,0.578315 -0.762324,0.184009 -1.445786,0.184009 -0.683462,0 -1.472073,0 -0.762323,-0.02629 -1.57722,-0.105148 -0.788611,-0.07886 -1.603508,-0.236583 -0.814897,-0.184009 -1.524647,-0.525741 -0.683462,-0.368018 -1.235489,-0.920045 -0.552028,-0.552027 -0.893759,-1.393212 z"
         id="path1042" />
    </g>
  </g>
</svg>
