<?xml version="1.0" encoding="UTF-8" standalone="no"?>
<!-- Created with Inkscape (http://www.inkscape.org/) -->

<svg
   width="3000"
   height="3000"
   viewBox="0 0 793.74998 793.75"
   version="1.1"
   id="svg5"
   inkscape:version="1.2.1 (9c6d41e410, 2022-07-14, custom)"
   sodipodi:docname="album.svg"
   inkscape:export-filename="album.png"
   inkscape:export-xdpi="96"
   inkscape:export-ydpi="96"
   xmlns:inkscape="http://www.inkscape.org/namespaces/inkscape"
   xmlns:sodipodi="http://sodipodi.sourceforge.net/DTD/sodipodi-0.dtd"
   xmlns:xlink="http://www.w3.org/1999/xlink"
   xmlns="http://www.w3.org/2000/svg"
   xmlns:svg="http://www.w3.org/2000/svg">
  <sodipodi:namedview
     id="namedview7"
     pagecolor="#505050"
     bordercolor="#eeeeee"
     borderopacity="1"
     inkscape:showpageshadow="0"
     inkscape:pageopacity="0"
     inkscape:pagecheckerboard="0"
     inkscape:deskcolor="#505050"
     inkscape:document-units="mm"
     showgrid="false"
     inkscape:zoom="0.23401832"
     inkscape:cx="1664.3996"
     inkscape:cy="1324.6826"
     inkscape:window-width="1920"
     inkscape:window-height="1005"
     inkscape:window-x="0"
     inkscape:window-y="0"
     inkscape:window-maximized="1"
     inkscape:current-layer="layer1" />
  <defs
     id="defs2">
    <linearGradient
       id="linearGradient995">
      <stop
         style="stop-color:#901f3d;stop-opacity:1;"
         offset="0"
         id="stop1165" />
      <stop
         style="stop-color:#bb3030;stop-opacity:1;"
         offset="1"
         id="stop1167" />
    </linearGradient>
    <linearGradient
       inkscape:collect="always"
       xlink:href="#linearGradient995"
       id="linearGradient997"
       x1="2.0736308"
       y1="4.7702746"
       x2="8.4888964"
       y2="4.7702746"
       gradientUnits="userSpaceOnUse"
       gradientTransform="matrix(42.778358,44.809857,-44.809857,42.778358,384.83262,-149.55519)" />
    <linearGradient
       id="linearGradient995-1">
      <stop
         style="stop-color:#2a5684;stop-opacity:1;"
         offset="0"
         id="stop991" />
      <stop
         style="stop-color:#2c89af;stop-opacity:1;"
         offset="1"
         id="stop993" />
    </linearGradient>
    <linearGradient
       inkscape:collect="always"
       xlink:href="#linearGradient995-1"
       id="linearGradient1163"
       x1="929.88239"
       y1="989.54913"
       x2="54.934486"
       y2="66.392914"
       gradientUnits="userSpaceOnUse" />
    <linearGradient
       inkscape:collect="always"
       xlink:href="#linearGradient1134"
       id="linearGradient1748"
       x1="34.058277"
       y1="3.6187301"
       x2="37.29805"
       y2="7.8183455"
       gradientUnits="userSpaceOnUse" />
    <linearGradient
       id="linearGradient1134">
      <stop
         style="stop-color:#ec6a45;stop-opacity:1;"
         offset="0"
         id="stop1130" />
      <stop
         style="stop-color:#bb3030;stop-opacity:1;"
         offset="1"
         id="stop1132" />
    </linearGradient>
    <linearGradient
       inkscape:collect="always"
       xlink:href="#linearGradient1424"
       id="linearGradient1353"
       gradientUnits="userSpaceOnUse"
       gradientTransform="matrix(-4.5510566,-4.7671817,4.7671817,-4.5510566,160.58613,692.51002)"
       x1="-5.4034762"
       y1="35.971931"
       x2="-33.555836"
       y2="14.355447" />
    <linearGradient
       inkscape:collect="always"
       id="linearGradient1424">
      <stop
         style="stop-color:#bb3030;stop-opacity:1;"
         offset="0"
         id="stop1422" />
      <stop
         style="stop-color:#901f3d;stop-opacity:1;"
         offset="1"
         id="stop1420" />
    </linearGradient>
    <linearGradient
       inkscape:collect="always"
       xlink:href="#linearGradient1424"
       id="linearGradient997-3"
       x1="-12.123686"
       y1="3.2324352"
       x2="16.028675"
       y2="24.848921"
       gradientUnits="userSpaceOnUse"
       gradientTransform="matrix(4.5510566,4.7671817,-4.7671817,4.5510566,427.24754,597.64384)" />
    <linearGradient
       inkscape:collect="always"
       xlink:href="#linearGradient1424"
       id="linearGradient1472"
       gradientUnits="userSpaceOnUse"
       x1="34.247902"
       y1="10.613971"
       x2="35.573978"
       y2="22.914959"
       gradientTransform="matrix(18.907852,0,0,18.907852,-290.89178,353.87171)" />
    <linearGradient
       inkscape:collect="always"
       xlink:href="#linearGradient1424"
       id="linearGradient1470"
       gradientUnits="userSpaceOnUse"
       x1="35.125565"
       y1="10.613971"
       x2="36.451645"
       y2="22.914959"
       gradientTransform="matrix(18.907852,0,0,18.907852,-307.48663,353.87171)" />
    <linearGradient
       inkscape:collect="always"
       xlink:href="#linearGradient1424"
       id="linearGradient1468"
       gradientUnits="userSpaceOnUse"
       x1="28.319031"
       y1="1.6845342"
       x2="30.721977"
       y2="23.974794"
       gradientTransform="matrix(10.43439,0,0,10.43439,61.170723,536.98197)" />
    <linearGradient
       inkscape:collect="always"
       xlink:href="#linearGradient1424"
       id="linearGradient1466"
       gradientUnits="userSpaceOnUse"
       x1="28.330797"
       y1="10.613971"
       x2="29.656874"
       y2="22.914959"
       gradientTransform="matrix(18.907852,0,0,18.907852,-179.01213,353.87171)" />
    <linearGradient
       inkscape:collect="always"
       xlink:href="#linearGradient1424"
       id="linearGradient1464"
       gradientUnits="userSpaceOnUse"
       x1="22.17992"
       y1="10.837861"
       x2="23.167906"
       y2="20.002626"
       gradientTransform="matrix(25.378204,0,0,25.378204,-206.22412,279.51356)" />
    <linearGradient
       inkscape:collect="always"
       xlink:href="#linearGradient1134"
       id="linearGradient2448"
       gradientUnits="userSpaceOnUse"
       x1="34.058277"
       y1="3.6187301"
       x2="37.29805"
       y2="7.8183455" />
    <linearGradient
       inkscape:collect="always"
       xlink:href="#linearGradient1134"
       id="linearGradient2450"
       gradientUnits="userSpaceOnUse"
       x1="34.058277"
       y1="3.6187301"
       x2="37.29805"
       y2="7.8183455" />
  </defs>
  <g
     inkscape:label="Layer 1"
     inkscape:groupmode="layer"
     id="layer1">
    <rect
       style="fill:url(#linearGradient1163);stroke:#229443;stroke-width:0.79375;stroke-linecap:round;stop-color:#000000;fill-opacity:1"
       id="rect601"
       width="797.54578"
       height="797.54578"
       x="-1.7961537"
       y="-1.2485732" />
    <path
       id="path358"
       style="color:#000000;fill:url(#linearGradient997);stroke-width:61.9509;stroke-linecap:round"
       d="m 396.78647,61.662927 c -56.99853,0.0322 -114.08997,21.049038 -158.4053,63.355283 -91.49029,87.34268 -94.86537,233.19611 -7.52331,324.68641 63.39309,66.40329 157.65321,86.46484 239.56094,59.06582 l -9.60424,-62.29966 c -62.0531,25.61545 -135.81429,12.12812 -185.1371,-39.53705 -64.22324,-67.27308 -61.79848,-172.87268 5.47645,-237.09592 67.27308,-64.22324 172.90429,-61.76626 237.12752,5.50744 46.89496,49.12208 58.25675,118.72018 34.79905,177.70981 l 32.07816,-5.53841 31.85391,9.18793 C 639.55151,280.28756 621.82613,194.09034 563.06882,132.54215 518.03301,85.367799 457.46488,61.628857 396.78832,61.663547 Z M 547.8605,364.80342 c -4.0392,8.24008 -8.80632,16.22555 -14.27844,23.85047 l 37.48895,19.04803 11.68456,18.63235 c 13.6199,-18.73023 24.08092,-39.11145 31.34219,-60.37857 z m -18.75997,29.83678 c -4.9127,6.24279 -10.34084,12.24212 -16.26334,17.89575 -1.14609,1.09033 -2.29218,2.1497 -3.45686,3.20286 2.44706,13.82558 6.43484,36.976 6.43484,36.976 l 23.65842,18.66456 c 5.5446,-4.38612 10.95477,-9.0789 16.1667,-14.05417 6.12075,-5.84197 11.82952,-11.94661 17.15977,-18.28047 l -14.27844,-22.88961 z m -30.60559,30.12547 c -9.53734,7.27985 -19.6533,13.41856 -30.15707,18.37587 l 5.69948,34.51098 10.72494,7.33126 1.98243,17.60769 c 15.86748,-6.69628 31.12783,-15.26904 45.45955,-25.70714 l -25.41906,-21.67352 z" />
    <g
       id="g2552"
       transform="matrix(0.95374564,0,0,0.95374564,18.402949,10.493581)">
      <path
         d="m 171.39208,699.20444 c 0,-2.95435 -2.14887,-5.37153 -5.37172,-5.37153 -2.95435,0 -4.83455,2.95435 -5.10304,3.49153 -3.7602,6.71455 -10.74344,19.338 -27.39577,29.27578 -16.11517,9.40042 -30.8873,9.93759 -36.52752,9.93759 -9.13192,0 -19.87536,-2.41718 -29.812953,-8.86325 V 571.62655 c 9.131923,-5.9089 19.606683,-8.86325 29.812953,-8.86325 22.82972,0 48.88247,11.54911 63.11744,37.60186 1.34246,2.41737 2.68586,5.10304 5.90889,5.10304 3.22304,0 5.37172,-2.68567 5.37172,-5.37153 0,-5.37173 -24.70991,-48.07681 -74.39805,-48.07681 -47.002459,0 -74.935408,48.07681 -74.935408,97.49645 0,50.49399 28.201629,97.76494 74.935408,97.76494 49.68814,0 74.39805,-42.70509 74.39805,-48.07681 z M 56.437636,718.00547 C 32.802064,692.22121 32.802064,655.4252 32.802064,649.7848 c 0,-8.32607 0.805474,-43.24226 23.635572,-68.48916 z"
         style="font-size:10.5833px;line-height:1.25;font-family:'Latin Modern Math';-inkscape-font-specification:'Latin Modern Math';fill:url(#linearGradient1464);fill-opacity:1;stroke-width:6.71463"
         id="path1340" />
      <path
         d="m 342.65733,697.97638 v -6.20329 c -10.40556,0 -15.4082,0 -15.60824,-6.00324 v -38.22053 c 0,-17.20917 0,-23.41264 -6.20348,-30.61635 -2.80139,-3.4019 -9.40495,-7.40412 -21.01116,-7.40412 -16.80908,0 -25.61371,12.00648 -29.01561,19.61066 -2.80158,-17.40941 -17.60945,-19.61066 -26.61432,-19.61066 -14.60783,0 -24.01297,8.60477 -29.61593,21.01135 v -21.01135 l -28.21506,2.20125 v 6.20329 c 14.00751,0 15.60824,1.40107 15.60824,11.20612 v 53.62871 c 0,9.00487 -2.20106,9.00487 -15.60824,9.00487 v 6.20329 l 22.61209,-0.59938 22.41205,0.59938 v -6.20329 c -13.40718,0 -15.60844,0 -15.60844,-9.00487 V 645.9484 c 0,-20.81112 14.20755,-32.01705 27.0146,-32.01705 12.60662,0 14.80787,10.80565 14.80787,22.21181 v 46.62506 c 0,9.00487 -2.20125,9.00487 -15.60843,9.00487 v 6.20329 l 22.61228,-0.59938 22.41204,0.59938 v -6.20329 c -13.40737,0 -15.60843,0 -15.60843,-9.00487 V 645.9484 c 0,-20.81112 14.20755,-32.01705 27.01441,-32.01705 12.60681,0 14.80806,10.80565 14.80806,22.21181 v 46.62506 c 0,9.00487 -2.20125,9.00487 -15.60843,9.00487 v 6.20329 l 22.61209,-0.59938 z"
         style="font-size:10.5833px;line-height:1.25;font-family:'Latin Modern Math';-inkscape-font-specification:'Latin Modern Math';fill:url(#linearGradient1466);fill-opacity:1;stroke-width:5.0027"
         id="path1342" />
      <path
         d="m 408.79927,703.02515 c 0,-14.02471 -10.71168,-24.95723 -23.07987,-24.95723 -8.61347,0 -13.25157,4.85894 -15.4602,7.28841 v -7.28841 l -15.90207,1.21389 v 3.42326 c 7.84052,0 8.61366,0.66178 8.61366,5.52166 v 51.68121 c 0,4.96937 -1.21577,4.96937 -8.61366,4.96937 v 3.42345 l 12.3682,-0.33089 12.47861,0.33089 v -3.42345 c -7.39883,0 -8.61347,0 -8.61347,-4.96937 v -18.55219 -0.99455 c 0.55211,1.76599 5.1902,7.73009 13.58283,7.73009 13.14134,0 24.62597,-10.8221 24.62597,-25.06765 z m -9.16577,0 c 0,13.36199 -7.7301,22.63819 -15.90189,22.63819 -4.41725,0 -8.61347,-2.20863 -11.59524,-6.73631 -1.54666,-2.31904 -1.54666,-2.42947 -1.54666,-4.6379 v -24.62597 c 3.20261,-5.63208 8.61366,-8.8345 14.24556,-8.8345 8.06136,0 14.79766,9.71788 14.79766,22.19649 z"
         style="font-size:10.5833px;line-height:1.25;font-family:'Latin Modern Math';-inkscape-font-specification:'Latin Modern Math';fill:url(#linearGradient1468);fill-opacity:1;stroke-width:2.76075"
         id="path1344" />
      <path
         d="m 534.35516,672.36267 c 0,-10.60561 -6.00324,-16.60885 -8.40454,-19.01015 -6.60357,-6.40352 -14.40778,-8.00445 -22.81232,-9.60519 -11.20593,-2.20125 -24.61311,-4.80259 -24.61311,-16.4088 0,-7.00384 5.20268,-15.20815 22.41204,-15.20815 22.01177,0 23.01237,18.00954 23.41246,24.21302 0.20042,1.80002 2.4013,1.80002 2.4013,1.80002 2.60134,0 2.60134,-1.00022 2.60134,-4.80259 v -20.21098 c 0,-3.40171 0,-4.8026 -2.20106,-4.8026 -1.00023,0 -1.40107,0 -4.00223,2.4013 -0.59938,0.7998 -2.60134,2.60153 -3.40171,3.20186 -7.60417,-5.60316 -15.80848,-5.60316 -18.8101,-5.60316 -24.41325,0 -32.01723,13.40737 -32.01723,24.6133 0,7.00385 3.20166,12.60681 8.60458,17.00913 6.40334,5.20287 12.00649,6.40352 26.41427,9.20491 4.40232,0.7998 20.81112,4.00222 20.81112,18.41 0,10.20533 -7.00385,18.20978 -22.61209,18.20978 -16.80908,0 -24.01297,-11.40616 -27.81496,-28.41529 -0.59938,-2.60153 -0.79981,-3.4019 -2.80158,-3.4019 -2.60134,0 -2.60134,1.40107 -2.60134,5.00264 v 26.41427 c 0,3.4019 0,4.80259 2.20106,4.80259 1.00023,0 1.20065,-0.20042 5.00283,-4.00222 0.40085,-0.40085 0.40085,-0.7998 4.00204,-4.60236 8.80482,8.40454 17.80968,8.60458 22.01195,8.60458 23.01218,0 32.21728,-13.40718 32.21728,-27.81496 z"
         style="font-size:10.5833px;line-height:1.25;font-family:'Latin Modern Math';-inkscape-font-specification:'Latin Modern Math';fill:url(#linearGradient1470);fill-opacity:1;stroke-width:5.0027"
         id="path1346" />
      <path
         d="m 773.66958,674.16364 c 0,-2.00102 -1.6015,-2.4013 -2.60153,-2.4013 -1.80003,0 -2.20107,1.20065 -2.60135,2.80158 -7.00365,20.61107 -25.01338,20.61107 -27.0144,20.61107 -10.00547,0 -18.00973,-6.00324 -22.61228,-13.40718 -6.00305,-9.60519 -6.00305,-22.81232 -6.00305,-30.01622 h 55.82997 c 4.40231,0 5.00264,0 5.00264,-4.20227 0,-19.8107 -10.80584,-39.22112 -35.81923,-39.22112 -23.2126,0 -41.62242,20.61107 -41.62242,45.62465 0,26.81436 21.01135,46.22478 44.02372,46.22478 24.41306,0 33.41793,-22.212 33.41793,-26.01399 z m -13.20714,-26.61432 h -47.42543 c 1.20065,-29.81598 18.00973,-34.81862 24.81334,-34.81862 20.61108,0 22.61209,27.01441 22.61209,34.81862 z"
         style="font-size:10.5833px;line-height:1.25;font-family:'Latin Modern Math';-inkscape-font-specification:'Latin Modern Math';fill:url(#linearGradient1472);fill-opacity:1;stroke-width:5.0027"
         id="path1348" />
      <path
         id="path358-6"
         style="color:#000000;fill:url(#linearGradient997-3);fill-opacity:1;stroke-width:6.59077;stroke-linecap:round"
         d="m 428.5194,620.11517 c -6.06394,0.003 -12.13752,2.23944 -16.85219,6.74027 -9.73338,9.29207 -10.09244,24.80899 -0.7998,34.54237 6.74424,7.06436 16.77221,9.19867 25.48608,6.28384 l -1.02102,-6.62777 c -6.60168,2.725 -14.44882,1.28952 -19.69612,-4.20643 -6.83254,-7.157 -6.57464,-18.39129 0.58236,-25.22383 7.157,-6.83254 18.39469,-6.57105 25.22723,0.58614 4.98903,5.22594 6.19781,12.63045 3.70216,18.90596 l 3.41268,-0.58992 3.38885,0.97753 c 2.3979,-8.12962 0.51241,-17.29992 -5.73872,-23.8479 -4.79125,-5.01871 -11.23504,-7.54424 -17.69019,-7.54045 z m 16.07243,32.25017 c -0.42921,0.87733 -0.93783,1.72629 -1.5183,2.53744 l 3.98823,2.02654 1.24414,1.98211 c 1.44834,-1.99251 2.56183,-4.16086 3.3344,-6.42337 z m -1.99591,3.17425 c -0.52375,0.66367 -1.10044,1.30276 -1.73007,1.90402 -0.13235,0.11345 -0.24391,0.22879 -0.3687,0.34035 0.26093,1.47103 0.68446,3.93377 0.68446,3.93377 l 2.51701,1.98552 c 0.58993,-0.46703 1.16473,-0.96619 1.72062,-1.49561 0.65043,-0.62207 1.25926,-1.27061 1.8265,-1.94468 l -1.5183,-2.43514 z m -3.25612,3.20507 c -1.01535,0.77523 -2.09083,1.42755 -3.20829,1.95489 l 0.60695,3.67152 1.14014,0.77901 0.21177,1.87377 c 1.68847,-0.71283 3.31171,-1.62419 4.83644,-2.73484 l -2.7042,-2.30581 z" />
      <path
         id="path358-7"
         style="color:#000000;fill:url(#linearGradient1353);fill-opacity:1;stroke-width:6.59077;stroke-linecap:round"
         d="m 159.3145,670.03965 c 6.06394,-0.003 12.13771,-2.23926 16.85238,-6.74027 9.73339,-9.29208 10.09245,-24.809 0.79981,-34.54219 -6.74425,-7.06454 -16.77221,-9.19886 -25.48628,-6.28384 l 1.02103,6.62777 c 6.60167,-2.72519 14.449,-1.28951 19.69631,4.20624 6.83235,7.157 6.57445,18.39129 -0.58236,25.22383 -7.157,6.83255 -18.39489,6.57124 -25.22743,-0.58614 -4.98902,-5.22594 -6.19761,-12.63026 -3.70216,-18.90596 l -3.41267,0.58992 -3.38886,-0.97753 c -2.39789,8.12981 -0.5124,17.29993 5.73891,23.84791 4.79125,5.01871 11.23486,7.54423 17.69,7.54064 z m -16.07224,-32.25018 c 0.42921,-0.87732 0.93783,-1.72629 1.5183,-2.53743 l -3.98823,-2.02636 -1.24414,-1.9823 c -1.44834,1.9927 -2.56182,4.16105 -3.3344,6.42357 z m 1.99592,-3.17425 c 0.52374,-0.66367 1.10043,-1.30275 1.73006,-1.90383 0.13236,-0.11345 0.24391,-0.22879 0.36871,-0.34034 -0.26093,-1.47103 -0.68447,-3.93378 -0.68447,-3.93378 l -2.51701,-1.98571 c -0.58993,0.46703 -1.16472,0.9662 -1.72062,1.49562 -0.65043,0.62206 -1.25926,1.2706 -1.82649,1.94467 l 1.5183,2.43533 z m 3.25593,-3.20488 c 1.01535,-0.77522 2.09083,-1.42754 3.20828,-1.95507 l -0.60694,-3.67153 -1.14014,-0.779 -0.21177,-1.87377 c -1.68847,0.71282 -3.31152,1.62418 -4.83625,2.73502 l 2.7042,2.30562 z" />
      <g
         id="g1740"
         style="fill:url(#linearGradient1748);fill-opacity:1"
         transform="matrix(18.907852,0,0,18.907852,-22.959273,492.09596)">
        <path
           d="m 34.983845,6.0259187 c -0.148166,-0.592665 -0.465665,-0.740831 -0.645581,-0.740831 -0.264583,0 -0.465666,0.275166 -0.402166,0.507999 0.03175,0.137583 0.105833,0.201082 0.22225,0.285749 0.148166,0.116416 0.486831,0.391582 0.613831,0.89958 0.169333,0.698498 -0.15875,2.868074 -1.492245,2.868074 -0.201083,0 -0.560915,-0.04233 -0.836081,-0.264582 -0.275166,-0.232833 -0.402165,-0.550332 -0.455082,-0.772581 -0.116416,-0.444499 -0.08467,-0.99483 0.0635,-2.158993 0.02117,-0.116416 0.04233,-0.296332 -0.01058,-0.497415 -0.116417,-0.476249 -0.550332,-0.867831 -1.079497,-0.867831 -1.005413,0 -1.015997,1.534579 -0.99483,1.629828 0.03175,0.105833 0.158749,0.105833 0.158749,0.105833 0.105833,0 0.105833,-0.02117 0.116417,-0.190499 0.03175,-1.005413 0.380998,-1.312329 0.740831,-1.312329 0.08467,0 0.264582,0 0.349249,0.338665 0.07408,0.275166 0.03175,0.539749 -0.01058,0.910164 -0.158749,1.174746 -0.137583,1.598078 -0.05292,1.915577 0.275166,1.100664 1.269996,1.3969963 2.042577,1.3969963 0.952497,0 1.365245,-0.8678313 1.513411,-1.2488293 0.444499,-1.18533 0.201083,-2.635242 0.15875,-2.804575 z"
           style="font-size:10.5833px;line-height:1.25;font-family:'Latin Modern Math';-inkscape-font-specification:'Latin Modern Math';fill:url(#linearGradient2448);fill-opacity:1;stroke-width:0.264583"
           id="path1428" />
        <path
           d="m 38.071868,4.0332927 c 0,-0.20378 -0.197411,-0.388456 -0.471241,-0.388456 -0.464873,0 -0.694125,0.426664 -0.783279,0.700494 v -0.700494 l -0.885168,0.07005 v 0.197412 c 0.445768,0 0.496713,0.04458 0.496713,0.356615 v 1.706656 c 0,0.286566 -0.07005,0.286566 -0.496713,0.286566 v 0.197412 l 0.725965,-0.0191 c 0.254725,0 0.554027,0 0.808752,0.0191 v -0.197412 h -0.133731 c -0.471241,0 -0.483977,-0.07005 -0.483977,-0.299302 v -0.980691 c 0,-0.630444 0.267461,-1.197207 0.751438,-1.197207 0.04458,0 0.05731,0 0.07005,0.0064 -0.01911,0.0064 -0.146467,0.08279 -0.146467,0.248357 0,0.178307 0.133731,0.27383 0.273829,0.27383 0.114627,0 0.273829,-0.07642 0.273829,-0.280198 z"
           style="font-size:10.5833px;line-height:1.25;font-family:'Latin Modern Math';-inkscape-font-specification:'Latin Modern Math';fill:url(#linearGradient2450);fill-opacity:1;stroke-width:0.159203"
           id="path1430" />
      </g>
    </g>
    <text
       xml:space="preserve"
       style="font-style:normal;font-weight:normal;font-size:39.7689px;line-height:1.25;font-family:sans-serif;fill:#000000;fill-opacity:1;stroke:none;stroke-width:0.466041"
       x="431.47128"
       y="774.94849"
       id="text2855"><tspan
         sodipodi:role="line"
         id="tspan2853"
         style="font-style:normal;font-variant:normal;font-weight:normal;font-stretch:normal;font-size:39.7689px;font-family:'Latin Modern Math';-inkscape-font-specification:'Latin Modern Math';fill:#ffffff;stroke-width:0.466041"
         x="431.47128"
         y="774.94849">Original Soundtrack</tspan></text>
  </g>
</svg>
