<?xml version="1.0" encoding="UTF-8" standalone="no"?>
<!-- Created with Inkscape (http://www.inkscape.org/) -->

<svg
   width="630"
   height="500"
   viewBox="0 0 166.6875 132.29167"
   version="1.1"
   id="svg655"
   inkscape:version="1.2.1 (9c6d41e410, 2022-07-14, custom)"
   sodipodi:docname="cover.svg"
   inkscape:export-filename="cover.png"
   inkscape:export-xdpi="96"
   inkscape:export-ydpi="96"
   xmlns:inkscape="http://www.inkscape.org/namespaces/inkscape"
   xmlns:sodipodi="http://sodipodi.sourceforge.net/DTD/sodipodi-0.dtd"
   xmlns:xlink="http://www.w3.org/1999/xlink"
   xmlns="http://www.w3.org/2000/svg"
   xmlns:svg="http://www.w3.org/2000/svg">
  <sodipodi:namedview
     id="namedview657"
     pagecolor="#505050"
     bordercolor="#eeeeee"
     borderopacity="1"
     inkscape:showpageshadow="0"
     inkscape:pageopacity="0"
     inkscape:pagecheckerboard="0"
     inkscape:deskcolor="#505050"
     inkscape:document-units="mm"
     showgrid="false"
     inkscape:zoom="1.065873"
     inkscape:cx="200.30529"
     inkscape:cy="279.58302"
     inkscape:window-width="1920"
     inkscape:window-height="1005"
     inkscape:window-x="0"
     inkscape:window-y="0"
     inkscape:window-maximized="1"
     inkscape:current-layer="layer1" />
  <defs
     id="defs652">
    <linearGradient
       inkscape:collect="always"
       id="linearGradient1721">
      <stop
         style="stop-color:#214574;stop-opacity:1;"
         offset="0"
         id="stop1717" />
      <stop
         style="stop-color:#2a5684;stop-opacity:1;"
         offset="1"
         id="stop1719" />
    </linearGradient>
    <linearGradient
       inkscape:collect="always"
       xlink:href="#linearGradient1134"
       id="linearGradient1748"
       x1="34.058277"
       y1="3.6187301"
       x2="37.29805"
       y2="7.8183455"
       gradientUnits="userSpaceOnUse" />
    <linearGradient
       id="linearGradient1134">
      <stop
         style="stop-color:#ec6a45;stop-opacity:1;"
         offset="0"
         id="stop1130" />
      <stop
         style="stop-color:#bb3030;stop-opacity:1;"
         offset="1"
         id="stop1132" />
    </linearGradient>
    <linearGradient
       inkscape:collect="always"
       xlink:href="#linearGradient1424"
       id="linearGradient1353"
       gradientUnits="userSpaceOnUse"
       gradientTransform="matrix(-0.88183774,-0.9237153,0.9237153,-0.88183774,37.367493,74.351772)"
       x1="-5.4034762"
       y1="35.971931"
       x2="-33.555836"
       y2="14.355447" />
    <linearGradient
       inkscape:collect="always"
       id="linearGradient1424">
      <stop
         style="stop-color:#bb3030;stop-opacity:1;"
         offset="0"
         id="stop1422" />
      <stop
         style="stop-color:#901f3d;stop-opacity:1;"
         offset="1"
         id="stop1420" />
    </linearGradient>
    <linearGradient
       inkscape:collect="always"
       xlink:href="#linearGradient1424"
       id="linearGradient997"
       x1="-12.123686"
       y1="3.2324352"
       x2="16.028675"
       y2="24.848921"
       gradientUnits="userSpaceOnUse"
       gradientTransform="matrix(0.88183774,0.9237153,-0.9237153,0.88183774,89.03728,55.969993)" />
    <linearGradient
       inkscape:collect="always"
       xlink:href="#linearGradient1424"
       id="linearGradient1472"
       gradientUnits="userSpaceOnUse"
       x1="34.247902"
       y1="10.613971"
       x2="35.573978"
       y2="22.914959"
       gradientTransform="matrix(3.6636893,0,0,3.6636893,-50.113361,8.7353507)" />
    <linearGradient
       inkscape:collect="always"
       xlink:href="#linearGradient1424"
       id="linearGradient1470"
       gradientUnits="userSpaceOnUse"
       x1="35.125565"
       y1="10.613971"
       x2="36.451645"
       y2="22.914959"
       gradientTransform="matrix(3.6636893,0,0,3.6636893,-53.328853,8.7353507)" />
    <linearGradient
       inkscape:collect="always"
       xlink:href="#linearGradient1424"
       id="linearGradient1468"
       gradientUnits="userSpaceOnUse"
       x1="28.319031"
       y1="1.6845342"
       x2="30.721977"
       y2="23.974794"
       gradientTransform="matrix(2.0218247,0,0,2.0218247,18.104193,44.215807)" />
    <linearGradient
       inkscape:collect="always"
       xlink:href="#linearGradient1424"
       id="linearGradient1466"
       gradientUnits="userSpaceOnUse"
       x1="28.330797"
       y1="10.613971"
       x2="29.656874"
       y2="22.914959"
       gradientTransform="matrix(3.6636893,0,0,3.6636893,-28.434931,8.7353507)" />
    <linearGradient
       inkscape:collect="always"
       xlink:href="#linearGradient1424"
       id="linearGradient1464"
       gradientUnits="userSpaceOnUse"
       x1="22.17992"
       y1="10.837861"
       x2="23.167906"
       y2="20.002626"
       gradientTransform="matrix(4.9174202,0,0,4.9174202,-33.707687,-5.6726786)" />
    <linearGradient
       inkscape:collect="always"
       xlink:href="#linearGradient1134"
       id="linearGradient1079"
       gradientUnits="userSpaceOnUse"
       x1="34.058277"
       y1="3.6187301"
       x2="37.29805"
       y2="7.8183455" />
    <linearGradient
       inkscape:collect="always"
       xlink:href="#linearGradient1134"
       id="linearGradient1081"
       gradientUnits="userSpaceOnUse"
       x1="34.058277"
       y1="3.6187301"
       x2="37.29805"
       y2="7.8183455" />
    <linearGradient
       inkscape:collect="always"
       xlink:href="#linearGradient1721"
       id="linearGradient1723"
       x1="136.9444"
       y1="124.12991"
       x2="23.849077"
       y2="17.498856"
       gradientUnits="userSpaceOnUse" />
  </defs>
  <g
     inkscape:label="Layer 1"
     inkscape:groupmode="layer"
     id="layer1">
    <rect
       style="fill:url(#linearGradient1723);stroke-width:7.9375;stroke-linecap:round;stop-color:#000000;fill-opacity:1"
       id="rect1715"
       width="171.15617"
       height="135.33321"
       x="-0.989757"
       y="-0.86929071" />
    <path
       d="m 39.461275,75.648838 c 0,-0.57247 -0.416357,-1.04085 -1.040851,-1.04085 -0.572466,0 -0.936761,0.572466 -0.988808,0.676551 -0.728594,1.301065 -2.0817,3.747061 -5.308337,5.672633 -3.122552,1.821492 -5.984893,1.925573 -7.077783,1.925573 -1.769445,0 -3.851149,-0.468384 -5.776722,-1.717402 V 50.928634 c 1.769445,-1.144932 3.799107,-1.717406 5.776722,-1.717406 4.423616,0 9.471743,2.23783 12.229996,7.285957 0.260231,0.468384 0.520427,0.988808 1.144932,0.988808 0.624512,0 1.040851,-0.520424 1.040851,-1.04085 0,-1.040851 -4.787908,-9.315612 -14.415779,-9.315612 -9.107444,0 -14.519871,9.315612 -14.519871,18.891436 0,9.784 5.464469,18.943483 14.519871,18.943483 9.627871,0 14.415779,-8.274761 14.415779,-9.315612 z m -22.274202,3.642979 c -4.579747,-4.996085 -4.579747,-12.12591 -4.579747,-13.218804 0,-1.613323 0.15611,-8.378849 4.579747,-13.270849 z"
       style="font-size:10.5833px;line-height:1.25;font-family:'Latin Modern Math';-inkscape-font-specification:'Latin Modern Math';fill:url(#linearGradient1464);fill-opacity:1;stroke-width:1.30106"
       id="path1340" />
    <path
       d="m 72.646587,75.410878 v -1.201994 c -2.016245,0 -2.985591,0 -3.024364,-1.163218 v -7.405818 c 0,-3.334557 0,-4.536549 -1.201995,-5.93241 -0.542834,-0.659157 -1.822374,-1.434635 -4.07126,-1.434635 -3.257008,0 -4.96306,2.326436 -5.622221,3.799847 -0.542833,-3.373331 -3.412103,-3.799847 -5.156928,-3.799847 -2.830496,0 -4.652871,1.667279 -5.738542,4.071263 v -4.071263 l -5.467122,0.426516 v 1.20199 c 2.714174,0 3.024364,0.271406 3.024364,2.171341 v 10.39141 c 0,1.744824 -0.426512,1.744824 -3.024364,1.744824 v 1.201994 l 4.381453,-0.116322 4.342677,0.116322 v -1.201994 c -2.597853,0 -3.024365,0 -3.024365,-1.744824 v -7.134402 c 0,-4.032487 2.752948,-6.203827 5.234482,-6.203827 2.442753,0 2.869269,2.093791 2.869269,4.303904 v 9.034325 c 0,1.744824 -0.426516,1.744824 -3.024367,1.744824 v 1.201994 l 4.381453,-0.116322 4.342681,0.116322 v -1.201994 c -2.597853,0 -3.024368,0 -3.024368,-1.744824 v -7.134402 c 0,-4.032487 2.752951,-6.203827 5.234481,-6.203827 2.442758,0 2.86927,2.093791 2.86927,4.303904 v 9.034325 c 0,1.744824 -0.426512,1.744824 -3.024365,1.744824 v 1.201994 l 4.38145,-0.116322 z"
       style="font-size:10.5833px;line-height:1.25;font-family:'Latin Modern Math';-inkscape-font-specification:'Latin Modern Math';fill:url(#linearGradient1466);fill-opacity:1;stroke-width:0.969352"
       id="path1342" />
    <path
       d="m 85.462608,76.389149 c 0,-2.717493 -2.075564,-4.835854 -4.472093,-4.835854 -1.669008,0 -2.567708,0.941495 -2.99566,1.412239 v -1.412239 l -3.081251,0.235356 v 0.663325 c 1.519226,0 1.669013,0.128376 1.669013,1.069878 v 10.014064 c 0,0.962895 -0.235393,0.962895 -1.669013,0.962895 v 0.663322 l 2.39653,-0.06419 2.417925,0.06419 v -0.663322 c -1.433638,0 -1.669012,0 -1.669012,-0.962895 v -3.594789 -0.1926 c 0.106979,0.342371 1.005686,1.497833 2.631902,1.497833 2.546312,0 4.771659,-2.096964 4.771659,-4.85725 z m -1.775999,0 c 0,2.589103 -1.49783,4.386502 -3.081251,4.386502 -0.855903,0 -1.669011,-0.427951 -2.246746,-1.305251 -0.29958,-0.449352 -0.29958,-0.470748 -0.29958,-0.898699 v -4.771659 c 0.62053,-1.091277 1.669012,-1.711807 2.760289,-1.711807 1.562022,0 2.867274,1.882986 2.867274,4.300914 z"
       style="font-size:10.5833px;line-height:1.25;font-family:'Latin Modern Math';-inkscape-font-specification:'Latin Modern Math';fill:url(#linearGradient1468);fill-opacity:1;stroke-width:0.534938"
       id="path1344" />
    <path
       d="m 109.79099,70.447814 c 0,-2.055015 -1.16322,-3.218232 -1.62851,-3.683521 -1.27954,-1.240767 -2.79172,-1.550956 -4.42023,-1.861147 -2.17133,-0.426516 -4.769186,-0.930577 -4.769186,-3.179463 0,-1.357089 1.008126,-2.946819 4.342676,-2.946819 4.26513,0 4.459,3.489654 4.53655,4.691644 0.0387,0.348966 0.4653,0.348966 0.4653,0.348966 0.50404,0 0.50404,-0.193882 0.50404,-0.930573 v -3.916165 c 0,-0.659156 0,-0.930574 -0.42651,-0.930574 -0.19387,0 -0.2714,0 -0.77548,0.465285 -0.11632,0.155084 -0.50405,0.504061 -0.65915,0.620384 -1.47341,-1.085669 -3.06314,-1.085669 -3.64475,-1.085669 -4.730416,0 -6.203824,2.597853 -6.203824,4.769189 0,1.35709 0.620383,2.442758 1.667284,3.295786 1.24076,1.008122 2.32643,1.240763 5.11815,1.783601 0.85303,0.155084 4.0325,0.775478 4.0325,3.567198 0,1.97747 -1.3571,3.528427 -4.38146,3.528427 -3.25702,0 -4.652872,-2.210114 -5.389579,-5.505895 -0.116321,-0.504062 -0.155083,-0.659157 -0.542833,-0.659157 -0.504062,0 -0.504062,0.271407 -0.504062,0.969347 v 5.118159 c 0,0.659156 0,0.930573 0.426512,0.930573 0.193882,0 0.232644,-0.03876 0.96935,-0.775478 0.07756,-0.07757 0.07756,-0.155084 0.77548,-0.891801 1.706052,1.628507 3.450882,1.667279 4.265132,1.667279 4.45899,0 6.2426,-2.597852 6.2426,-5.389576 z"
       style="font-size:10.5833px;line-height:1.25;font-family:'Latin Modern Math';-inkscape-font-specification:'Latin Modern Math';fill:url(#linearGradient1470);fill-opacity:1;stroke-width:0.969352"
       id="path1346" />
    <path
       d="m 156.16188,70.796781 c 0,-0.38774 -0.31032,-0.465285 -0.50409,-0.465285 -0.34878,0 -0.42649,0.232644 -0.50405,0.542833 -1.35707,3.993715 -4.84673,3.993715 -5.23446,3.993715 -1.93871,0 -3.48967,-1.163217 -4.38147,-2.597856 -1.16323,-1.861147 -1.16323,-4.420226 -1.16323,-5.816084 h 10.81792 c 0.85305,0 0.96938,0 0.96938,-0.814256 0,-3.838615 -2.0938,-7.599686 -6.94053,-7.599686 -4.4978,0 -8.06499,3.993711 -8.06499,8.840453 0,5.195705 4.07127,8.956775 8.53028,8.956775 4.7304,0 6.47524,-4.303904 6.47524,-5.040609 z m -2.55909,-5.156933 h -9.18941 c 0.23265,-5.777312 3.48963,-6.746662 4.80797,-6.746662 3.99371,0 4.38144,5.234482 4.38144,6.746662 z"
       style="font-size:10.5833px;line-height:1.25;font-family:'Latin Modern Math';-inkscape-font-specification:'Latin Modern Math';fill:url(#linearGradient1472);fill-opacity:1;stroke-width:0.969352"
       id="path1348" />
    <path
       id="path358"
       style="color:#000000;fill:url(#linearGradient997);fill-opacity:1;stroke-width:1.27706;stroke-linecap:round"
       d="m 89.283693,60.324063 c -1.174982,6.66e-4 -2.351858,0.433912 -3.265387,1.30602 -1.885988,1.800487 -1.955568,4.807127 -0.155085,6.693113 1.306791,1.36885 3.249872,1.7824 4.938335,1.217595 L 90.60357,68.256546 c -1.27917,0.52803 -2.799692,0.250011 -3.816436,-0.815031 -1.323903,-1.386776 -1.273927,-3.563605 0.112842,-4.887512 1.386776,-1.323906 3.564268,-1.273267 4.888178,0.113502 0.966702,1.012607 1.20091,2.447318 0.717354,3.663326 l 0.661259,-0.114161 0.656644,0.189413 c 0.464622,-1.575258 0.09925,-3.35214 -1.111989,-4.620898 -0.928379,-0.972463 -2.176945,-1.461811 -3.427732,-1.461104 z m 3.114257,6.248975 c -0.08328,0.169848 -0.181573,0.334494 -0.294341,0.491656 l 0.77279,0.392663 0.240887,0.384086 c 0.280749,-0.386105 0.496396,-0.80625 0.646084,-1.244647 z m -0.386724,0.615064 c -0.101338,0.128668 -0.213154,0.252354 -0.335265,0.368907 -0.02382,0.02271 -0.04723,0.04426 -0.07125,0.06598 0.05048,0.284998 0.132626,0.762235 0.132626,0.762235 l 0.487699,0.384745 c 0.114307,-0.09041 0.22583,-0.187141 0.333285,-0.289724 0.126141,-0.120426 0.243855,-0.246274 0.35373,-0.376829 L 92.61771,67.631559 Z m -0.630906,0.621006 c -0.196594,0.150065 -0.405135,0.276608 -0.621663,0.378803 l 0.117495,0.711415 0.221067,0.151127 0.04093,0.362962 c 0.327094,-0.138048 0.641677,-0.314747 0.937117,-0.529934 l -0.523992,-0.446776 z" />
    <path
       id="path358-7"
       style="color:#000000;fill:url(#linearGradient1353);fill-opacity:1;stroke-width:1.27706;stroke-linecap:round"
       d="m 37.121074,69.9977 c 1.174983,-6.67e-4 2.351858,-0.433912 3.265388,-1.306021 1.885987,-1.800487 1.955568,-4.807126 0.155084,-6.693113 -1.30679,-1.368849 -3.249872,-1.782399 -4.938335,-1.217594 l 0.197986,1.284244 c 1.27917,-0.528029 2.799693,-0.25001 3.816436,0.815032 1.323903,1.386776 1.273927,3.563604 -0.112841,4.887511 -1.386777,1.323907 -3.564269,1.273267 -4.888179,-0.113501 -0.966701,-1.012607 -1.200909,-2.447318 -0.717354,-3.663327 L 33.238,64.105092 32.581357,63.91568 c -0.464622,1.575257 -0.09925,3.352139 1.111988,4.620897 0.928379,0.972464 2.176946,1.461812 3.427733,1.461105 z m -3.114257,-6.248975 c 0.08328,-0.169849 0.181573,-0.334495 0.294341,-0.491656 l -0.772789,-0.392664 -0.240888,-0.384086 c -0.280748,0.386106 -0.496396,0.80625 -0.646084,1.244647 z m 0.386725,-0.615064 c 0.101338,-0.128668 0.213154,-0.252355 0.335264,-0.368907 0.02382,-0.02271 0.04723,-0.04426 0.07126,-0.06598 -0.05048,-0.284999 -0.132626,-0.762235 -0.132626,-0.762235 L 34.179745,61.55179 c -0.114307,0.09042 -0.22583,0.187142 -0.333286,0.289725 -0.12614,0.120425 -0.243855,0.246272 -0.353729,0.376828 l 0.294341,0.471858 z m 0.630906,-0.621006 c 0.196593,-0.150065 0.405134,-0.276608 0.621662,-0.378804 l -0.117458,-0.711415 -0.221068,-0.151127 -0.04093,-0.362962 c -0.327094,0.138049 -0.641677,0.314748 -0.937117,0.529934 l 0.523992,0.446777 z" />
    <g
       id="g1740"
       style="fill:url(#linearGradient1748);fill-opacity:1"
       transform="matrix(3.6636893,0,0,3.6636893,1.8026961,35.518347)">
      <path
         d="m 34.983845,6.0259187 c -0.148166,-0.592665 -0.465665,-0.740831 -0.645581,-0.740831 -0.264583,0 -0.465666,0.275166 -0.402166,0.507999 0.03175,0.137583 0.105833,0.201082 0.22225,0.285749 0.148166,0.116416 0.486831,0.391582 0.613831,0.89958 0.169333,0.698498 -0.15875,2.868074 -1.492245,2.868074 -0.201083,0 -0.560915,-0.04233 -0.836081,-0.264582 -0.275166,-0.232833 -0.402165,-0.550332 -0.455082,-0.772581 -0.116416,-0.444499 -0.08467,-0.99483 0.0635,-2.158993 0.02117,-0.116416 0.04233,-0.296332 -0.01058,-0.497415 -0.116417,-0.476249 -0.550332,-0.867831 -1.079497,-0.867831 -1.005413,0 -1.015997,1.534579 -0.99483,1.629828 0.03175,0.105833 0.158749,0.105833 0.158749,0.105833 0.105833,0 0.105833,-0.02117 0.116417,-0.190499 0.03175,-1.005413 0.380998,-1.312329 0.740831,-1.312329 0.08467,0 0.264582,0 0.349249,0.338665 0.07408,0.275166 0.03175,0.539749 -0.01058,0.910164 -0.158749,1.174746 -0.137583,1.598078 -0.05292,1.915577 0.275166,1.100664 1.269996,1.3969963 2.042577,1.3969963 0.952497,0 1.365245,-0.8678313 1.513411,-1.2488293 0.444499,-1.18533 0.201083,-2.635242 0.15875,-2.804575 z"
         style="font-size:10.5833px;line-height:1.25;font-family:'Latin Modern Math';-inkscape-font-specification:'Latin Modern Math';fill:url(#linearGradient1079);fill-opacity:1;stroke-width:0.264583"
         id="path1428" />
      <path
         d="m 38.071868,4.0332927 c 0,-0.20378 -0.197411,-0.388456 -0.471241,-0.388456 -0.464873,0 -0.694125,0.426664 -0.783279,0.700494 v -0.700494 l -0.885168,0.07005 v 0.197412 c 0.445768,0 0.496713,0.04458 0.496713,0.356615 v 1.706656 c 0,0.286566 -0.07005,0.286566 -0.496713,0.286566 v 0.197412 l 0.725965,-0.0191 c 0.254725,0 0.554027,0 0.808752,0.0191 v -0.197412 h -0.133731 c -0.471241,0 -0.483977,-0.07005 -0.483977,-0.299302 v -0.980691 c 0,-0.630444 0.267461,-1.197207 0.751438,-1.197207 0.04458,0 0.05731,0 0.07005,0.0064 -0.01911,0.0064 -0.146467,0.08279 -0.146467,0.248357 0,0.178307 0.133731,0.27383 0.273829,0.27383 0.114627,0 0.273829,-0.07642 0.273829,-0.280198 z"
         style="font-size:10.5833px;line-height:1.25;font-family:'Latin Modern Math';-inkscape-font-specification:'Latin Modern Math';fill:url(#linearGradient1081);fill-opacity:1;stroke-width:0.159203"
         id="path1430" />
    </g>
  </g>
</svg>
