<?xml version="1.0" encoding="UTF-8" standalone="no"?>
<!-- Created with Inkscape (http://www.inkscape.org/) -->

<svg
   width="256"
   height="256"
   viewBox="0 0 8.5333333 8.5333333"
   version="1.1"
   id="svg5"
   inkscape:version="1.2.1 (9c6d41e410, 2022-07-14, custom)"
   sodipodi:docname="icon.svg"
   xmlns:inkscape="http://www.inkscape.org/namespaces/inkscape"
   xmlns:sodipodi="http://sodipodi.sourceforge.net/DTD/sodipodi-0.dtd"
   xmlns:xlink="http://www.w3.org/1999/xlink"
   xmlns="http://www.w3.org/2000/svg"
   xmlns:svg="http://www.w3.org/2000/svg">
  <sodipodi:namedview
     id="namedview7"
     pagecolor="#505050"
     bordercolor="#eeeeee"
     borderopacity="1"
     inkscape:showpageshadow="0"
     inkscape:pageopacity="0"
     inkscape:pagecheckerboard="0"
     inkscape:deskcolor="#505050"
     inkscape:document-units="mm"
     showgrid="false"
     inkscape:zoom="2.647615"
     inkscape:cx="84.604446"
     inkscape:cy="117.84191"
     inkscape:window-width="1920"
     inkscape:window-height="1005"
     inkscape:window-x="0"
     inkscape:window-y="0"
     inkscape:window-maximized="1"
     inkscape:current-layer="layer1" />
  <defs
     id="defs2">
    <linearGradient
       inkscape:collect="always"
       id="linearGradient995">
      <stop
         style="stop-color:#901f3d;stop-opacity:1;"
         offset="0"
         id="stop991" />
      <stop
         style="stop-color:#bb3030;stop-opacity:1;"
         offset="1"
         id="stop993" />
    </linearGradient>
    <linearGradient
       inkscape:collect="always"
       xlink:href="#linearGradient995"
       id="linearGradient997"
       x1="2.0736308"
       y1="4.7702746"
       x2="8.4888964"
       y2="4.7702746"
       gradientUnits="userSpaceOnUse"
       gradientTransform="matrix(0.79536515,0.83307028,-0.83313621,0.79530221,4.1642114,-3.794337)" />
  </defs>
  <g
     inkscape:label="Layer 1"
     inkscape:groupmode="layer"
     id="layer1"
     transform="translate(-0.12331734,-0.13246759)">
    <path
       id="path358"
       style="color:#000000;fill:url(#linearGradient997);stroke-width:1.15179;stroke-linecap:round"
       d="M 4.3864637,0.13246828 C 3.326701,0.13306655 2.2652278,0.52379946 1.4412818,1.3103288 -0.25976789,2.9341311 -0.32252741,5.6457256 1.3014036,7.3466406 2.4800501,8.5811621 4.2325959,8.9541304 5.7554852,8.4447471 L 5.5769172,7.2865275 C 4.423182,7.7627445 3.0517614,7.5119943 2.1347209,6.5514806 0.94063637,5.3007893 0.98571434,3.3375702 2.2365047,2.1435802 3.4872949,0.94959027 5.4512648,0.99525987 6.6453492,2.2459512 7.5172573,3.159193 7.7285017,4.4531113 7.2923606,5.5497932 L 7.8887779,5.4468274 8.4810284,5.617644 C 8.9000824,4.1969647 8.5705378,2.594452 7.4780714,1.450196 6.6407321,0.57316168 5.5145981,0.1318314 4.3864637,0.13246828 Z M 7.1953387,5.7682243 C 7.1202241,5.9214194 7.0316021,6.0698831 6.9298676,6.2116331 L 7.626878,6.5657649 7.8441359,6.9121595 C 8.0973602,6.5639442 8.2918569,6.1850295 8.4268628,5.7896507 Z M 6.8465358,6.3229316 c -0.091389,0.1160547 -0.1922583,0.2275886 -0.3023755,0.3327052 -0.021283,0.020317 -0.042595,0.039919 -0.064284,0.059519 0.04553,0.2570287 0.1196405,0.6874323 0.1196405,0.6874323 L 7.039389,7.749577 C 7.1424777,7.6680213 7.243073,7.5807981 7.3399785,7.4882931 7.4537725,7.3796668 7.5599156,7.2661943 7.6590203,7.1484458 L 7.3935492,6.7228924 Z M 6.2774991,6.8829956 C 6.1001743,7.0183419 5.9120894,7.1324649 5.7167955,7.2246288 l 0.1059504,0.6416036 0.1994009,0.1362961 0.036904,0.3273489 C 6.3540772,8.2053845 6.6378029,8.0460013 6.9042728,7.8519482 l -0.47261,-0.4029367 z" />
  </g>
</svg>
