<?xml version="1.0" encoding="UTF-8" standalone="no"?>
<!-- Created with Inkscape (http://www.inkscape.org/) -->

<svg
   width="256"
   height="256"
   viewBox="0 0 67.733334 67.733334"
   version="1.1"
   id="svg5"
   sodipodi:docname="misc.svg"
   inkscape:version="1.2.1 (9c6d41e410, 2022-07-14, custom)"
   inkscape:export-filename="misc.png"
   inkscape:export-xdpi="768"
   inkscape:export-ydpi="768"
   xmlns:inkscape="http://www.inkscape.org/namespaces/inkscape"
   xmlns:sodipodi="http://sodipodi.sourceforge.net/DTD/sodipodi-0.dtd"
   xmlns:xlink="http://www.w3.org/1999/xlink"
   xmlns="http://www.w3.org/2000/svg"
   xmlns:svg="http://www.w3.org/2000/svg">
  <sodipodi:namedview
     id="namedview7"
     pagecolor="#505050"
     bordercolor="#eeeeee"
     borderopacity="1"
     inkscape:showpageshadow="0"
     inkscape:pageopacity="0"
     inkscape:pagecheckerboard="0"
     inkscape:deskcolor="#505050"
     inkscape:document-units="mm"
     showgrid="true"
     inkscape:zoom="8"
     inkscape:cx="196.75"
     inkscape:cy="59.875"
     inkscape:window-width="1920"
     inkscape:window-height="1005"
     inkscape:window-x="0"
     inkscape:window-y="0"
     inkscape:window-maximized="1"
     inkscape:current-layer="layer1">
    <inkscape:grid
       type="xygrid"
       id="grid1000"
       originx="0"
       originy="0"
       spacingx="2.6458334"
       spacingy="2.6458334" />
  </sodipodi:namedview>
  <defs
     id="defs2">
    <linearGradient
       inkscape:collect="always"
       id="linearGradient3290">
      <stop
         style="stop-color:#ffffff;stop-opacity:0.68547231;"
         offset="0"
         id="stop3286" />
      <stop
         style="stop-color:#ffffff;stop-opacity:0;"
         offset="1"
         id="stop3288" />
    </linearGradient>
    <linearGradient
       inkscape:collect="always"
       id="linearGradient1453">
      <stop
         style="stop-color:#69189c;stop-opacity:1;"
         offset="0"
         id="stop1449" />
      <stop
         style="stop-color:#251746;stop-opacity:1;"
         offset="1"
         id="stop1451" />
    </linearGradient>
    <linearGradient
       inkscape:collect="always"
       id="linearGradient3066">
      <stop
         style="stop-color:#0c4f3f;stop-opacity:1;"
         offset="0"
         id="stop3064" />
      <stop
         style="stop-color:#229443;stop-opacity:1;"
         offset="1"
         id="stop3062" />
    </linearGradient>
    <linearGradient
       inkscape:collect="always"
       id="linearGradient2920">
      <stop
         style="stop-color:#dc473c;stop-opacity:1;"
         offset="0"
         id="stop2918" />
      <stop
         style="stop-color:#901f3d;stop-opacity:1;"
         offset="1"
         id="stop2916" />
    </linearGradient>
    <linearGradient
       inkscape:collect="always"
       id="linearGradient2895">
      <stop
         style="stop-color:#901f3d;stop-opacity:1;"
         offset="0"
         id="stop2893" />
      <stop
         style="stop-color:#dc473c;stop-opacity:1;"
         offset="1"
         id="stop2891" />
    </linearGradient>
    <inkscape:path-effect
       effect="mirror_symmetry"
       start_point="3.3072918,3.3138376"
       end_point="5.6626698,3.3138376"
       center_point="4.4847393,3.3138376"
       id="path-effect2767"
       is_visible="true"
       lpeversion="1.2"
       lpesatellites=""
       mode="Y"
       discard_orig_path="false"
       fuse_paths="true"
       oposite_fuse="false"
       split_items="false"
       split_open="false"
       link_styles="false" />
    <inkscape:path-effect
       effect="mirror_symmetry"
       start_point="3.3390813,3"
       end_point="5.6321451,3"
       center_point="4.4856132,3"
       id="path-effect2443"
       is_visible="true"
       lpeversion="1.2"
       lpesatellites=""
       mode="free"
       discard_orig_path="false"
       fuse_paths="true"
       oposite_fuse="true"
       split_items="false"
       split_open="false"
       link_styles="false" />
    <inkscape:path-effect
       effect="mirror_symmetry"
       start_point="12.000242,3.47"
       end_point="12.7,3.47"
       center_point="12.350121,3.47"
       id="path-effect947"
       is_visible="true"
       lpeversion="1.2"
       lpesatellites=""
       mode="free"
       discard_orig_path="false"
       fuse_paths="false"
       oposite_fuse="false"
       split_items="false"
       split_open="false"
       link_styles="false" />
    <inkscape:path-effect
       effect="mirror_symmetry"
       start_point="3.3072918,3.3138376"
       end_point="5.6621868,3.3138376"
       center_point="4.4847393,3.3138376"
       id="path-effect2767-2"
       is_visible="true"
       lpeversion="1.2"
       lpesatellites=""
       mode="Y"
       discard_orig_path="false"
       fuse_paths="true"
       oposite_fuse="false"
       split_items="false"
       split_open="false"
       link_styles="false" />
    <linearGradient
       inkscape:collect="always"
       xlink:href="#linearGradient2895"
       id="linearGradient2899"
       x1="3.3066406"
       y1="3.3134766"
       x2="5.6621094"
       y2="3.3134766"
       gradientUnits="userSpaceOnUse" />
    <linearGradient
       inkscape:collect="always"
       xlink:href="#linearGradient2920"
       id="linearGradient2922"
       x1="3.3066406"
       y1="3.3134766"
       x2="5.6621094"
       y2="3.3134766"
       gradientUnits="userSpaceOnUse" />
    <inkscape:path-effect
       effect="mirror_symmetry"
       start_point="3.3072918,3.3138376"
       end_point="5.6621868,3.3138376"
       center_point="4.4847393,3.3138376"
       id="path-effect2767-22"
       is_visible="true"
       lpeversion="1.2"
       lpesatellites=""
       mode="Y"
       discard_orig_path="false"
       fuse_paths="true"
       oposite_fuse="false"
       split_items="false"
       split_open="false"
       link_styles="false" />
    <inkscape:path-effect
       effect="mirror_symmetry"
       start_point="3.3072918,3.3138376"
       end_point="5.6621868,3.3138376"
       center_point="4.4847393,3.3138376"
       id="path-effect2767-2-3"
       is_visible="true"
       lpeversion="1.2"
       lpesatellites=""
       mode="Y"
       discard_orig_path="false"
       fuse_paths="true"
       oposite_fuse="false"
       split_items="false"
       split_open="false"
       link_styles="false" />
    <linearGradient
       inkscape:collect="always"
       xlink:href="#linearGradient3066"
       id="linearGradient3033"
       gradientUnits="userSpaceOnUse"
       x1="3.3066406"
       y1="3.3134766"
       x2="5.6621094"
       y2="3.3134766" />
    <linearGradient
       inkscape:collect="always"
       xlink:href="#linearGradient1453"
       id="linearGradient1496"
       x1="45.88702"
       y1="5.474349"
       x2="45.88385"
       y2="12.1458"
       gradientUnits="userSpaceOnUse" />
    <linearGradient
       inkscape:collect="always"
       xlink:href="#linearGradient2920"
       id="linearGradient1779"
       x1="31.61771"
       y1="5.0904322"
       x2="34.922047"
       y2="8.134306"
       gradientUnits="userSpaceOnUse"
       gradientTransform="translate(-0.0014776,0.00914156)" />
    <linearGradient
       inkscape:collect="always"
       xlink:href="#linearGradient3066"
       id="linearGradient1829"
       x1="34.528183"
       y1="21.26819"
       x2="31.55534"
       y2="18.317884"
       gradientUnits="userSpaceOnUse"
       gradientTransform="translate(-0.00229101,-0.00175226)" />
    <linearGradient
       inkscape:collect="always"
       xlink:href="#linearGradient3290"
       id="linearGradient3292"
       x1="40.852032"
       y1="1.4638834"
       x2="49.751457"
       y2="6.1428552"
       gradientUnits="userSpaceOnUse"
       gradientTransform="translate(13.229074)" />
    <linearGradient
       inkscape:collect="always"
       xlink:href="#linearGradient3066"
       id="linearGradient1456"
       gradientUnits="userSpaceOnUse"
       x1="45.88702"
       y1="12.900424"
       x2="45.88702"
       y2="5.2789311"
       gradientTransform="matrix(1.0000015,0,0,1,-5.7815316e-5,13.229042)" />
    <linearGradient
       inkscape:collect="always"
       xlink:href="#linearGradient2895"
       id="linearGradient1508"
       x1="64.929909"
       y1="22.455904"
       x2="56.103783"
       y2="15.168606"
       gradientUnits="userSpaceOnUse" />
  </defs>
  <g
     inkscape:label="Layer 1"
     inkscape:groupmode="layer"
     id="layer1">
    <path
       id="path245"
       style="color:#000000;fill:url(#linearGradient2899);fill-opacity:1;stroke:none;stroke-opacity:1;-inkscape-stroke:none"
       d="m 4.5019531,2.3925781 v 0.5625 L 3.3066406,3.1855469 V 3.3144531 3.4433594 L 4.5019531,3.6738281 V 4.234375 L 5.3339844,3.3144531 Z"
       sodipodi:nodetypes="cccccc"
       inkscape:path-effect="#path-effect2767"
       inkscape:original-d="M 3.3072918,3.1786174 V 3.442684 L 4.5022977,3.6734342 4.5016318,4.2353337 5.3336228,3.313754 C 5.3305708,2.0161818 4.4533825,3.064468 3.3072918,3.1786174 Z"
       class="UnoptimicedTransforms"
       transform="matrix(2.3102623,0,0,2.6154237,-1.0044645,-2.0975487)" />
    <path
       id="path245-3"
       style="color:#000000;fill:url(#linearGradient2922);fill-opacity:1;stroke:none;stroke-opacity:1;-inkscape-stroke:none"
       d="m 3.3066406,2.71875 v 0.5957031 0.59375 l 1.609375,-0.4160156 -0.00195,0.265625 0.4082031,-0.4433594 -0.4082031,-0.4433593 0.00195,0.265625 z"
       sodipodi:nodetypes="cccccc"
       inkscape:path-effect="#path-effect2767-2"
       inkscape:original-d="M 3.3072918,3.1786174 V 3.9086818 L 4.9156121,3.4919076 4.9149462,3.7568379 5.3221134,3.313754 C 5.3190614,2.0161818 4.4533825,3.064468 3.3072918,3.1786174 Z"
       class="UnoptimicedTransforms"
       transform="matrix(2.1870217,0,0,2.6154237,12.563721,-2.0997897)" />
    <path
       id="path245-6"
       style="color:#000000;fill:url(#linearGradient3033);fill-opacity:1;stroke:none;stroke-opacity:1;-inkscape-stroke:none"
       d="m 4.4550781,2.7402344 v 0.4375 l -1.1484375,0.00781 v 0.1289062 0.1289063 l 1.1484375,0.00586 V 3.8886719 L 5.2871094,3.3144531 Z"
       sodipodi:nodetypes="cccccc"
       inkscape:path-effect="#path-effect2767-22"
       inkscape:original-d="M 3.3072918,3.1786174 V 3.442684 L 4.4557979,3.449294 4.455132,3.888363 5.287123,3.3137544 C 5.284071,2.0161818 4.4533825,3.064468 3.3072918,3.1786174 Z"
       class="UnoptimicedTransforms"
       transform="matrix(2.282774,0,0,2.6154237,-0.90174889,11.175132)" />
    <circle
       style="fill:none;fill-opacity:1;stroke:url(#linearGradient1779);stroke-width:0.79375;stroke-linecap:round;stroke-dasharray:none;stroke-opacity:1;stop-color:#000000"
       id="path3444"
       cx="33.072918"
       cy="6.614583"
       r="1.7199383" />
    <circle
       style="fill:none;stroke:url(#linearGradient1829);stroke-width:0.79375;stroke-linecap:round;stroke-dasharray:none;stroke-opacity:1;stop-color:#000000"
       id="path3444-2"
       cx="33.072918"
       cy="19.84375"
       r="1.7199383" />
    <path
       style="fill:url(#linearGradient3292);fill-opacity:1;stroke:none;stroke-width:0.264583px;stroke-linecap:butt;stroke-linejoin:miter;stroke-opacity:1"
       d="m 65.946551,0.52033913 c 0,0 -10.79496,-0.0205833 -11.745711,0.57140627 -0.20622,0.1284039 -0.685899,0.3212933 -0.809959,0.9911373 -0.333126,1.7986713 -0.05575,5.1589876 0.201465,5.7566071 0.353006,0.8201781 1.710653,2.7938832 2.40616,2.9877182 0.444294,0.123823 2.53975,0.488787 3.070618,0.531477 0.542669,0.04364 0.347865,1.590039 0.427651,1.678502 0.182178,0.201992 6.112043,-1.753995 6.112043,-1.753995 z"
       id="path3284"
       sodipodi:nodetypes="csssssscc" />
    <path
       style="color:#000000;fill:url(#linearGradient1496);fill-opacity:1;-inkscape-stroke:none"
       d="m 52.834144,0.47400921 c -5.7276,0 -9.253752,-0.0417524 -10.984535,0.22325641 -0.865391,0.13250439 -1.2914,0.33836158 -1.630463,0.71484378 -0.339063,0.3764822 -0.405879,0.8685329 -0.410156,1.4414062 v 0.00195 2.7285156 c 0,3.6590312 1.950284,5.5670698 3.866791,5.5781248 1.235439,0.0071 1.7466,0.304594 2.00689,0.620318 0.260291,0.315725 0.587097,0.738089 0.587097,1.301557 h 0.0057 c 0,-0.572354 0.333913,-1.181374 -0.07014,-1.67142 -0.404005,-0.490047 -1.006873,-0.477418 -2.314174,-0.48496 -1.565821,-0.009 -3.552919,-2.2397252 -3.552919,-5.3436198 v -2.7265625 -0.00195 c 0.0042,-0.531976 0.06537,-1.0686197 0.273437,-1.2996508 0.20842,-0.2314206 0.502809,-0.4201095 1.317963,-0.5449219 1.63031,-0.24962467 4.749728,-0.31344252 10.478516,-0.31344252 z"
       id="path401"
       sodipodi:nodetypes="cssccscsccccsccsscc" />
    <path
       style="color:#000000;fill:url(#linearGradient1508);-inkscape-stroke:none;fill-opacity:1"
       d="m 57.644104,14.425781 c -0.03857,0.0358 -0.03891,0.0433 -0.05273,0.0625 -0.01383,0.0192 -0.02917,0.04136 -0.04687,0.06836 -0.0354,0.05399 -0.08117,0.127271 -0.134766,0.216797 -0.1072,0.179051 -0.247183,0.426807 -0.404297,0.726562 -0.314228,0.599509 -0.694587,1.404739 -0.992187,2.271484 -0.2976,0.866746 -0.515134,1.792941 -0.496094,2.648438 0.01904,0.855497 0.28915,1.658297 0.976563,2.18164 1.359336,1.034896 3.601991,0.788745 5.505859,0.34375 1.002281,-0.234265 2.557734,-0.765743 2.557734,-0.765743 0,0 -0.0058,0.206402 -0.63299,1.034038 1.088934,-1.136395 1.984275,-1.800678 1.984275,-1.800678 0,0 -1.174882,-0.336182 -1.444236,-0.437083 -0.269354,-0.100902 -2.227897,-0.704512 -2.227897,-0.704512 0,0 1.601798,0.785647 1.947198,1.320108 -0.352626,0.145526 -0.46462,0.303185 -2.062057,0.676556 -1.85685,0.434005 -4.052875,0.820188 -5.176918,-0.03557 -0.554277,-0.421984 -0.945605,-1.054709 -0.962687,-1.822266 -0.01708,-0.767557 0.08351,-1.642878 0.370433,-2.478528 0.286923,-0.83565 0.660285,-1.709202 0.973702,-2.289106 l 0.21385,-0.425712 0.108466,-0.791059 z"
       id="path285"
       sodipodi:nodetypes="cssssssssccczccsssssccc" />
    <path
       style="color:#000000;fill:url(#linearGradient1496);fill-opacity:1;-inkscape-stroke:none"
       d="m 52.834144,0.47400921 c -5.7276,0 -9.253752,-0.0417524 -10.984535,0.22325641 -0.865391,0.13250439 -1.2914,0.33836158 -1.630463,0.71484378 -0.339063,0.3764822 -0.405879,0.8685329 -0.410156,1.4414062 v 0.00195 2.7285156 c 0,3.6590312 1.950284,5.5670698 3.866791,5.5781248 1.235439,0.0071 1.7466,0.304594 2.00689,0.620318 0.260291,0.315725 0.587097,0.738089 0.587097,1.301557 h 0.0057 c 0,-0.572354 0.333913,-1.181374 -0.07014,-1.67142 -0.404005,-0.490047 -1.006873,-0.477418 -2.314174,-0.48496 -1.565821,-0.009 -3.552919,-2.2397252 -3.552919,-5.3436198 v -2.7265625 -0.00195 c 0.0042,-0.531976 0.06537,-1.0686197 0.273437,-1.2996508 0.20842,-0.2314206 0.502809,-0.4201095 1.317963,-0.5449219 1.63031,-0.24962467 4.749728,-0.31344252 10.478516,-0.31344252 z"
       id="path1450"
       sodipodi:nodetypes="cssccscsccccsccsscc" />
    <path
       style="color:#000000;fill:url(#linearGradient1456);fill-opacity:1;-inkscape-stroke:none"
       d="m 52.834163,13.703051 c -5.727608,0 -9.253766,-0.04175 -10.984551,0.223257 -0.865392,0.132504 -1.291402,0.338361 -1.630465,0.714843 -0.339064,0.376483 -0.40588,0.868533 -0.410157,1.441407 v 0.002 2.728515 c 0,3.659031 1.950287,5.56707 3.866797,5.578125 1.23544,0.0071 1.746602,0.304594 2.006893,0.620318 0.260291,0.315725 0.587097,0.738089 0.587097,1.301557 h 0.0057 c 0,-0.572354 0.333914,-1.181374 -0.07014,-1.67142 -0.404005,-0.490047 -1.006874,-0.477418 -2.314177,-0.48496 -1.565823,-0.009 -3.552924,-2.239725 -3.552924,-5.34362 v -2.726562 -0.002 c 0.0042,-0.531976 0.06537,-1.06862 0.273437,-1.299651 0.20842,-0.231421 0.50281,-0.42011 1.317965,-0.544922 1.630312,-0.249625 4.749735,-0.313443 10.478531,-0.313443 z"
       id="path1454"
       sodipodi:nodetypes="cssccscsccccsccsscc" />
  </g>
</svg>
