<?xml version="1.0" encoding="UTF-8" standalone="no"?>
<!-- Created with Inkscape (http://www.inkscape.org/) -->

<svg
   width="150.24097"
   height="39.235119"
   viewBox="0 0 39.751255 10.380958"
   version="1.1"
   id="svg1327"
   inkscape:version="1.2.1 (9c6d41e410, 2022-07-14, custom)"
   sodipodi:docname="title.svg"
   inkscape:export-filename="title.png"
   inkscape:export-xdpi="500.06"
   inkscape:export-ydpi="500.06"
   xmlns:inkscape="http://www.inkscape.org/namespaces/inkscape"
   xmlns:sodipodi="http://sodipodi.sourceforge.net/DTD/sodipodi-0.dtd"
   xmlns:xlink="http://www.w3.org/1999/xlink"
   xmlns="http://www.w3.org/2000/svg"
   xmlns:svg="http://www.w3.org/2000/svg">
  <sodipodi:namedview
     id="namedview1329"
     pagecolor="#505050"
     bordercolor="#eeeeee"
     borderopacity="1"
     inkscape:showpageshadow="0"
     inkscape:pageopacity="0"
     inkscape:pagecheckerboard="0"
     inkscape:deskcolor="#505050"
     inkscape:document-units="mm"
     showgrid="false"
     inkscape:zoom="8"
     inkscape:cx="74.9375"
     inkscape:cy="2.75"
     inkscape:window-width="1920"
     inkscape:window-height="1005"
     inkscape:window-x="0"
     inkscape:window-y="0"
     inkscape:window-maximized="1"
     inkscape:current-layer="layer1" />
  <defs
     id="defs1324">
    <linearGradient
       id="linearGradient1134">
      <stop
         style="stop-color:#ec6a45;stop-opacity:1;"
         offset="0"
         id="stop1130" />
      <stop
         style="stop-color:#bb3030;stop-opacity:1;"
         offset="1"
         id="stop1132" />
    </linearGradient>
    <linearGradient
       id="linearGradient995">
      <stop
         style="stop-color:#901f3d;stop-opacity:1;"
         offset="0"
         id="stop1066" />
      <stop
         style="stop-color:#bb3030;stop-opacity:1;"
         offset="1"
         id="stop1068" />
    </linearGradient>
    <linearGradient
       inkscape:collect="always"
       id="linearGradient1424">
      <stop
         style="stop-color:#bb3030;stop-opacity:1;"
         offset="0"
         id="stop1422" />
      <stop
         style="stop-color:#901f3d;stop-opacity:1;"
         offset="1"
         id="stop1420" />
    </linearGradient>
    <linearGradient
       inkscape:collect="always"
       xlink:href="#linearGradient1424"
       id="linearGradient997"
       x1="-12.123686"
       y1="3.2324352"
       x2="16.028675"
       y2="24.848921"
       gradientUnits="userSpaceOnUse"
       gradientTransform="matrix(0.24069665,0.25212709,-0.25212709,0.24069665,23.810584,5.5822537)" />
    <linearGradient
       id="linearGradient995-1">
      <stop
         style="stop-color:#901f3d;stop-opacity:1;"
         offset="0"
         id="stop991" />
      <stop
         style="stop-color:#bb3030;stop-opacity:1;"
         offset="1"
         id="stop993" />
    </linearGradient>
    <linearGradient
       inkscape:collect="always"
       xlink:href="#linearGradient1424"
       id="linearGradient1353"
       gradientUnits="userSpaceOnUse"
       gradientTransform="matrix(-0.24069665,-0.25212709,0.25212709,-0.24069665,9.7073719,10.599541)"
       x1="-5.4034762"
       y1="35.971931"
       x2="-33.555836"
       y2="14.355447" />
    <linearGradient
       inkscape:collect="always"
       xlink:href="#linearGradient1424"
       id="linearGradient1464"
       gradientUnits="userSpaceOnUse"
       x1="22.17992"
       y1="10.837861"
       x2="23.167906"
       y2="20.002626"
       gradientTransform="matrix(1.3422045,0,0,1.3422045,-9.6925209,-11.243046)" />
    <linearGradient
       inkscape:collect="always"
       xlink:href="#linearGradient1424"
       id="linearGradient1466"
       gradientUnits="userSpaceOnUse"
       x1="28.330797"
       y1="10.613971"
       x2="29.656874"
       y2="22.914959"
       gradientTransform="translate(-8.2533278,-7.3103903)" />
    <linearGradient
       inkscape:collect="always"
       xlink:href="#linearGradient1424"
       id="linearGradient1468"
       gradientUnits="userSpaceOnUse"
       x1="28.319031"
       y1="1.6845342"
       x2="30.721977"
       y2="23.974794"
       gradientTransform="matrix(0.55185484,0,0,0.55185484,4.4494752,2.373962)" />
    <linearGradient
       inkscape:collect="always"
       xlink:href="#linearGradient1424"
       id="linearGradient1470"
       gradientUnits="userSpaceOnUse"
       x1="35.125565"
       y1="10.613971"
       x2="36.451645"
       y2="22.914959"
       gradientTransform="translate(-15.048097,-7.3103903)" />
    <linearGradient
       inkscape:collect="always"
       xlink:href="#linearGradient1424"
       id="linearGradient1472"
       gradientUnits="userSpaceOnUse"
       x1="34.247902"
       y1="10.613971"
       x2="35.573978"
       y2="22.914959"
       gradientTransform="translate(-14.170432,-7.3103903)" />
    <linearGradient
       inkscape:collect="always"
       xlink:href="#linearGradient1134"
       id="linearGradient1748"
       x1="34.058277"
       y1="3.6187301"
       x2="37.29805"
       y2="7.8183455"
       gradientUnits="userSpaceOnUse" />
    <linearGradient
       inkscape:collect="always"
       xlink:href="#linearGradient1134"
       id="linearGradient1954"
       gradientUnits="userSpaceOnUse"
       x1="34.058277"
       y1="3.6187301"
       x2="37.29805"
       y2="7.8183455" />
    <linearGradient
       inkscape:collect="always"
       xlink:href="#linearGradient1134"
       id="linearGradient1956"
       gradientUnits="userSpaceOnUse"
       x1="34.058277"
       y1="3.6187301"
       x2="37.29805"
       y2="7.8183455" />
  </defs>
  <g
     inkscape:label="Layer 1"
     inkscape:groupmode="layer"
     id="layer1"
     transform="translate(-2.3809142,-3.1692597)">
    <path
       d="m 10.278868,10.953574 c 0,-0.156255 -0.113644,-0.284099 -0.2840988,-0.284099 -0.156254,0 -0.255688,0.156254 -0.269894,0.184664 -0.198869,0.355124 -0.568198,1.022756 -1.448905,1.548339 -0.852297,0.497174 -1.63357,0.525583 -1.931873,0.525583 -0.482968,0 -1.051167,-0.127845 -1.57675,-0.468763 V 4.2062207 c 0.482968,-0.312508 1.036962,-0.468764 1.57675,-0.468764 1.207421,0 2.585302,0.610813 3.338164,1.988694 0.07103,0.127845 0.14205,0.269894 0.312508,0.269894 0.1704598,0 0.2840988,-0.142049 0.2840988,-0.284099 0,-0.284099 -1.3068538,-2.542686 -3.9347708,-2.542686 -2.485867,0 -3.963183,2.542686 -3.963183,5.156397 0,2.6705323 1.491521,5.1706033 3.963183,5.1706033 2.627917,0 3.9347708,-2.258587 3.9347708,-2.542686 z m -6.0797188,0.994347 c -1.250037,-1.363676 -1.250037,-3.3097543 -1.250037,-3.6080583 0,-0.440355 0.04261,-2.286998 1.250037,-3.622264 z"
       style="font-size:10.5833px;line-height:1.25;font-family:'Latin Modern Math';-inkscape-font-specification:'Latin Modern Math';fill:url(#linearGradient1464);fill-opacity:1;stroke-width:0.355124"
       id="path1340" />
    <path
       d="M 19.336763,10.888623 V 10.56054 c -0.550332,0 -0.814914,0 -0.825497,-0.317499 V 8.2216307 c 0,-0.910164 0,-1.238246 -0.328083,-1.619245 -0.148166,-0.179916 -0.497415,-0.391582 -1.111246,-0.391582 -0.888997,0 -1.354662,0.634998 -1.534579,1.037164 -0.148166,-0.920747 -0.93133,-1.037164 -1.407578,-1.037164 -0.772581,0 -1.269996,0.455082 -1.566329,1.111247 v -1.111247 l -1.492245,0.116417 v 0.328082 c 0.740831,0 0.825497,0.07408 0.825497,0.592665 v 2.8363243 c 0,0.476248 -0.116416,0.476248 -0.825497,0.476248 v 0.328083 l 1.195913,-0.03175 1.185329,0.03175 V 10.56054 c -0.709081,0 -0.825497,0 -0.825497,-0.476248 V 8.1369647 c 0,-1.100663 0.751414,-1.693328 1.428746,-1.693328 0.666747,0 0.783164,0.571498 0.783164,1.174746 v 2.4659093 c 0,0.476248 -0.116417,0.476248 -0.825498,0.476248 v 0.328083 l 1.195913,-0.03175 1.18533,0.03175 V 10.56054 c -0.709081,0 -0.825498,0 -0.825498,-0.476248 V 8.1369647 c 0,-1.100663 0.751415,-1.693328 1.428746,-1.693328 0.666748,0 0.783164,0.571498 0.783164,1.174746 v 2.4659093 c 0,0.476248 -0.116416,0.476248 -0.825497,0.476248 v 0.328083 l 1.195912,-0.03175 z"
       style="font-size:10.5833px;line-height:1.25;font-family:'Latin Modern Math';-inkscape-font-specification:'Latin Modern Math';fill:url(#linearGradient1466);fill-opacity:1;stroke-width:0.264583"
       id="path1342" />
    <path
       d="m 22.834882,11.155641 c 0,-0.741737 -0.566523,-1.3199413 -1.220653,-1.3199413 -0.455554,0 -0.700853,0.2569803 -0.817662,0.3854693 V 9.8356997 l -0.841024,0.06424 v 0.1810543 c 0.414671,0 0.455555,0.03504 0.455555,0.292022 v 2.733328 c 0,0.262821 -0.06425,0.262821 -0.455555,0.262821 v 0.181053 l 0.65413,-0.01752 0.65997,0.01752 v -0.181053 c -0.39131,0 -0.455555,0 -0.455555,-0.262821 V 12.12515 12.07258 c 0.0292,0.09345 0.274501,0.408832 0.718375,0.408832 0.695013,0 1.302419,-0.572364 1.302419,-1.325781 z m -0.484757,0 c 0,0.706693 -0.408831,1.197291 -0.841024,1.197291 -0.233618,0 -0.455555,-0.116809 -0.613247,-0.356267 -0.08177,-0.12265 -0.08177,-0.12849 -0.08177,-0.245299 v -1.302419 c 0.169373,-0.297863 0.455555,-0.4672363 0.753418,-0.4672363 0.426352,0 0.782619,0.5139593 0.782619,1.1739303 z"
       style="font-size:10.5833px;line-height:1.25;font-family:'Latin Modern Math';-inkscape-font-specification:'Latin Modern Math';fill:url(#linearGradient1468);fill-opacity:1;stroke-width:0.146011"
       id="path1344" />
    <path
       d="m 29.475287,9.5339597 c 0,-0.560914 -0.317499,-0.878413 -0.444499,-1.005413 -0.349249,-0.338666 -0.761997,-0.423332 -1.206496,-0.507998 -0.592665,-0.116417 -1.301746,-0.254 -1.301746,-0.867831 0,-0.370416 0.275166,-0.804331 1.18533,-0.804331 1.164163,0 1.217079,0.952497 1.238246,1.280579 0.01058,0.09525 0.127,0.09525 0.127,0.09525 0.137582,0 0.137582,-0.05292 0.137582,-0.253999 v -1.068913 c 0,-0.179916 0,-0.253999 -0.116416,-0.253999 -0.05292,0 -0.07408,0 -0.211666,0.126999 -0.03175,0.04233 -0.137583,0.137583 -0.179916,0.169333 -0.402165,-0.296332 -0.836081,-0.296332 -0.99483,-0.296332 -1.291163,0 -1.693328,0.709081 -1.693328,1.301745 0,0.370416 0.169333,0.666748 0.455082,0.899581 0.338665,0.275166 0.634998,0.338665 1.396995,0.486832 0.232833,0.04233 1.100664,0.211666 1.100664,0.973663 0,0.5397483 -0.370416,0.9630803 -1.195913,0.9630803 -0.888998,0 -1.269996,-0.603248 -1.471079,-1.5028283 -0.03175,-0.137583 -0.04233,-0.179916 -0.148166,-0.179916 -0.137583,0 -0.137583,0.07408 -0.137583,0.264582 V 10.75104 c 0,0.179916 0,0.253999 0.116416,0.253999 0.05292,0 0.0635,-0.01058 0.264583,-0.211666 0.02117,-0.02117 0.02117,-0.04233 0.211666,-0.243416 0.465665,0.444499 0.941913,0.455082 1.164163,0.455082 1.217079,0 1.703911,-0.709081 1.703911,-1.4710793 z"
       style="font-size:10.5833px;line-height:1.25;font-family:'Latin Modern Math';-inkscape-font-specification:'Latin Modern Math';fill:url(#linearGradient1470);fill-opacity:1;stroke-width:0.264583"
       id="path1346" />
    <path
       d="m 42.132168,9.6292097 c 0,-0.105833 -0.08467,-0.126999 -0.137583,-0.126999 -0.09525,0 -0.116416,0.0635 -0.137582,0.148166 -0.370416,1.0900803 -1.322913,1.0900803 -1.428746,1.0900803 -0.529165,0 -0.952497,-0.317499 -1.195913,-0.709082 C 38.914845,9.5233767 38.914845,8.8248787 38.914845,8.4438807 h 2.952741 c 0.232832,0 0.264582,0 0.264582,-0.22225 0,-1.047746 -0.571498,-2.074326 -1.89441,-2.074326 -1.227663,0 -2.201327,1.090079 -2.201327,2.412992 0,1.418162 1.111247,2.4447423 2.328326,2.4447423 1.291163,0 1.767411,-1.1747463 1.767411,-1.3758293 z m -0.698497,-1.407579 h -2.508242 c 0.0635,-1.576911 0.952496,-1.841494 1.312329,-1.841494 1.09008,0 1.195913,1.428746 1.195913,1.841494 z"
       style="font-size:10.5833px;line-height:1.25;font-family:'Latin Modern Math';-inkscape-font-specification:'Latin Modern Math';fill:url(#linearGradient1472);fill-opacity:1;stroke-width:0.264583"
       id="path1348" />
    <path
       id="path358"
       style="color:#000000;fill:url(#linearGradient997);fill-opacity:1;stroke-width:0.348573;stroke-linecap:round"
       d="m 23.877843,6.7706927 c -0.32071,1.82e-4 -0.641937,0.118436 -0.891284,0.356477 -0.514778,0.491441 -0.53377,1.3121 -0.04233,1.826878 0.356687,0.373626 0.887049,0.486504 1.347913,0.332341 l -0.05404,-0.350533 c -0.349148,0.144125 -0.764173,0.06824 -1.041692,-0.222462 -0.361358,-0.378519 -0.347717,-0.972682 0.0308,-1.334041 0.378519,-0.361359 0.972863,-0.347537 1.334223,0.03098 0.26386,0.27639 0.327787,0.667993 0.195801,0.999901 l 0.18049,-0.03116 0.17923,0.0517 c 0.126818,-0.429965 0.02709,-0.914963 -0.303516,-1.261269 -0.2534,-0.265433 -0.594195,-0.399 -0.935596,-0.398807 z m 0.850033,1.705651 c -0.02273,0.04636 -0.04956,0.0913 -0.08034,0.134197 l 0.210932,0.107177 0.06575,0.104836 c 0.07663,-0.105387 0.135491,-0.220065 0.176348,-0.339725 z m -0.105556,0.167881 c -0.02766,0.03512 -0.05818,0.06888 -0.09151,0.100693 -0.0065,0.0062 -0.01289,0.01208 -0.01945,0.01801 0.01378,0.07779 0.0362,0.208051 0.0362,0.208051 l 0.133117,0.105016 c 0.0312,-0.02468 0.06164,-0.05108 0.09097,-0.07908 0.03443,-0.03287 0.06656,-0.06722 0.09655,-0.102855 l -0.08034,-0.128793 z m -0.172205,0.169503 c -0.05366,0.04096 -0.110581,0.0755 -0.169682,0.103394 l 0.03207,0.19418 0.06034,0.04125 0.01117,0.09907 c 0.08928,-0.03768 0.175145,-0.08591 0.255785,-0.144645 l -0.143023,-0.121947 z" />
    <path
       id="path358-7"
       style="color:#000000;fill:url(#linearGradient1353);fill-opacity:1;stroke-width:0.348573;stroke-linecap:round"
       d="m 9.6401129,9.4111017 c 0.32071,-1.82e-4 0.6419371,-0.118436 0.8912841,-0.356477 0.514778,-0.491441 0.53377,-1.3121 0.04233,-1.826878 C 10.21704,6.8541207 9.6866779,6.7412427 9.2258139,6.8954057 l 0.05404,0.350533 c 0.349148,-0.144125 0.7641731,-0.06824 1.0416921,0.222462 0.361358,0.378519 0.347717,0.972682 -0.0308,1.334041 -0.3785191,0.361359 -0.9728631,0.347537 -1.3342231,-0.03098 -0.26386,-0.27639 -0.327787,-0.667993 -0.195801,-0.999901 l -0.18049,0.03116 -0.17923,-0.0517 c -0.126818,0.429965 -0.02709,0.914963 0.303516,1.261269 0.2534,0.265433 0.594195,0.399 0.935596,0.398807 z m -0.850033,-1.705651 c 0.02273,-0.04636 0.04956,-0.0913 0.08034,-0.134197 l -0.210932,-0.107177 -0.06575,-0.104836 c -0.07663,0.105387 -0.135491,0.220065 -0.176348,0.339725 z m 0.105556,-0.167881 c 0.02766,-0.03512 0.05818,-0.06888 0.09151,-0.100693 0.0065,-0.0062 0.01289,-0.01208 0.01945,-0.01801 -0.01378,-0.07779 -0.0362,-0.208051 -0.0362,-0.208051 l -0.133117,-0.105016 c -0.0312,0.02468 -0.06164,0.05108 -0.09097,0.07908 -0.03443,0.03287 -0.06656,0.06722 -0.09655,0.102855 l 0.08034,0.128793 z m 0.172205,-0.169503 c 0.05366,-0.04096 0.110581,-0.0755 0.169682,-0.103394 l -0.03206,-0.19418 -0.06034,-0.04125 -0.01117,-0.09907 c -0.08928,0.03768 -0.175145,0.08591 -0.255785,0.144645 l 0.143023,0.121947 z" />
    <g
       id="g1740"
       style="fill:url(#linearGradient1748);fill-opacity:1">
      <path
         d="m 34.983845,6.0259187 c -0.148166,-0.592665 -0.465665,-0.740831 -0.645581,-0.740831 -0.264583,0 -0.465666,0.275166 -0.402166,0.507999 0.03175,0.137583 0.105833,0.201082 0.22225,0.285749 0.148166,0.116416 0.486831,0.391582 0.613831,0.89958 0.169333,0.698498 -0.15875,2.868074 -1.492245,2.868074 -0.201083,0 -0.560915,-0.04233 -0.836081,-0.264582 -0.275166,-0.232833 -0.402165,-0.550332 -0.455082,-0.772581 -0.116416,-0.444499 -0.08467,-0.99483 0.0635,-2.158993 0.02117,-0.116416 0.04233,-0.296332 -0.01058,-0.497415 -0.116417,-0.476249 -0.550332,-0.867831 -1.079497,-0.867831 -1.005413,0 -1.015997,1.534579 -0.99483,1.629828 0.03175,0.105833 0.158749,0.105833 0.158749,0.105833 0.105833,0 0.105833,-0.02117 0.116417,-0.190499 0.03175,-1.005413 0.380998,-1.312329 0.740831,-1.312329 0.08467,0 0.264582,0 0.349249,0.338665 0.07408,0.275166 0.03175,0.539749 -0.01058,0.910164 -0.158749,1.174746 -0.137583,1.598078 -0.05292,1.915577 0.275166,1.100664 1.269996,1.3969963 2.042577,1.3969963 0.952497,0 1.365245,-0.8678313 1.513411,-1.2488293 0.444499,-1.18533 0.201083,-2.635242 0.15875,-2.804575 z"
         style="font-size:10.5833px;line-height:1.25;font-family:'Latin Modern Math';-inkscape-font-specification:'Latin Modern Math';fill:url(#linearGradient1954);fill-opacity:1;stroke-width:0.264583"
         id="path1428" />
      <path
         d="m 38.071868,4.0332927 c 0,-0.20378 -0.197411,-0.388456 -0.471241,-0.388456 -0.464873,0 -0.694125,0.426664 -0.783279,0.700494 v -0.700494 l -0.885168,0.07005 v 0.197412 c 0.445768,0 0.496713,0.04458 0.496713,0.356615 v 1.706656 c 0,0.286566 -0.07005,0.286566 -0.496713,0.286566 v 0.197412 l 0.725965,-0.0191 c 0.254725,0 0.554027,0 0.808752,0.0191 v -0.197412 h -0.133731 c -0.471241,0 -0.483977,-0.07005 -0.483977,-0.299302 v -0.980691 c 0,-0.630444 0.267461,-1.197207 0.751438,-1.197207 0.04458,0 0.05731,0 0.07005,0.0064 -0.01911,0.0064 -0.146467,0.08279 -0.146467,0.248357 0,0.178307 0.133731,0.27383 0.273829,0.27383 0.114627,0 0.273829,-0.07642 0.273829,-0.280198 z"
         style="font-size:10.5833px;line-height:1.25;font-family:'Latin Modern Math';-inkscape-font-specification:'Latin Modern Math';fill:url(#linearGradient1956);fill-opacity:1;stroke-width:0.159203"
         id="path1430" />
    </g>
  </g>
</svg>
