<?xml version="1.0" encoding="UTF-8" standalone="no"?>
<!-- Created with Inkscape (http://www.inkscape.org/) -->

<svg
   width="400"
   height="400"
   viewBox="0 0 105.83333 105.83333"
   version="1.1"
   id="svg864"
   inkscape:version="1.2.1 (9c6d41e410, 2022-07-14, custom)"
   sodipodi:docname="controller.svg"
   xmlns:inkscape="http://www.inkscape.org/namespaces/inkscape"
   xmlns:sodipodi="http://sodipodi.sourceforge.net/DTD/sodipodi-0.dtd"
   xmlns="http://www.w3.org/2000/svg"
   xmlns:svg="http://www.w3.org/2000/svg">
  <sodipodi:namedview
     id="namedview866"
     pagecolor="#ffffff"
     bordercolor="#eeeeee"
     borderopacity="1"
     inkscape:showpageshadow="0"
     inkscape:pageopacity="0"
     inkscape:pagecheckerboard="0"
     inkscape:deskcolor="#919191"
     inkscape:document-units="mm"
     showgrid="false"
     inkscape:zoom="2.5807337"
     inkscape:cx="165.84431"
     inkscape:cy="177.46891"
     inkscape:window-width="1920"
     inkscape:window-height="1005"
     inkscape:window-x="0"
     inkscape:window-y="0"
     inkscape:window-maximized="1"
     inkscape:current-layer="layer1" />
  <defs
     id="defs861">
    <inkscape:path-effect
       effect="mirror_symmetry"
       start_point="64.548322,86.35155"
       end_point="64.548322,32.09155"
       center_point="64.548322,59.22155"
       id="path-effect1140"
       is_visible="true"
       lpeversion="1.2"
       lpesatellites=""
       mode="free"
       discard_orig_path="false"
       fuse_paths="true"
       oposite_fuse="false"
       split_items="false"
       split_open="false"
       link_styles="false" />
  </defs>
  <g
     inkscape:label="Layer 1"
     inkscape:groupmode="layer"
     id="layer1">
    <path
       style="fill:#d3d3ce;fill-opacity:1;stroke:#babdb6;stroke-width:0.396875;stroke-linecap:butt;stroke-linejoin:miter;stroke-opacity:1;stroke-dasharray:none"
       d="m 52.917564,20.73403 c -4.775141,-1e-6 -26.876951,0.0054 -33.742379,6.262182 C 11.462164,34.025364 -2.7731265,82.054542 9.5494435,84.851041 21.872016,87.647548 25.336084,66.094353 31.437052,61.95242 c 5.785308,-3.927632 14.15107,-4.698385 21.480512,-4.698308 7.328719,8.2e-5 15.692977,0.770676 21.478283,4.698308 6.100974,4.141933 9.565044,25.695128 21.887609,22.898621 C 108.60603,82.054542 94.372967,34.025364 86.659936,26.996212 79.794517,20.739505 57.692696,20.73403 52.917564,20.73403 Z"
       id="path1048"
       sodipodi:nodetypes="sssssssss" />
    <circle
       style="fill:#e6e6e4;fill-opacity:1;stroke:#babdb6;stroke-width:0.396875;stroke-linecap:round;stroke-dasharray:none;stroke-opacity:1;stop-color:#000000"
       id="path1848"
       cx="64.571106"
       cy="47.666199"
       r="5.4655967" />
    <circle
       style="fill:#e6e6e4;fill-opacity:1;stroke:#babdb6;stroke-width:0.396875;stroke-linecap:round;stroke-dasharray:none;stroke-opacity:1;stop-color:#000000"
       id="path1848-3"
       cx="28.385761"
       cy="34.815205"
       r="5.4655967" />
    <path
       id="rect3435"
       style="fill:#e6e6e4;fill-opacity:1;stroke:#babdb6;stroke-width:0.396875;stroke-linecap:round;stop-color:#000000;stroke-dasharray:none;stroke-opacity:1"
       d="m 41.001744,41.839584 c -0.750986,0 -1.355815,0.604354 -1.355815,1.355338 v 2.528914 h -2.528438 c -0.750984,0 -1.355814,0.604353 -1.355814,1.355338 v 1.173575 c 0,0.750984 0.60483,1.355338 1.355814,1.355338 h 2.528438 v 2.528914 c 0,0.750984 0.604829,1.355814 1.355815,1.355814 h 1.173098 c 0.750985,0 1.355814,-0.60483 1.355814,-1.355814 v -2.528914 h 2.528915 c 0.750984,0 1.355337,-0.604354 1.355337,-1.355338 v -1.173575 c 0,-0.750985 -0.604353,-1.355338 -1.355337,-1.355338 h -2.528915 v -2.528914 c 0,-0.750984 -0.604829,-1.355338 -1.355814,-1.355338 z" />
    <g
       id="g3719"
       transform="matrix(1.099334,0,0,1.099334,-6.6884075,-3.5143537)"
       style="fill:#e6e6e4;fill-opacity:1;stroke:#babdb6;stroke-opacity:1;stroke-width:0.36101403;stroke-dasharray:none">
      <circle
         style="fill:#e6e6e4;fill-opacity:1;stroke:#babdb6;stroke-width:0.36101403;stroke-linecap:round;stroke-dasharray:none;stroke-opacity:1;stop-color:#000000"
         id="path3499"
         cx="76.016983"
         cy="39.473381"
         r="1.9092815" />
      <circle
         style="fill:#e6e6e4;fill-opacity:1;stroke:#babdb6;stroke-width:0.36101403;stroke-linecap:round;stroke-dasharray:none;stroke-opacity:1;stop-color:#000000"
         id="path3499-9"
         cx="76.016983"
         cy="30.258951"
         r="1.9092815" />
      <circle
         style="fill:#e6e6e4;fill-opacity:1;stroke:#babdb6;stroke-width:0.36101403;stroke-linecap:round;stroke-dasharray:none;stroke-opacity:1;stop-color:#000000"
         id="path3499-1"
         cx="34.866169"
         cy="-71.409775"
         r="1.9092815"
         transform="rotate(90)" />
      <circle
         style="fill:#e6e6e4;fill-opacity:1;stroke:#babdb6;stroke-width:0.36101403;stroke-linecap:round;stroke-dasharray:none;stroke-opacity:1;stop-color:#000000"
         id="path3499-9-2"
         cx="34.866169"
         cy="-80.624191"
         r="1.9092815"
         transform="rotate(90)" />
    </g>
  </g>
</svg>
